G04*
G04 #@! TF.GenerationSoftware,Altium Limited,Altium Designer,21.2.1 (34)*
G04*
G04 Layer_Color=128*
%FSLAX43Y43*%
%MOMM*%
G71*
G04*
G04 #@! TF.SameCoordinates,427E456E-B420-4228-82AE-AA47295AEFF1*
G04*
G04*
G04 #@! TF.FilePolarity,Positive*
G04*
G01*
G75*
%ADD88C,0.051*%
D88*
X102247Y46990D02*
X103747D01*
X102997Y46240D02*
Y47740D01*
X98437Y52070D02*
X99937D01*
X99187Y51320D02*
Y52820D01*
X104787Y52070D02*
X106287D01*
X105537Y51320D02*
Y52820D01*
X161375Y51435D02*
X162475D01*
X161925Y50885D02*
Y51985D01*
X158835Y51435D02*
X159935D01*
X159385Y50885D02*
Y51985D01*
X156295Y51435D02*
X157395D01*
X156845Y50885D02*
Y51985D01*
X153755Y51435D02*
X154855D01*
X154305Y50885D02*
Y51985D01*
X151215Y51435D02*
X152315D01*
X151765Y50885D02*
Y51985D01*
X148675Y51435D02*
X149775D01*
X149225Y50885D02*
Y51985D01*
X161669Y48133D02*
X162689D01*
X162179Y47623D02*
Y48643D01*
X159129Y48133D02*
X160149D01*
X159639Y47623D02*
Y48643D01*
X156589Y48133D02*
X157609D01*
X157099Y47623D02*
Y48643D01*
X154049Y48133D02*
X155069D01*
X154559Y47623D02*
Y48643D01*
X151509Y48133D02*
X152529D01*
X152019Y47623D02*
Y48643D01*
X148969Y48133D02*
X149989D01*
X149479Y47623D02*
Y48643D01*
X117348Y78867D02*
X118364D01*
X117856Y78359D02*
Y79375D01*
X117348Y81407D02*
X118364D01*
X117856Y80899D02*
Y81915D01*
X117348Y74295D02*
X118364D01*
X117856Y73787D02*
Y74803D01*
X117348Y76835D02*
X118364D01*
X117856Y76327D02*
Y77343D01*
X117348Y72009D02*
X118364D01*
X117856Y71501D02*
Y72517D01*
X117348Y69469D02*
X118364D01*
X117856Y68961D02*
Y69977D01*
X128097Y86106D02*
X129197D01*
X128647Y85556D02*
Y86656D01*
X145877Y86106D02*
X146977D01*
X146427Y85556D02*
Y86656D01*
X143337Y86106D02*
X144437D01*
X143887Y85556D02*
Y86656D01*
X140797Y86106D02*
X141897D01*
X141347Y85556D02*
Y86656D01*
X138257Y86106D02*
X139357D01*
X138807Y85556D02*
Y86656D01*
X135717Y86106D02*
X136817D01*
X136267Y85556D02*
Y86656D01*
X133177Y86106D02*
X134277D01*
X133727Y85556D02*
Y86656D01*
X130637Y86106D02*
X131737D01*
X131187Y85556D02*
Y86656D01*
X125557Y86106D02*
X126657D01*
X126107Y85556D02*
Y86656D01*
X123017Y86106D02*
X124117D01*
X123567Y85556D02*
Y86656D01*
X149056Y86106D02*
X150156D01*
X149606Y85556D02*
Y86656D01*
X151596Y86106D02*
X152696D01*
X152146Y85556D02*
Y86656D01*
X154136Y86106D02*
X155236D01*
X154686Y85556D02*
Y86656D01*
X156676Y86106D02*
X157776D01*
X157226Y85556D02*
Y86656D01*
X159216Y86106D02*
X160316D01*
X159766Y85556D02*
Y86656D01*
X161756Y86106D02*
X162856D01*
X162306Y85556D02*
Y86656D01*
X164296Y86106D02*
X165396D01*
X164846Y85556D02*
Y86656D01*
X166836Y86106D02*
X167936D01*
X167386Y85556D02*
Y86656D01*
X167380Y91313D02*
X168400D01*
X167890Y90803D02*
Y91823D01*
X164840Y91313D02*
X165860D01*
X165350Y90803D02*
Y91823D01*
X162300Y91313D02*
X163320D01*
X162810Y90803D02*
Y91823D01*
X159760Y91313D02*
X160780D01*
X160270Y90803D02*
Y91823D01*
X157220Y91313D02*
X158240D01*
X157730Y90803D02*
Y91823D01*
X154680Y91313D02*
X155700D01*
X155190Y90803D02*
Y91823D01*
X152140Y91313D02*
X153160D01*
X152650Y90803D02*
Y91823D01*
X149600Y91313D02*
X150620D01*
X150110Y90803D02*
Y91823D01*
X145921Y91313D02*
X146941D01*
X146431Y90803D02*
Y91823D01*
X143381Y91313D02*
X144401D01*
X143891Y90803D02*
Y91823D01*
X138301Y91313D02*
X139321D01*
X138811Y90803D02*
Y91823D01*
X135761Y91313D02*
X136781D01*
X136271Y90803D02*
Y91823D01*
X133221Y91313D02*
X134241D01*
X133731Y90803D02*
Y91823D01*
X130681Y91313D02*
X131701D01*
X131191Y90803D02*
Y91823D01*
X128141Y91313D02*
X129161D01*
X128651Y90803D02*
Y91823D01*
X125601Y91313D02*
X126621D01*
X126111Y90803D02*
Y91823D01*
X123061Y91313D02*
X124081D01*
X123571Y90803D02*
Y91823D01*
X140841Y91313D02*
X141861D01*
X141351Y90803D02*
Y91823D01*
X164804Y61976D02*
X165904D01*
X165354Y61426D02*
Y62526D01*
X167344Y61976D02*
X168444D01*
X167894Y61426D02*
Y62526D01*
X169884Y61976D02*
X170984D01*
X170434Y61426D02*
Y62526D01*
X164804Y59436D02*
X165904D01*
X165354Y58886D02*
Y59986D01*
X167344Y59436D02*
X168444D01*
X167894Y58886D02*
Y59986D01*
X169884Y59436D02*
X170984D01*
X170434Y58886D02*
Y59986D01*
X171448Y47752D02*
X172468D01*
X171958Y47242D02*
Y48262D01*
X171448Y50292D02*
X172468D01*
X171958Y49782D02*
Y50802D01*
X171448Y52832D02*
X172468D01*
X171958Y52322D02*
Y53342D01*
X171448Y55372D02*
X172468D01*
X171958Y54862D02*
Y55882D01*
X168273Y55372D02*
X169293D01*
X168783Y54862D02*
Y55882D01*
X168273Y52832D02*
X169293D01*
X168783Y52322D02*
Y53342D01*
X168273Y50292D02*
X169293D01*
X168783Y49782D02*
Y50802D01*
X168273Y47752D02*
X169293D01*
X168783Y47242D02*
Y48262D01*
X164971Y55372D02*
X165991D01*
X165481Y54862D02*
Y55882D01*
X164971Y52832D02*
X165991D01*
X165481Y52322D02*
Y53342D01*
X164971Y50292D02*
X165991D01*
X165481Y49782D02*
Y50802D01*
X164971Y47752D02*
X165991D01*
X165481Y47242D02*
Y48262D01*
X145159Y48133D02*
X146179D01*
X145669Y47623D02*
Y48643D01*
X142619Y48133D02*
X143639D01*
X143129Y47623D02*
Y48643D01*
X140079Y48133D02*
X141099D01*
X140589Y47623D02*
Y48643D01*
X137539Y48133D02*
X138559D01*
X138049Y47623D02*
Y48643D01*
X134999Y48133D02*
X136019D01*
X135509Y47623D02*
Y48643D01*
X132459Y48133D02*
X133479D01*
X132969Y47623D02*
Y48643D01*
X129919Y48133D02*
X130939D01*
X130429Y47623D02*
Y48643D01*
X127379Y48133D02*
X128399D01*
X127889Y47623D02*
Y48643D01*
X101344Y70485D02*
X102364D01*
X101854Y69975D02*
Y70995D01*
X103884Y70485D02*
X104904D01*
X104394Y69975D02*
Y70995D01*
X106424Y70485D02*
X107444D01*
X106934Y69975D02*
Y70995D01*
X108964Y70485D02*
X109984D01*
X109474Y69975D02*
Y70995D01*
X127847Y51562D02*
X128947D01*
X128397Y51012D02*
Y52112D01*
X130387Y51562D02*
X131487D01*
X130937Y51012D02*
Y52112D01*
X132927Y51562D02*
X134027D01*
X133477Y51012D02*
Y52112D01*
X135467Y51562D02*
X136567D01*
X136017Y51012D02*
Y52112D01*
X138007Y51562D02*
X139107D01*
X138557Y51012D02*
Y52112D01*
X140547Y51562D02*
X141647D01*
X141097Y51012D02*
Y52112D01*
X143087Y51562D02*
X144187D01*
X143637Y51012D02*
Y52112D01*
X145627Y51562D02*
X146727D01*
X146177Y51012D02*
Y52112D01*
X171577Y84201D02*
X172339D01*
X171958Y83820D02*
Y84582D01*
X111506Y44831D02*
X112268D01*
X111887Y44450D02*
Y45212D01*
X120269Y91059D02*
X121031D01*
X120650Y90678D02*
Y91440D01*
X112459Y90805D02*
X112840D01*
X112649Y90615D02*
Y90995D01*
X113855Y84943D02*
X114237D01*
X114046Y84753D02*
Y85133D01*
X125159Y45466D02*
X125539D01*
X125349Y45276D02*
Y45657D01*
X121856Y55372D02*
X122238D01*
X122047Y55181D02*
Y55562D01*
X105263Y63329D02*
X105644D01*
X105454Y63139D02*
Y63520D01*
X115507Y78359D02*
X115887D01*
X115697Y78169D02*
Y78549D01*
X111824Y75819D02*
X112204D01*
X112014Y75629D02*
Y76009D01*
X123127Y56515D02*
X123507D01*
X123317Y56325D02*
Y56706D01*
X123127Y66294D02*
X123507D01*
X123317Y66104D02*
Y66484D01*
X123761Y67437D02*
X124143D01*
X123952Y67246D02*
Y67628D01*
X108627Y80221D02*
X109008D01*
X108817Y80030D02*
Y80411D01*
X165865Y73472D02*
X166246D01*
X166055Y73282D02*
Y73663D01*
X149923Y76835D02*
X150305D01*
X150114Y76645D02*
Y77025D01*
X150051Y68961D02*
X150432D01*
X150241Y68771D02*
Y69151D01*
X138240Y67691D02*
X138620D01*
X138430Y67501D02*
Y67882D01*
X115385Y63647D02*
X115766D01*
X115575Y63456D02*
Y63837D01*
X116147Y59817D02*
X116528D01*
X116337Y59626D02*
Y60007D01*
X102679Y60833D02*
X103061D01*
X102870Y60643D02*
Y61023D01*
X115874Y82857D02*
X116255D01*
X116064Y82667D02*
Y83048D01*
X118407Y49792D02*
X118787D01*
X118597Y49602D02*
Y49982D01*
X114237Y59817D02*
X114618D01*
X114427Y59626D02*
Y60007D01*
X112586Y55274D02*
X112966D01*
X112776Y55083D02*
Y55465D01*
X112523Y63319D02*
X112904D01*
X112714Y63128D02*
Y63509D01*
X100393Y72390D02*
X100774D01*
X100584Y72200D02*
Y72580D01*
X104203Y86106D02*
X104585D01*
X104394Y85915D02*
Y86297D01*
X116205Y72009D02*
X116586D01*
X116396Y71818D02*
Y72200D01*
X100394Y80010D02*
X100774D01*
X100584Y79820D02*
Y80201D01*
X98869Y85979D02*
X99251D01*
X99060Y85788D02*
Y86170D01*
X108395Y90805D02*
X108775D01*
X108585Y90615D02*
Y90995D01*
X125666Y53975D02*
X126048D01*
X125857Y53785D02*
Y54166D01*
X126937Y59182D02*
X127317D01*
X127127Y58992D02*
Y59373D01*
X106363Y60960D02*
X106743D01*
X106553Y60770D02*
Y61151D01*
X141796Y73152D02*
X142176D01*
X141986Y72962D02*
Y73342D01*
X143827Y73025D02*
X144208D01*
X144018Y72835D02*
Y73215D01*
X138240Y72898D02*
X138620D01*
X138430Y72707D02*
Y73089D01*
X115887Y93980D02*
X116269D01*
X116078Y93789D02*
Y94171D01*
X134684Y72898D02*
X135064D01*
X134874Y72707D02*
Y73089D01*
X134684Y75502D02*
X135064D01*
X134874Y75311D02*
Y75692D01*
X161354Y77343D02*
X161734D01*
X161544Y77152D02*
Y77534D01*
X155639Y65786D02*
X156020D01*
X155829Y65595D02*
Y65977D01*
X152083Y67564D02*
X152464D01*
X152273Y67373D02*
Y67755D01*
X151447Y68453D02*
X151829D01*
X151638Y68262D02*
Y68644D01*
X150939Y69850D02*
X151320D01*
X151130Y69660D02*
Y70040D01*
X144971Y68326D02*
X145352D01*
X145161Y68135D02*
Y68517D01*
X137223Y77470D02*
X137605D01*
X137414Y77280D02*
Y77660D01*
X137986Y46355D02*
X138367D01*
X138176Y46165D02*
Y46546D01*
X142557Y72136D02*
X142939D01*
X142748Y71946D02*
Y72326D01*
X95440Y88773D02*
X95822D01*
X95631Y88582D02*
Y88964D01*
X123888Y70612D02*
X124270D01*
X124079Y70422D02*
Y70802D01*
X110299Y58674D02*
X110680D01*
X110490Y58484D02*
Y58864D01*
X111315Y56261D02*
X111697D01*
X111506Y56070D02*
Y56451D01*
X119316Y56388D02*
X119698D01*
X119507Y56197D02*
Y56578D01*
X139128Y80264D02*
X139510D01*
X139319Y80074D02*
Y80454D01*
X164402Y69977D02*
X164783D01*
X164592Y69786D02*
Y70168D01*
X159702Y69977D02*
X160083D01*
X159893Y69786D02*
Y70168D01*
X154876Y69977D02*
X155258D01*
X155067Y69786D02*
Y70168D01*
X166434Y65913D02*
X166814D01*
X166624Y65723D02*
Y66104D01*
X154115Y77851D02*
X154495D01*
X154305Y77660D02*
Y78041D01*
X152717Y72009D02*
X153098D01*
X152908Y71818D02*
Y72200D01*
X151447Y72009D02*
X151829D01*
X151638Y71818D02*
Y72200D01*
X152717Y77724D02*
X153098D01*
X152908Y77534D02*
Y77914D01*
X139128Y73660D02*
X139510D01*
X139319Y73469D02*
Y73851D01*
X131889Y62611D02*
X132270D01*
X132080Y62421D02*
Y62801D01*
M02*
