G04*
G04 #@! TF.GenerationSoftware,Altium Limited,Altium Designer,21.2.1 (34)*
G04*
G04 Layer_Physical_Order=2*
G04 Layer_Color=16711680*
%FSLAX43Y43*%
%MOMM*%
G71*
G04*
G04 #@! TF.SameCoordinates,427E456E-B420-4228-82AE-AA47295AEFF1*
G04*
G04*
G04 #@! TF.FilePolarity,Positive*
G04*
G01*
G75*
%ADD12C,0.508*%
%ADD20C,0.254*%
%ADD72R,4.064X2.540*%
%ADD73R,2.540X4.064*%
%ADD74R,1.600X1.600*%
%ADD75C,1.600*%
%ADD76R,1.520X1.520*%
%ADD77C,1.520*%
%ADD78P,1.787X8X112.5*%
%ADD79C,1.651*%
%ADD80R,1.520X1.520*%
%ADD81C,1.524*%
%ADD82C,0.762*%
G36*
X173856Y94015D02*
Y44314D01*
Y43949D01*
X112622D01*
X112569Y44076D01*
X112700Y44207D01*
X112834Y44439D01*
X112903Y44697D01*
Y44965D01*
X112834Y45223D01*
X112700Y45455D01*
X112511Y45644D01*
X112279Y45778D01*
X112021Y45847D01*
X111753D01*
X111495Y45778D01*
X111263Y45644D01*
X111074Y45455D01*
X110940Y45223D01*
X110871Y44965D01*
Y44697D01*
X110940Y44439D01*
X111074Y44207D01*
X111205Y44076D01*
X111152Y43949D01*
X91828D01*
Y45466D01*
Y92710D01*
Y94735D01*
X115934D01*
X115952Y94615D01*
X115718Y94518D01*
X115540Y94340D01*
X115443Y94106D01*
Y93854D01*
X115540Y93620D01*
X115683Y93477D01*
Y83374D01*
X115526Y83217D01*
X115429Y82984D01*
Y82731D01*
X115526Y82497D01*
X115705Y82319D01*
X115938Y82222D01*
X116191D01*
X116424Y82319D01*
X116603Y82497D01*
X116699Y82731D01*
Y82984D01*
X116603Y83217D01*
X116460Y83360D01*
Y93464D01*
X116616Y93620D01*
X116713Y93854D01*
Y94106D01*
X116616Y94340D01*
X116438Y94518D01*
X116204Y94615D01*
X116222Y94735D01*
X173856D01*
Y94015D01*
D02*
G37*
%LPC*%
G36*
X131324Y92327D02*
X131318D01*
Y91440D01*
X132205D01*
Y91446D01*
X132136Y91704D01*
X132002Y91936D01*
X131814Y92124D01*
X131582Y92258D01*
X131324Y92327D01*
D02*
G37*
G36*
X131064D02*
X131058D01*
X130800Y92258D01*
X130568Y92124D01*
X130380Y91936D01*
X130246Y91704D01*
X130177Y91446D01*
Y91440D01*
X131064D01*
Y92327D01*
D02*
G37*
G36*
X112522Y91440D02*
X112289Y91343D01*
X112139Y91193D01*
X109095D01*
X108945Y91343D01*
X108712Y91440D01*
Y90805D01*
X108585D01*
Y90678D01*
X107950D01*
X108047Y90445D01*
X108225Y90267D01*
X108429Y90182D01*
Y80730D01*
X108279Y80580D01*
X108204Y80398D01*
X101094D01*
X100944Y80548D01*
X100711Y80645D01*
Y80010D01*
X100584D01*
Y79883D01*
X99949D01*
X100046Y79650D01*
X100196Y79500D01*
Y72900D01*
X100046Y72750D01*
X99949Y72517D01*
X101219D01*
X101122Y72750D01*
X100972Y72900D01*
Y79500D01*
X101094Y79622D01*
X108469D01*
X108560Y79640D01*
X108690Y79586D01*
Y80221D01*
X108817D01*
Y80348D01*
X109452D01*
X109356Y80580D01*
X109206Y80730D01*
Y90417D01*
X112139D01*
X112289Y90267D01*
X112522Y90170D01*
Y90805D01*
Y91440D01*
D02*
G37*
G36*
X112776D02*
Y90932D01*
X113284D01*
X113187Y91165D01*
X113009Y91343D01*
X112776Y91440D01*
D02*
G37*
G36*
X108458D02*
X108225Y91343D01*
X108047Y91165D01*
X107950Y90932D01*
X108458D01*
Y91440D01*
D02*
G37*
G36*
X168904Y92327D02*
X166876D01*
Y90299D01*
X168904D01*
Y92327D01*
D02*
G37*
G36*
X165484D02*
X165217D01*
X164959Y92258D01*
X164728Y92124D01*
X164539Y91936D01*
X164405Y91704D01*
X164336Y91446D01*
Y91180D01*
X164405Y90922D01*
X164539Y90690D01*
X164728Y90502D01*
X164959Y90368D01*
X165217Y90299D01*
X165484D01*
X165742Y90368D01*
X165973Y90502D01*
X166162Y90690D01*
X166295Y90922D01*
X166364Y91180D01*
Y91446D01*
X166295Y91704D01*
X166162Y91936D01*
X165973Y92124D01*
X165742Y92258D01*
X165484Y92327D01*
D02*
G37*
G36*
X162944D02*
X162677D01*
X162419Y92258D01*
X162188Y92124D01*
X161999Y91936D01*
X161865Y91704D01*
X161796Y91446D01*
Y91180D01*
X161865Y90922D01*
X161999Y90690D01*
X162188Y90502D01*
X162419Y90368D01*
X162677Y90299D01*
X162944D01*
X163202Y90368D01*
X163433Y90502D01*
X163622Y90690D01*
X163755Y90922D01*
X163824Y91180D01*
Y91446D01*
X163755Y91704D01*
X163622Y91936D01*
X163433Y92124D01*
X163202Y92258D01*
X162944Y92327D01*
D02*
G37*
G36*
X160404D02*
X160137D01*
X159879Y92258D01*
X159648Y92124D01*
X159459Y91936D01*
X159325Y91704D01*
X159256Y91446D01*
Y91180D01*
X159325Y90922D01*
X159459Y90690D01*
X159648Y90502D01*
X159879Y90368D01*
X160137Y90299D01*
X160404D01*
X160662Y90368D01*
X160893Y90502D01*
X161082Y90690D01*
X161215Y90922D01*
X161284Y91180D01*
Y91446D01*
X161215Y91704D01*
X161082Y91936D01*
X160893Y92124D01*
X160662Y92258D01*
X160404Y92327D01*
D02*
G37*
G36*
X157864D02*
X157597D01*
X157339Y92258D01*
X157108Y92124D01*
X156919Y91936D01*
X156785Y91704D01*
X156716Y91446D01*
Y91180D01*
X156785Y90922D01*
X156919Y90690D01*
X157108Y90502D01*
X157339Y90368D01*
X157597Y90299D01*
X157864D01*
X158122Y90368D01*
X158353Y90502D01*
X158542Y90690D01*
X158675Y90922D01*
X158744Y91180D01*
Y91446D01*
X158675Y91704D01*
X158542Y91936D01*
X158353Y92124D01*
X158122Y92258D01*
X157864Y92327D01*
D02*
G37*
G36*
X155324D02*
X155057D01*
X154799Y92258D01*
X154568Y92124D01*
X154379Y91936D01*
X154245Y91704D01*
X154176Y91446D01*
Y91180D01*
X154245Y90922D01*
X154379Y90690D01*
X154568Y90502D01*
X154799Y90368D01*
X155057Y90299D01*
X155324D01*
X155582Y90368D01*
X155813Y90502D01*
X156002Y90690D01*
X156135Y90922D01*
X156204Y91180D01*
Y91446D01*
X156135Y91704D01*
X156002Y91936D01*
X155813Y92124D01*
X155582Y92258D01*
X155324Y92327D01*
D02*
G37*
G36*
X152784D02*
X152517D01*
X152259Y92258D01*
X152028Y92124D01*
X151839Y91936D01*
X151705Y91704D01*
X151636Y91446D01*
Y91180D01*
X151705Y90922D01*
X151839Y90690D01*
X152028Y90502D01*
X152259Y90368D01*
X152517Y90299D01*
X152784D01*
X153042Y90368D01*
X153273Y90502D01*
X153462Y90690D01*
X153595Y90922D01*
X153664Y91180D01*
Y91446D01*
X153595Y91704D01*
X153462Y91936D01*
X153273Y92124D01*
X153042Y92258D01*
X152784Y92327D01*
D02*
G37*
G36*
X150244D02*
X149977D01*
X149719Y92258D01*
X149488Y92124D01*
X149299Y91936D01*
X149165Y91704D01*
X149096Y91446D01*
Y91180D01*
X149165Y90922D01*
X149299Y90690D01*
X149488Y90502D01*
X149719Y90368D01*
X149977Y90299D01*
X150244D01*
X150502Y90368D01*
X150733Y90502D01*
X150922Y90690D01*
X151055Y90922D01*
X151124Y91180D01*
Y91446D01*
X151055Y91704D01*
X150922Y91936D01*
X150733Y92124D01*
X150502Y92258D01*
X150244Y92327D01*
D02*
G37*
G36*
X147445D02*
X145417D01*
Y90299D01*
X147445D01*
Y92327D01*
D02*
G37*
G36*
X144024D02*
X143758D01*
X143500Y92258D01*
X143268Y92124D01*
X143080Y91936D01*
X142946Y91704D01*
X142877Y91446D01*
Y91180D01*
X142946Y90922D01*
X143080Y90690D01*
X143268Y90502D01*
X143500Y90368D01*
X143758Y90299D01*
X144024D01*
X144282Y90368D01*
X144514Y90502D01*
X144702Y90690D01*
X144836Y90922D01*
X144905Y91180D01*
Y91446D01*
X144836Y91704D01*
X144702Y91936D01*
X144514Y92124D01*
X144282Y92258D01*
X144024Y92327D01*
D02*
G37*
G36*
X141484D02*
X141218D01*
X140960Y92258D01*
X140728Y92124D01*
X140540Y91936D01*
X140406Y91704D01*
X140337Y91446D01*
Y91180D01*
X140406Y90922D01*
X140540Y90690D01*
X140728Y90502D01*
X140960Y90368D01*
X141218Y90299D01*
X141484D01*
X141742Y90368D01*
X141974Y90502D01*
X142162Y90690D01*
X142296Y90922D01*
X142365Y91180D01*
Y91446D01*
X142296Y91704D01*
X142162Y91936D01*
X141974Y92124D01*
X141742Y92258D01*
X141484Y92327D01*
D02*
G37*
G36*
X138944D02*
X138678D01*
X138420Y92258D01*
X138188Y92124D01*
X138000Y91936D01*
X137866Y91704D01*
X137797Y91446D01*
Y91180D01*
X137866Y90922D01*
X138000Y90690D01*
X138188Y90502D01*
X138420Y90368D01*
X138678Y90299D01*
X138944D01*
X139202Y90368D01*
X139434Y90502D01*
X139622Y90690D01*
X139756Y90922D01*
X139825Y91180D01*
Y91446D01*
X139756Y91704D01*
X139622Y91936D01*
X139434Y92124D01*
X139202Y92258D01*
X138944Y92327D01*
D02*
G37*
G36*
X136404D02*
X136138D01*
X135880Y92258D01*
X135648Y92124D01*
X135460Y91936D01*
X135326Y91704D01*
X135257Y91446D01*
Y91180D01*
X135326Y90922D01*
X135460Y90690D01*
X135648Y90502D01*
X135880Y90368D01*
X136138Y90299D01*
X136404D01*
X136662Y90368D01*
X136894Y90502D01*
X137082Y90690D01*
X137216Y90922D01*
X137285Y91180D01*
Y91446D01*
X137216Y91704D01*
X137082Y91936D01*
X136894Y92124D01*
X136662Y92258D01*
X136404Y92327D01*
D02*
G37*
G36*
X133864D02*
X133598D01*
X133340Y92258D01*
X133108Y92124D01*
X132920Y91936D01*
X132786Y91704D01*
X132717Y91446D01*
Y91180D01*
X132786Y90922D01*
X132920Y90690D01*
X133108Y90502D01*
X133340Y90368D01*
X133598Y90299D01*
X133864D01*
X134122Y90368D01*
X134354Y90502D01*
X134542Y90690D01*
X134676Y90922D01*
X134745Y91180D01*
Y91446D01*
X134676Y91704D01*
X134542Y91936D01*
X134354Y92124D01*
X134122Y92258D01*
X133864Y92327D01*
D02*
G37*
G36*
X132205Y91186D02*
X131318D01*
Y90299D01*
X131324D01*
X131582Y90368D01*
X131814Y90502D01*
X132002Y90690D01*
X132136Y90922D01*
X132205Y91180D01*
Y91186D01*
D02*
G37*
G36*
X131064D02*
X130177D01*
Y91180D01*
X130246Y90922D01*
X130380Y90690D01*
X130568Y90502D01*
X130800Y90368D01*
X131058Y90299D01*
X131064D01*
Y91186D01*
D02*
G37*
G36*
X128784Y92327D02*
X128518D01*
X128260Y92258D01*
X128028Y92124D01*
X127840Y91936D01*
X127706Y91704D01*
X127637Y91446D01*
Y91180D01*
X127706Y90922D01*
X127840Y90690D01*
X128028Y90502D01*
X128260Y90368D01*
X128518Y90299D01*
X128784D01*
X129042Y90368D01*
X129274Y90502D01*
X129462Y90690D01*
X129596Y90922D01*
X129665Y91180D01*
Y91446D01*
X129596Y91704D01*
X129462Y91936D01*
X129274Y92124D01*
X129042Y92258D01*
X128784Y92327D01*
D02*
G37*
G36*
X126244D02*
X125978D01*
X125720Y92258D01*
X125488Y92124D01*
X125300Y91936D01*
X125166Y91704D01*
X125097Y91446D01*
Y91180D01*
X125166Y90922D01*
X125300Y90690D01*
X125488Y90502D01*
X125720Y90368D01*
X125978Y90299D01*
X126244D01*
X126502Y90368D01*
X126734Y90502D01*
X126922Y90690D01*
X127056Y90922D01*
X127125Y91180D01*
Y91446D01*
X127056Y91704D01*
X126922Y91936D01*
X126734Y92124D01*
X126502Y92258D01*
X126244Y92327D01*
D02*
G37*
G36*
X123704D02*
X123438D01*
X123180Y92258D01*
X122948Y92124D01*
X122760Y91936D01*
X122626Y91704D01*
X122557Y91446D01*
Y91180D01*
X122626Y90922D01*
X122760Y90690D01*
X122948Y90502D01*
X123180Y90368D01*
X123438Y90299D01*
X123704D01*
X123962Y90368D01*
X124194Y90502D01*
X124382Y90690D01*
X124516Y90922D01*
X124585Y91180D01*
Y91446D01*
X124516Y91704D01*
X124382Y91936D01*
X124194Y92124D01*
X123962Y92258D01*
X123704Y92327D01*
D02*
G37*
G36*
X113284Y90678D02*
X112776D01*
Y90170D01*
X113009Y90267D01*
X113187Y90445D01*
X113284Y90678D01*
D02*
G37*
G36*
X120784Y92075D02*
X120516D01*
X120258Y92006D01*
X120026Y91872D01*
X119837Y91683D01*
X119703Y91451D01*
X119634Y91193D01*
Y90925D01*
X119703Y90667D01*
X119837Y90435D01*
X120026Y90246D01*
X120258Y90112D01*
X120516Y90043D01*
X120784D01*
X121042Y90112D01*
X121274Y90246D01*
X121463Y90435D01*
X121597Y90667D01*
X121666Y90925D01*
Y91193D01*
X121597Y91451D01*
X121463Y91683D01*
X121274Y91872D01*
X121042Y92006D01*
X120784Y92075D01*
D02*
G37*
G36*
X104520Y86741D02*
X104268D01*
X104034Y86644D01*
X103856Y86466D01*
X103841Y86431D01*
X99506D01*
X99420Y86517D01*
X99186Y86614D01*
X98934D01*
X98700Y86517D01*
X98522Y86339D01*
X98425Y86105D01*
Y85853D01*
X98522Y85619D01*
X98700Y85441D01*
X98934Y85344D01*
X99186D01*
X99420Y85441D01*
X99598Y85619D01*
X99613Y85654D01*
X103948D01*
X104034Y85568D01*
X104268Y85471D01*
X104520D01*
X104754Y85568D01*
X104932Y85746D01*
X105029Y85980D01*
Y86232D01*
X104932Y86466D01*
X104754Y86644D01*
X104520Y86741D01*
D02*
G37*
G36*
X131326Y87160D02*
X131314D01*
Y86233D01*
X132241D01*
Y86245D01*
X132169Y86513D01*
X132030Y86753D01*
X131834Y86949D01*
X131594Y87088D01*
X131326Y87160D01*
D02*
G37*
G36*
X131060D02*
X131048D01*
X130780Y87088D01*
X130540Y86949D01*
X130343Y86753D01*
X130205Y86513D01*
X130133Y86245D01*
Y86233D01*
X131060D01*
Y87160D01*
D02*
G37*
G36*
X167525D02*
X167247D01*
X166979Y87088D01*
X166739Y86949D01*
X166543Y86753D01*
X166404Y86513D01*
X166332Y86245D01*
Y85967D01*
X166404Y85699D01*
X166543Y85459D01*
X166739Y85263D01*
X166979Y85124D01*
X167247Y85052D01*
X167525D01*
X167793Y85124D01*
X168033Y85263D01*
X168229Y85459D01*
X168368Y85699D01*
X168440Y85967D01*
Y86245D01*
X168368Y86513D01*
X168229Y86753D01*
X168033Y86949D01*
X167793Y87088D01*
X167525Y87160D01*
D02*
G37*
G36*
X164985D02*
X164707D01*
X164439Y87088D01*
X164199Y86949D01*
X164003Y86753D01*
X163864Y86513D01*
X163792Y86245D01*
Y85967D01*
X163864Y85699D01*
X164003Y85459D01*
X164199Y85263D01*
X164439Y85124D01*
X164707Y85052D01*
X164985D01*
X165253Y85124D01*
X165493Y85263D01*
X165689Y85459D01*
X165828Y85699D01*
X165900Y85967D01*
Y86245D01*
X165828Y86513D01*
X165689Y86753D01*
X165493Y86949D01*
X165253Y87088D01*
X164985Y87160D01*
D02*
G37*
G36*
X162445D02*
X162167D01*
X161899Y87088D01*
X161659Y86949D01*
X161463Y86753D01*
X161324Y86513D01*
X161252Y86245D01*
Y85967D01*
X161324Y85699D01*
X161463Y85459D01*
X161659Y85263D01*
X161899Y85124D01*
X162167Y85052D01*
X162445D01*
X162713Y85124D01*
X162953Y85263D01*
X163149Y85459D01*
X163288Y85699D01*
X163360Y85967D01*
Y86245D01*
X163288Y86513D01*
X163149Y86753D01*
X162953Y86949D01*
X162713Y87088D01*
X162445Y87160D01*
D02*
G37*
G36*
X159905D02*
X159627D01*
X159359Y87088D01*
X159119Y86949D01*
X158923Y86753D01*
X158784Y86513D01*
X158712Y86245D01*
Y85967D01*
X158784Y85699D01*
X158923Y85459D01*
X159119Y85263D01*
X159359Y85124D01*
X159627Y85052D01*
X159905D01*
X160173Y85124D01*
X160413Y85263D01*
X160609Y85459D01*
X160748Y85699D01*
X160820Y85967D01*
Y86245D01*
X160748Y86513D01*
X160609Y86753D01*
X160413Y86949D01*
X160173Y87088D01*
X159905Y87160D01*
D02*
G37*
G36*
X157365D02*
X157087D01*
X156819Y87088D01*
X156579Y86949D01*
X156383Y86753D01*
X156244Y86513D01*
X156172Y86245D01*
Y85967D01*
X156244Y85699D01*
X156383Y85459D01*
X156579Y85263D01*
X156819Y85124D01*
X157087Y85052D01*
X157365D01*
X157633Y85124D01*
X157873Y85263D01*
X158069Y85459D01*
X158208Y85699D01*
X158280Y85967D01*
Y86245D01*
X158208Y86513D01*
X158069Y86753D01*
X157873Y86949D01*
X157633Y87088D01*
X157365Y87160D01*
D02*
G37*
G36*
X154825D02*
X154547D01*
X154279Y87088D01*
X154039Y86949D01*
X153843Y86753D01*
X153704Y86513D01*
X153632Y86245D01*
Y85967D01*
X153704Y85699D01*
X153843Y85459D01*
X154039Y85263D01*
X154279Y85124D01*
X154547Y85052D01*
X154825D01*
X155093Y85124D01*
X155333Y85263D01*
X155529Y85459D01*
X155668Y85699D01*
X155740Y85967D01*
Y86245D01*
X155668Y86513D01*
X155529Y86753D01*
X155333Y86949D01*
X155093Y87088D01*
X154825Y87160D01*
D02*
G37*
G36*
X152285D02*
X152007D01*
X151739Y87088D01*
X151499Y86949D01*
X151303Y86753D01*
X151164Y86513D01*
X151092Y86245D01*
Y85967D01*
X151164Y85699D01*
X151303Y85459D01*
X151499Y85263D01*
X151739Y85124D01*
X152007Y85052D01*
X152285D01*
X152553Y85124D01*
X152793Y85263D01*
X152989Y85459D01*
X153128Y85699D01*
X153200Y85967D01*
Y86245D01*
X153128Y86513D01*
X152989Y86753D01*
X152793Y86949D01*
X152553Y87088D01*
X152285Y87160D01*
D02*
G37*
G36*
X150660D02*
X148552D01*
Y85052D01*
X150660D01*
Y87160D01*
D02*
G37*
G36*
X146566D02*
X146288D01*
X146020Y87088D01*
X145780Y86949D01*
X145583Y86753D01*
X145445Y86513D01*
X145373Y86245D01*
Y85967D01*
X145445Y85699D01*
X145583Y85459D01*
X145780Y85263D01*
X146020Y85124D01*
X146288Y85052D01*
X146566D01*
X146834Y85124D01*
X147074Y85263D01*
X147270Y85459D01*
X147409Y85699D01*
X147481Y85967D01*
Y86245D01*
X147409Y86513D01*
X147270Y86753D01*
X147074Y86949D01*
X146834Y87088D01*
X146566Y87160D01*
D02*
G37*
G36*
X144026D02*
X143748D01*
X143480Y87088D01*
X143240Y86949D01*
X143043Y86753D01*
X142905Y86513D01*
X142833Y86245D01*
Y85967D01*
X142905Y85699D01*
X143043Y85459D01*
X143240Y85263D01*
X143480Y85124D01*
X143748Y85052D01*
X144026D01*
X144294Y85124D01*
X144534Y85263D01*
X144730Y85459D01*
X144869Y85699D01*
X144941Y85967D01*
Y86245D01*
X144869Y86513D01*
X144730Y86753D01*
X144534Y86949D01*
X144294Y87088D01*
X144026Y87160D01*
D02*
G37*
G36*
X141486D02*
X141208D01*
X140940Y87088D01*
X140700Y86949D01*
X140503Y86753D01*
X140365Y86513D01*
X140293Y86245D01*
Y85967D01*
X140365Y85699D01*
X140503Y85459D01*
X140700Y85263D01*
X140940Y85124D01*
X141208Y85052D01*
X141486D01*
X141754Y85124D01*
X141994Y85263D01*
X142190Y85459D01*
X142329Y85699D01*
X142401Y85967D01*
Y86245D01*
X142329Y86513D01*
X142190Y86753D01*
X141994Y86949D01*
X141754Y87088D01*
X141486Y87160D01*
D02*
G37*
G36*
X138946D02*
X138668D01*
X138400Y87088D01*
X138160Y86949D01*
X137963Y86753D01*
X137825Y86513D01*
X137753Y86245D01*
Y85967D01*
X137825Y85699D01*
X137963Y85459D01*
X138160Y85263D01*
X138400Y85124D01*
X138668Y85052D01*
X138946D01*
X139214Y85124D01*
X139454Y85263D01*
X139650Y85459D01*
X139789Y85699D01*
X139861Y85967D01*
Y86245D01*
X139789Y86513D01*
X139650Y86753D01*
X139454Y86949D01*
X139214Y87088D01*
X138946Y87160D01*
D02*
G37*
G36*
X136406D02*
X136128D01*
X135860Y87088D01*
X135620Y86949D01*
X135423Y86753D01*
X135285Y86513D01*
X135213Y86245D01*
Y85967D01*
X135285Y85699D01*
X135423Y85459D01*
X135620Y85263D01*
X135860Y85124D01*
X136128Y85052D01*
X136406D01*
X136674Y85124D01*
X136914Y85263D01*
X137110Y85459D01*
X137249Y85699D01*
X137321Y85967D01*
Y86245D01*
X137249Y86513D01*
X137110Y86753D01*
X136914Y86949D01*
X136674Y87088D01*
X136406Y87160D01*
D02*
G37*
G36*
X133866D02*
X133588D01*
X133320Y87088D01*
X133080Y86949D01*
X132883Y86753D01*
X132745Y86513D01*
X132673Y86245D01*
Y85967D01*
X132745Y85699D01*
X132883Y85459D01*
X133080Y85263D01*
X133320Y85124D01*
X133588Y85052D01*
X133866D01*
X134134Y85124D01*
X134374Y85263D01*
X134570Y85459D01*
X134709Y85699D01*
X134781Y85967D01*
Y86245D01*
X134709Y86513D01*
X134570Y86753D01*
X134374Y86949D01*
X134134Y87088D01*
X133866Y87160D01*
D02*
G37*
G36*
X132241Y85979D02*
X131314D01*
Y85052D01*
X131326D01*
X131594Y85124D01*
X131834Y85263D01*
X132030Y85459D01*
X132169Y85699D01*
X132241Y85967D01*
Y85979D01*
D02*
G37*
G36*
X131060D02*
X130133D01*
Y85967D01*
X130205Y85699D01*
X130343Y85459D01*
X130540Y85263D01*
X130780Y85124D01*
X131048Y85052D01*
X131060D01*
Y85979D01*
D02*
G37*
G36*
X128786Y87160D02*
X128508D01*
X128240Y87088D01*
X128000Y86949D01*
X127803Y86753D01*
X127665Y86513D01*
X127593Y86245D01*
Y85967D01*
X127665Y85699D01*
X127803Y85459D01*
X128000Y85263D01*
X128240Y85124D01*
X128508Y85052D01*
X128786D01*
X129054Y85124D01*
X129294Y85263D01*
X129490Y85459D01*
X129629Y85699D01*
X129701Y85967D01*
Y86245D01*
X129629Y86513D01*
X129490Y86753D01*
X129294Y86949D01*
X129054Y87088D01*
X128786Y87160D01*
D02*
G37*
G36*
X126246D02*
X125968D01*
X125700Y87088D01*
X125460Y86949D01*
X125263Y86753D01*
X125125Y86513D01*
X125053Y86245D01*
Y85967D01*
X125125Y85699D01*
X125263Y85459D01*
X125460Y85263D01*
X125700Y85124D01*
X125968Y85052D01*
X126246D01*
X126514Y85124D01*
X126754Y85263D01*
X126950Y85459D01*
X127089Y85699D01*
X127161Y85967D01*
Y86245D01*
X127089Y86513D01*
X126950Y86753D01*
X126754Y86949D01*
X126514Y87088D01*
X126246Y87160D01*
D02*
G37*
G36*
X124621D02*
X122513D01*
Y85052D01*
X124621D01*
Y87160D01*
D02*
G37*
G36*
X172092Y85217D02*
X171824D01*
X171566Y85148D01*
X171334Y85014D01*
X171145Y84825D01*
X171011Y84593D01*
X170942Y84335D01*
Y84067D01*
X171011Y83809D01*
X171145Y83577D01*
X171334Y83388D01*
X171566Y83254D01*
X171824Y83185D01*
X172092D01*
X172350Y83254D01*
X172582Y83388D01*
X172771Y83577D01*
X172905Y83809D01*
X172974Y84067D01*
Y84335D01*
X172905Y84593D01*
X172771Y84825D01*
X172582Y85014D01*
X172350Y85148D01*
X172092Y85217D01*
D02*
G37*
G36*
X100457Y80645D02*
X100224Y80548D01*
X100046Y80370D01*
X99949Y80137D01*
X100457D01*
Y80645D01*
D02*
G37*
G36*
X109452Y80094D02*
X108944D01*
Y79586D01*
X109177Y79682D01*
X109356Y79861D01*
X109452Y80094D01*
D02*
G37*
G36*
X114172Y85578D02*
X113920D01*
X113686Y85481D01*
X113508Y85303D01*
X113411Y85069D01*
Y84817D01*
X113508Y84583D01*
X113658Y84433D01*
Y76207D01*
X112524D01*
X112374Y76357D01*
X112140Y76454D01*
X111888D01*
X111654Y76357D01*
X111476Y76179D01*
X111379Y75945D01*
Y75693D01*
X111476Y75459D01*
X111654Y75281D01*
X111888Y75184D01*
X112140D01*
X112374Y75281D01*
X112524Y75431D01*
X113897D01*
X114046Y75460D01*
X114172Y75544D01*
X114321Y75693D01*
X114405Y75819D01*
X114434Y75968D01*
Y84433D01*
X114584Y84583D01*
X114681Y84817D01*
Y85069D01*
X114584Y85303D01*
X114406Y85481D01*
X114172Y85578D01*
D02*
G37*
G36*
X166243Y79258D02*
X138120D01*
X137921Y79219D01*
X137753Y79106D01*
X137456Y78808D01*
X137343Y78640D01*
X137304Y78442D01*
Y78161D01*
X137220Y78077D01*
X137054Y78008D01*
X136876Y77830D01*
X136779Y77596D01*
Y77344D01*
X136876Y77110D01*
X137054Y76932D01*
X137288Y76835D01*
X137540D01*
X137774Y76932D01*
X137952Y77110D01*
X138049Y77344D01*
Y77441D01*
X138188Y77580D01*
X138300Y77748D01*
X138340Y77947D01*
Y78222D01*
X152342D01*
X152391Y78105D01*
X152370Y78084D01*
X152273Y77850D01*
Y77638D01*
X151363Y76729D01*
X151279Y76603D01*
X151250Y76454D01*
Y72519D01*
X151100Y72369D01*
X151003Y72135D01*
Y71883D01*
X151100Y71649D01*
X151278Y71471D01*
X151512Y71374D01*
X151764D01*
X151998Y71471D01*
X152176Y71649D01*
X152210Y71729D01*
X152337D01*
X152370Y71649D01*
X152548Y71471D01*
X152782Y71374D01*
X153034D01*
X153268Y71471D01*
X153446Y71649D01*
X153543Y71883D01*
Y72135D01*
X153446Y72369D01*
X153296Y72519D01*
Y76293D01*
X154219Y77216D01*
X154431D01*
X154665Y77313D01*
X154843Y77491D01*
X154940Y77725D01*
Y77977D01*
X154891Y78095D01*
X154976Y78222D01*
X165725D01*
Y74023D01*
X165695Y74010D01*
X165517Y73832D01*
X165420Y73598D01*
Y73346D01*
X165517Y73112D01*
X165695Y72934D01*
X165929Y72837D01*
X166182D01*
X166415Y72934D01*
X166542Y73061D01*
X166609Y73106D01*
X166722Y73274D01*
X166761Y73472D01*
Y78740D01*
X166722Y78938D01*
X166609Y79106D01*
X166441Y79219D01*
X166243Y79258D01*
D02*
G37*
G36*
X117998Y73089D02*
X117983D01*
Y72136D01*
X118936D01*
Y72151D01*
X118862Y72426D01*
X118720Y72672D01*
X118519Y72873D01*
X118273Y73015D01*
X117998Y73089D01*
D02*
G37*
G36*
X101219Y72263D02*
X100711D01*
Y71755D01*
X100944Y71852D01*
X101122Y72030D01*
X101219Y72263D01*
D02*
G37*
G36*
X100457D02*
X99949D01*
X100046Y72030D01*
X100224Y71852D01*
X100457Y71755D01*
Y72263D01*
D02*
G37*
G36*
X118936Y71882D02*
X117983D01*
Y70929D01*
X117998D01*
X118273Y71003D01*
X118519Y71145D01*
X118720Y71346D01*
X118862Y71592D01*
X118936Y71867D01*
Y71882D01*
D02*
G37*
G36*
X124206Y71247D02*
Y70739D01*
X124714D01*
X124617Y70972D01*
X124439Y71150D01*
X124206Y71247D01*
D02*
G37*
G36*
X123952D02*
X123719Y71150D01*
X123541Y70972D01*
X123444Y70739D01*
X123952D01*
Y71247D01*
D02*
G37*
G36*
X164465Y70612D02*
X164232Y70515D01*
X164082Y70365D01*
X160403D01*
X160253Y70515D01*
X160020Y70612D01*
Y69977D01*
Y69342D01*
X160253Y69439D01*
X160403Y69589D01*
X164082D01*
X164232Y69439D01*
X164465Y69342D01*
Y69977D01*
Y70612D01*
D02*
G37*
G36*
X154940D02*
X154707Y70515D01*
X154529Y70337D01*
X154488Y70238D01*
X151640D01*
X151490Y70388D01*
X151257Y70485D01*
Y69850D01*
Y69215D01*
X151490Y69312D01*
X151640Y69462D01*
X154684D01*
X154707Y69439D01*
X154940Y69342D01*
Y69977D01*
Y70612D01*
D02*
G37*
G36*
X164719D02*
Y70104D01*
X165227D01*
X165130Y70337D01*
X164952Y70515D01*
X164719Y70612D01*
D02*
G37*
G36*
X159766D02*
X159533Y70515D01*
X159355Y70337D01*
X159258Y70104D01*
X159766D01*
Y70612D01*
D02*
G37*
G36*
X155194D02*
Y70104D01*
X155702D01*
X155605Y70337D01*
X155427Y70515D01*
X155194Y70612D01*
D02*
G37*
G36*
X165227Y69850D02*
X164719D01*
Y69342D01*
X164952Y69439D01*
X165130Y69617D01*
X165227Y69850D01*
D02*
G37*
G36*
X159766D02*
X159258D01*
X159355Y69617D01*
X159533Y69439D01*
X159766Y69342D01*
Y69850D01*
D02*
G37*
G36*
X155702D02*
X155194D01*
Y69342D01*
X155427Y69439D01*
X155605Y69617D01*
X155702Y69850D01*
D02*
G37*
G36*
X150240Y77470D02*
X149988D01*
X149754Y77373D01*
X149576Y77195D01*
X149479Y76961D01*
Y76709D01*
X149576Y76475D01*
X149596Y76455D01*
Y69157D01*
X149609Y69094D01*
X149606Y69087D01*
Y68835D01*
X149703Y68601D01*
X149881Y68423D01*
X150115Y68326D01*
X150367D01*
X150601Y68423D01*
X150779Y68601D01*
X150876Y68835D01*
Y69087D01*
X150849Y69152D01*
X150939Y69242D01*
X151003Y69215D01*
Y69850D01*
Y70485D01*
X150770Y70388D01*
X150749Y70367D01*
X150632Y70416D01*
Y76455D01*
X150652Y76475D01*
X150749Y76709D01*
Y76961D01*
X150652Y77195D01*
X150474Y77373D01*
X150240Y77470D01*
D02*
G37*
G36*
X118396Y70549D02*
X117316D01*
X116776Y70009D01*
Y68929D01*
X117316Y68390D01*
X118396D01*
X118936Y68929D01*
Y70009D01*
X118396Y70549D01*
D02*
G37*
G36*
X151764Y69088D02*
X151512D01*
X151278Y68991D01*
X151100Y68813D01*
X151003Y68579D01*
Y68327D01*
X151100Y68093D01*
X151278Y67915D01*
X151512Y67818D01*
X151577D01*
X151647Y67712D01*
X151638Y67690D01*
Y67438D01*
X151735Y67204D01*
X151913Y67026D01*
X152147Y66929D01*
X152399D01*
X152633Y67026D01*
X152811Y67204D01*
X152908Y67438D01*
Y67690D01*
X152811Y67924D01*
X152633Y68102D01*
X152399Y68199D01*
X152334D01*
X152264Y68305D01*
X152273Y68327D01*
Y68579D01*
X152176Y68813D01*
X151998Y68991D01*
X151764Y69088D01*
D02*
G37*
G36*
X166751Y66548D02*
Y66040D01*
X167259D01*
X167162Y66273D01*
X166984Y66451D01*
X166751Y66548D01*
D02*
G37*
G36*
X166497D02*
X166264Y66451D01*
X166086Y66273D01*
X165989Y66040D01*
X166497D01*
Y66548D01*
D02*
G37*
G36*
X161670Y77978D02*
X161418D01*
X161184Y77881D01*
X161006Y77703D01*
X160909Y77469D01*
Y77217D01*
X161006Y76983D01*
X161156Y76833D01*
Y73821D01*
X155554Y68220D01*
X155470Y68094D01*
X155441Y67945D01*
Y66296D01*
X155291Y66146D01*
X155194Y65912D01*
Y65660D01*
X155291Y65426D01*
X155469Y65248D01*
X155703Y65151D01*
X155955D01*
X156189Y65248D01*
X156367Y65426D01*
X156464Y65660D01*
Y65912D01*
X156367Y66146D01*
X156217Y66296D01*
Y67784D01*
X161819Y73385D01*
X161903Y73511D01*
X161932Y73660D01*
Y76833D01*
X162082Y76983D01*
X162179Y77217D01*
Y77469D01*
X162082Y77703D01*
X161904Y77881D01*
X161670Y77978D01*
D02*
G37*
G36*
X105327Y63964D02*
X105094Y63868D01*
X104915Y63689D01*
X104819Y63456D01*
X105327D01*
Y63964D01*
D02*
G37*
G36*
X112841Y63953D02*
Y63446D01*
X113348D01*
X113252Y63678D01*
X113073Y63857D01*
X112841Y63953D01*
D02*
G37*
G36*
X116210Y63520D02*
X115702D01*
Y63012D01*
X115935Y63108D01*
X116114Y63287D01*
X116210Y63520D01*
D02*
G37*
G36*
X115448D02*
X114940D01*
X115037Y63287D01*
X115215Y63108D01*
X115448Y63012D01*
Y63520D01*
D02*
G37*
G36*
X105327Y63202D02*
X104819D01*
X104915Y62970D01*
X105094Y62791D01*
X105327Y62695D01*
Y63202D01*
D02*
G37*
G36*
X113348Y63192D02*
X112841D01*
Y62684D01*
X113073Y62780D01*
X113252Y62959D01*
X113348Y63192D01*
D02*
G37*
G36*
X105581Y63964D02*
Y63329D01*
Y62695D01*
X105813Y62791D01*
X105963Y62941D01*
X112193D01*
X112354Y62780D01*
X112587Y62684D01*
Y63319D01*
Y63953D01*
X112354Y63857D01*
X112215Y63718D01*
X105963D01*
X105813Y63868D01*
X105581Y63964D01*
D02*
G37*
G36*
X106679Y61595D02*
X106427D01*
X106193Y61498D01*
X106015Y61320D01*
X105974Y61221D01*
X103380D01*
X103230Y61371D01*
X102996Y61468D01*
X102744D01*
X102510Y61371D01*
X102332Y61193D01*
X102235Y60959D01*
Y60707D01*
X102332Y60473D01*
X102510Y60295D01*
X102744Y60198D01*
X102996D01*
X103230Y60295D01*
X103380Y60445D01*
X106170D01*
X106193Y60422D01*
X106427Y60325D01*
X106679D01*
X106913Y60422D01*
X107091Y60600D01*
X107188Y60834D01*
Y61086D01*
X107091Y61320D01*
X106913Y61498D01*
X106679Y61595D01*
D02*
G37*
G36*
X116463Y60452D02*
X116211D01*
X115977Y60355D01*
X115828Y60205D01*
X114937D01*
X114787Y60355D01*
X114553Y60452D01*
X114301D01*
X114067Y60355D01*
X113889Y60177D01*
X113792Y59943D01*
Y59691D01*
X113889Y59457D01*
X114067Y59279D01*
X114301Y59182D01*
X114553D01*
X114787Y59279D01*
X114937Y59429D01*
X115828D01*
X115977Y59279D01*
X116211Y59182D01*
X116463D01*
X116697Y59279D01*
X116876Y59457D01*
X116972Y59691D01*
Y59943D01*
X116876Y60177D01*
X116697Y60355D01*
X116463Y60452D01*
D02*
G37*
G36*
X170573Y60490D02*
X170561D01*
Y59563D01*
X171488D01*
Y59575D01*
X171416Y59843D01*
X171277Y60083D01*
X171081Y60279D01*
X170841Y60418D01*
X170573Y60490D01*
D02*
G37*
G36*
X171115Y59309D02*
X170561D01*
Y58755D01*
X171115Y59309D01*
D02*
G37*
G36*
X95757Y89408D02*
X95505D01*
X95271Y89311D01*
X95093Y89133D01*
X94996Y88899D01*
Y88647D01*
X95093Y88413D01*
X95243Y88263D01*
Y69110D01*
X95272Y68961D01*
X95356Y68835D01*
X95505Y68686D01*
X95631Y68602D01*
X95780Y68573D01*
X113348D01*
X113496Y68602D01*
X113622Y68686D01*
X116310Y71374D01*
X116522D01*
X116755Y71471D01*
X116786Y71502D01*
X116912Y71485D01*
X116992Y71346D01*
X117193Y71145D01*
X117439Y71003D01*
X117714Y70929D01*
X117729D01*
Y72009D01*
Y73089D01*
X117714D01*
X117439Y73015D01*
X117193Y72873D01*
X116992Y72672D01*
X116987Y72664D01*
X116865Y72697D01*
Y73501D01*
X116982Y73550D01*
X117316Y73215D01*
X118396D01*
X118936Y73755D01*
Y74835D01*
X118775Y74996D01*
X118823Y75113D01*
X134364D01*
X134514Y74963D01*
X134748Y74867D01*
X135000D01*
X135234Y74963D01*
X135384Y75113D01*
X144048D01*
X144773Y74388D01*
Y73169D01*
X144653Y73151D01*
X144556Y73385D01*
X144378Y73563D01*
X144144Y73660D01*
X143892D01*
X143658Y73563D01*
X143508Y73413D01*
X142565D01*
X142524Y73512D01*
X142346Y73690D01*
X142112Y73787D01*
X141860D01*
X141626Y73690D01*
X141448Y73512D01*
X141351Y73278D01*
Y73026D01*
X141448Y72792D01*
X141626Y72614D01*
X141860Y72517D01*
X142081D01*
X142151Y72444D01*
X142172Y72404D01*
X142113Y72262D01*
Y72010D01*
X142210Y71776D01*
X142360Y71626D01*
Y66294D01*
X142389Y66145D01*
X142473Y66019D01*
X142622Y65871D01*
X142748Y65786D01*
X142897Y65757D01*
X143107D01*
X143256Y65786D01*
X143339Y65842D01*
X146461D01*
X153141Y59161D01*
X153267Y59077D01*
X153416Y59048D01*
X164367D01*
X164372Y59029D01*
X164511Y58789D01*
X164707Y58593D01*
X164947Y58454D01*
X165215Y58382D01*
X165493D01*
X165761Y58454D01*
X166001Y58593D01*
X166029Y58621D01*
X166147Y58572D01*
Y56587D01*
X165875Y56315D01*
X165872Y56317D01*
X165614Y56386D01*
X165608D01*
Y56133D01*
X165795Y56146D01*
X165882Y56158D01*
X165961Y56175D01*
X166033Y56195D01*
X166097Y56219D01*
X166153Y56247D01*
X166202Y56278D01*
X166243Y56314D01*
X166423Y56134D01*
X166387Y56093D01*
X166356Y56044D01*
X166328Y55988D01*
X166304Y55924D01*
X166284Y55852D01*
X166267Y55773D01*
X166255Y55686D01*
X166242Y55499D01*
X166495D01*
Y55505D01*
X166426Y55763D01*
X166424Y55766D01*
X166810Y56151D01*
X166894Y56277D01*
X166923Y56426D01*
Y58764D01*
X167046Y58797D01*
X167051Y58789D01*
X167247Y58593D01*
X167254Y58589D01*
Y54795D01*
X167076Y54617D01*
X166326D01*
X166278Y54735D01*
X166292Y54749D01*
X166426Y54981D01*
X166495Y55239D01*
Y55245D01*
X165481D01*
X164467D01*
Y55239D01*
X164536Y54981D01*
X164670Y54749D01*
X164684Y54735D01*
X164636Y54617D01*
X143764D01*
X143615Y54588D01*
X143489Y54504D01*
X141520Y52535D01*
X141504Y52544D01*
X141236Y52616D01*
X140958D01*
X140690Y52544D01*
X140674Y52535D01*
X135262Y57946D01*
Y72388D01*
X135412Y72538D01*
X135509Y72772D01*
Y73024D01*
X135459Y73145D01*
X135544Y73272D01*
X137760D01*
X137845Y73145D01*
X137795Y73024D01*
Y72772D01*
X137892Y72538D01*
X138042Y72388D01*
Y68201D01*
X137892Y68051D01*
X137795Y67817D01*
Y67565D01*
X137892Y67331D01*
X138070Y67153D01*
X138304Y67056D01*
X138556D01*
X138790Y67153D01*
X138968Y67331D01*
X139065Y67565D01*
Y67817D01*
X138968Y68051D01*
X138818Y68201D01*
Y72388D01*
X138968Y72538D01*
X139065Y72772D01*
Y72940D01*
X139192Y73025D01*
X139193Y73025D01*
X139445D01*
X139679Y73122D01*
X139857Y73300D01*
X139954Y73534D01*
Y73786D01*
X139857Y74020D01*
X139679Y74198D01*
X139445Y74295D01*
X139193D01*
X138959Y74198D01*
X138809Y74048D01*
X132229D01*
X132080Y74019D01*
X131954Y73935D01*
X131805Y73786D01*
X131721Y73660D01*
X131692Y73511D01*
Y63121D01*
X131542Y62971D01*
X131445Y62737D01*
Y62485D01*
X131542Y62251D01*
X131720Y62073D01*
X131954Y61976D01*
X132206D01*
X132440Y62073D01*
X132618Y62251D01*
X132715Y62485D01*
Y62737D01*
X132618Y62971D01*
X132468Y63121D01*
Y73272D01*
X134204D01*
X134289Y73145D01*
X134239Y73024D01*
Y72772D01*
X134336Y72538D01*
X134486Y72388D01*
Y57785D01*
X134515Y57636D01*
X134599Y57510D01*
X140124Y51985D01*
X140115Y51969D01*
X140043Y51701D01*
Y51423D01*
X140115Y51155D01*
X140254Y50915D01*
X140270Y50898D01*
X140230Y50838D01*
X140201Y50690D01*
Y49079D01*
X140198Y49078D01*
X139966Y48944D01*
X139778Y48756D01*
X139644Y48524D01*
X139575Y48266D01*
Y48000D01*
X139644Y47742D01*
X139778Y47510D01*
X139966Y47322D01*
X140198Y47188D01*
X140456Y47119D01*
X140722D01*
X140980Y47188D01*
X141212Y47322D01*
X141400Y47510D01*
X141534Y47742D01*
X141603Y48000D01*
Y48266D01*
X141534Y48524D01*
X141400Y48756D01*
X141212Y48944D01*
X140980Y49078D01*
X140977Y49079D01*
Y50508D01*
X141236D01*
X141504Y50580D01*
X141744Y50719D01*
X141940Y50915D01*
X142079Y51155D01*
X142151Y51423D01*
Y51701D01*
X142079Y51969D01*
X142070Y51985D01*
X143925Y53841D01*
X164946D01*
X164980Y53714D01*
X164858Y53643D01*
X164670Y53455D01*
X164536Y53223D01*
X164467Y52965D01*
Y52959D01*
X165481D01*
X166495D01*
Y52965D01*
X166426Y53223D01*
X166292Y53455D01*
X166104Y53643D01*
X165982Y53714D01*
X166016Y53841D01*
X167237D01*
X167386Y53870D01*
X167512Y53954D01*
X167917Y54359D01*
X168001Y54485D01*
X168010Y54531D01*
X168148Y54573D01*
X168160Y54561D01*
X168392Y54427D01*
X168650Y54358D01*
X168656D01*
Y55372D01*
Y56386D01*
X168650D01*
X168392Y56317D01*
X168160Y56183D01*
X168148Y56171D01*
X168030Y56219D01*
Y58382D01*
X168033D01*
X168301Y58454D01*
X168541Y58593D01*
X168649Y58700D01*
X168776Y58647D01*
Y57023D01*
X168805Y56874D01*
X168889Y56748D01*
X169195Y56443D01*
X169129Y56329D01*
X168916Y56386D01*
X168910D01*
Y55372D01*
Y54358D01*
X168916D01*
X169174Y54427D01*
X169406Y54561D01*
X169594Y54749D01*
X169665Y54871D01*
X169792Y54837D01*
Y54390D01*
X169177Y53775D01*
X169174Y53777D01*
X168916Y53846D01*
X168650D01*
X168392Y53777D01*
X168160Y53643D01*
X167972Y53455D01*
X167838Y53223D01*
X167769Y52965D01*
Y52699D01*
X167838Y52441D01*
X167972Y52209D01*
X168160Y52021D01*
X168392Y51887D01*
X168650Y51818D01*
X168916D01*
X169174Y51887D01*
X169406Y52021D01*
X169594Y52209D01*
X169728Y52441D01*
X169797Y52699D01*
Y52965D01*
X169728Y53223D01*
X169726Y53226D01*
X170455Y53954D01*
X170539Y54080D01*
X170568Y54229D01*
Y56007D01*
X170539Y56156D01*
X170455Y56282D01*
X169552Y57184D01*
Y58647D01*
X169679Y58700D01*
X169787Y58593D01*
X170027Y58454D01*
X170295Y58382D01*
X170307D01*
Y59436D01*
Y60490D01*
X170295D01*
X170027Y60418D01*
X169787Y60279D01*
X169679Y60172D01*
X169552Y60225D01*
Y60922D01*
X171488D01*
Y63030D01*
X170568D01*
Y80115D01*
X170539Y80264D01*
X170455Y80390D01*
X170306Y80539D01*
X170180Y80623D01*
X170031Y80652D01*
X139829D01*
X139679Y80802D01*
X139445Y80899D01*
X139193D01*
X138959Y80802D01*
X138781Y80624D01*
X138684Y80390D01*
Y80138D01*
X138781Y79904D01*
X138959Y79726D01*
X139193Y79629D01*
X139445D01*
X139679Y79726D01*
X139829Y79876D01*
X169792D01*
Y63030D01*
X169380D01*
Y62327D01*
X169253Y62275D01*
X169164Y62335D01*
X169015Y62364D01*
X168881D01*
X168876Y62383D01*
X168737Y62623D01*
X168541Y62819D01*
X168301Y62958D01*
X168033Y63030D01*
X167755D01*
X167487Y62958D01*
X167247Y62819D01*
X167051Y62623D01*
X167046Y62615D01*
X166923Y62648D01*
Y65350D01*
X166984Y65375D01*
X167162Y65553D01*
X167259Y65786D01*
X165989D01*
X166086Y65553D01*
X166147Y65492D01*
Y62840D01*
X166029Y62791D01*
X166001Y62819D01*
X165761Y62958D01*
X165493Y63030D01*
X165215D01*
X164947Y62958D01*
X164707Y62819D01*
X164511Y62623D01*
X164372Y62383D01*
X164300Y62115D01*
Y61837D01*
X164372Y61569D01*
X164511Y61329D01*
X164707Y61133D01*
X164947Y60994D01*
X165215Y60922D01*
X165493D01*
X165761Y60994D01*
X166001Y61133D01*
X166029Y61161D01*
X166147Y61112D01*
Y60300D01*
X166029Y60251D01*
X166001Y60279D01*
X165761Y60418D01*
X165493Y60490D01*
X165215D01*
X164947Y60418D01*
X164707Y60279D01*
X164511Y60083D01*
X164372Y59843D01*
X164367Y59824D01*
X153577D01*
X146896Y66505D01*
X146770Y66589D01*
X146622Y66619D01*
X143193D01*
X143136Y66665D01*
Y71626D01*
X143286Y71776D01*
X143383Y72010D01*
Y72262D01*
X143286Y72496D01*
X143263Y72519D01*
X143311Y72637D01*
X143508D01*
X143658Y72487D01*
X143892Y72390D01*
X144144D01*
X144378Y72487D01*
X144556Y72665D01*
X144653Y72899D01*
X144773Y72881D01*
Y68836D01*
X144623Y68686D01*
X144526Y68452D01*
Y68200D01*
X144623Y67966D01*
X144801Y67788D01*
X145035Y67691D01*
X145287D01*
X145521Y67788D01*
X145699Y67966D01*
X145796Y68200D01*
Y68452D01*
X145699Y68686D01*
X145549Y68836D01*
Y74549D01*
X145520Y74698D01*
X145436Y74824D01*
X144483Y75776D01*
X144357Y75860D01*
X144208Y75890D01*
X135384D01*
X135234Y76040D01*
X135000Y76136D01*
X134748D01*
X134514Y76040D01*
X134364Y75890D01*
X118617D01*
X118565Y76017D01*
X118720Y76172D01*
X118862Y76418D01*
X118936Y76693D01*
Y76977D01*
X118862Y77252D01*
X118720Y77498D01*
X118519Y77699D01*
X118498Y77711D01*
X118478Y77869D01*
X118936Y78327D01*
Y79407D01*
X118648Y79695D01*
X118696Y79812D01*
X136462D01*
X136610Y79842D01*
X136736Y79926D01*
X138337Y81527D01*
X172840D01*
Y56104D01*
X172713Y56051D01*
X172581Y56183D01*
X172349Y56317D01*
X172219Y56352D01*
Y58039D01*
X172190Y58188D01*
X172106Y58314D01*
X171407Y59013D01*
X171416Y59029D01*
X171488Y59297D01*
Y59309D01*
X171235D01*
X171248Y59101D01*
X171261Y59009D01*
X171278Y58925D01*
X171299Y58849D01*
X171323Y58781D01*
X171352Y58722D01*
X171385Y58671D01*
X171422Y58628D01*
X171242Y58448D01*
X171199Y58485D01*
X171148Y58518D01*
X171089Y58547D01*
X171021Y58571D01*
X170945Y58592D01*
X170861Y58609D01*
X170769Y58622D01*
X170561Y58635D01*
Y58382D01*
X170573D01*
X170841Y58454D01*
X170857Y58463D01*
X171443Y57878D01*
Y56245D01*
X171335Y56183D01*
X171147Y55995D01*
X171013Y55763D01*
X170944Y55505D01*
Y55499D01*
X171958D01*
Y55372D01*
X172085D01*
Y54358D01*
X172091D01*
X172349Y54427D01*
X172581Y54561D01*
X172713Y54693D01*
X172840Y54640D01*
Y53564D01*
X172713Y53511D01*
X172581Y53643D01*
X172349Y53777D01*
X172091Y53846D01*
X171825D01*
X171567Y53777D01*
X171335Y53643D01*
X171147Y53455D01*
X171013Y53223D01*
X170944Y52965D01*
Y52699D01*
X171013Y52441D01*
X171147Y52209D01*
X171335Y52021D01*
X171567Y51887D01*
X171825Y51818D01*
X172091D01*
X172349Y51887D01*
X172581Y52021D01*
X172713Y52153D01*
X172840Y52100D01*
Y51024D01*
X172713Y50971D01*
X172581Y51103D01*
X172349Y51237D01*
X172091Y51306D01*
X171825D01*
X171567Y51237D01*
X171335Y51103D01*
X171147Y50915D01*
X171013Y50683D01*
X170944Y50425D01*
Y50159D01*
X171013Y49901D01*
X171147Y49669D01*
X171335Y49481D01*
X171567Y49347D01*
X171825Y49278D01*
X172091D01*
X172349Y49347D01*
X172581Y49481D01*
X172713Y49613D01*
X172840Y49560D01*
Y49183D01*
X172423Y48766D01*
X170944D01*
Y46738D01*
X172972D01*
Y48217D01*
X173503Y48747D01*
X173587Y48873D01*
X173616Y49022D01*
Y81766D01*
X173587Y81915D01*
X173503Y82041D01*
X173354Y82190D01*
X173228Y82274D01*
X173079Y82303D01*
X138176D01*
X138027Y82274D01*
X137901Y82190D01*
X136301Y80589D01*
X118731D01*
X118682Y80706D01*
X118720Y80744D01*
X118862Y80990D01*
X118936Y81265D01*
Y81549D01*
X118862Y81824D01*
X118720Y82070D01*
X118519Y82271D01*
X118273Y82413D01*
X117998Y82487D01*
X117714D01*
X117439Y82413D01*
X117193Y82271D01*
X116992Y82070D01*
X116850Y81824D01*
X116776Y81549D01*
Y81265D01*
X116850Y80990D01*
X116992Y80744D01*
X117120Y80616D01*
X117137Y80478D01*
X117115Y80452D01*
X115657Y78994D01*
X115571D01*
X115337Y78897D01*
X115159Y78719D01*
X115062Y78485D01*
Y78233D01*
X115159Y77999D01*
X115337Y77821D01*
X115571Y77724D01*
X115823D01*
X116057Y77821D01*
X116235Y77999D01*
X116332Y78233D01*
Y78485D01*
X116307Y78546D01*
X116659Y78898D01*
X116776Y78849D01*
Y78327D01*
X117234Y77869D01*
X117214Y77711D01*
X117193Y77699D01*
X116992Y77498D01*
X116850Y77252D01*
X116776Y76977D01*
Y76693D01*
X116850Y76418D01*
X116992Y76172D01*
X117168Y75996D01*
X117153Y75892D01*
X117137Y75860D01*
X117011Y75776D01*
X116202Y74967D01*
X116117Y74841D01*
X116088Y74692D01*
Y72569D01*
X116036Y72547D01*
X115857Y72369D01*
X115760Y72135D01*
Y71923D01*
X113187Y69349D01*
X110501D01*
X110488Y69471D01*
X110488Y69476D01*
Y71499D01*
X108460D01*
Y69476D01*
X108460Y69471D01*
X108447Y69349D01*
X107105D01*
X107088Y69476D01*
X107325Y69540D01*
X107557Y69674D01*
X107745Y69862D01*
X107879Y70094D01*
X107948Y70352D01*
Y70618D01*
X107879Y70876D01*
X107745Y71108D01*
X107557Y71296D01*
X107325Y71430D01*
X107067Y71499D01*
X106801D01*
X106543Y71430D01*
X106311Y71296D01*
X106123Y71108D01*
X105989Y70876D01*
X105920Y70618D01*
Y70352D01*
X105989Y70094D01*
X106123Y69862D01*
X106311Y69674D01*
X106543Y69540D01*
X106780Y69476D01*
X106763Y69349D01*
X104565D01*
X104548Y69476D01*
X104785Y69540D01*
X105017Y69674D01*
X105205Y69862D01*
X105339Y70094D01*
X105408Y70352D01*
Y70618D01*
X105339Y70876D01*
X105205Y71108D01*
X105017Y71296D01*
X104785Y71430D01*
X104527Y71499D01*
X104261D01*
X104003Y71430D01*
X103771Y71296D01*
X103583Y71108D01*
X103449Y70876D01*
X103380Y70618D01*
Y70352D01*
X103449Y70094D01*
X103583Y69862D01*
X103771Y69674D01*
X104003Y69540D01*
X104240Y69476D01*
X104223Y69349D01*
X102025D01*
X102008Y69476D01*
X102245Y69540D01*
X102477Y69674D01*
X102665Y69862D01*
X102799Y70094D01*
X102868Y70352D01*
Y70618D01*
X102799Y70876D01*
X102665Y71108D01*
X102477Y71296D01*
X102245Y71430D01*
X101987Y71499D01*
X101721D01*
X101463Y71430D01*
X101231Y71296D01*
X101043Y71108D01*
X100909Y70876D01*
X100840Y70618D01*
Y70352D01*
X100909Y70094D01*
X101043Y69862D01*
X101231Y69674D01*
X101463Y69540D01*
X101700Y69476D01*
X101683Y69349D01*
X96019D01*
Y88263D01*
X96169Y88413D01*
X96266Y88647D01*
Y88899D01*
X96169Y89133D01*
X95991Y89311D01*
X95757Y89408D01*
D02*
G37*
G36*
X124714Y70485D02*
X123444D01*
X123541Y70252D01*
X123627Y70166D01*
Y67990D01*
X123592Y67975D01*
X123442Y67825D01*
X115724D01*
X115575Y67796D01*
X115449Y67712D01*
X115300Y67563D01*
X115216Y67437D01*
X115187Y67288D01*
Y64156D01*
X115037Y64006D01*
X114940Y63774D01*
X116210D01*
X116114Y64006D01*
X115964Y64156D01*
Y67049D01*
X123173D01*
X123191Y66929D01*
X122957Y66832D01*
X122779Y66654D01*
X122682Y66420D01*
Y66168D01*
X122779Y65934D01*
X122929Y65784D01*
Y57025D01*
X122779Y56875D01*
X122682Y56641D01*
Y56389D01*
X122779Y56155D01*
X122957Y55977D01*
X123191Y55880D01*
X123173Y55760D01*
X122557D01*
X122407Y55910D01*
X122173Y56007D01*
X121921D01*
X121687Y55910D01*
X121537Y55760D01*
X119957D01*
X119904Y55887D01*
X120045Y56028D01*
X120142Y56262D01*
Y56514D01*
X120045Y56748D01*
X119867Y56926D01*
X119633Y57023D01*
X119381D01*
X119147Y56926D01*
X118969Y56748D01*
X118928Y56649D01*
X112016D01*
X111866Y56799D01*
X111632Y56896D01*
X111380D01*
X111146Y56799D01*
X111005Y56658D01*
X110878Y56711D01*
Y58164D01*
X111028Y58314D01*
X111125Y58548D01*
Y58800D01*
X111028Y59034D01*
X110850Y59212D01*
X110616Y59309D01*
X110364D01*
X110130Y59212D01*
X109952Y59034D01*
X109855Y58800D01*
Y58548D01*
X109952Y58314D01*
X110102Y58164D01*
Y55267D01*
X110131Y55118D01*
X110215Y54992D01*
X111507Y53700D01*
X111633Y53616D01*
X111782Y53587D01*
X125347D01*
X125497Y53437D01*
X125731Y53340D01*
X125983D01*
X126217Y53437D01*
X126395Y53615D01*
X126492Y53849D01*
Y54101D01*
X126395Y54335D01*
X126217Y54513D01*
X125983Y54610D01*
X125731D01*
X125497Y54513D01*
X125347Y54363D01*
X111943D01*
X110878Y55428D01*
Y55811D01*
X111005Y55864D01*
X111146Y55723D01*
X111380Y55626D01*
X111632D01*
X111866Y55723D01*
X112016Y55873D01*
X112297D01*
X112350Y55746D01*
X112238Y55634D01*
X112141Y55400D01*
Y55148D01*
X112238Y54914D01*
X112416Y54736D01*
X112650Y54639D01*
X112902D01*
X113136Y54736D01*
X113314Y54914D01*
X113343Y54984D01*
X121537D01*
X121687Y54834D01*
X121921Y54737D01*
X122173D01*
X122407Y54834D01*
X122557Y54984D01*
X132681D01*
X133964Y53700D01*
X135315Y52350D01*
X135174Y52209D01*
X135035Y51969D01*
X134963Y51701D01*
Y51423D01*
X135035Y51155D01*
X135174Y50915D01*
X135370Y50719D01*
X135610Y50580D01*
X135878Y50508D01*
X136156D01*
X136424Y50580D01*
X136664Y50719D01*
X136860Y50915D01*
X136999Y51155D01*
X137071Y51423D01*
Y51701D01*
X136999Y51969D01*
X136860Y52209D01*
X136664Y52405D01*
X136424Y52544D01*
X136156Y52616D01*
X136110D01*
X136034Y52729D01*
X134514Y54250D01*
X134514Y54250D01*
X133117Y55647D01*
X132991Y55731D01*
X132842Y55760D01*
X127515D01*
Y58672D01*
X127665Y58822D01*
X127762Y59056D01*
Y59308D01*
X127665Y59542D01*
X127487Y59720D01*
X127253Y59817D01*
X127001D01*
X126767Y59720D01*
X126589Y59542D01*
X126492Y59308D01*
Y59056D01*
X126589Y58822D01*
X126739Y58672D01*
Y55760D01*
X123461D01*
X123443Y55880D01*
X123677Y55977D01*
X123855Y56155D01*
X123952Y56389D01*
Y56641D01*
X123855Y56875D01*
X123705Y57025D01*
Y65784D01*
X123855Y65934D01*
X123952Y66168D01*
Y66420D01*
X123855Y66654D01*
X123834Y66675D01*
X123887Y66802D01*
X124078D01*
X124312Y66899D01*
X124490Y67077D01*
X124587Y67310D01*
X123952D01*
Y67564D01*
X124587D01*
X124490Y67797D01*
X124404Y67883D01*
Y70059D01*
X124439Y70074D01*
X124617Y70252D01*
X124714Y70485D01*
D02*
G37*
G36*
X165608Y56013D02*
Y55499D01*
X166122D01*
X165608Y56013D01*
D02*
G37*
G36*
X165354Y56386D02*
X165348D01*
X165090Y56317D01*
X164858Y56183D01*
X164670Y55995D01*
X164536Y55763D01*
X164467Y55505D01*
Y55499D01*
X165354D01*
Y56386D01*
D02*
G37*
G36*
X171831Y55245D02*
X170944D01*
Y55239D01*
X171013Y54981D01*
X171147Y54749D01*
X171335Y54561D01*
X171567Y54427D01*
X171825Y54358D01*
X171831D01*
Y55245D01*
D02*
G37*
G36*
X100711Y54356D02*
X99314D01*
Y52197D01*
X100711D01*
Y54356D01*
D02*
G37*
G36*
X99060D02*
X97663D01*
Y52197D01*
X99060D01*
Y54356D01*
D02*
G37*
G36*
X166495Y52705D02*
X165608D01*
Y51818D01*
X165614D01*
X165872Y51887D01*
X166104Y52021D01*
X166292Y52209D01*
X166426Y52441D01*
X166495Y52699D01*
Y52705D01*
D02*
G37*
G36*
X165354D02*
X164467D01*
Y52699D01*
X164536Y52441D01*
X164670Y52209D01*
X164858Y52021D01*
X165090Y51887D01*
X165348Y51818D01*
X165354D01*
Y52705D01*
D02*
G37*
G36*
X133616Y52616D02*
X133604D01*
Y51689D01*
X134531D01*
Y51701D01*
X134459Y51969D01*
X134320Y52209D01*
X134124Y52405D01*
X133884Y52544D01*
X133616Y52616D01*
D02*
G37*
G36*
X131076D02*
X131064D01*
Y51689D01*
X131991D01*
Y51701D01*
X131919Y51969D01*
X131780Y52209D01*
X131584Y52405D01*
X131344Y52544D01*
X131076Y52616D01*
D02*
G37*
G36*
X133350D02*
X133338D01*
X133070Y52544D01*
X132830Y52405D01*
X132634Y52209D01*
X132495Y51969D01*
X132423Y51701D01*
Y51689D01*
X133350D01*
Y52616D01*
D02*
G37*
G36*
X130810D02*
X130798D01*
X130530Y52544D01*
X130290Y52405D01*
X130094Y52209D01*
X129955Y51969D01*
X129883Y51701D01*
Y51689D01*
X130810D01*
Y52616D01*
D02*
G37*
G36*
X147231D02*
X145123D01*
Y50508D01*
X147231D01*
Y52616D01*
D02*
G37*
G36*
X143776D02*
X143498D01*
X143230Y52544D01*
X142990Y52405D01*
X142794Y52209D01*
X142655Y51969D01*
X142583Y51701D01*
Y51423D01*
X142655Y51155D01*
X142794Y50915D01*
X142990Y50719D01*
X143230Y50580D01*
X143498Y50508D01*
X143776D01*
X144044Y50580D01*
X144284Y50719D01*
X144480Y50915D01*
X144619Y51155D01*
X144691Y51423D01*
Y51701D01*
X144619Y51969D01*
X144480Y52209D01*
X144284Y52405D01*
X144044Y52544D01*
X143776Y52616D01*
D02*
G37*
G36*
X134531Y51435D02*
X133604D01*
Y50508D01*
X133616D01*
X133884Y50580D01*
X134124Y50719D01*
X134320Y50915D01*
X134459Y51155D01*
X134531Y51423D01*
Y51435D01*
D02*
G37*
G36*
X133350D02*
X132423D01*
Y51423D01*
X132495Y51155D01*
X132634Y50915D01*
X132830Y50719D01*
X133070Y50580D01*
X133338Y50508D01*
X133350D01*
Y51435D01*
D02*
G37*
G36*
X131991D02*
X131064D01*
Y50508D01*
X131076D01*
X131344Y50580D01*
X131584Y50719D01*
X131780Y50915D01*
X131919Y51155D01*
X131991Y51423D01*
Y51435D01*
D02*
G37*
G36*
X130810D02*
X129883D01*
Y51423D01*
X129955Y51155D01*
X130094Y50915D01*
X130290Y50719D01*
X130530Y50580D01*
X130798Y50508D01*
X130810D01*
Y51435D01*
D02*
G37*
G36*
X128536Y52616D02*
X128258D01*
X127990Y52544D01*
X127750Y52405D01*
X127554Y52209D01*
X127415Y51969D01*
X127343Y51701D01*
Y51423D01*
X127415Y51155D01*
X127554Y50915D01*
X127750Y50719D01*
X127990Y50580D01*
X128258Y50508D01*
X128536D01*
X128804Y50580D01*
X129044Y50719D01*
X129240Y50915D01*
X129379Y51155D01*
X129451Y51423D01*
Y51701D01*
X129379Y51969D01*
X129240Y52209D01*
X129044Y52405D01*
X128804Y52544D01*
X128536Y52616D01*
D02*
G37*
G36*
X159524Y52489D02*
X159246D01*
X158978Y52417D01*
X158738Y52278D01*
X158542Y52082D01*
X158403Y51842D01*
X158331Y51574D01*
Y51296D01*
X158403Y51028D01*
X158542Y50788D01*
X158738Y50592D01*
X158978Y50453D01*
X159246Y50381D01*
X159524D01*
X159792Y50453D01*
X160032Y50592D01*
X160228Y50788D01*
X160367Y51028D01*
X160439Y51296D01*
Y51574D01*
X160367Y51842D01*
X160228Y52082D01*
X160032Y52278D01*
X159792Y52417D01*
X159524Y52489D01*
D02*
G37*
G36*
X156984D02*
X156706D01*
X156438Y52417D01*
X156198Y52278D01*
X156002Y52082D01*
X155863Y51842D01*
X155791Y51574D01*
Y51296D01*
X155863Y51028D01*
X156002Y50788D01*
X156198Y50592D01*
X156438Y50453D01*
X156706Y50381D01*
X156984D01*
X157252Y50453D01*
X157492Y50592D01*
X157688Y50788D01*
X157827Y51028D01*
X157899Y51296D01*
Y51574D01*
X157827Y51842D01*
X157688Y52082D01*
X157492Y52278D01*
X157252Y52417D01*
X156984Y52489D01*
D02*
G37*
G36*
X154444D02*
X154166D01*
X153898Y52417D01*
X153658Y52278D01*
X153462Y52082D01*
X153323Y51842D01*
X153251Y51574D01*
Y51296D01*
X153323Y51028D01*
X153462Y50788D01*
X153658Y50592D01*
X153898Y50453D01*
X154166Y50381D01*
X154444D01*
X154712Y50453D01*
X154952Y50592D01*
X155148Y50788D01*
X155287Y51028D01*
X155359Y51296D01*
Y51574D01*
X155287Y51842D01*
X155148Y52082D01*
X154952Y52278D01*
X154712Y52417D01*
X154444Y52489D01*
D02*
G37*
G36*
X151904D02*
X151626D01*
X151358Y52417D01*
X151118Y52278D01*
X150922Y52082D01*
X150783Y51842D01*
X150711Y51574D01*
Y51296D01*
X150783Y51028D01*
X150922Y50788D01*
X151118Y50592D01*
X151358Y50453D01*
X151626Y50381D01*
X151904D01*
X152172Y50453D01*
X152412Y50592D01*
X152608Y50788D01*
X152747Y51028D01*
X152819Y51296D01*
Y51574D01*
X152747Y51842D01*
X152608Y52082D01*
X152412Y52278D01*
X152172Y52417D01*
X151904Y52489D01*
D02*
G37*
G36*
X149364D02*
X149086D01*
X148818Y52417D01*
X148578Y52278D01*
X148382Y52082D01*
X148243Y51842D01*
X148171Y51574D01*
Y51296D01*
X148243Y51028D01*
X148382Y50788D01*
X148578Y50592D01*
X148818Y50453D01*
X149086Y50381D01*
X149364D01*
X149632Y50453D01*
X149872Y50592D01*
X150068Y50788D01*
X150207Y51028D01*
X150279Y51296D01*
Y51574D01*
X150207Y51842D01*
X150068Y52082D01*
X149872Y52278D01*
X149632Y52417D01*
X149364Y52489D01*
D02*
G37*
G36*
X107061Y54356D02*
X104013D01*
Y49784D01*
X107061D01*
Y54356D01*
D02*
G37*
G36*
X100711Y51943D02*
X99314D01*
Y49784D01*
X100711D01*
Y51943D01*
D02*
G37*
G36*
X99060D02*
X97663D01*
Y49784D01*
X99060D01*
Y51943D01*
D02*
G37*
G36*
X168916Y51306D02*
X168650D01*
X168392Y51237D01*
X168160Y51103D01*
X167972Y50915D01*
X167838Y50683D01*
X167769Y50425D01*
Y50159D01*
X167838Y49901D01*
X167972Y49669D01*
X168160Y49481D01*
X168392Y49347D01*
X168650Y49278D01*
X168916D01*
X169174Y49347D01*
X169406Y49481D01*
X169594Y49669D01*
X169728Y49901D01*
X169797Y50159D01*
Y50425D01*
X169728Y50683D01*
X169594Y50915D01*
X169406Y51103D01*
X169174Y51237D01*
X168916Y51306D01*
D02*
G37*
G36*
X138696Y52616D02*
X138418D01*
X138150Y52544D01*
X137910Y52405D01*
X137714Y52209D01*
X137575Y51969D01*
X137503Y51701D01*
Y51423D01*
X137575Y51155D01*
X137714Y50915D01*
X137730Y50898D01*
X137690Y50838D01*
X137661Y50690D01*
Y49079D01*
X137658Y49078D01*
X137426Y48944D01*
X137294Y48812D01*
X137167Y48865D01*
Y49635D01*
X137138Y49784D01*
X137054Y49910D01*
X136897Y50067D01*
X136771Y50151D01*
X136622Y50180D01*
X119107D01*
X118957Y50330D01*
X118723Y50427D01*
X118471D01*
X118237Y50330D01*
X118059Y50152D01*
X117962Y49918D01*
Y49666D01*
X118059Y49432D01*
X118237Y49254D01*
X118471Y49157D01*
X118723D01*
X118957Y49254D01*
X119107Y49404D01*
X136391D01*
Y48865D01*
X136264Y48812D01*
X136132Y48944D01*
X135900Y49078D01*
X135642Y49147D01*
X135376D01*
X135118Y49078D01*
X134886Y48944D01*
X134698Y48756D01*
X134564Y48524D01*
X134495Y48266D01*
Y48000D01*
X134564Y47742D01*
X134698Y47510D01*
X134886Y47322D01*
X135118Y47188D01*
X135376Y47119D01*
X135642D01*
X135900Y47188D01*
X136132Y47322D01*
X136264Y47454D01*
X136391Y47401D01*
Y46504D01*
X136420Y46355D01*
X136504Y46229D01*
X136653Y46080D01*
X136779Y45996D01*
X136928Y45967D01*
X137666D01*
X137816Y45817D01*
X138050Y45720D01*
X138302D01*
X138536Y45817D01*
X138686Y45967D01*
X164084D01*
X164233Y45996D01*
X164359Y46080D01*
X165016Y46738D01*
X166495D01*
Y48766D01*
X165869D01*
Y49346D01*
X165872Y49347D01*
X166104Y49481D01*
X166292Y49669D01*
X166426Y49901D01*
X166495Y50159D01*
Y50425D01*
X166426Y50683D01*
X166292Y50915D01*
X166104Y51103D01*
X165872Y51237D01*
X165614Y51306D01*
X165348D01*
X165090Y51237D01*
X164858Y51103D01*
X164670Y50915D01*
X164536Y50683D01*
X164467Y50425D01*
Y50159D01*
X164536Y49901D01*
X164670Y49669D01*
X164858Y49481D01*
X165090Y49347D01*
X165093Y49346D01*
Y48766D01*
X164467D01*
Y47287D01*
X163923Y46743D01*
X138686D01*
X138536Y46893D01*
X138501Y46908D01*
Y47223D01*
X138672Y47322D01*
X138860Y47510D01*
X138994Y47742D01*
X139063Y48000D01*
Y48266D01*
X138994Y48524D01*
X138860Y48756D01*
X138672Y48944D01*
X138440Y49078D01*
X138437Y49079D01*
Y50508D01*
X138696D01*
X138964Y50580D01*
X139204Y50719D01*
X139400Y50915D01*
X139539Y51155D01*
X139611Y51423D01*
Y51701D01*
X139539Y51969D01*
X139400Y52209D01*
X139204Y52405D01*
X138964Y52544D01*
X138696Y52616D01*
D02*
G37*
G36*
X132842Y49147D02*
X132836D01*
X132578Y49078D01*
X132346Y48944D01*
X132158Y48756D01*
X132024Y48524D01*
X132023Y48521D01*
X131375D01*
X131374Y48524D01*
X131240Y48756D01*
X131052Y48944D01*
X130820Y49078D01*
X130562Y49147D01*
X130556D01*
Y48133D01*
X130429D01*
Y48006D01*
X129415D01*
Y48000D01*
X129484Y47742D01*
X129618Y47510D01*
X129806Y47322D01*
X130038Y47188D01*
X130041Y47187D01*
Y45854D01*
X125859D01*
X125709Y46004D01*
X125476Y46101D01*
Y45466D01*
Y44831D01*
X125709Y44928D01*
X125859Y45078D01*
X130429D01*
X130578Y45107D01*
X130704Y45191D01*
X130788Y45317D01*
X130817Y45466D01*
Y47187D01*
X130820Y47188D01*
X131052Y47322D01*
X131240Y47510D01*
X131374Y47742D01*
X131375Y47745D01*
X132023D01*
X132024Y47742D01*
X132158Y47510D01*
X132346Y47322D01*
X132578Y47188D01*
X132836Y47119D01*
X132842D01*
Y48133D01*
Y49147D01*
D02*
G37*
G36*
X133102D02*
X133096D01*
Y48260D01*
X133983D01*
Y48266D01*
X133914Y48524D01*
X133780Y48756D01*
X133592Y48944D01*
X133360Y49078D01*
X133102Y49147D01*
D02*
G37*
G36*
X130302D02*
X130296D01*
X130038Y49078D01*
X129806Y48944D01*
X129618Y48756D01*
X129484Y48524D01*
X129415Y48266D01*
Y48260D01*
X130302D01*
Y49147D01*
D02*
G37*
G36*
X162979Y52489D02*
X160871D01*
Y50381D01*
X161791D01*
Y49147D01*
X161165D01*
Y47119D01*
X163193D01*
Y49147D01*
X162567D01*
Y50381D01*
X162979D01*
Y52489D01*
D02*
G37*
G36*
X159772Y49147D02*
X159506D01*
X159248Y49078D01*
X159016Y48944D01*
X158828Y48756D01*
X158694Y48524D01*
X158625Y48266D01*
Y48000D01*
X158694Y47742D01*
X158828Y47510D01*
X159016Y47322D01*
X159248Y47188D01*
X159506Y47119D01*
X159772D01*
X160030Y47188D01*
X160262Y47322D01*
X160450Y47510D01*
X160584Y47742D01*
X160653Y48000D01*
Y48266D01*
X160584Y48524D01*
X160450Y48756D01*
X160262Y48944D01*
X160030Y49078D01*
X159772Y49147D01*
D02*
G37*
G36*
X157232D02*
X156966D01*
X156708Y49078D01*
X156476Y48944D01*
X156288Y48756D01*
X156154Y48524D01*
X156085Y48266D01*
Y48000D01*
X156154Y47742D01*
X156288Y47510D01*
X156476Y47322D01*
X156708Y47188D01*
X156966Y47119D01*
X157232D01*
X157490Y47188D01*
X157722Y47322D01*
X157910Y47510D01*
X158044Y47742D01*
X158113Y48000D01*
Y48266D01*
X158044Y48524D01*
X157910Y48756D01*
X157722Y48944D01*
X157490Y49078D01*
X157232Y49147D01*
D02*
G37*
G36*
X154692D02*
X154426D01*
X154168Y49078D01*
X153936Y48944D01*
X153748Y48756D01*
X153614Y48524D01*
X153545Y48266D01*
Y48000D01*
X153614Y47742D01*
X153748Y47510D01*
X153936Y47322D01*
X154168Y47188D01*
X154426Y47119D01*
X154692D01*
X154950Y47188D01*
X155182Y47322D01*
X155370Y47510D01*
X155504Y47742D01*
X155573Y48000D01*
Y48266D01*
X155504Y48524D01*
X155370Y48756D01*
X155182Y48944D01*
X154950Y49078D01*
X154692Y49147D01*
D02*
G37*
G36*
X152152D02*
X151886D01*
X151628Y49078D01*
X151396Y48944D01*
X151208Y48756D01*
X151074Y48524D01*
X151005Y48266D01*
Y48000D01*
X151074Y47742D01*
X151208Y47510D01*
X151396Y47322D01*
X151628Y47188D01*
X151886Y47119D01*
X152152D01*
X152410Y47188D01*
X152642Y47322D01*
X152830Y47510D01*
X152964Y47742D01*
X153033Y48000D01*
Y48266D01*
X152964Y48524D01*
X152830Y48756D01*
X152642Y48944D01*
X152410Y49078D01*
X152152Y49147D01*
D02*
G37*
G36*
X149612D02*
X149346D01*
X149088Y49078D01*
X148856Y48944D01*
X148668Y48756D01*
X148534Y48524D01*
X148465Y48266D01*
Y48000D01*
X148534Y47742D01*
X148668Y47510D01*
X148856Y47322D01*
X149088Y47188D01*
X149346Y47119D01*
X149612D01*
X149870Y47188D01*
X150102Y47322D01*
X150290Y47510D01*
X150424Y47742D01*
X150493Y48000D01*
Y48266D01*
X150424Y48524D01*
X150290Y48756D01*
X150102Y48944D01*
X149870Y49078D01*
X149612Y49147D01*
D02*
G37*
G36*
X146683D02*
X144655D01*
Y47119D01*
X146683D01*
Y49147D01*
D02*
G37*
G36*
X143262D02*
X142996D01*
X142738Y49078D01*
X142506Y48944D01*
X142318Y48756D01*
X142184Y48524D01*
X142115Y48266D01*
Y48000D01*
X142184Y47742D01*
X142318Y47510D01*
X142506Y47322D01*
X142738Y47188D01*
X142996Y47119D01*
X143262D01*
X143520Y47188D01*
X143752Y47322D01*
X143940Y47510D01*
X144074Y47742D01*
X144143Y48000D01*
Y48266D01*
X144074Y48524D01*
X143940Y48756D01*
X143752Y48944D01*
X143520Y49078D01*
X143262Y49147D01*
D02*
G37*
G36*
X133983Y48006D02*
X133096D01*
Y47119D01*
X133102D01*
X133360Y47188D01*
X133592Y47322D01*
X133780Y47510D01*
X133914Y47742D01*
X133983Y48000D01*
Y48006D01*
D02*
G37*
G36*
X128022Y49147D02*
X127756D01*
X127498Y49078D01*
X127266Y48944D01*
X127078Y48756D01*
X126944Y48524D01*
X126875Y48266D01*
Y48000D01*
X126944Y47742D01*
X127078Y47510D01*
X127266Y47322D01*
X127498Y47188D01*
X127756Y47119D01*
X128022D01*
X128280Y47188D01*
X128512Y47322D01*
X128700Y47510D01*
X128834Y47742D01*
X128903Y48000D01*
Y48266D01*
X128834Y48524D01*
X128700Y48756D01*
X128512Y48944D01*
X128280Y49078D01*
X128022Y49147D01*
D02*
G37*
G36*
X105283Y48514D02*
X103124D01*
Y47117D01*
X105283D01*
Y48514D01*
D02*
G37*
G36*
X102870D02*
X100711D01*
Y47117D01*
X102870D01*
Y48514D01*
D02*
G37*
G36*
X169797Y48766D02*
X167769D01*
Y46738D01*
X169797D01*
Y48766D01*
D02*
G37*
G36*
X125222Y46101D02*
X124989Y46004D01*
X124811Y45826D01*
X124714Y45593D01*
X125222D01*
Y46101D01*
D02*
G37*
G36*
X105283Y46863D02*
X103124D01*
Y45466D01*
X105283D01*
Y46863D01*
D02*
G37*
G36*
X102870D02*
X100711D01*
Y45466D01*
X102870D01*
Y46863D01*
D02*
G37*
G36*
X125222Y45339D02*
X124714D01*
X124811Y45106D01*
X124989Y44928D01*
X125222Y44831D01*
Y45339D01*
D02*
G37*
%LPD*%
G36*
X112377Y90538D02*
X112349Y90565D01*
X112320Y90589D01*
X112291Y90610D01*
X112261Y90628D01*
X112230Y90643D01*
X112198Y90656D01*
X112165Y90665D01*
X112131Y90672D01*
X112097Y90677D01*
X112061Y90678D01*
Y90932D01*
X112097Y90933D01*
X112131Y90938D01*
X112165Y90945D01*
X112198Y90954D01*
X112230Y90967D01*
X112261Y90982D01*
X112291Y91000D01*
X112320Y91021D01*
X112349Y91045D01*
X112377Y91072D01*
Y90538D01*
D02*
G37*
G36*
X108885Y91045D02*
X108914Y91021D01*
X108943Y91000D01*
X108973Y90982D01*
X109004Y90967D01*
X109036Y90954D01*
X109069Y90945D01*
X109103Y90938D01*
X109137Y90933D01*
X109173Y90932D01*
Y90678D01*
X109137Y90677D01*
X109103Y90672D01*
X109069Y90665D01*
X109036Y90656D01*
X109004Y90643D01*
X108973Y90628D01*
X108943Y90610D01*
X108914Y90589D01*
X108885Y90565D01*
X108857Y90538D01*
Y91072D01*
X108885Y91045D01*
D02*
G37*
G36*
X108946Y80773D02*
X108950Y80739D01*
X108957Y80705D01*
X108967Y80672D01*
X108979Y80640D01*
X108995Y80609D01*
X109013Y80579D01*
X109034Y80549D01*
X109057Y80520D01*
X109084Y80493D01*
X108551D01*
X108577Y80520D01*
X108601Y80549D01*
X108622Y80579D01*
X108640Y80609D01*
X108655Y80640D01*
X108668Y80672D01*
X108678Y80705D01*
X108685Y80739D01*
X108689Y80773D01*
X108690Y80808D01*
X108944D01*
X108946Y80773D01*
D02*
G37*
G36*
X100884Y80250D02*
X100913Y80226D01*
X100942Y80205D01*
X100972Y80187D01*
X101003Y80172D01*
X101035Y80159D01*
X101068Y80150D01*
X101102Y80143D01*
X101136Y80138D01*
X101172Y80137D01*
Y79883D01*
X101136Y79882D01*
X101102Y79877D01*
X101068Y79870D01*
X101035Y79861D01*
X101003Y79848D01*
X100972Y79833D01*
X100942Y79815D01*
X100913Y79794D01*
X100884Y79770D01*
X100856Y79743D01*
Y80277D01*
X100884Y80250D01*
D02*
G37*
G36*
X100851Y79738D02*
X100824Y79710D01*
X100800Y79681D01*
X100779Y79652D01*
X100761Y79622D01*
X100746Y79590D01*
X100733Y79559D01*
X100724Y79526D01*
X100717Y79492D01*
X100712Y79458D01*
X100711Y79422D01*
X100457Y79422D01*
X100456Y79458D01*
X100451Y79492D01*
X100444Y79526D01*
X100435Y79559D01*
X100422Y79591D01*
X100407Y79622D01*
X100389Y79652D01*
X100368Y79681D01*
X100344Y79710D01*
X100317Y79738D01*
X100851Y79738D01*
D02*
G37*
G36*
X100711Y72978D02*
X100712Y72942D01*
X100717Y72908D01*
X100724Y72874D01*
X100733Y72841D01*
X100746Y72809D01*
X100761Y72778D01*
X100779Y72748D01*
X100800Y72719D01*
X100824Y72690D01*
X100851Y72662D01*
X100317Y72662D01*
X100344Y72690D01*
X100368Y72719D01*
X100388Y72748D01*
X100407Y72778D01*
X100422Y72810D01*
X100435Y72841D01*
X100444Y72874D01*
X100451Y72908D01*
X100456Y72942D01*
X100457Y72978D01*
X100711Y72978D01*
D02*
G37*
G36*
X137948Y77713D02*
X137917Y77682D01*
X137804Y77552D01*
X137796Y77540D01*
X137792Y77530D01*
X137791Y77522D01*
X137369Y77848D01*
X137525Y78009D01*
X137948Y77713D01*
D02*
G37*
G36*
X166497Y74032D02*
X166417Y73593D01*
X165957Y73840D01*
X165963Y73844D01*
X165969Y73853D01*
X165973Y73865D01*
X165978Y73882D01*
X165981Y73903D01*
X165986Y73959D01*
X165989Y74033D01*
X165989Y74076D01*
X166497Y74032D01*
D02*
G37*
G36*
X164320Y69710D02*
X164292Y69737D01*
X164263Y69761D01*
X164234Y69782D01*
X164204Y69800D01*
X164173Y69815D01*
X164141Y69828D01*
X164108Y69837D01*
X164074Y69844D01*
X164040Y69849D01*
X164004Y69850D01*
Y70104D01*
X164040Y70105D01*
X164074Y70110D01*
X164108Y70117D01*
X164141Y70126D01*
X164173Y70139D01*
X164204Y70154D01*
X164234Y70172D01*
X164263Y70193D01*
X164292Y70217D01*
X164320Y70244D01*
Y69710D01*
D02*
G37*
G36*
X160193Y70217D02*
X160222Y70193D01*
X160251Y70172D01*
X160281Y70154D01*
X160312Y70139D01*
X160344Y70126D01*
X160377Y70117D01*
X160411Y70110D01*
X160445Y70105D01*
X160481Y70104D01*
Y69850D01*
X160445Y69849D01*
X160411Y69844D01*
X160377Y69837D01*
X160344Y69828D01*
X160312Y69815D01*
X160281Y69800D01*
X160251Y69782D01*
X160222Y69761D01*
X160193Y69737D01*
X160165Y69710D01*
Y70244D01*
X160193Y70217D01*
D02*
G37*
G36*
X154899Y69635D02*
X154864Y69652D01*
X154793Y69680D01*
X154758Y69691D01*
X154689Y69709D01*
X154655Y69715D01*
X154588Y69722D01*
X154554Y69723D01*
X154457Y69977D01*
X154494Y69979D01*
X154529Y69983D01*
X154561Y69991D01*
X154591Y70003D01*
X154618Y70017D01*
X154643Y70035D01*
X154666Y70056D01*
X154687Y70080D01*
X154705Y70107D01*
X154722Y70138D01*
X154899Y69635D01*
D02*
G37*
G36*
X151430Y70090D02*
X151459Y70066D01*
X151488Y70045D01*
X151518Y70027D01*
X151549Y70012D01*
X151581Y69999D01*
X151614Y69990D01*
X151648Y69983D01*
X151682Y69978D01*
X151718Y69977D01*
Y69723D01*
X151682Y69722D01*
X151648Y69717D01*
X151614Y69710D01*
X151581Y69701D01*
X151549Y69688D01*
X151518Y69673D01*
X151488Y69655D01*
X151459Y69634D01*
X151430Y69610D01*
X151402Y69583D01*
Y70117D01*
X151430Y70090D01*
D02*
G37*
G36*
X150378Y76558D02*
X150376Y76549D01*
X150374Y76536D01*
X150371Y76497D01*
X150368Y76366D01*
X150368Y76322D01*
X149860D01*
X149847Y76563D01*
X150381D01*
X150378Y76558D01*
D02*
G37*
G36*
X150368Y69506D02*
X150376Y69375D01*
X150380Y69353D01*
X150385Y69335D01*
X150390Y69321D01*
X150395Y69312D01*
X150402Y69306D01*
X149899Y69129D01*
X149860Y69549D01*
X150368D01*
X150368Y69506D01*
D02*
G37*
G36*
X105753Y63570D02*
X105782Y63546D01*
X105812Y63525D01*
X105842Y63507D01*
X105873Y63491D01*
X105905Y63479D01*
X105938Y63469D01*
X105971Y63462D01*
X106006Y63458D01*
X106041Y63456D01*
Y63202D01*
X106006Y63201D01*
X105971Y63197D01*
X105938Y63190D01*
X105905Y63180D01*
X105873Y63168D01*
X105842Y63152D01*
X105812Y63134D01*
X105782Y63113D01*
X105753Y63089D01*
X105726Y63063D01*
Y63596D01*
X105753Y63570D01*
D02*
G37*
G36*
X112434Y63060D02*
X112407Y63087D01*
X112379Y63111D01*
X112350Y63133D01*
X112321Y63151D01*
X112290Y63167D01*
X112258Y63180D01*
X112226Y63190D01*
X112192Y63197D01*
X112158Y63201D01*
X112122Y63202D01*
X112130Y63456D01*
X112165Y63458D01*
X112199Y63462D01*
X112233Y63469D01*
X112266Y63478D01*
X112299Y63491D01*
X112330Y63506D01*
X112361Y63523D01*
X112391Y63544D01*
X112421Y63567D01*
X112449Y63593D01*
X112434Y63060D01*
D02*
G37*
G36*
X166820Y65586D02*
X166790Y65566D01*
X166763Y65545D01*
X166739Y65521D01*
X166719Y65496D01*
X166701Y65469D01*
X166687Y65440D01*
X166676Y65409D01*
X166668Y65376D01*
X166664Y65342D01*
X166662Y65305D01*
X166408Y65371D01*
X166407Y65404D01*
X166404Y65438D01*
X166398Y65472D01*
X166391Y65506D01*
X166381Y65540D01*
X166370Y65574D01*
X166356Y65608D01*
X166340Y65643D01*
X166301Y65711D01*
X166820Y65586D01*
D02*
G37*
G36*
X170308Y62978D02*
X170312Y62934D01*
X170318Y62896D01*
X170327Y62862D01*
X170339Y62834D01*
X170353Y62811D01*
X170369Y62793D01*
X170388Y62780D01*
X170410Y62772D01*
X170434Y62770D01*
X169926D01*
X169950Y62772D01*
X169972Y62780D01*
X169991Y62793D01*
X170007Y62811D01*
X170021Y62834D01*
X170033Y62862D01*
X170042Y62896D01*
X170048Y62934D01*
X170052Y62978D01*
X170053Y63027D01*
X170307D01*
X170308Y62978D01*
D02*
G37*
G36*
X171962Y56530D02*
X171975Y56471D01*
X171997Y56413D01*
X172027Y56354D01*
X172066Y56295D01*
X172114Y56236D01*
X172171Y56176D01*
X172236Y56116D01*
X172309Y56056D01*
X172392Y55996D01*
X171343Y55818D01*
X171411Y55915D01*
X171574Y56173D01*
X171614Y56249D01*
X171671Y56383D01*
X171690Y56442D01*
X171700Y56496D01*
X171704Y56544D01*
X171958Y56588D01*
X171962Y56530D01*
D02*
G37*
G36*
X140991Y50769D02*
X140965Y50770D01*
X140938Y50768D01*
X140910Y50761D01*
X140880Y50750D01*
X140850Y50735D01*
X140818Y50716D01*
X140785Y50693D01*
X140751Y50666D01*
X140679Y50600D01*
X140499Y50780D01*
X140522Y50804D01*
X140540Y50828D01*
X140555Y50851D01*
X140565Y50874D01*
X140570Y50896D01*
X140571Y50917D01*
X140568Y50937D01*
X140561Y50957D01*
X140549Y50976D01*
X140533Y50994D01*
X140991Y50769D01*
D02*
G37*
G36*
X124297Y70299D02*
X124267Y70277D01*
X124241Y70253D01*
X124218Y70228D01*
X124198Y70201D01*
X124181Y70173D01*
X124167Y70143D01*
X124156Y70111D01*
X124149Y70078D01*
X124144Y70044D01*
X124143Y70008D01*
X123888Y70053D01*
X123887Y70088D01*
X123884Y70122D01*
X123878Y70156D01*
X123870Y70190D01*
X123859Y70223D01*
X123846Y70257D01*
X123831Y70290D01*
X123813Y70323D01*
X123793Y70356D01*
X123771Y70388D01*
X124297Y70299D01*
D02*
G37*
G36*
X124143Y67996D02*
X124144Y67961D01*
X124147Y67927D01*
X124153Y67893D01*
X124161Y67859D01*
X124172Y67826D01*
X124185Y67792D01*
X124200Y67759D01*
X124218Y67726D01*
X124238Y67693D01*
X124260Y67661D01*
X123734Y67750D01*
X123764Y67772D01*
X123790Y67796D01*
X123813Y67821D01*
X123833Y67848D01*
X123850Y67876D01*
X123864Y67906D01*
X123875Y67938D01*
X123882Y67971D01*
X123887Y68005D01*
X123888Y68041D01*
X124143Y67996D01*
D02*
G37*
G36*
X123680Y67170D02*
X123652Y67197D01*
X123623Y67221D01*
X123594Y67242D01*
X123564Y67260D01*
X123533Y67275D01*
X123501Y67288D01*
X123468Y67297D01*
X123434Y67304D01*
X123400Y67309D01*
X123364Y67310D01*
Y67564D01*
X123400Y67565D01*
X123434Y67570D01*
X123468Y67577D01*
X123501Y67586D01*
X123533Y67599D01*
X123564Y67614D01*
X123594Y67632D01*
X123623Y67653D01*
X123652Y67677D01*
X123680Y67704D01*
Y67170D01*
D02*
G37*
G36*
X115704Y64199D02*
X115708Y64165D01*
X115715Y64131D01*
X115725Y64098D01*
X115737Y64066D01*
X115752Y64035D01*
X115771Y64005D01*
X115792Y63975D01*
X115815Y63946D01*
X115842Y63919D01*
X115308D01*
X115335Y63946D01*
X115359Y63975D01*
X115380Y64005D01*
X115398Y64035D01*
X115413Y64066D01*
X115426Y64098D01*
X115436Y64131D01*
X115443Y64165D01*
X115447Y64199D01*
X115448Y64234D01*
X115702D01*
X115704Y64199D01*
D02*
G37*
G36*
X127257Y55705D02*
X127264Y55662D01*
X127277Y55623D01*
X127295Y55590D01*
X127317Y55562D01*
X127345Y55540D01*
X127378Y55522D01*
X127417Y55509D01*
X127460Y55502D01*
X127508Y55499D01*
X127127Y55245D01*
X126746Y55499D01*
X126794Y55502D01*
X126837Y55509D01*
X126876Y55522D01*
X126909Y55540D01*
X126937Y55562D01*
X126959Y55590D01*
X126977Y55623D01*
X126990Y55662D01*
X126997Y55705D01*
X127000Y55753D01*
X127254D01*
X127257Y55705D01*
D02*
G37*
G36*
X135887Y52435D02*
X135889Y52402D01*
X135891Y52389D01*
X135893Y52378D01*
X135896Y52369D01*
X135900Y52363D01*
X135904Y52358D01*
X135909Y52356D01*
X135914Y52355D01*
X135615Y52254D01*
X135619Y52258D01*
X135621Y52265D01*
X135624Y52276D01*
X135626Y52291D01*
X135630Y52331D01*
X135632Y52418D01*
X135632Y52455D01*
X135886D01*
X135887Y52435D01*
D02*
G37*
G36*
X138451Y50769D02*
X138425Y50770D01*
X138398Y50768D01*
X138370Y50761D01*
X138340Y50750D01*
X138310Y50735D01*
X138278Y50716D01*
X138245Y50693D01*
X138211Y50666D01*
X138139Y50600D01*
X137959Y50780D01*
X137982Y50804D01*
X138000Y50828D01*
X138015Y50851D01*
X138025Y50874D01*
X138030Y50896D01*
X138031Y50917D01*
X138028Y50937D01*
X138021Y50957D01*
X138009Y50976D01*
X137993Y50994D01*
X138451Y50769D01*
D02*
G37*
G36*
X165609Y48714D02*
X165613Y48670D01*
X165619Y48632D01*
X165628Y48598D01*
X165640Y48570D01*
X165654Y48547D01*
X165670Y48529D01*
X165689Y48516D01*
X165711Y48508D01*
X165735Y48506D01*
X165227D01*
X165251Y48508D01*
X165273Y48516D01*
X165292Y48529D01*
X165308Y48547D01*
X165322Y48570D01*
X165334Y48598D01*
X165343Y48632D01*
X165349Y48670D01*
X165353Y48714D01*
X165354Y48763D01*
X165608D01*
X165609Y48714D01*
D02*
G37*
G36*
X132426Y47601D02*
X132348Y47678D01*
X132200Y47808D01*
X132130Y47860D01*
X132062Y47905D01*
X131997Y47941D01*
X131935Y47970D01*
X131875Y47990D01*
X131818Y48002D01*
X131764Y48006D01*
Y48260D01*
X131818Y48264D01*
X131875Y48276D01*
X131935Y48296D01*
X131997Y48325D01*
X132062Y48361D01*
X132130Y48406D01*
X132200Y48458D01*
X132348Y48588D01*
X132426Y48665D01*
Y47601D01*
D02*
G37*
G36*
X131050Y48588D02*
X131198Y48458D01*
X131268Y48406D01*
X131336Y48361D01*
X131401Y48325D01*
X131463Y48296D01*
X131523Y48276D01*
X131580Y48264D01*
X131634Y48260D01*
Y48006D01*
X131580Y48002D01*
X131523Y47990D01*
X131463Y47970D01*
X131401Y47941D01*
X131336Y47905D01*
X131268Y47860D01*
X131198Y47808D01*
X131050Y47678D01*
X130972Y47601D01*
Y48665D01*
X131050Y48588D01*
D02*
G37*
G36*
X130884Y47512D02*
X130754Y47364D01*
X130702Y47294D01*
X130657Y47226D01*
X130621Y47161D01*
X130592Y47099D01*
X130572Y47039D01*
X130560Y46982D01*
X130556Y46928D01*
X130302D01*
X130298Y46982D01*
X130286Y47039D01*
X130266Y47099D01*
X130237Y47161D01*
X130201Y47226D01*
X130156Y47294D01*
X130104Y47364D01*
X129974Y47512D01*
X129897Y47590D01*
X130961D01*
X130884Y47512D01*
D02*
G37*
G36*
X125649Y45706D02*
X125678Y45682D01*
X125707Y45661D01*
X125737Y45643D01*
X125768Y45628D01*
X125800Y45615D01*
X125833Y45606D01*
X125867Y45599D01*
X125901Y45594D01*
X125937Y45593D01*
Y45339D01*
X125901Y45338D01*
X125867Y45333D01*
X125833Y45326D01*
X125800Y45317D01*
X125768Y45304D01*
X125737Y45289D01*
X125707Y45271D01*
X125678Y45250D01*
X125649Y45226D01*
X125621Y45199D01*
Y45733D01*
X125649Y45706D01*
D02*
G37*
G36*
X162409Y50636D02*
X162387Y50628D01*
X162368Y50615D01*
X162352Y50597D01*
X162338Y50575D01*
X162326Y50547D01*
X162317Y50514D01*
X162311Y50475D01*
X162307Y50432D01*
X162306Y50384D01*
X162052D01*
X162051Y50432D01*
X162047Y50475D01*
X162041Y50514D01*
X162032Y50547D01*
X162020Y50575D01*
X162006Y50597D01*
X161990Y50615D01*
X161971Y50628D01*
X161949Y50636D01*
X161925Y50638D01*
X162433D01*
X162409Y50636D01*
D02*
G37*
G36*
X162307Y49095D02*
X162311Y49051D01*
X162317Y49013D01*
X162326Y48979D01*
X162338Y48951D01*
X162352Y48928D01*
X162368Y48910D01*
X162387Y48897D01*
X162409Y48889D01*
X162433Y48887D01*
X161925D01*
X161949Y48889D01*
X161971Y48897D01*
X161990Y48910D01*
X162006Y48928D01*
X162020Y48951D01*
X162032Y48979D01*
X162041Y49013D01*
X162047Y49051D01*
X162051Y49095D01*
X162052Y49144D01*
X162306D01*
X162307Y49095D01*
D02*
G37*
D12*
X166243Y73472D02*
Y78740D01*
X166055Y73472D02*
X166243D01*
X138120Y78740D02*
X166243D01*
X150114Y69157D02*
X150241Y69030D01*
X150114Y69157D02*
Y76835D01*
X150241Y68961D02*
Y69030D01*
X137414Y77539D02*
X137822Y77947D01*
X137414Y77470D02*
Y77539D01*
X137822Y77947D02*
Y78442D01*
X138120Y78740D01*
D20*
X108585Y90805D02*
X112649D01*
X116071Y93973D02*
X116078Y93980D01*
X116064Y82857D02*
X116071Y82864D01*
Y93973D01*
X114046Y75968D02*
Y84943D01*
X161925Y51435D02*
X162179Y51181D01*
X112014Y75819D02*
X113897D01*
X114046Y75968D01*
X95780Y68961D02*
X113348D01*
X95631Y69110D02*
Y88773D01*
X116396Y72009D02*
X116491Y71914D01*
X116476Y71928D02*
X116491Y71914D01*
X116300D02*
X116491D01*
X113348Y68961D02*
X116300Y71914D01*
X95631Y69110D02*
X95780Y68961D01*
X105454Y63329D02*
X112626D01*
X123317Y56515D02*
Y66294D01*
X115575Y63647D02*
Y67288D01*
X115724Y67437D01*
X123952D01*
X124016Y67501D01*
X108680Y80221D02*
X108817D01*
X108469Y80010D02*
X108680Y80221D01*
X108585Y90668D02*
X108817Y90435D01*
X100584Y80010D02*
X108469D01*
X108817Y80221D02*
Y90435D01*
X100584Y80010D02*
X100584Y80010D01*
X108585Y90668D02*
Y90805D01*
X138176Y46355D02*
X164084D01*
X165481Y47752D01*
X170434Y59436D02*
X171831Y58039D01*
Y55499D02*
Y58039D01*
Y55499D02*
X171958Y55372D01*
X138176Y81915D02*
X173079D01*
X173228Y81766D01*
Y49022D02*
Y81766D01*
X138430Y67691D02*
Y72898D01*
X114554Y59817D02*
X116337D01*
X136622Y49792D02*
X136779Y49635D01*
X118597Y49792D02*
X136622D01*
X104330Y86043D02*
X104394Y86106D01*
X99060Y85979D02*
X99123Y86043D01*
X104330D01*
X100584Y72390D02*
Y80010D01*
X100584Y72390D02*
X100584Y72390D01*
X116476Y71928D02*
Y74692D01*
X117285Y75502D01*
X171958Y47752D02*
X173228Y49022D01*
X102870Y60833D02*
X106426D01*
X106553Y60960D01*
X132842Y55372D02*
X134239Y53975D01*
X127127Y55372D02*
Y59182D01*
Y55372D02*
X132842D01*
X134239Y53975D02*
X135759Y52455D01*
Y51820D02*
X136017Y51562D01*
X134239Y53975D02*
Y53975D01*
X135759Y51820D02*
Y52455D01*
X112776Y55372D02*
X122047D01*
X127127D01*
X141986Y73152D02*
X142113Y73025D01*
X144018D01*
X153416Y59436D02*
X165354D01*
X134874Y57785D02*
Y72898D01*
Y57785D02*
X141097Y51562D01*
X117285Y75502D02*
X134874D01*
X144208D01*
X132229Y73660D02*
X139319D01*
X132080Y73511D02*
X132229Y73660D01*
X132080Y62611D02*
Y73511D01*
X161544Y73660D02*
Y77343D01*
X155829Y67945D02*
X161544Y73660D01*
X155829Y65786D02*
Y67945D01*
X159893Y69977D02*
X164592D01*
X151130Y69850D02*
X154940D01*
X146622Y66230D02*
X153416Y59436D01*
X165227Y59563D02*
X165354Y59436D01*
X141097Y51562D02*
X143764Y54229D01*
X167237D01*
X143193Y66230D02*
X146622D01*
X142897Y66145D02*
X143107D01*
X143193Y66230D01*
X142748Y66294D02*
X142897Y66145D01*
X142748Y66294D02*
Y72136D01*
X154940Y69850D02*
X155067Y69977D01*
X167642Y59184D02*
X167894Y59436D01*
X167642Y54634D02*
Y59184D01*
X167237Y54229D02*
X167642Y54634D01*
X141097Y51198D02*
Y51562D01*
X140589Y48133D02*
Y50690D01*
X141097Y51198D01*
X144208Y75502D02*
X145161Y74549D01*
Y68326D02*
Y74549D01*
X136462Y80201D02*
X138176Y81915D01*
X117412Y80201D02*
X136462D01*
X115697Y78485D02*
X117412Y80201D01*
X115697Y78359D02*
Y78485D01*
X111506Y56261D02*
X119380D01*
X119507Y56388D01*
X165481Y47752D02*
Y50292D01*
X162179Y48133D02*
Y51181D01*
X169164Y57023D02*
Y61827D01*
X167894Y61976D02*
X169015D01*
X169164Y61827D01*
Y57023D02*
X170180Y56007D01*
Y54229D02*
Y56007D01*
X166535Y65824D02*
X166624Y65913D01*
X166535Y56426D02*
Y65824D01*
X165481Y55372D02*
X166535Y56426D01*
X170180Y62230D02*
X170434Y61976D01*
X168783Y52832D02*
X170180Y54229D01*
X130429Y48133D02*
X132969D01*
X130429Y45466D02*
Y48133D01*
X138049D02*
Y50690D01*
X138557Y51198D01*
Y51562D01*
X138113Y46418D02*
Y48069D01*
Y46418D02*
X138176Y46355D01*
X138049Y48133D02*
X138113Y48069D01*
X136779Y46504D02*
Y49635D01*
Y46504D02*
X136928Y46355D01*
X138176D01*
X165100Y62230D02*
X165354Y61976D01*
X124016Y67501D02*
Y70549D01*
X124079Y70612D01*
X110490Y55267D02*
X111782Y53975D01*
X110490Y55267D02*
Y58674D01*
X111782Y53975D02*
X125857D01*
X170180Y62230D02*
Y80115D01*
X139319Y80264D02*
X170031D01*
X170180Y80115D01*
X151638Y76454D02*
X152908Y77724D01*
X151638Y72009D02*
Y76454D01*
X152908Y72009D02*
Y76454D01*
X154305Y77851D01*
X125349Y45466D02*
X130429D01*
D72*
X102997Y46990D02*
D03*
D73*
X99187Y52070D02*
D03*
X105537D02*
D03*
D74*
X161925Y51435D02*
D03*
X123567Y86106D02*
D03*
X149606D02*
D03*
X170434Y61976D02*
D03*
X146177Y51562D02*
D03*
D75*
X159385Y51435D02*
D03*
X156845D02*
D03*
X154305D02*
D03*
X151765D02*
D03*
X149225D02*
D03*
X128647Y86106D02*
D03*
X146427D02*
D03*
X143887D02*
D03*
X141347D02*
D03*
X138807D02*
D03*
X136267D02*
D03*
X133727D02*
D03*
X131187D02*
D03*
X126107D02*
D03*
X152146D02*
D03*
X154686D02*
D03*
X157226D02*
D03*
X159766D02*
D03*
X162306D02*
D03*
X164846D02*
D03*
X167386D02*
D03*
X165354Y61976D02*
D03*
X167894D02*
D03*
X165354Y59436D02*
D03*
X167894D02*
D03*
X170434D02*
D03*
X128397Y51562D02*
D03*
X130937D02*
D03*
X133477D02*
D03*
X136017D02*
D03*
X138557D02*
D03*
X141097D02*
D03*
X143637D02*
D03*
D76*
X162179Y48133D02*
D03*
X167890Y91313D02*
D03*
X146431D02*
D03*
X145669Y48133D02*
D03*
X109474Y70485D02*
D03*
D77*
X159639Y48133D02*
D03*
X157099D02*
D03*
X154559D02*
D03*
X152019D02*
D03*
X149479D02*
D03*
X165350Y91313D02*
D03*
X162810D02*
D03*
X160270D02*
D03*
X157730D02*
D03*
X155190D02*
D03*
X152650D02*
D03*
X150110D02*
D03*
X143891D02*
D03*
X138811D02*
D03*
X136271D02*
D03*
X133731D02*
D03*
X131191D02*
D03*
X128651D02*
D03*
X126111D02*
D03*
X123571D02*
D03*
X141351D02*
D03*
X171958Y50292D02*
D03*
Y52832D02*
D03*
Y55372D02*
D03*
X168783D02*
D03*
Y52832D02*
D03*
Y50292D02*
D03*
X165481Y55372D02*
D03*
Y52832D02*
D03*
Y50292D02*
D03*
X143129Y48133D02*
D03*
X140589D02*
D03*
X138049D02*
D03*
X135509D02*
D03*
X132969D02*
D03*
X130429D02*
D03*
X127889D02*
D03*
X101854Y70485D02*
D03*
X104394D02*
D03*
X106934D02*
D03*
D78*
X117856Y78867D02*
D03*
Y74295D02*
D03*
Y69469D02*
D03*
D79*
Y81407D02*
D03*
Y76835D02*
D03*
Y72009D02*
D03*
D80*
X171958Y47752D02*
D03*
X168783D02*
D03*
X165481D02*
D03*
D81*
X171958Y84201D02*
D03*
X111887Y44831D02*
D03*
X120650Y91059D02*
D03*
D82*
X112649Y90805D02*
D03*
X114046Y84943D02*
D03*
X125349Y45466D02*
D03*
X122047Y55372D02*
D03*
X105454Y63329D02*
D03*
X115697Y78359D02*
D03*
X112014Y75819D02*
D03*
X123317Y56515D02*
D03*
Y66294D02*
D03*
X123952Y67437D02*
D03*
X108817Y80221D02*
D03*
X166055Y73472D02*
D03*
X150114Y76835D02*
D03*
X150241Y68961D02*
D03*
X138430Y67691D02*
D03*
X115575Y63647D02*
D03*
X116337Y59817D02*
D03*
X102870Y60833D02*
D03*
X116064Y82857D02*
D03*
X118597Y49792D02*
D03*
X114427Y59817D02*
D03*
X112776Y55274D02*
D03*
X112714Y63319D02*
D03*
X100584Y72390D02*
D03*
X104394Y86106D02*
D03*
X116396Y72009D02*
D03*
X100584Y80010D02*
D03*
X99060Y85979D02*
D03*
X108585Y90805D02*
D03*
X125857Y53975D02*
D03*
X127127Y59182D02*
D03*
X106553Y60960D02*
D03*
X141986Y73152D02*
D03*
X144018Y73025D02*
D03*
X138430Y72898D02*
D03*
X116078Y93980D02*
D03*
X134874Y72898D02*
D03*
Y75502D02*
D03*
X161544Y77343D02*
D03*
X155829Y65786D02*
D03*
X152273Y67564D02*
D03*
X151638Y68453D02*
D03*
X151130Y69850D02*
D03*
X145161Y68326D02*
D03*
X137414Y77470D02*
D03*
X138176Y46355D02*
D03*
X142748Y72136D02*
D03*
X95631Y88773D02*
D03*
X124079Y70612D02*
D03*
X110490Y58674D02*
D03*
X111506Y56261D02*
D03*
X119507Y56388D02*
D03*
X139319Y80264D02*
D03*
X164592Y69977D02*
D03*
X159893D02*
D03*
X155067D02*
D03*
X166624Y65913D02*
D03*
X154305Y77851D02*
D03*
X152908Y72009D02*
D03*
X151638D02*
D03*
X152908Y77724D02*
D03*
X139319Y73660D02*
D03*
X132080Y62611D02*
D03*
M02*
