G04*
G04 #@! TF.GenerationSoftware,Altium Limited,Altium Designer,21.2.1 (34)*
G04*
G04 Layer_Color=16711935*
%FSLAX43Y43*%
%MOMM*%
G71*
G04*
G04 #@! TF.SameCoordinates,427E456E-B420-4228-82AE-AA47295AEFF1*
G04*
G04*
G04 #@! TF.FilePolarity,Positive*
G04*
G01*
G75*
%ADD21C,0.152*%
%ADD83C,0.050*%
%ADD84C,0.100*%
%ADD85C,0.000*%
%ADD86R,2.920X0.619*%
D21*
X104470Y66040D02*
Y68326D01*
X103454D02*
X104470D01*
X103454Y66040D02*
X104470D01*
X107264D02*
Y68326D01*
Y66040D02*
X108280D01*
X107264Y68326D02*
X108280D01*
X104470Y66040D02*
X107264D01*
X108280D02*
Y68326D01*
X104470D02*
X107264D01*
X103454Y66040D02*
Y68326D01*
D83*
X156715Y67539D02*
X156739Y67282D01*
X156810Y67033D01*
X156925Y66802D01*
X157080Y66596D01*
X157271Y66422D01*
X157491Y66286D01*
X157732Y66192D01*
X157986Y66145D01*
X158244D01*
X158498Y66192D01*
X158739Y66286D01*
X158959Y66422D01*
X159150Y66596D01*
X159305Y66802D01*
X159420Y67033D01*
X159491Y67282D01*
X159515Y67539D01*
X156215D02*
X156231Y67291D01*
X156280Y67047D01*
X156360Y66812D01*
X156470Y66589D01*
X156608Y66382D01*
X156771Y66196D01*
X156958Y66032D01*
X157165Y65894D01*
X157388Y65784D01*
X157623Y65704D01*
X157867Y65655D01*
X158115Y65639D01*
X158363Y65655D01*
X158607Y65704D01*
X158842Y65784D01*
X159065Y65894D01*
X159272Y66032D01*
X159458Y66196D01*
X159622Y66382D01*
X159760Y66589D01*
X159870Y66812D01*
X159950Y67047D01*
X159999Y67291D01*
X160015Y67539D01*
X159515Y73939D02*
X159491Y74196D01*
X159420Y74445D01*
X159305Y74676D01*
X159150Y74882D01*
X158959Y75056D01*
X158739Y75192D01*
X158498Y75286D01*
X158244Y75333D01*
X157986D01*
X157732Y75286D01*
X157491Y75192D01*
X157271Y75056D01*
X157080Y74882D01*
X156925Y74676D01*
X156810Y74445D01*
X156739Y74196D01*
X156715Y73939D01*
X160015D02*
X159999Y74187D01*
X159950Y74431D01*
X159870Y74666D01*
X159760Y74889D01*
X159622Y75096D01*
X159458Y75283D01*
X159272Y75446D01*
X159065Y75584D01*
X158842Y75694D01*
X158607Y75774D01*
X158363Y75823D01*
X158115Y75839D01*
X157867Y75823D01*
X157623Y75774D01*
X157388Y75694D01*
X157165Y75584D01*
X156958Y75446D01*
X156771Y75283D01*
X156608Y75096D01*
X156470Y74889D01*
X156360Y74666D01*
X156280Y74431D01*
X156231Y74187D01*
X156215Y73939D01*
X160465D02*
X160451Y74193D01*
X160410Y74444D01*
X160342Y74689D01*
X160248Y74926D01*
X160129Y75151D01*
X159986Y75361D01*
X159821Y75555D01*
X159636Y75730D01*
X159434Y75884D01*
X159216Y76015D01*
X158985Y76122D01*
X158744Y76203D01*
X158495Y76258D01*
X158242Y76286D01*
X157988D01*
X157735Y76258D01*
X157486Y76203D01*
X157245Y76122D01*
X157014Y76015D01*
X156796Y75884D01*
X156594Y75730D01*
X156409Y75555D01*
X156244Y75361D01*
X156101Y75151D01*
X155982Y74926D01*
X155888Y74689D01*
X155820Y74444D01*
X155779Y74193D01*
X155765Y73939D01*
Y67539D02*
X155779Y67285D01*
X155820Y67034D01*
X155888Y66789D01*
X155982Y66552D01*
X156101Y66327D01*
X156244Y66117D01*
X156409Y65923D01*
X156594Y65748D01*
X156796Y65594D01*
X157014Y65463D01*
X157245Y65356D01*
X157486Y65275D01*
X157735Y65220D01*
X157988Y65192D01*
X158242D01*
X158495Y65220D01*
X158744Y65275D01*
X158985Y65356D01*
X159216Y65463D01*
X159434Y65594D01*
X159636Y65748D01*
X159821Y65923D01*
X159986Y66117D01*
X160129Y66327D01*
X160248Y66552D01*
X160342Y66789D01*
X160410Y67034D01*
X160451Y67285D01*
X160465Y67539D01*
X160530Y76289D02*
X160457Y76466D01*
X160280Y76539D01*
Y64939D02*
X160457Y65012D01*
X160530Y65189D01*
X155700D02*
X155773Y65012D01*
X155950Y64939D01*
Y76539D02*
X155773Y76466D01*
X155700Y76289D01*
X101896Y86100D02*
X101969Y85923D01*
X102146Y85850D01*
X113246D02*
X113423Y85923D01*
X113496Y86100D01*
Y90430D02*
X113423Y90607D01*
X113246Y90680D01*
X102146D02*
X101969Y90607D01*
X101896Y90430D01*
X110896Y85915D02*
X111150Y85929D01*
X111401Y85970D01*
X111646Y86038D01*
X111883Y86132D01*
X112108Y86251D01*
X112318Y86394D01*
X112512Y86559D01*
X112687Y86744D01*
X112841Y86946D01*
X112972Y87164D01*
X113079Y87395D01*
X113160Y87636D01*
X113215Y87885D01*
X113243Y88138D01*
Y88392D01*
X113215Y88645D01*
X113160Y88894D01*
X113079Y89135D01*
X112972Y89366D01*
X112841Y89584D01*
X112687Y89786D01*
X112512Y89971D01*
X112318Y90136D01*
X112108Y90279D01*
X111883Y90398D01*
X111646Y90492D01*
X111401Y90560D01*
X111150Y90601D01*
X110896Y90615D01*
X104496D02*
X104242Y90601D01*
X103991Y90560D01*
X103746Y90492D01*
X103509Y90398D01*
X103284Y90279D01*
X103074Y90136D01*
X102880Y89971D01*
X102705Y89786D01*
X102551Y89584D01*
X102420Y89366D01*
X102313Y89135D01*
X102232Y88894D01*
X102177Y88645D01*
X102149Y88392D01*
Y88138D01*
X102177Y87885D01*
X102232Y87636D01*
X102313Y87395D01*
X102420Y87164D01*
X102551Y86946D01*
X102705Y86744D01*
X102880Y86559D01*
X103074Y86394D01*
X103284Y86251D01*
X103509Y86132D01*
X103746Y86038D01*
X103991Y85970D01*
X104242Y85929D01*
X104496Y85915D01*
Y90165D02*
X104248Y90149D01*
X104004Y90100D01*
X103769Y90020D01*
X103546Y89910D01*
X103339Y89772D01*
X103152Y89608D01*
X102989Y89422D01*
X102851Y89215D01*
X102741Y88992D01*
X102661Y88757D01*
X102612Y88513D01*
X102596Y88265D01*
X102612Y88017D01*
X102661Y87773D01*
X102741Y87538D01*
X102851Y87315D01*
X102989Y87108D01*
X103152Y86922D01*
X103339Y86758D01*
X103546Y86620D01*
X103769Y86510D01*
X104004Y86430D01*
X104248Y86381D01*
X104496Y86365D01*
Y89665D02*
X104239Y89641D01*
X103990Y89570D01*
X103759Y89455D01*
X103553Y89300D01*
X103379Y89109D01*
X103243Y88889D01*
X103149Y88648D01*
X103102Y88394D01*
Y88136D01*
X103149Y87882D01*
X103243Y87641D01*
X103379Y87421D01*
X103553Y87230D01*
X103759Y87075D01*
X103990Y86960D01*
X104239Y86889D01*
X104496Y86865D01*
X110896Y86365D02*
X111144Y86381D01*
X111388Y86430D01*
X111623Y86510D01*
X111846Y86620D01*
X112053Y86758D01*
X112240Y86922D01*
X112403Y87108D01*
X112541Y87315D01*
X112651Y87538D01*
X112731Y87773D01*
X112780Y88017D01*
X112796Y88265D01*
X112780Y88513D01*
X112731Y88757D01*
X112651Y88992D01*
X112541Y89215D01*
X112403Y89422D01*
X112240Y89608D01*
X112053Y89772D01*
X111846Y89910D01*
X111623Y90020D01*
X111388Y90100D01*
X111144Y90149D01*
X110896Y90165D01*
Y86865D02*
X111153Y86889D01*
X111402Y86960D01*
X111633Y87075D01*
X111839Y87230D01*
X112013Y87421D01*
X112149Y87641D01*
X112243Y87882D01*
X112290Y88136D01*
Y88394D01*
X112243Y88648D01*
X112149Y88889D01*
X112013Y89109D01*
X111839Y89300D01*
X111633Y89455D01*
X111402Y89570D01*
X111153Y89641D01*
X110896Y89665D01*
X156215Y67539D02*
Y73939D01*
X156715Y67539D02*
Y73939D01*
X159515Y67539D02*
Y73939D01*
X160015Y67539D02*
Y73939D01*
X155765Y67539D02*
Y73939D01*
X160465Y67539D02*
Y73939D01*
X160530Y65189D02*
Y76289D01*
X155950Y64939D02*
X160280D01*
X155700Y65189D02*
Y76289D01*
X155950Y76539D02*
X160280D01*
X157665Y77139D02*
X158565D01*
Y76539D02*
Y77139D01*
X157665Y76539D02*
Y77139D01*
Y64339D02*
X158565D01*
X157665D02*
Y64939D01*
X158565Y64339D02*
Y64939D01*
X113496Y88715D02*
X114096D01*
X113496Y87815D02*
X114096D01*
Y88715D01*
X101296Y87815D02*
X101896D01*
X101296Y88715D02*
X101896D01*
X101296Y87815D02*
Y88715D01*
X101896Y86100D02*
Y90430D01*
X102146Y85850D02*
X113246D01*
X113496Y86100D02*
Y90430D01*
X102146Y90680D02*
X113246D01*
X104496Y90615D02*
X110896D01*
X104496Y85915D02*
X110896D01*
X104496Y90165D02*
X110896D01*
X104496Y89665D02*
X110896D01*
X104496Y86865D02*
X110896D01*
X104496Y86365D02*
X110896D01*
D84*
X127035Y60020D02*
X126968Y60270D01*
X126785Y60453D01*
X126535Y60520D01*
X126285Y60453D01*
X126102Y60270D01*
X126035Y60020D01*
X126102Y59770D01*
X126285Y59587D01*
X126535Y59520D01*
X126785Y59587D01*
X126968Y59770D01*
X127035Y60020D01*
X127162Y66204D02*
X127095Y66454D01*
X126912Y66637D01*
X126662Y66704D01*
X126412Y66637D01*
X126229Y66454D01*
X126162Y66204D01*
X126229Y65954D01*
X126412Y65771D01*
X126662Y65704D01*
X126912Y65771D01*
X127095Y65954D01*
X127162Y66204D01*
X103814Y56340D02*
Y63040D01*
X107514Y56340D02*
Y63040D01*
X103814D02*
X107514D01*
X103814Y56340D02*
X107514D01*
X113847Y56467D02*
Y63167D01*
X117547Y56467D02*
Y63167D01*
X113847D02*
X117547D01*
X113847Y56467D02*
X117547D01*
X125635Y55920D02*
Y60920D01*
X129635Y55920D02*
Y60920D01*
X125635D02*
X129635D01*
X125635Y55920D02*
X129635D01*
X108141Y47484D02*
Y52084D01*
X111061Y47484D02*
Y52084D01*
X108141Y47484D02*
X111061D01*
X108141Y52084D02*
X111061D01*
X125762Y62004D02*
X129762D01*
X125762Y67104D02*
X129762D01*
Y62004D02*
Y67104D01*
X125762Y62004D02*
Y67104D01*
D85*
X147803Y74498D02*
X148285D01*
X147015D02*
X147345D01*
X146202D02*
X146558D01*
X145415D02*
X145745D01*
X144602D02*
X144958D01*
X143815D02*
X144145D01*
X143002D02*
X143358D01*
X142215D02*
X142545D01*
X141275D02*
X141757D01*
X141275Y74016D02*
Y74498D01*
Y73228D02*
Y73558D01*
Y72415D02*
Y72771D01*
Y71628D02*
Y71958D01*
Y70815D02*
Y71171D01*
Y70028D02*
Y70358D01*
Y69215D02*
Y69571D01*
Y68428D02*
Y68758D01*
Y67488D02*
Y67970D01*
Y67488D02*
X141757D01*
X142215D02*
X142545D01*
X143002D02*
X143358D01*
X143815D02*
X144145D01*
X144602D02*
X144958D01*
X145415D02*
X145745D01*
X146202D02*
X146558D01*
X147015D02*
X147345D01*
X147803D02*
X148285D01*
Y67970D01*
Y68428D02*
Y68758D01*
Y69215D02*
Y69571D01*
Y70028D02*
Y70358D01*
Y70815D02*
Y71171D01*
Y71628D02*
Y71958D01*
Y72415D02*
Y72771D01*
Y73228D02*
Y73558D01*
Y74016D02*
Y74498D01*
X141757Y67488D02*
X142215D01*
X141757Y66497D02*
Y67488D01*
Y66497D02*
X142215D01*
Y67488D01*
X142545D02*
X143002D01*
X142545Y66497D02*
Y67488D01*
Y66497D02*
X143002D01*
Y67488D01*
X143358D02*
X143815D01*
X143358Y66497D02*
Y67488D01*
Y66497D02*
X143815D01*
Y67488D01*
X144145D02*
X144602D01*
X144145Y66497D02*
Y67488D01*
Y66497D02*
X144602D01*
Y67488D01*
X144958D02*
X145415D01*
X144958Y66497D02*
Y67488D01*
Y66497D02*
X145415D01*
Y67488D01*
X145745D02*
X146202D01*
X145745Y66497D02*
Y67488D01*
Y66497D02*
X146202D01*
Y67488D01*
X146558D02*
X147015D01*
X146558Y66497D02*
Y67488D01*
Y66497D02*
X147015D01*
Y67488D01*
X147345D02*
X147803D01*
X147345Y66497D02*
Y67488D01*
Y66497D02*
X147803D01*
Y67488D01*
X148285Y67970D02*
Y68428D01*
Y67970D02*
X149276D01*
Y68428D01*
X148285D02*
X149276D01*
X148285Y68758D02*
Y69215D01*
Y68758D02*
X149276D01*
Y69215D01*
X148285D02*
X149276D01*
X148285Y69571D02*
Y70028D01*
Y69571D02*
X149276D01*
Y70028D01*
X148285D02*
X149276D01*
X148285Y70358D02*
Y70815D01*
Y70358D02*
X149276D01*
Y70815D01*
X148285D02*
X149276D01*
X148285Y71171D02*
Y71628D01*
Y71171D02*
X149276D01*
Y71628D01*
X148285D02*
X149276D01*
X148285Y71958D02*
Y72415D01*
Y71958D02*
X149276D01*
Y72415D01*
X148285D02*
X149276D01*
X148285Y72771D02*
Y73228D01*
Y72771D02*
X149276D01*
Y73228D01*
X148285D02*
X149276D01*
X148285Y73558D02*
Y74016D01*
Y73558D02*
X149276D01*
Y74016D01*
X148285D02*
X149276D01*
X147345Y74498D02*
X147803D01*
Y75489D01*
X147345D02*
X147803D01*
X147345Y74498D02*
Y75489D01*
X146558Y74498D02*
X147015D01*
Y75489D01*
X146558D02*
X147015D01*
X146558Y74498D02*
Y75489D01*
X145745Y74498D02*
X146202D01*
Y75489D01*
X145745D02*
X146202D01*
X145745Y74498D02*
Y75489D01*
X144958Y74498D02*
X145415D01*
Y75489D01*
X144958D02*
X145415D01*
X144958Y74498D02*
Y75489D01*
X144145Y74498D02*
X144602D01*
Y75489D01*
X144145D02*
X144602D01*
X144145Y74498D02*
Y75489D01*
X143358Y74498D02*
X143815D01*
Y75489D01*
X143358D02*
X143815D01*
X143358Y74498D02*
Y75489D01*
X142545Y74498D02*
X143002D01*
Y75489D01*
X142545D02*
X143002D01*
X142545Y74498D02*
Y75489D01*
X141757Y74498D02*
X142215D01*
Y75489D01*
X141757D02*
X142215D01*
X141757Y74498D02*
Y75489D01*
X141275Y73558D02*
Y74016D01*
X140284D02*
X141275D01*
X140284Y73558D02*
Y74016D01*
Y73558D02*
X141275D01*
Y72771D02*
Y73228D01*
X140284D02*
X141275D01*
X140284Y72771D02*
Y73228D01*
Y72771D02*
X141275D01*
Y71958D02*
Y72415D01*
X140284D02*
X141275D01*
X140284Y71958D02*
Y72415D01*
Y71958D02*
X141275D01*
Y71171D02*
Y71628D01*
X140284D02*
X141275D01*
X140284Y71171D02*
Y71628D01*
Y71171D02*
X141275D01*
Y70358D02*
Y70815D01*
X140284D02*
X141275D01*
X140284Y70358D02*
Y70815D01*
Y70358D02*
X141275D01*
Y69571D02*
Y70028D01*
X140284D02*
X141275D01*
X140284Y69571D02*
Y70028D01*
Y69571D02*
X141275D01*
Y68758D02*
Y69215D01*
X140284D02*
X141275D01*
X140284Y68758D02*
Y69215D01*
Y68758D02*
X141275D01*
Y67970D02*
Y68428D01*
X140284D02*
X141275D01*
X140284Y67970D02*
Y68428D01*
Y67970D02*
X141275D01*
X147015Y67488D02*
X148285Y68758D01*
X143002Y74498D02*
X146558D01*
X141275Y68758D02*
Y73228D01*
X142215Y67488D02*
X147345D01*
X148285Y67970D02*
Y74016D01*
D86*
X109601Y47793D02*
D03*
M02*
