G04*
G04 #@! TF.GenerationSoftware,Altium Limited,Altium Designer,21.2.1 (34)*
G04*
G04 Layer_Physical_Order=1*
G04 Layer_Color=255*
%FSLAX43Y43*%
%MOMM*%
G71*
G04*
G04 #@! TF.SameCoordinates,427E456E-B420-4228-82AE-AA47295AEFF1*
G04*
G04*
G04 #@! TF.FilePolarity,Positive*
G04*
G01*
G75*
%ADD12C,0.508*%
%ADD13C,0.381*%
%ADD20C,0.254*%
%ADD23R,1.400X1.200*%
%ADD24R,1.473X0.508*%
%ADD25R,0.508X1.473*%
G04:AMPARAMS|DCode=26|XSize=5.5mm|YSize=1.5mm|CornerRadius=0.188mm|HoleSize=0mm|Usage=FLASHONLY|Rotation=90.000|XOffset=0mm|YOffset=0mm|HoleType=Round|Shape=RoundedRectangle|*
%AMROUNDEDRECTD26*
21,1,5.500,1.125,0,0,90.0*
21,1,5.125,1.500,0,0,90.0*
1,1,0.375,0.563,2.563*
1,1,0.375,0.563,-2.563*
1,1,0.375,-0.563,-2.563*
1,1,0.375,-0.563,2.563*
%
%ADD26ROUNDEDRECTD26*%
%ADD27R,1.200X1.400*%
%ADD28R,2.000X4.000*%
%ADD29R,1.626X2.286*%
%ADD30R,1.778X0.254*%
%ADD31R,1.900X1.900*%
%ADD32R,0.635X2.500*%
%ADD33O,0.635X2.500*%
G04:AMPARAMS|DCode=34|XSize=5.5mm|YSize=1.5mm|CornerRadius=0.188mm|HoleSize=0mm|Usage=FLASHONLY|Rotation=180.000|XOffset=0mm|YOffset=0mm|HoleType=Round|Shape=RoundedRectangle|*
%AMROUNDEDRECTD34*
21,1,5.500,1.125,0,0,180.0*
21,1,5.125,1.500,0,0,180.0*
1,1,0.375,-2.563,0.563*
1,1,0.375,2.563,0.563*
1,1,0.375,2.563,-0.563*
1,1,0.375,-2.563,-0.563*
%
%ADD34ROUNDEDRECTD34*%
%ADD35R,0.800X1.200*%
%ADD36R,2.400X1.000*%
%ADD37R,2.400X3.300*%
%ADD38O,1.780X0.720*%
%ADD39R,1.700X2.500*%
%ADD40O,1.800X0.600*%
%ADD41R,1.397X1.270*%
%ADD71C,1.016*%
%ADD72R,4.064X2.540*%
%ADD73R,2.540X4.064*%
%ADD74R,1.600X1.600*%
%ADD75C,1.600*%
%ADD76R,1.520X1.520*%
%ADD77C,1.520*%
%ADD78P,1.787X8X112.5*%
%ADD79C,1.651*%
%ADD80R,1.520X1.520*%
%ADD81C,1.524*%
%ADD82C,0.762*%
G36*
X115952Y94615D02*
X115718Y94518D01*
X115540Y94340D01*
X115443Y94106D01*
Y93854D01*
X115540Y93620D01*
X115718Y93442D01*
X115952Y93345D01*
X116204D01*
X116438Y93442D01*
X116588Y93592D01*
X135294D01*
X135343Y93474D01*
X134125Y92256D01*
X134122Y92258D01*
X133864Y92327D01*
X133598D01*
X133340Y92258D01*
X133108Y92124D01*
X132920Y91936D01*
X132786Y91704D01*
X132717Y91446D01*
Y91180D01*
X132786Y90922D01*
X132920Y90690D01*
X133108Y90502D01*
X133213Y90441D01*
Y87026D01*
X133080Y86949D01*
X132883Y86753D01*
X132745Y86513D01*
X132673Y86245D01*
Y85967D01*
X132745Y85699D01*
X132883Y85459D01*
X133080Y85263D01*
X133320Y85124D01*
X133338Y85119D01*
Y82566D01*
X133368Y82417D01*
X133452Y82291D01*
X137511Y78232D01*
X137459Y78105D01*
X137288D01*
X137270Y78098D01*
X129637Y85730D01*
X129701Y85967D01*
Y86245D01*
X129629Y86513D01*
X129490Y86753D01*
X129294Y86949D01*
X129169Y87022D01*
Y90441D01*
X129274Y90502D01*
X129462Y90690D01*
X129596Y90922D01*
X129665Y91180D01*
Y91446D01*
X129596Y91704D01*
X129462Y91936D01*
X129452Y91946D01*
X129501Y92063D01*
X129708D01*
X130208Y91563D01*
X130177Y91446D01*
Y91440D01*
X130425D01*
X130422Y91471D01*
X130410Y91542D01*
X130393Y91610D01*
X130371Y91676D01*
X130343Y91738D01*
X130311Y91799D01*
X130273Y91856D01*
X130230Y91910D01*
X130182Y91962D01*
X130542Y92322D01*
X130594Y92274D01*
X130648Y92231D01*
X130705Y92193D01*
X130766Y92161D01*
X130828Y92133D01*
X130894Y92111D01*
X130962Y92094D01*
X131033Y92082D01*
X131064Y92079D01*
Y92327D01*
X131058D01*
X130941Y92296D01*
X130289Y92947D01*
X130121Y93060D01*
X129923Y93099D01*
X113568D01*
Y93280D01*
X112841D01*
Y92326D01*
X112714D01*
Y92199D01*
X111860D01*
Y91372D01*
X112138D01*
X112191Y91245D01*
X112111Y91165D01*
X112014Y90932D01*
X113284D01*
X113187Y91165D01*
X113107Y91245D01*
X113114Y91372D01*
X113568D01*
Y92063D01*
X120103D01*
X120137Y91936D01*
X120026Y91872D01*
X119837Y91683D01*
X119703Y91451D01*
X119634Y91193D01*
Y90925D01*
X119703Y90667D01*
X119837Y90435D01*
X120026Y90246D01*
X120258Y90112D01*
X120516Y90043D01*
X120784D01*
X121042Y90112D01*
X121274Y90246D01*
X121463Y90435D01*
X121597Y90667D01*
X121666Y90925D01*
Y91193D01*
X121597Y91451D01*
X121463Y91683D01*
X121274Y91872D01*
X121163Y91936D01*
X121197Y92063D01*
X122721D01*
X122770Y91946D01*
X122760Y91936D01*
X122626Y91704D01*
X122557Y91446D01*
Y91180D01*
X122626Y90922D01*
X122760Y90690D01*
X122948Y90502D01*
X123053Y90441D01*
Y87160D01*
X122513D01*
Y85052D01*
X124621D01*
Y87160D01*
X124089D01*
Y90441D01*
X124194Y90502D01*
X124382Y90690D01*
X124516Y90922D01*
X124585Y91180D01*
Y91446D01*
X124516Y91704D01*
X124382Y91936D01*
X124372Y91946D01*
X124421Y92063D01*
X125261D01*
X125310Y91946D01*
X125300Y91936D01*
X125166Y91704D01*
X125097Y91446D01*
Y91180D01*
X125166Y90922D01*
X125300Y90690D01*
X125488Y90502D01*
X125593Y90441D01*
Y87026D01*
X125460Y86949D01*
X125263Y86753D01*
X125125Y86513D01*
X125053Y86245D01*
Y85967D01*
X125125Y85699D01*
X125263Y85459D01*
X125460Y85263D01*
X125700Y85124D01*
X125968Y85052D01*
X126246D01*
X126514Y85124D01*
X126754Y85263D01*
X126950Y85459D01*
X127089Y85699D01*
X127161Y85967D01*
Y86245D01*
X127089Y86513D01*
X126950Y86753D01*
X126754Y86949D01*
X126629Y87022D01*
Y90441D01*
X126734Y90502D01*
X126922Y90690D01*
X127056Y90922D01*
X127125Y91180D01*
Y91446D01*
X127056Y91704D01*
X126922Y91936D01*
X126912Y91946D01*
X126961Y92063D01*
X127801D01*
X127850Y91946D01*
X127840Y91936D01*
X127706Y91704D01*
X127637Y91446D01*
Y91180D01*
X127706Y90922D01*
X127840Y90690D01*
X128028Y90502D01*
X128133Y90441D01*
Y87026D01*
X128000Y86949D01*
X127803Y86753D01*
X127665Y86513D01*
X127593Y86245D01*
Y85967D01*
X127665Y85699D01*
X127803Y85459D01*
X128000Y85263D01*
X128240Y85124D01*
X128508Y85052D01*
X128786D01*
X129054Y85124D01*
X129112Y85157D01*
X136779Y77490D01*
Y77344D01*
X136876Y77110D01*
X136896Y77090D01*
Y71697D01*
X136935Y71499D01*
X137048Y71331D01*
X137276Y71102D01*
X137224Y70975D01*
X124614D01*
X124439Y71150D01*
X124206Y71247D01*
Y70612D01*
X123952D01*
Y71247D01*
X123719Y71150D01*
X123541Y70972D01*
X123491Y70851D01*
X123341Y70822D01*
X123322Y70841D01*
X123273Y70914D01*
X122615Y71572D01*
Y72731D01*
X122156D01*
X122104Y72858D01*
X123016Y73771D01*
X123101Y73897D01*
X123130Y74045D01*
Y75722D01*
X123101Y75871D01*
X123016Y75997D01*
X122615Y76398D01*
Y77557D01*
X122326D01*
X122278Y77674D01*
X123016Y78413D01*
X123101Y78539D01*
X123130Y78688D01*
Y80364D01*
X123101Y80513D01*
X123016Y80639D01*
X122615Y81041D01*
Y82199D01*
X121356D01*
X119783Y83773D01*
Y85031D01*
X119190D01*
Y85830D01*
X119160Y85979D01*
X119076Y86105D01*
X118927Y86254D01*
X118801Y86338D01*
X118653Y86367D01*
X104973D01*
X104932Y86466D01*
X104754Y86644D01*
X104520Y86741D01*
X104268D01*
X104034Y86644D01*
X103856Y86466D01*
X103759Y86232D01*
Y85980D01*
X103856Y85746D01*
X104034Y85568D01*
X104268Y85471D01*
X104520D01*
X104754Y85568D01*
X104780Y85594D01*
X104797Y85591D01*
X113658D01*
Y85453D01*
X113508Y85303D01*
X113411Y85069D01*
Y84817D01*
X113460Y84699D01*
X113375Y84572D01*
X112711D01*
X112355Y84928D01*
X112187Y85041D01*
X111989Y85080D01*
X107803D01*
X107605Y85041D01*
X107437Y84928D01*
X106631Y84123D01*
X106519Y83955D01*
X106512Y83920D01*
X106392Y83800D01*
X105981D01*
Y80792D01*
X107124D01*
Y82182D01*
X107135Y82192D01*
X107252Y82140D01*
Y80792D01*
X107312D01*
X107380Y80665D01*
X107337Y80601D01*
X107308Y80453D01*
Y78564D01*
X107337Y78416D01*
X107421Y78290D01*
X107697Y78014D01*
X107823Y77930D01*
X107972Y77900D01*
X113031D01*
Y77435D01*
X114939D01*
Y77900D01*
X115258D01*
X115337Y77821D01*
X115571Y77724D01*
X115823D01*
X116057Y77821D01*
X116235Y77999D01*
X116332Y78233D01*
Y78485D01*
X116235Y78719D01*
X116057Y78897D01*
X115823Y78994D01*
X115571D01*
X115337Y78897D01*
X115159Y78719D01*
X115141Y78677D01*
X114939D01*
Y79143D01*
X113366D01*
X113286Y79241D01*
X113291Y79270D01*
Y80107D01*
X114939D01*
Y80443D01*
X117100D01*
X117299Y80482D01*
X117299Y80482D01*
X117439Y80401D01*
X117714Y80327D01*
X117998D01*
X118273Y80401D01*
X118519Y80543D01*
X118720Y80744D01*
X118862Y80990D01*
X118936Y81265D01*
Y81549D01*
X118862Y81824D01*
X118720Y82070D01*
X118519Y82271D01*
X118273Y82413D01*
X117998Y82487D01*
X117714D01*
X117439Y82413D01*
X117193Y82271D01*
X116992Y82070D01*
X116850Y81824D01*
X116776Y81549D01*
Y81479D01*
X114939D01*
Y81815D01*
X113291D01*
Y82007D01*
X114939D01*
Y82469D01*
X115555D01*
X115705Y82319D01*
X115938Y82222D01*
X116191D01*
X116424Y82319D01*
X116603Y82497D01*
X116699Y82731D01*
Y82984D01*
X116685Y83018D01*
X116756Y83123D01*
X117883D01*
Y85031D01*
X116175D01*
Y84572D01*
X114717D01*
X114632Y84699D01*
X114681Y84817D01*
Y85069D01*
X114584Y85303D01*
X114434Y85453D01*
Y85591D01*
X118413D01*
Y85031D01*
X118075D01*
Y83123D01*
X119333D01*
X120707Y81750D01*
Y80491D01*
X122049D01*
X122105Y80421D01*
X122052Y80299D01*
X120707D01*
Y79963D01*
X118698D01*
X118500Y79924D01*
X118451Y79891D01*
X118396Y79947D01*
X117316D01*
X116776Y79407D01*
Y78327D01*
X117234Y77869D01*
X117214Y77711D01*
X117193Y77699D01*
X116992Y77498D01*
X116850Y77252D01*
X116776Y76977D01*
Y76907D01*
X114939D01*
Y77243D01*
X113031D01*
Y75535D01*
X114939D01*
Y75871D01*
X117100D01*
X117299Y75910D01*
X117299Y75910D01*
X117439Y75829D01*
X117714Y75756D01*
X117998D01*
X118273Y75829D01*
X118519Y75971D01*
X118720Y76172D01*
X118862Y76418D01*
X118936Y76693D01*
Y76977D01*
X118862Y77252D01*
X118720Y77498D01*
X118519Y77699D01*
X118498Y77711D01*
X118478Y77869D01*
X118936Y78327D01*
Y78927D01*
X120707D01*
Y78591D01*
X121930D01*
X121979Y78474D01*
X121386Y77881D01*
X121302Y77755D01*
X121272Y77607D01*
Y77557D01*
X120707D01*
Y75849D01*
X122049D01*
X122105Y75778D01*
X122052Y75657D01*
X120707D01*
Y75321D01*
X118628D01*
X118479Y75291D01*
X118396Y75374D01*
X117316D01*
X116776Y74835D01*
Y73755D01*
X117316Y73215D01*
X118396D01*
X118936Y73755D01*
Y74285D01*
X120707D01*
Y73949D01*
X121930D01*
X121979Y73832D01*
X121386Y73239D01*
X121302Y73113D01*
X121272Y72964D01*
Y72731D01*
X120707D01*
Y71023D01*
X122049D01*
X122105Y70952D01*
X122052Y70831D01*
X120707D01*
Y70495D01*
X118628D01*
X118479Y70465D01*
X118396Y70549D01*
X117316D01*
X116776Y70009D01*
Y68929D01*
X117316Y68390D01*
X118396D01*
X118936Y68929D01*
Y69459D01*
X120707D01*
Y69123D01*
X122615D01*
Y70275D01*
X122670Y70308D01*
X122742Y70322D01*
X124186Y68878D01*
X124259Y68829D01*
X125145Y67943D01*
X125097Y67825D01*
X124462D01*
X124312Y67975D01*
X124079Y68072D01*
Y67437D01*
X123952D01*
Y67310D01*
X123317D01*
X123414Y67077D01*
X123435Y67056D01*
X123382Y66929D01*
X123191D01*
X122957Y66832D01*
X122779Y66654D01*
X122682Y66420D01*
Y66168D01*
X122779Y65934D01*
X122957Y65756D01*
X123081Y65704D01*
X123056Y65577D01*
X117505D01*
Y65721D01*
X115797D01*
Y64402D01*
X115680Y64321D01*
X115605Y64349D01*
Y64640D01*
X114751D01*
Y64767D01*
X114624D01*
Y65721D01*
X113897D01*
Y64844D01*
X113102D01*
Y66706D01*
X117414Y71018D01*
X117439Y71003D01*
X117714Y70929D01*
X117729D01*
Y71183D01*
X117726Y71183D01*
X117508Y71169D01*
X117412Y71156D01*
X117325Y71139D01*
X117246Y71118D01*
X117176Y71092D01*
X117115Y71063D01*
X117063Y71030D01*
X117019Y70992D01*
X116839Y71172D01*
X116877Y71216D01*
X116910Y71268D01*
X116939Y71329D01*
X116965Y71399D01*
X116986Y71478D01*
X117003Y71565D01*
X117016Y71661D01*
X117030Y71879D01*
X117031Y72001D01*
X117729Y71302D01*
Y72009D01*
Y73089D01*
X117714D01*
X117439Y73015D01*
X117193Y72873D01*
X116992Y72672D01*
X116912Y72533D01*
X116786Y72516D01*
X116755Y72547D01*
X116522Y72644D01*
X116269D01*
X116253Y72637D01*
X115249Y73641D01*
X115123Y73725D01*
X114997Y73750D01*
Y74571D01*
X113089D01*
Y72863D01*
X114893D01*
X114945Y72796D01*
X114888Y72671D01*
X113089D01*
Y72654D01*
X112483D01*
X111491Y73645D01*
X111323Y73758D01*
X111125Y73797D01*
X107071D01*
Y74292D01*
X107124D01*
Y77300D01*
X105981D01*
Y74292D01*
X106035D01*
Y73577D01*
X106074Y73378D01*
X106187Y73210D01*
X106484Y72913D01*
X106484Y72913D01*
X106652Y72800D01*
X106851Y72761D01*
X110910D01*
X111902Y71770D01*
X112070Y71657D01*
X112268Y71618D01*
X113089D01*
Y70963D01*
X114997D01*
Y72560D01*
X114997Y72615D01*
X115124Y72668D01*
X115760Y72031D01*
Y71883D01*
X115857Y71649D01*
X116036Y71471D01*
X116269Y71374D01*
X116492D01*
X116546Y71287D01*
X116554Y71257D01*
X112439Y67141D01*
X112355Y67015D01*
X112325Y66867D01*
Y64455D01*
Y63828D01*
X112175Y63678D01*
X112079Y63446D01*
X112714D01*
Y63192D01*
X112079D01*
X112159Y62998D01*
X112097Y62871D01*
X111343D01*
Y62244D01*
X112797D01*
X114251D01*
Y62871D01*
X114354Y62930D01*
X115110D01*
X115187Y62867D01*
Y59949D01*
X115062Y59943D01*
X114965Y60177D01*
X114787Y60355D01*
X114553Y60452D01*
X114301D01*
X114251Y60485D01*
Y60571D01*
X111343D01*
Y59063D01*
X114251D01*
Y59149D01*
X114301Y59182D01*
X114553D01*
X114787Y59279D01*
X114965Y59457D01*
X115062Y59691D01*
X115187Y59685D01*
Y54938D01*
X114316D01*
Y52811D01*
X115570D01*
X116824D01*
Y54938D01*
X115964D01*
Y59147D01*
X116091Y59232D01*
X116211Y59182D01*
X116463D01*
X116697Y59279D01*
X116847Y59429D01*
X117143D01*
Y57913D01*
X118209D01*
Y50302D01*
X118059Y50152D01*
X117975Y49951D01*
X117845Y49902D01*
X117263Y50483D01*
X117260Y50502D01*
X117176Y50628D01*
X116824Y50979D01*
Y52557D01*
X115697D01*
Y50430D01*
X116275D01*
X116538Y50166D01*
X116542Y50148D01*
X116626Y50022D01*
X120039Y46609D01*
X120165Y46525D01*
X120313Y46496D01*
X121428D01*
Y44630D01*
X121320Y44584D01*
X117419D01*
X116824Y45179D01*
Y49138D01*
X114316D01*
Y48553D01*
X111605D01*
X111552Y48680D01*
X111781Y48908D01*
X111865Y49034D01*
X111894Y49183D01*
Y55751D01*
X112044Y55901D01*
X112141Y56135D01*
Y56387D01*
X112044Y56621D01*
X112019Y56646D01*
X112068Y56763D01*
X112388D01*
Y55784D01*
X112238Y55634D01*
X112141Y55400D01*
Y55148D01*
X112238Y54914D01*
X112416Y54736D01*
X112650Y54639D01*
X112902D01*
X113136Y54736D01*
X113314Y54914D01*
X113411Y55148D01*
Y55400D01*
X113314Y55634D01*
X113164Y55784D01*
Y56763D01*
X114251D01*
Y58271D01*
X112423D01*
X112275Y58300D01*
X111160D01*
X111075Y58427D01*
X111125Y58548D01*
Y58800D01*
X111028Y59034D01*
X110878Y59184D01*
Y64186D01*
X110849Y64334D01*
X110765Y64460D01*
X108890Y66335D01*
Y68580D01*
X106756D01*
Y65786D01*
X108340D01*
X110102Y64025D01*
Y61686D01*
X110018Y61594D01*
X107134D01*
Y63559D01*
X107599D01*
Y65467D01*
X105891D01*
Y64029D01*
X105764Y63956D01*
X105699Y63994D01*
Y64386D01*
X104845D01*
Y64513D01*
X104718D01*
Y65467D01*
X103991D01*
Y64669D01*
X103986Y64661D01*
X103957Y64513D01*
Y63329D01*
Y62744D01*
X102891D01*
Y61990D01*
X102764D01*
Y61863D01*
X101310D01*
Y61236D01*
X102212D01*
X102297Y61109D01*
X102235Y60959D01*
Y60707D01*
X102291Y60571D01*
X102206Y60444D01*
X101859D01*
X101831Y60473D01*
X101705Y60557D01*
X101556Y60586D01*
X98239D01*
Y61371D01*
X96331D01*
Y60962D01*
X95188D01*
Y61428D01*
X93541D01*
Y67240D01*
X94124Y67822D01*
X94652D01*
Y68899D01*
X93575D01*
Y68372D01*
X92878Y67675D01*
X92794Y67549D01*
X92765Y67401D01*
Y59655D01*
X92794Y59506D01*
X92878Y59380D01*
X93280Y58979D01*
Y58801D01*
X94107D01*
Y59528D01*
X93846D01*
X93789Y59599D01*
X93843Y59720D01*
X95188D01*
Y60186D01*
X96331D01*
Y59663D01*
X98239D01*
Y59810D01*
X101310D01*
Y59062D01*
X98239D01*
Y59471D01*
X97412D01*
Y58617D01*
X97158D01*
Y59471D01*
X96331D01*
Y59006D01*
X95188D01*
Y59528D01*
X94361D01*
Y58674D01*
Y57820D01*
X95188D01*
Y58229D01*
X96331D01*
Y57763D01*
X96897D01*
Y54480D01*
X96927Y54331D01*
X97011Y54205D01*
X97515Y53700D01*
X97641Y53616D01*
X97663Y53612D01*
Y52197D01*
X99060D01*
Y54356D01*
X98082D01*
X98044Y54363D01*
X97951D01*
X97674Y54641D01*
Y57763D01*
X98239D01*
Y58286D01*
X104013D01*
X104162Y58315D01*
X104288Y58399D01*
X104620Y58731D01*
X104704Y58857D01*
X104733Y59006D01*
Y61990D01*
Y62941D01*
X104944D01*
X105094Y62791D01*
X105327Y62695D01*
Y63329D01*
X105454D01*
Y63456D01*
X106089D01*
X106157Y63559D01*
X106357D01*
Y61566D01*
X106193Y61498D01*
X106015Y61320D01*
X105918Y61086D01*
Y60834D01*
X106015Y60600D01*
X106193Y60422D01*
X106427Y60325D01*
X106679D01*
X106913Y60422D01*
X106983Y60492D01*
X107110Y60439D01*
Y57786D01*
X109469D01*
X109617Y57637D01*
X109743Y57553D01*
X109892Y57524D01*
X111343D01*
Y56881D01*
X111146Y56799D01*
X110996Y56649D01*
X104809D01*
X104218Y57240D01*
Y58144D01*
X101310D01*
Y56636D01*
X103099D01*
X103137Y56629D01*
X103731D01*
X104373Y55986D01*
X104499Y55902D01*
X104648Y55873D01*
X110996D01*
X111118Y55751D01*
Y49344D01*
X111069Y49295D01*
X110324D01*
X110286Y49288D01*
X108497D01*
Y46280D01*
X110705D01*
Y47015D01*
X114316D01*
Y44630D01*
X116275D01*
X116838Y44067D01*
X116789Y43949D01*
X112622D01*
X112569Y44076D01*
X112700Y44207D01*
X112834Y44439D01*
X112903Y44697D01*
Y44965D01*
X112834Y45223D01*
X112700Y45455D01*
X112511Y45644D01*
X112279Y45778D01*
X112021Y45847D01*
X111753D01*
X111495Y45778D01*
X111263Y45644D01*
X111074Y45455D01*
X110940Y45223D01*
X110871Y44965D01*
Y44697D01*
X110940Y44439D01*
X111074Y44207D01*
X111205Y44076D01*
X111152Y43949D01*
X91828D01*
Y45466D01*
Y92710D01*
Y94735D01*
X115934D01*
X115952Y94615D01*
D02*
G37*
G36*
X113316Y92987D02*
X113332Y92955D01*
X113357Y92927D01*
X113393Y92903D01*
X113438Y92882D01*
X113494Y92865D01*
X113560Y92852D01*
X113636Y92842D01*
X113723Y92837D01*
X113819Y92835D01*
Y92327D01*
X113722Y92324D01*
X113636Y92317D01*
X113559Y92304D01*
X113493Y92286D01*
X113436Y92263D01*
X113390Y92236D01*
X113355Y92203D01*
X113329Y92164D01*
X113314Y92121D01*
X113308Y92073D01*
X113311Y93023D01*
X113316Y92987D01*
D02*
G37*
G36*
X134336Y91738D02*
X134269Y91671D01*
X134017Y91382D01*
X133999Y91354D01*
X133989Y91331D01*
X133985Y91313D01*
X133731Y91567D01*
X133749Y91571D01*
X133772Y91581D01*
X133800Y91599D01*
X133835Y91623D01*
X133920Y91693D01*
X134089Y91851D01*
X134156Y91918D01*
X134336Y91738D01*
D02*
G37*
G36*
X112884Y92131D02*
X112875Y92107D01*
X112867Y92075D01*
X112860Y92033D01*
X112850Y91923D01*
X112842Y91692D01*
X112842Y91629D01*
X112968D01*
X112944Y91626D01*
X112923Y91618D01*
X112904Y91606D01*
X112887Y91588D01*
X112873Y91565D01*
X112862Y91537D01*
X112853Y91504D01*
X112846Y91466D01*
X112843Y91423D01*
X112841Y91375D01*
X112776D01*
X112841Y91362D01*
X112843Y91328D01*
X112846Y91294D01*
X112852Y91260D01*
X112860Y91226D01*
X112871Y91193D01*
X112884Y91159D01*
X112899Y91126D01*
X112916Y91093D01*
X112936Y91060D01*
X112958Y91027D01*
X112433Y91119D01*
X112462Y91141D01*
X112489Y91164D01*
X112512Y91190D01*
X112532Y91216D01*
X112549Y91245D01*
X112563Y91275D01*
X112574Y91306D01*
X112581Y91339D01*
X112586Y91373D01*
X112587Y91396D01*
X112586Y91423D01*
X112582Y91466D01*
X112576Y91504D01*
X112567Y91537D01*
X112556Y91565D01*
X112542Y91588D01*
X112525Y91606D01*
X112506Y91618D01*
X112485Y91626D01*
X112460Y91629D01*
X112587D01*
X112587Y91692D01*
X112562Y92075D01*
X112554Y92107D01*
X112545Y92131D01*
X112535Y92146D01*
X112894D01*
X112884Y92131D01*
D02*
G37*
G36*
X167846Y90551D02*
X167803Y90536D01*
X167764Y90510D01*
X167731Y90475D01*
X167704Y90429D01*
X167681Y90373D01*
X167663Y90307D01*
X167650Y90231D01*
X167643Y90145D01*
X167640Y90048D01*
X167132D01*
X167133Y90556D01*
X167894D01*
X167846Y90551D01*
D02*
G37*
G36*
X162494Y85932D02*
X162481Y85912D01*
X162470Y85892D01*
X162460Y85871D01*
X162452Y85850D01*
X162445Y85829D01*
X162440Y85808D01*
X162436Y85786D01*
X162434Y85764D01*
X162433Y85742D01*
X162179D01*
X162178Y85764D01*
X162176Y85786D01*
X162172Y85808D01*
X162167Y85829D01*
X162160Y85850D01*
X162152Y85871D01*
X162142Y85892D01*
X162131Y85912D01*
X162118Y85932D01*
X162104Y85952D01*
X162508D01*
X162494Y85932D01*
D02*
G37*
G36*
X114427Y85852D02*
X114379Y85849D01*
X114336Y85842D01*
X114297Y85829D01*
X114264Y85811D01*
X114237Y85788D01*
X114214Y85761D01*
X114196Y85728D01*
X114183Y85689D01*
X114176Y85646D01*
X114173Y85598D01*
X113919D01*
X113916Y85646D01*
X113909Y85689D01*
X113896Y85728D01*
X113878Y85761D01*
X113855Y85788D01*
X113828Y85811D01*
X113795Y85829D01*
X113756Y85842D01*
X113713Y85849D01*
X113665Y85852D01*
X114046Y86106D01*
X114427Y85852D01*
D02*
G37*
G36*
X133897Y85912D02*
X133888Y85888D01*
X133880Y85855D01*
X133873Y85813D01*
X133862Y85704D01*
X133854Y85473D01*
X133854Y85378D01*
X133600D01*
X133599Y85473D01*
X133574Y85855D01*
X133566Y85888D01*
X133557Y85912D01*
X133547Y85927D01*
X133907D01*
X133897Y85912D01*
D02*
G37*
G36*
X168034Y85633D02*
X168023Y85605D01*
X168017Y85577D01*
X168016Y85549D01*
X168020Y85521D01*
X168028Y85492D01*
X168042Y85463D01*
X168060Y85434D01*
X168083Y85404D01*
X168111Y85374D01*
X167931Y85194D01*
X167895Y85228D01*
X167860Y85258D01*
X167825Y85283D01*
X167790Y85303D01*
X167756Y85319D01*
X167722Y85331D01*
X167689Y85338D01*
X167656Y85341D01*
X167624Y85339D01*
X167592Y85333D01*
X168050Y85660D01*
X168034Y85633D01*
D02*
G37*
G36*
X172840Y84936D02*
X172713Y84883D01*
X172582Y85014D01*
X172350Y85148D01*
X172092Y85217D01*
X171824D01*
X171566Y85148D01*
X171334Y85014D01*
X171145Y84825D01*
X171011Y84593D01*
X170942Y84335D01*
Y84067D01*
X171011Y83809D01*
X171145Y83577D01*
X171334Y83388D01*
X171566Y83254D01*
X171824Y83185D01*
X172092D01*
X172350Y83254D01*
X172582Y83388D01*
X172713Y83519D01*
X172840Y83466D01*
Y56104D01*
X172713Y56051D01*
X172581Y56183D01*
X172349Y56317D01*
X172091Y56386D01*
X172085D01*
Y55372D01*
Y54358D01*
X172091D01*
X172349Y54427D01*
X172581Y54561D01*
X172713Y54693D01*
X172840Y54640D01*
Y53564D01*
X172713Y53511D01*
X172581Y53643D01*
X172349Y53777D01*
X172091Y53846D01*
X171825D01*
X171567Y53777D01*
X171335Y53643D01*
X171147Y53455D01*
X171013Y53223D01*
X171012Y53220D01*
X169729D01*
X169728Y53223D01*
X169594Y53455D01*
X169406Y53643D01*
X169174Y53777D01*
X168916Y53846D01*
X168650D01*
X168392Y53777D01*
X168160Y53643D01*
X167972Y53455D01*
X167838Y53223D01*
X167769Y52965D01*
Y52699D01*
X167838Y52441D01*
X167972Y52209D01*
X168160Y52021D01*
X168392Y51887D01*
X168650Y51818D01*
X168916D01*
X169174Y51887D01*
X169406Y52021D01*
X169594Y52209D01*
X169728Y52441D01*
X169729Y52444D01*
X170173D01*
Y44577D01*
X170173Y44573D01*
X170075Y44457D01*
X167909D01*
X167860Y44575D01*
X169149Y45864D01*
X169262Y46032D01*
X169301Y46230D01*
Y46738D01*
X169797D01*
Y48766D01*
X167980D01*
X167946Y48826D01*
X167933Y48893D01*
X168389Y49349D01*
X168392Y49347D01*
X168650Y49278D01*
X168916D01*
X169174Y49347D01*
X169406Y49481D01*
X169594Y49669D01*
X169728Y49901D01*
X169797Y50159D01*
Y50425D01*
X169728Y50683D01*
X169594Y50915D01*
X169406Y51103D01*
X169174Y51237D01*
X168916Y51306D01*
X168650D01*
X168392Y51237D01*
X168160Y51103D01*
X167972Y50915D01*
X167838Y50683D01*
X167769Y50425D01*
Y50159D01*
X167838Y49901D01*
X167840Y49898D01*
X167481Y49539D01*
X166328D01*
X166280Y49657D01*
X166292Y49669D01*
X166426Y49901D01*
X166495Y50159D01*
Y50425D01*
X166426Y50683D01*
X166292Y50915D01*
X166104Y51103D01*
X165872Y51237D01*
X165614Y51306D01*
X165348D01*
X165090Y51237D01*
X164858Y51103D01*
X164670Y50915D01*
X164536Y50683D01*
X164467Y50425D01*
Y50159D01*
X164536Y49901D01*
X164670Y49669D01*
X164682Y49657D01*
X164634Y49539D01*
X164391D01*
X164126Y49805D01*
X164000Y49889D01*
X163851Y49918D01*
X161170D01*
Y50038D01*
X161141Y50187D01*
X161096Y50254D01*
X161164Y50381D01*
X162979D01*
Y52489D01*
X160871D01*
Y52315D01*
X160754Y52267D01*
X160611Y52409D01*
X160600Y52416D01*
X160495Y52545D01*
X160366Y52650D01*
X160359Y52661D01*
X159914Y53107D01*
X159788Y53191D01*
X159639Y53220D01*
X158784D01*
X157247Y54758D01*
X157121Y54842D01*
X156972Y54871D01*
X154549D01*
X144787Y64633D01*
Y65888D01*
X145742D01*
X145742Y65886D01*
X145826Y65760D01*
X148996Y62590D01*
X149122Y62506D01*
X149270Y62477D01*
X162560D01*
X162709Y62506D01*
X162835Y62590D01*
X164499Y64255D01*
X167487D01*
X167535Y64137D01*
X166109Y62711D01*
X166001Y62819D01*
X165761Y62958D01*
X165493Y63030D01*
X165215D01*
X164947Y62958D01*
X164707Y62819D01*
X164511Y62623D01*
X164372Y62383D01*
X164300Y62115D01*
Y61837D01*
X164372Y61569D01*
X164511Y61329D01*
X164707Y61133D01*
X164947Y60994D01*
X165215Y60922D01*
X165493D01*
X165761Y60994D01*
X166001Y61133D01*
X166197Y61329D01*
X166336Y61569D01*
X166408Y61837D01*
Y61927D01*
X166456Y61959D01*
X166744Y62247D01*
X166858Y62181D01*
X166840Y62115D01*
Y61837D01*
X166912Y61569D01*
X167051Y61329D01*
X167247Y61133D01*
X167487Y60994D01*
X167755Y60922D01*
X168033D01*
X168301Y60994D01*
X168541Y61133D01*
X168737Y61329D01*
X168876Y61569D01*
X168948Y61837D01*
Y62115D01*
X168876Y62383D01*
X168737Y62623D01*
X168541Y62819D01*
X168301Y62958D01*
X168033Y63030D01*
X167755D01*
X167689Y63012D01*
X167623Y63126D01*
X170455Y65958D01*
X170539Y66084D01*
X170568Y66232D01*
Y91082D01*
X170539Y91231D01*
X170455Y91357D01*
X168337Y93474D01*
X168386Y93592D01*
X172840D01*
Y84936D01*
D02*
G37*
G36*
X118930Y84980D02*
X118934Y84937D01*
X118940Y84899D01*
X118949Y84866D01*
X118960Y84838D01*
X118974Y84815D01*
X118991Y84797D01*
X119010Y84785D01*
X119031Y84777D01*
X119056Y84774D01*
X118548D01*
X118572Y84777D01*
X118593Y84785D01*
X118612Y84797D01*
X118629Y84815D01*
X118643Y84838D01*
X118654Y84866D01*
X118663Y84899D01*
X118670Y84937D01*
X118673Y84980D01*
X118675Y85028D01*
X118929D01*
X118930Y84980D01*
D02*
G37*
G36*
X109587Y83543D02*
X109537Y83491D01*
X109458Y83397D01*
X109429Y83356D01*
X109407Y83318D01*
X109393Y83284D01*
X109386Y83254D01*
Y83227D01*
X109393Y83203D01*
X109407Y83184D01*
X109048Y83543D01*
X109068Y83529D01*
X109091Y83521D01*
X109118D01*
X109149Y83529D01*
X109183Y83543D01*
X109221Y83564D01*
X109262Y83593D01*
X109307Y83629D01*
X109407Y83723D01*
X109587Y83543D01*
D02*
G37*
G36*
X114682Y83087D02*
X114689Y83065D01*
X114702Y83046D01*
X114720Y83030D01*
X114743Y83016D01*
X114772Y83005D01*
X114805Y82996D01*
X114844Y82989D01*
X114887Y82985D01*
X114936Y82984D01*
Y82730D01*
X114887Y82729D01*
X114844Y82725D01*
X114805Y82719D01*
X114772Y82710D01*
X114743Y82698D01*
X114720Y82684D01*
X114702Y82668D01*
X114689Y82649D01*
X114682Y82627D01*
X114679Y82603D01*
Y83111D01*
X114682Y83087D01*
D02*
G37*
G36*
X113288Y82314D02*
X113286Y82334D01*
X113279Y82353D01*
X113267Y82369D01*
X113250Y82384D01*
X113229Y82396D01*
X113203Y82405D01*
X113172Y82413D01*
X113137Y82419D01*
X113097Y82422D01*
X113052Y82423D01*
Y82677D01*
X113097Y82678D01*
X113137Y82681D01*
X113172Y82687D01*
X113203Y82695D01*
X113229Y82704D01*
X113250Y82716D01*
X113267Y82731D01*
X113279Y82747D01*
X113286Y82766D01*
X113288Y82786D01*
Y82314D01*
D02*
G37*
G36*
X110490Y80806D02*
X110546Y80817D01*
X110673Y80742D01*
Y79270D01*
X110703Y79121D01*
X110787Y78995D01*
X110936Y78846D01*
X110999Y78804D01*
X110960Y78677D01*
X108133D01*
X108084Y78725D01*
Y79999D01*
X108211Y80024D01*
X108279Y79861D01*
X108458Y79682D01*
X108690Y79586D01*
Y80221D01*
X108944D01*
Y79586D01*
X109177Y79682D01*
X109356Y79861D01*
X109390Y79944D01*
X109466Y79959D01*
X109592Y80043D01*
X110236Y80687D01*
Y81032D01*
X110206Y81011D01*
X110164Y80978D01*
X110118Y80938D01*
X110070Y80891D01*
X109890Y81070D01*
X109936Y81118D01*
X110009Y81205D01*
X110035Y81243D01*
X110054Y81278D01*
X110067Y81310D01*
X110072Y81339D01*
X110071Y81364D01*
X110063Y81387D01*
X110049Y81406D01*
X110236Y81225D01*
Y82296D01*
X110490D01*
Y80806D01*
D02*
G37*
G36*
X108053Y81050D02*
X108031Y81042D01*
X108012Y81029D01*
X107996Y81011D01*
X107982Y80988D01*
X107970Y80960D01*
X107961Y80926D01*
X107955Y80888D01*
X107951Y80844D01*
X107950Y80795D01*
X107696D01*
X107695Y80844D01*
X107691Y80888D01*
X107685Y80926D01*
X107676Y80960D01*
X107664Y80988D01*
X107650Y81011D01*
X107634Y81029D01*
X107615Y81042D01*
X107593Y81050D01*
X107569Y81052D01*
X108077D01*
X108053Y81050D01*
D02*
G37*
G36*
X109119Y80455D02*
X109127Y80453D01*
X109138Y80451D01*
X109153Y80450D01*
X109219Y80446D01*
X109317Y80445D01*
Y80191D01*
X109295Y80190D01*
X109240Y80186D01*
X109227Y80183D01*
X109216Y80180D01*
X109207Y80176D01*
X109200Y80172D01*
X109196Y80167D01*
X109194Y80161D01*
X109115Y80458D01*
X109119Y80455D01*
D02*
G37*
G36*
X114682Y78518D02*
X114689Y78497D01*
X114702Y78478D01*
X114720Y78461D01*
X114743Y78447D01*
X114772Y78436D01*
X114805Y78427D01*
X114844Y78421D01*
X114887Y78417D01*
X114936Y78416D01*
Y78162D01*
X114887Y78160D01*
X114844Y78157D01*
X114805Y78150D01*
X114772Y78141D01*
X114743Y78130D01*
X114720Y78116D01*
X114702Y78099D01*
X114689Y78080D01*
X114682Y78059D01*
X114679Y78035D01*
Y78543D01*
X114682Y78518D01*
D02*
G37*
G36*
X113288Y78035D02*
X113286Y78059D01*
X113278Y78080D01*
X113265Y78099D01*
X113248Y78116D01*
X113225Y78130D01*
X113197Y78141D01*
X113164Y78150D01*
X113126Y78157D01*
X113083Y78160D01*
X113034Y78162D01*
Y78416D01*
X113083Y78417D01*
X113126Y78421D01*
X113164Y78427D01*
X113197Y78436D01*
X113225Y78447D01*
X113248Y78461D01*
X113265Y78478D01*
X113278Y78497D01*
X113286Y78518D01*
X113288Y78543D01*
Y78035D01*
D02*
G37*
G36*
X153413Y78050D02*
X153389Y78024D01*
X153368Y77997D01*
X153349Y77968D01*
X153333Y77938D01*
X153319Y77906D01*
X153308Y77873D01*
X153299Y77839D01*
X153293Y77803D01*
X153290Y77766D01*
X153289Y77728D01*
X152912Y78105D01*
X152950Y78106D01*
X152987Y78109D01*
X153023Y78115D01*
X153057Y78124D01*
X153090Y78135D01*
X153122Y78149D01*
X153152Y78165D01*
X153181Y78184D01*
X153208Y78205D01*
X153234Y78229D01*
X153413Y78050D01*
D02*
G37*
G36*
X121789Y77505D02*
X121793Y77461D01*
X121799Y77423D01*
X121808Y77389D01*
X121819Y77361D01*
X121833Y77338D01*
X121850Y77320D01*
X121869Y77307D01*
X121890Y77299D01*
X121915Y77297D01*
X121407D01*
X121431Y77299D01*
X121452Y77307D01*
X121471Y77320D01*
X121488Y77338D01*
X121502Y77361D01*
X121513Y77389D01*
X121522Y77423D01*
X121529Y77461D01*
X121532Y77505D01*
X121534Y77554D01*
X121788D01*
X121789Y77505D01*
D02*
G37*
G36*
X137678Y77193D02*
X137676Y77184D01*
X137674Y77171D01*
X137671Y77132D01*
X137668Y77001D01*
X137668Y76957D01*
X137160D01*
X137147Y77198D01*
X137681D01*
X137678Y77193D01*
D02*
G37*
G36*
X150656Y77018D02*
X150495Y76839D01*
X150118Y77216D01*
X150123Y77218D01*
X150131Y77222D01*
X150141Y77230D01*
X150171Y77256D01*
X150266Y77346D01*
X150297Y77377D01*
X150656Y77018D01*
D02*
G37*
G36*
X142114Y76224D02*
X142133Y75933D01*
X142133Y75933D01*
X142144Y75905D01*
X142158Y75882D01*
X142174Y75864D01*
X142192Y75852D01*
X142213Y75844D01*
X142237Y75841D01*
X141956Y75437D01*
X142188D01*
X142174Y75416D01*
X142161Y75392D01*
X142150Y75366D01*
X142140Y75337D01*
X142132Y75305D01*
X142125Y75271D01*
X142120Y75234D01*
X142114Y75152D01*
X142113Y75108D01*
X141859D01*
X141858Y75152D01*
X141852Y75234D01*
X141847Y75271D01*
X141846Y75278D01*
X141738Y75123D01*
X141761Y75168D01*
X141770Y75219D01*
X141767Y75276D01*
X141750Y75339D01*
X141721Y75408D01*
X141678Y75482D01*
X141622Y75563D01*
X141553Y75650D01*
X141471Y75743D01*
X141376Y75841D01*
X141735Y76201D01*
X141805Y76132D01*
X141854Y76090D01*
X141858Y76224D01*
X141859Y76318D01*
X142113D01*
X142114Y76224D01*
D02*
G37*
G36*
X168268Y92444D02*
X168220Y92327D01*
X166876D01*
Y90850D01*
X166868Y90809D01*
Y87024D01*
X166739Y86949D01*
X166543Y86753D01*
X166404Y86513D01*
X166332Y86245D01*
Y85967D01*
X166404Y85699D01*
X166543Y85459D01*
X166739Y85263D01*
X166979Y85124D01*
X167247Y85052D01*
X167525D01*
X167532Y85054D01*
X167633Y84977D01*
Y75145D01*
X167515Y75096D01*
X167407Y75205D01*
X167281Y75289D01*
X167132Y75318D01*
X166435D01*
X166287Y75289D01*
X166161Y75205D01*
X166147Y75191D01*
X166020Y75244D01*
Y75692D01*
X165293D01*
Y74738D01*
Y73784D01*
X165383D01*
X165453Y73678D01*
X165420Y73598D01*
Y73346D01*
X165517Y73112D01*
X165537Y73092D01*
Y72163D01*
X165101D01*
Y70545D01*
X164974Y70493D01*
X164952Y70515D01*
X164719Y70612D01*
Y69977D01*
Y69342D01*
X164952Y69439D01*
X164984Y69471D01*
X165101Y69422D01*
Y68555D01*
X165928D01*
Y69409D01*
X166055D01*
Y69536D01*
X167009D01*
Y69713D01*
X167515Y70219D01*
X167633Y70171D01*
Y65031D01*
X166046D01*
X166020Y65148D01*
X166020D01*
Y65445D01*
X166147Y65492D01*
X166264Y65375D01*
X166497Y65278D01*
Y65913D01*
X166624D01*
Y66040D01*
X167259D01*
X167162Y66273D01*
X167012Y66423D01*
Y68936D01*
X167009Y68952D01*
Y69282D01*
X166182D01*
Y68555D01*
X166236D01*
Y66423D01*
X166147Y66334D01*
X166020Y66381D01*
Y67056D01*
X165293D01*
Y66102D01*
X165166D01*
Y65975D01*
X164312D01*
Y65148D01*
X164312Y65148D01*
X164303Y65024D01*
X164189Y65002D01*
X164063Y64918D01*
X162399Y63253D01*
X149431D01*
X147430Y65255D01*
X147479Y65372D01*
X155345D01*
X155469Y65248D01*
X155703Y65151D01*
X155955D01*
X156189Y65248D01*
X156367Y65426D01*
X156464Y65660D01*
Y65912D01*
X156415Y66030D01*
X156500Y66157D01*
X157102D01*
Y63926D01*
X157137Y63754D01*
X157234Y63608D01*
X157380Y63511D01*
X157553Y63476D01*
X158678D01*
X158850Y63511D01*
X158996Y63608D01*
X159093Y63754D01*
X159128Y63926D01*
Y65971D01*
X162412D01*
Y65148D01*
X164120D01*
Y67056D01*
X163713D01*
Y68493D01*
X164149D01*
Y69356D01*
X164276Y69421D01*
X164465Y69342D01*
Y69977D01*
Y70612D01*
X164276Y70533D01*
X164149Y70598D01*
Y72101D01*
X163713D01*
Y73784D01*
X164120D01*
Y75692D01*
X162412D01*
Y75507D01*
X159128D01*
Y77551D01*
X159093Y77724D01*
X158996Y77870D01*
X158850Y77967D01*
X158678Y78002D01*
X157553D01*
X157380Y77967D01*
X157234Y77870D01*
X157137Y77724D01*
X157102Y77551D01*
Y74305D01*
X148895D01*
X148845Y74295D01*
X148082D01*
Y75058D01*
X148092Y75108D01*
Y75376D01*
X149366Y76650D01*
X149516Y76620D01*
X149576Y76475D01*
X149754Y76297D01*
X149988Y76200D01*
X150240D01*
X150474Y76297D01*
X150652Y76475D01*
X150749Y76709D01*
Y76738D01*
X151189Y77178D01*
X151483D01*
X151681Y77217D01*
X151849Y77330D01*
X152156Y77636D01*
X152280Y77581D01*
X152370Y77364D01*
X152548Y77186D01*
X152782Y77089D01*
X153034D01*
X153268Y77186D01*
X153446Y77364D01*
X153543Y77598D01*
Y77686D01*
X153553Y77692D01*
X153705Y77641D01*
X153767Y77491D01*
X153945Y77313D01*
X154179Y77216D01*
X154431D01*
X154665Y77313D01*
X154843Y77491D01*
X154940Y77725D01*
Y77810D01*
X162182Y85052D01*
X162445D01*
X162713Y85124D01*
X162953Y85263D01*
X163149Y85459D01*
X163288Y85699D01*
X163360Y85967D01*
Y86245D01*
X163288Y86513D01*
X163149Y86753D01*
X162953Y86949D01*
X162824Y87024D01*
Y90299D01*
X162944D01*
X163202Y90368D01*
X163433Y90502D01*
X163622Y90690D01*
X163755Y90922D01*
X163824Y91180D01*
Y91446D01*
X163755Y91704D01*
X163622Y91936D01*
X163433Y92124D01*
X163202Y92258D01*
X162944Y92327D01*
X162677D01*
X162419Y92258D01*
X162188Y92124D01*
X161999Y91936D01*
X161865Y91704D01*
X161796Y91446D01*
Y91180D01*
X161838Y91023D01*
X161827Y91007D01*
X161788Y90809D01*
Y87024D01*
X161659Y86949D01*
X161463Y86753D01*
X161324Y86513D01*
X161252Y86245D01*
Y85967D01*
X161324Y85699D01*
X161463Y85459D01*
X161477Y85445D01*
X154503Y78471D01*
X154385Y78496D01*
X154343Y78610D01*
X157120Y81386D01*
X157204Y81512D01*
X157233Y81661D01*
Y83151D01*
X159262Y85180D01*
X159359Y85124D01*
X159627Y85052D01*
X159905D01*
X160173Y85124D01*
X160413Y85263D01*
X160609Y85459D01*
X160748Y85699D01*
X160820Y85967D01*
Y86245D01*
X160748Y86513D01*
X160609Y86753D01*
X160413Y86949D01*
X160284Y87024D01*
Y90299D01*
X160404D01*
X160662Y90368D01*
X160893Y90502D01*
X161082Y90690D01*
X161215Y90922D01*
X161284Y91180D01*
Y91446D01*
X161215Y91704D01*
X161082Y91936D01*
X160893Y92124D01*
X160662Y92258D01*
X160404Y92327D01*
X160137D01*
X159879Y92258D01*
X159648Y92124D01*
X159459Y91936D01*
X159325Y91704D01*
X159256Y91446D01*
Y91180D01*
X159298Y91023D01*
X159287Y91007D01*
X159248Y90809D01*
Y87024D01*
X159119Y86949D01*
X158923Y86753D01*
X158784Y86513D01*
X158712Y86245D01*
Y85967D01*
X158762Y85779D01*
X156570Y83587D01*
X156486Y83461D01*
X156474Y83400D01*
X156347Y83412D01*
Y84494D01*
X156943Y85091D01*
X157087Y85052D01*
X157365D01*
X157633Y85124D01*
X157873Y85263D01*
X158069Y85459D01*
X158208Y85699D01*
X158280Y85967D01*
Y86245D01*
X158220Y86469D01*
X158248Y86610D01*
Y90441D01*
X158353Y90502D01*
X158542Y90690D01*
X158675Y90922D01*
X158744Y91180D01*
Y91446D01*
X158675Y91704D01*
X158542Y91936D01*
X158353Y92124D01*
X158122Y92258D01*
X157864Y92327D01*
X157597D01*
X157339Y92258D01*
X157108Y92124D01*
X156919Y91936D01*
X156785Y91704D01*
X156716Y91446D01*
Y91180D01*
X156785Y90922D01*
X156919Y90690D01*
X157108Y90502D01*
X157212Y90441D01*
Y87160D01*
X157087D01*
X156819Y87088D01*
X156579Y86949D01*
X156383Y86753D01*
X156244Y86513D01*
X156172Y86245D01*
Y85967D01*
X156211Y85823D01*
X155463Y85075D01*
X155350Y84907D01*
X155331Y84809D01*
X155204Y84822D01*
Y85188D01*
X155333Y85263D01*
X155529Y85459D01*
X155668Y85699D01*
X155740Y85967D01*
Y86245D01*
X155680Y86469D01*
X155708Y86610D01*
Y90441D01*
X155813Y90502D01*
X156002Y90690D01*
X156135Y90922D01*
X156204Y91180D01*
Y91446D01*
X156135Y91704D01*
X156002Y91936D01*
X155813Y92124D01*
X155582Y92258D01*
X155324Y92327D01*
X155057D01*
X154799Y92258D01*
X154568Y92124D01*
X154379Y91936D01*
X154245Y91704D01*
X154176Y91446D01*
Y91180D01*
X154245Y90922D01*
X154379Y90690D01*
X154568Y90502D01*
X154672Y90441D01*
Y87160D01*
X154547D01*
X154279Y87088D01*
X154039Y86949D01*
X153843Y86753D01*
X153704Y86513D01*
X153632Y86245D01*
Y85967D01*
X153704Y85699D01*
X153843Y85459D01*
X154039Y85263D01*
X154168Y85188D01*
Y82917D01*
X147432Y76180D01*
X147305Y76233D01*
Y76468D01*
X152512Y81676D01*
X152625Y81844D01*
X152664Y82042D01*
X152664Y82042D01*
Y85188D01*
X152793Y85263D01*
X152989Y85459D01*
X153128Y85699D01*
X153200Y85967D01*
Y86245D01*
X153140Y86469D01*
X153168Y86610D01*
Y90441D01*
X153273Y90502D01*
X153462Y90690D01*
X153595Y90922D01*
X153664Y91180D01*
Y91446D01*
X153595Y91704D01*
X153462Y91936D01*
X153273Y92124D01*
X153042Y92258D01*
X152784Y92327D01*
X152517D01*
X152259Y92258D01*
X152028Y92124D01*
X151839Y91936D01*
X151705Y91704D01*
X151636Y91446D01*
Y91180D01*
X151705Y90922D01*
X151839Y90690D01*
X152028Y90502D01*
X152132Y90441D01*
Y87160D01*
X152007D01*
X151739Y87088D01*
X151499Y86949D01*
X151303Y86753D01*
X151164Y86513D01*
X151092Y86245D01*
Y85967D01*
X151164Y85699D01*
X151303Y85459D01*
X151499Y85263D01*
X151628Y85188D01*
Y82257D01*
X146609Y77238D01*
X146492Y77286D01*
Y78195D01*
X149972Y81676D01*
X150085Y81844D01*
X150124Y82042D01*
Y85052D01*
X150660D01*
Y87160D01*
X150628D01*
Y90441D01*
X150733Y90502D01*
X150922Y90690D01*
X151055Y90922D01*
X151124Y91180D01*
Y91446D01*
X151055Y91704D01*
X150922Y91936D01*
X150733Y92124D01*
X150502Y92258D01*
X150244Y92327D01*
X149977D01*
X149719Y92258D01*
X149488Y92124D01*
X149299Y91936D01*
X149165Y91704D01*
X149096Y91446D01*
Y91180D01*
X149165Y90922D01*
X149299Y90690D01*
X149488Y90502D01*
X149592Y90441D01*
Y87160D01*
X148552D01*
Y85052D01*
X149088D01*
Y82257D01*
X145822Y78990D01*
X145704Y79039D01*
Y80587D01*
X146793Y81676D01*
X146905Y81844D01*
X146945Y82042D01*
X146945Y82042D01*
Y85188D01*
X147074Y85263D01*
X147270Y85459D01*
X147409Y85699D01*
X147481Y85967D01*
Y86245D01*
X147409Y86513D01*
X147270Y86753D01*
X147074Y86949D01*
X146945Y87024D01*
Y90299D01*
X147445D01*
Y92327D01*
X145417D01*
Y90299D01*
X145909D01*
Y87024D01*
X145780Y86949D01*
X145583Y86753D01*
X145445Y86513D01*
X145373Y86245D01*
Y85967D01*
X145445Y85699D01*
X145583Y85459D01*
X145780Y85263D01*
X145909Y85188D01*
Y82257D01*
X145009Y81357D01*
X144892Y81405D01*
Y81555D01*
X144892Y81555D01*
X144852Y81753D01*
X144740Y81922D01*
X144740Y81922D01*
X144405Y82257D01*
Y85188D01*
X144534Y85263D01*
X144730Y85459D01*
X144869Y85699D01*
X144941Y85967D01*
Y86245D01*
X144869Y86513D01*
X144730Y86753D01*
X144534Y86949D01*
X144405Y87024D01*
Y90439D01*
X144514Y90502D01*
X144702Y90690D01*
X144836Y90922D01*
X144905Y91180D01*
Y91446D01*
X144836Y91704D01*
X144702Y91936D01*
X144514Y92124D01*
X144282Y92258D01*
X144024Y92327D01*
X143758D01*
X143500Y92258D01*
X143268Y92124D01*
X143080Y91936D01*
X142946Y91704D01*
X142877Y91446D01*
Y91180D01*
X142946Y90922D01*
X143080Y90690D01*
X143268Y90502D01*
X143369Y90444D01*
Y87024D01*
X143240Y86949D01*
X143043Y86753D01*
X142905Y86513D01*
X142833Y86245D01*
Y85967D01*
X142905Y85699D01*
X143043Y85459D01*
X143240Y85263D01*
X143369Y85188D01*
Y82042D01*
X143408Y81844D01*
X143521Y81676D01*
X143856Y81341D01*
Y80432D01*
X143738Y80383D01*
X141865Y82257D01*
Y85188D01*
X141994Y85263D01*
X142190Y85459D01*
X142329Y85699D01*
X142401Y85967D01*
Y86245D01*
X142329Y86513D01*
X142190Y86753D01*
X141994Y86949D01*
X141865Y87024D01*
Y90439D01*
X141974Y90502D01*
X142162Y90690D01*
X142296Y90922D01*
X142365Y91180D01*
Y91446D01*
X142296Y91704D01*
X142162Y91936D01*
X141974Y92124D01*
X141742Y92258D01*
X141484Y92327D01*
X141218D01*
X140960Y92258D01*
X140728Y92124D01*
X140540Y91936D01*
X140406Y91704D01*
X140337Y91446D01*
Y91180D01*
X140406Y90922D01*
X140540Y90690D01*
X140728Y90502D01*
X140829Y90444D01*
Y87024D01*
X140700Y86949D01*
X140503Y86753D01*
X140365Y86513D01*
X140293Y86245D01*
Y85967D01*
X140365Y85699D01*
X140503Y85459D01*
X140700Y85263D01*
X140829Y85188D01*
Y82042D01*
X140868Y81844D01*
X140981Y81676D01*
X143068Y79588D01*
Y78679D01*
X142951Y78630D01*
X139325Y82257D01*
Y85188D01*
X139454Y85263D01*
X139650Y85459D01*
X139789Y85699D01*
X139861Y85967D01*
Y86245D01*
X139789Y86513D01*
X139650Y86753D01*
X139454Y86949D01*
X139325Y87024D01*
Y90439D01*
X139434Y90502D01*
X139622Y90690D01*
X139756Y90922D01*
X139825Y91180D01*
Y91446D01*
X139756Y91704D01*
X139622Y91936D01*
X139434Y92124D01*
X139202Y92258D01*
X138944Y92327D01*
X138678D01*
X138420Y92258D01*
X138188Y92124D01*
X138000Y91936D01*
X137866Y91704D01*
X137797Y91446D01*
Y91180D01*
X137866Y90922D01*
X138000Y90690D01*
X138188Y90502D01*
X138289Y90444D01*
Y87024D01*
X138160Y86949D01*
X137963Y86753D01*
X137825Y86513D01*
X137753Y86245D01*
Y85967D01*
X137825Y85699D01*
X137963Y85459D01*
X138160Y85263D01*
X138289Y85188D01*
Y82042D01*
X138328Y81844D01*
X138441Y81676D01*
X139113Y81003D01*
X139083Y80854D01*
X138959Y80802D01*
X138781Y80624D01*
X138684Y80390D01*
Y80138D01*
X138781Y79904D01*
X138959Y79726D01*
X139193Y79629D01*
X139405D01*
X141598Y77436D01*
Y76877D01*
X141480Y76829D01*
X136785Y81524D01*
Y85188D01*
X136914Y85263D01*
X137110Y85459D01*
X137249Y85699D01*
X137321Y85967D01*
Y86245D01*
X137249Y86513D01*
X137110Y86753D01*
X136914Y86949D01*
X136785Y87024D01*
Y90439D01*
X136894Y90502D01*
X137082Y90690D01*
X137216Y90922D01*
X137285Y91180D01*
Y91446D01*
X137216Y91704D01*
X137082Y91936D01*
X136894Y92124D01*
X136662Y92258D01*
X136404Y92327D01*
X136138D01*
X135880Y92258D01*
X135648Y92124D01*
X135460Y91936D01*
X135326Y91704D01*
X135257Y91446D01*
Y91180D01*
X135326Y90922D01*
X135460Y90690D01*
X135648Y90502D01*
X135749Y90444D01*
Y87024D01*
X135620Y86949D01*
X135423Y86753D01*
X135285Y86513D01*
X135213Y86245D01*
Y85967D01*
X135285Y85699D01*
X135423Y85459D01*
X135620Y85263D01*
X135749Y85188D01*
Y81310D01*
X135758Y81263D01*
X135641Y81201D01*
X134115Y82727D01*
Y85119D01*
X134134Y85124D01*
X134374Y85263D01*
X134570Y85459D01*
X134709Y85699D01*
X134781Y85967D01*
Y86245D01*
X134709Y86513D01*
X134570Y86753D01*
X134374Y86949D01*
X134249Y87022D01*
Y90441D01*
X134354Y90502D01*
X134542Y90690D01*
X134676Y90922D01*
X134745Y91180D01*
Y91446D01*
X134676Y91704D01*
X134674Y91707D01*
X135924Y92957D01*
X167756D01*
X168268Y92444D01*
D02*
G37*
G36*
X165763Y74967D02*
X165770Y74946D01*
X165783Y74927D01*
X165801Y74910D01*
X165824Y74896D01*
X165853Y74885D01*
X165886Y74876D01*
X165925Y74870D01*
X165968Y74866D01*
X166017Y74865D01*
Y74611D01*
X165968Y74609D01*
X165925Y74606D01*
X165886Y74599D01*
X165853Y74590D01*
X165824Y74579D01*
X165801Y74565D01*
X165783Y74548D01*
X165770Y74529D01*
X165763Y74508D01*
X165760Y74484D01*
Y74992D01*
X165763Y74967D01*
D02*
G37*
G36*
X142991Y74372D02*
X142969Y74364D01*
X142950Y74351D01*
X142933Y74334D01*
X142919Y74311D01*
X142908Y74283D01*
X142899Y74250D01*
X142893Y74212D01*
X142889Y74169D01*
X142888Y74120D01*
X142634D01*
X142633Y74169D01*
X142629Y74212D01*
X142624Y74250D01*
X142616Y74283D01*
X142606Y74311D01*
X142594Y74334D01*
X142579Y74351D01*
X142562Y74364D01*
X142544Y74372D01*
X142522Y74374D01*
X143015D01*
X142991Y74372D01*
D02*
G37*
G36*
X139447Y74212D02*
X139452Y74178D01*
X139459Y74144D01*
X139468Y74111D01*
X139481Y74079D01*
X139496Y74048D01*
X139514Y74018D01*
X139535Y73989D01*
X139559Y73960D01*
X139567Y73952D01*
X139575Y73946D01*
X139608Y73926D01*
X139641Y73908D01*
X139674Y73893D01*
X139708Y73880D01*
X139741Y73869D01*
X139775Y73861D01*
X139789Y73859D01*
X139808Y73862D01*
X139842Y73871D01*
X139870Y73882D01*
X139893Y73896D01*
X139911Y73913D01*
X139924Y73932D01*
X139932Y73953D01*
X139935Y73978D01*
X139932Y73536D01*
X139929Y73548D01*
X139921Y73558D01*
X139909Y73567D01*
X139891Y73575D01*
X139868Y73581D01*
X139840Y73587D01*
X139839Y73587D01*
X139820Y73583D01*
X139788Y73572D01*
X139758Y73558D01*
X139730Y73541D01*
X139703Y73521D01*
X139678Y73498D01*
X139654Y73472D01*
X139632Y73442D01*
X139549Y73932D01*
X139052D01*
X139079Y73960D01*
X139103Y73989D01*
X139124Y74018D01*
X139142Y74048D01*
X139157Y74079D01*
X139170Y74111D01*
X139179Y74144D01*
X139186Y74178D01*
X139191Y74212D01*
X139192Y74248D01*
X139446D01*
X139447Y74212D01*
D02*
G37*
G36*
X141773Y72836D02*
X141739Y72858D01*
X141672Y72894D01*
X141639Y72908D01*
X141605Y72921D01*
X141571Y72931D01*
X141537Y72939D01*
X141534Y72939D01*
X141523Y72937D01*
X141490Y72928D01*
X141462Y72917D01*
X141439Y72903D01*
X141422Y72887D01*
X141409Y72868D01*
X141401Y72846D01*
X141399Y72822D01*
Y73116D01*
X141380Y73203D01*
X141399Y73204D01*
Y73251D01*
X141401Y73241D01*
X141409Y73233D01*
X141422Y73226D01*
X141439Y73220D01*
X141462Y73215D01*
X141470Y73214D01*
X141483Y73217D01*
X141515Y73228D01*
X141544Y73242D01*
X141572Y73259D01*
X141598Y73279D01*
X141622Y73303D01*
X141645Y73329D01*
X141666Y73359D01*
X141773Y72836D01*
D02*
G37*
G36*
X114739Y73581D02*
X114746Y73562D01*
X114758Y73546D01*
X114775Y73532D01*
X114796Y73520D01*
X114822Y73511D01*
X114853Y73503D01*
X114889Y73498D01*
X114930Y73494D01*
X114975Y73493D01*
Y73239D01*
X114930Y73238D01*
X114889Y73235D01*
X114853Y73229D01*
X114822Y73222D01*
X114796Y73212D01*
X114775Y73200D01*
X114758Y73186D01*
X114746Y73170D01*
X114739Y73151D01*
X114737Y73131D01*
Y73601D01*
X114739Y73581D01*
D02*
G37*
G36*
X166319Y73195D02*
X166317Y73186D01*
X166315Y73173D01*
X166312Y73134D01*
X166309Y73003D01*
X166309Y72960D01*
X165801D01*
X165788Y73200D01*
X166322D01*
X166319Y73195D01*
D02*
G37*
G36*
X144318Y73265D02*
X144347Y73241D01*
X144376Y73220D01*
X144406Y73202D01*
X144437Y73187D01*
X144469Y73174D01*
X144502Y73165D01*
X144536Y73158D01*
X144570Y73153D01*
X144606Y73152D01*
Y72898D01*
X144570Y72897D01*
X144536Y72892D01*
X144502Y72885D01*
X144469Y72876D01*
X144437Y72863D01*
X144406Y72848D01*
X144376Y72830D01*
X144347Y72809D01*
X144318Y72785D01*
X144290Y72758D01*
Y73292D01*
X144318Y73265D01*
D02*
G37*
G36*
X139932Y72749D02*
X139929Y72753D01*
X139921Y72757D01*
X139909Y72760D01*
X139891Y72763D01*
X139868Y72765D01*
X139769Y72770D01*
X139678Y72771D01*
Y73025D01*
X139726Y73026D01*
X139770Y73030D01*
X139808Y73036D01*
X139842Y73045D01*
X139870Y73057D01*
X139893Y73071D01*
X139911Y73087D01*
X139924Y73106D01*
X139932Y73128D01*
X139935Y73152D01*
X139932Y72749D01*
D02*
G37*
G36*
X138730Y73138D02*
X138759Y73114D01*
X138788Y73093D01*
X138818Y73075D01*
X138849Y73060D01*
X138881Y73047D01*
X138914Y73038D01*
X138948Y73031D01*
X138982Y73026D01*
X139018Y73025D01*
Y72771D01*
X138982Y72770D01*
X138948Y72765D01*
X138914Y72758D01*
X138881Y72749D01*
X138849Y72736D01*
X138818Y72721D01*
X138788Y72703D01*
X138759Y72682D01*
X138730Y72658D01*
X138702Y72631D01*
Y73165D01*
X138730Y73138D01*
D02*
G37*
G36*
X121789Y72679D02*
X121793Y72635D01*
X121799Y72597D01*
X121808Y72563D01*
X121819Y72535D01*
X121833Y72512D01*
X121850Y72494D01*
X121869Y72481D01*
X121890Y72473D01*
X121915Y72471D01*
X121407D01*
X121431Y72473D01*
X121452Y72481D01*
X121471Y72494D01*
X121488Y72512D01*
X121502Y72535D01*
X121513Y72563D01*
X121522Y72597D01*
X121529Y72635D01*
X121532Y72679D01*
X121534Y72728D01*
X121788D01*
X121789Y72679D01*
D02*
G37*
G36*
X142888Y72719D02*
X142889Y72684D01*
X142893Y72649D01*
X142900Y72616D01*
X142909Y72583D01*
X142922Y72550D01*
X142937Y72519D01*
X142954Y72488D01*
X142975Y72457D01*
X142998Y72428D01*
X143024Y72399D01*
X142491Y72417D01*
X142518Y72444D01*
X142542Y72471D01*
X142564Y72500D01*
X142582Y72530D01*
X142598Y72560D01*
X142611Y72592D01*
X142621Y72624D01*
X142628Y72658D01*
X142632Y72693D01*
X142634Y72728D01*
X142888Y72719D01*
D02*
G37*
G36*
X162412Y73784D02*
X162677D01*
Y72101D01*
X162241D01*
Y70393D01*
X163879D01*
X163953Y70270D01*
X163915Y70201D01*
X162241D01*
Y68493D01*
X162677D01*
Y67056D01*
X162412D01*
Y67007D01*
X159128D01*
Y69051D01*
X159093Y69224D01*
X158996Y69370D01*
X158859Y69462D01*
X158857Y69471D01*
X158933Y69589D01*
X159383D01*
X159533Y69439D01*
X159766Y69342D01*
Y69977D01*
Y70612D01*
X159533Y70515D01*
X159383Y70365D01*
X155577D01*
X155427Y70515D01*
X155194Y70612D01*
Y69977D01*
Y69342D01*
X155427Y69439D01*
X155577Y69589D01*
X157297D01*
X157373Y69471D01*
X157371Y69462D01*
X157234Y69370D01*
X157137Y69224D01*
X157102Y69051D01*
Y67193D01*
X154344D01*
Y69731D01*
X154471Y69756D01*
X154529Y69617D01*
X154707Y69439D01*
X154940Y69342D01*
Y69977D01*
Y70612D01*
X154707Y70515D01*
X154529Y70337D01*
X154471Y70198D01*
X154344Y70223D01*
Y73000D01*
X154316Y73142D01*
X154398Y73269D01*
X157102D01*
Y72426D01*
X157137Y72254D01*
X157234Y72108D01*
X157380Y72011D01*
X157553Y71976D01*
X158678D01*
X158850Y72011D01*
X158996Y72108D01*
X159093Y72254D01*
X159128Y72426D01*
Y74471D01*
X162412D01*
Y73784D01*
D02*
G37*
G36*
X148161Y71936D02*
X148159Y71959D01*
X148151Y71980D01*
X148138Y71999D01*
X148121Y72015D01*
X148098Y72029D01*
X148070Y72040D01*
X148037Y72049D01*
X147999Y72055D01*
X147956Y72059D01*
X147907Y72060D01*
Y72314D01*
X147956Y72315D01*
X147999Y72319D01*
X148037Y72325D01*
X148070Y72334D01*
X148098Y72345D01*
X148121Y72358D01*
X148138Y72375D01*
X148151Y72393D01*
X148159Y72414D01*
X148161Y72438D01*
Y71936D01*
D02*
G37*
G36*
X149630Y72233D02*
X149636Y72224D01*
X149645Y72215D01*
X149658Y72207D01*
X149674Y72201D01*
X149695Y72196D01*
X149719Y72192D01*
X149746Y72189D01*
X149813Y72187D01*
Y71933D01*
X149628Y71936D01*
Y72244D01*
X149630Y72233D01*
D02*
G37*
G36*
X153148Y71709D02*
X153124Y71680D01*
X153103Y71651D01*
X153085Y71621D01*
X153070Y71590D01*
X153057Y71558D01*
X153048Y71525D01*
X153041Y71491D01*
X153036Y71457D01*
X153035Y71421D01*
X152781D01*
X152780Y71457D01*
X152775Y71491D01*
X152768Y71525D01*
X152759Y71558D01*
X152746Y71590D01*
X152731Y71621D01*
X152713Y71651D01*
X152692Y71680D01*
X152668Y71709D01*
X152641Y71737D01*
X153175D01*
X153148Y71709D01*
D02*
G37*
G36*
X151094Y72355D02*
X151003Y72135D01*
Y71883D01*
X151100Y71649D01*
X151278Y71471D01*
X151504Y71377D01*
Y70520D01*
X151377Y70435D01*
X151257Y70485D01*
Y69850D01*
X151003D01*
Y70485D01*
X150770Y70388D01*
X150592Y70210D01*
X150583Y70188D01*
X149885D01*
Y70354D01*
X149887Y70355D01*
X150013Y70439D01*
X150287Y70713D01*
X150371Y70839D01*
X150401Y70988D01*
Y71860D01*
X150371Y72009D01*
X150287Y72135D01*
X150087Y72334D01*
X150057Y72355D01*
X150096Y72482D01*
X151047D01*
X151094Y72355D01*
D02*
G37*
G36*
X141401Y70814D02*
X141409Y70793D01*
X141422Y70774D01*
X141439Y70758D01*
X141462Y70745D01*
X141490Y70733D01*
X141523Y70725D01*
X141561Y70719D01*
X141604Y70715D01*
X141653Y70714D01*
Y70460D01*
X141604Y70458D01*
X141561Y70455D01*
X141523Y70448D01*
X141490Y70440D01*
X141462Y70429D01*
X141439Y70415D01*
X141422Y70399D01*
X141409Y70380D01*
X141401Y70359D01*
X141399Y70336D01*
Y70838D01*
X141401Y70814D01*
D02*
G37*
G36*
X139932Y70336D02*
X139929Y70359D01*
X139921Y70380D01*
X139909Y70399D01*
X139891Y70415D01*
X139868Y70429D01*
X139840Y70440D01*
X139807Y70448D01*
X139769Y70455D01*
X139726Y70458D01*
X139678Y70460D01*
Y70714D01*
X139726Y70715D01*
X139769Y70719D01*
X139807Y70725D01*
X139840Y70733D01*
X139868Y70745D01*
X139891Y70758D01*
X139909Y70774D01*
X139921Y70793D01*
X139929Y70814D01*
X139932Y70838D01*
Y70336D01*
D02*
G37*
G36*
X124394Y70832D02*
X124421Y70807D01*
X124449Y70785D01*
X124478Y70766D01*
X124508Y70750D01*
X124539Y70737D01*
X124571Y70727D01*
X124605Y70719D01*
X124639Y70715D01*
X124675Y70714D01*
X124657Y70460D01*
X124622Y70458D01*
X124587Y70454D01*
X124554Y70448D01*
X124520Y70439D01*
X124488Y70427D01*
X124455Y70412D01*
X124424Y70395D01*
X124393Y70375D01*
X124363Y70353D01*
X124333Y70328D01*
X124368Y70860D01*
X124394Y70832D01*
D02*
G37*
G36*
X166932Y70006D02*
X166881Y69953D01*
X166802Y69859D01*
X166772Y69818D01*
X166751Y69780D01*
X166736Y69746D01*
X166728Y69716D01*
X166728Y69689D01*
X166735Y69666D01*
X166749Y69646D01*
X166393Y70003D01*
X166412Y69988D01*
X166436Y69982D01*
X166462Y69982D01*
X166493Y69989D01*
X166527Y70004D01*
X166565Y70026D01*
X166606Y70055D01*
X166651Y70091D01*
X166752Y70185D01*
X166932Y70006D01*
D02*
G37*
G36*
X148161Y70050D02*
X148164Y69791D01*
X148163Y69792D01*
X148159Y69794D01*
X148152Y69795D01*
X148142Y69796D01*
X148096Y69798D01*
X148026Y69799D01*
Y70053D01*
X148161Y70050D01*
D02*
G37*
G36*
X164892Y70217D02*
X164921Y70193D01*
X164950Y70172D01*
X164980Y70154D01*
X165011Y70139D01*
X165043Y70126D01*
X165076Y70117D01*
X165110Y70110D01*
X165144Y70105D01*
X165180Y70104D01*
Y70100D01*
X165234Y70095D01*
X165267Y70088D01*
X165295Y70079D01*
X165318Y70069D01*
X165335Y70056D01*
X165348Y70041D01*
X165356Y70024D01*
X165358Y70006D01*
Y69723D01*
X165356Y69747D01*
X165348Y69769D01*
X165335Y69788D01*
X165318Y69804D01*
X165295Y69818D01*
X165267Y69830D01*
X165234Y69839D01*
X165196Y69845D01*
X165153Y69849D01*
X165150Y69849D01*
X165144Y69849D01*
X165110Y69844D01*
X165076Y69837D01*
X165043Y69828D01*
X165011Y69815D01*
X164980Y69800D01*
X164950Y69782D01*
X164921Y69761D01*
X164892Y69737D01*
X164864Y69710D01*
Y70244D01*
X164892Y70217D01*
D02*
G37*
G36*
X159621Y69710D02*
X159593Y69737D01*
X159564Y69761D01*
X159535Y69782D01*
X159505Y69800D01*
X159474Y69815D01*
X159442Y69828D01*
X159409Y69837D01*
X159375Y69844D01*
X159341Y69849D01*
X159305Y69850D01*
Y70104D01*
X159341Y70105D01*
X159375Y70110D01*
X159409Y70117D01*
X159442Y70126D01*
X159474Y70139D01*
X159505Y70154D01*
X159535Y70172D01*
X159564Y70193D01*
X159593Y70217D01*
X159621Y70244D01*
Y69710D01*
D02*
G37*
G36*
X155367Y70217D02*
X155396Y70193D01*
X155425Y70172D01*
X155455Y70154D01*
X155486Y70139D01*
X155518Y70126D01*
X155551Y70117D01*
X155585Y70110D01*
X155619Y70105D01*
X155655Y70104D01*
Y69850D01*
X155619Y69849D01*
X155585Y69844D01*
X155551Y69837D01*
X155518Y69828D01*
X155486Y69815D01*
X155455Y69800D01*
X155425Y69782D01*
X155396Y69761D01*
X155367Y69737D01*
X155339Y69710D01*
Y70244D01*
X155367Y70217D01*
D02*
G37*
G36*
X150896Y69549D02*
X150864Y69573D01*
X150832Y69594D01*
X150800Y69612D01*
X150767Y69628D01*
X150734Y69642D01*
X150701Y69653D01*
X150667Y69661D01*
X150633Y69667D01*
X150599Y69671D01*
X150564Y69672D01*
X150528Y69926D01*
X150564Y69928D01*
X150599Y69932D01*
X150632Y69940D01*
X150664Y69951D01*
X150694Y69964D01*
X150723Y69981D01*
X150750Y70001D01*
X150777Y70023D01*
X150801Y70049D01*
X150825Y70078D01*
X150896Y69549D01*
D02*
G37*
G36*
X149631Y70027D02*
X149639Y70006D01*
X149651Y69987D01*
X149669Y69971D01*
X149692Y69957D01*
X149720Y69946D01*
X149753Y69937D01*
X149791Y69931D01*
X149834Y69927D01*
X149882Y69926D01*
Y69672D01*
X149834Y69671D01*
X149791Y69667D01*
X149753Y69661D01*
X149720Y69652D01*
X149692Y69641D01*
X149669Y69628D01*
X149651Y69611D01*
X149639Y69593D01*
X149631Y69572D01*
X149628Y69548D01*
Y70050D01*
X149631Y70027D01*
D02*
G37*
G36*
X139932Y68735D02*
X139929Y68754D01*
X139921Y68771D01*
X139909Y68786D01*
X139891Y68799D01*
X139868Y68809D01*
X139840Y68818D01*
X139807Y68825D01*
X139769Y68830D01*
X139726Y68833D01*
X139678Y68834D01*
Y69088D01*
X139726Y69089D01*
X139770Y69093D01*
X139808Y69099D01*
X139842Y69108D01*
X139870Y69120D01*
X139893Y69134D01*
X139911Y69150D01*
X139924Y69169D01*
X139932Y69191D01*
X139935Y69215D01*
X139932Y68735D01*
D02*
G37*
G36*
X151766Y69005D02*
X151771Y68971D01*
X151778Y68937D01*
X151787Y68904D01*
X151800Y68872D01*
X151815Y68841D01*
X151833Y68811D01*
X151854Y68782D01*
X151878Y68753D01*
X151905Y68725D01*
X151371D01*
X151398Y68753D01*
X151422Y68782D01*
X151443Y68811D01*
X151461Y68841D01*
X151476Y68872D01*
X151489Y68904D01*
X151498Y68937D01*
X151505Y68971D01*
X151510Y69005D01*
X151511Y69041D01*
X151765D01*
X151766Y69005D01*
D02*
G37*
G36*
X149952Y68713D02*
X149946Y68717D01*
X149937Y68720D01*
X149923Y68723D01*
X149905Y68725D01*
X149856Y68729D01*
X149708Y68732D01*
X149753Y69240D01*
X149987Y69245D01*
X149952Y68713D01*
D02*
G37*
G36*
X166752Y68812D02*
X166752Y68809D01*
X166752Y68801D01*
X166751Y68558D01*
X166497D01*
X166496Y68606D01*
X166492Y68650D01*
X166486Y68688D01*
X166477Y68722D01*
X166465Y68750D01*
X166451Y68773D01*
X166435Y68791D01*
X166416Y68804D01*
X166394Y68812D01*
X166370Y68815D01*
X166752Y68812D01*
D02*
G37*
G36*
X94191Y68079D02*
X94171Y68094D01*
X94148Y68101D01*
X94121D01*
X94090Y68094D01*
X94056Y68079D01*
X94019Y68058D01*
X93977Y68029D01*
X93932Y67993D01*
X93832Y67900D01*
X93652Y68079D01*
X93703Y68132D01*
X93782Y68225D01*
X93810Y68266D01*
X93832Y68304D01*
X93846Y68338D01*
X93853Y68369D01*
Y68396D01*
X93846Y68419D01*
X93832Y68439D01*
X94191Y68079D01*
D02*
G37*
G36*
X149631Y68426D02*
X149639Y68405D01*
X149651Y68387D01*
X149669Y68371D01*
X149692Y68357D01*
X149720Y68346D01*
X149753Y68337D01*
X149791Y68331D01*
X149834Y68327D01*
X149882Y68326D01*
Y68072D01*
X149834Y68071D01*
X149791Y68067D01*
X149753Y68061D01*
X149720Y68052D01*
X149692Y68041D01*
X149669Y68027D01*
X149651Y68011D01*
X149639Y67993D01*
X149631Y67972D01*
X149628Y67948D01*
Y68450D01*
X149631Y68426D01*
D02*
G37*
G36*
X140895Y67949D02*
X140873Y67941D01*
X140854Y67928D01*
X140838Y67910D01*
X140824Y67887D01*
X140813Y67859D01*
X140804Y67825D01*
X140797Y67787D01*
X140793Y67743D01*
X140792Y67694D01*
X140538D01*
X140537Y67743D01*
X140533Y67787D01*
X140527Y67825D01*
X140518Y67859D01*
X140506Y67887D01*
X140492Y67910D01*
X140476Y67928D01*
X140457Y67941D01*
X140435Y67949D01*
X140411Y67951D01*
X140919D01*
X140895Y67949D01*
D02*
G37*
G36*
X145420Y68042D02*
X145398Y68012D01*
X145378Y67981D01*
X145361Y67950D01*
X145346Y67917D01*
X145334Y67885D01*
X145325Y67851D01*
X145319Y67818D01*
X145316Y67797D01*
X145318Y67774D01*
X145325Y67736D01*
X145333Y67703D01*
X145344Y67675D01*
X145358Y67652D01*
X145374Y67635D01*
X145393Y67622D01*
X145414Y67614D01*
X145437Y67612D01*
X144935D01*
X144959Y67614D01*
X144980Y67622D01*
X144999Y67635D01*
X145015Y67652D01*
X145028Y67675D01*
X145040Y67703D01*
X145048Y67736D01*
X145054Y67774D01*
X145055Y67786D01*
X145054Y67800D01*
X145046Y67834D01*
X145036Y67866D01*
X145023Y67897D01*
X145007Y67927D01*
X144988Y67956D01*
X144966Y67984D01*
X144941Y68011D01*
X144913Y68037D01*
X145445Y68072D01*
X145420Y68042D01*
D02*
G37*
G36*
X152778Y67891D02*
X152754Y67865D01*
X152732Y67838D01*
X152714Y67809D01*
X152697Y67779D01*
X152684Y67747D01*
X152672Y67715D01*
X152664Y67680D01*
X152658Y67645D01*
X152655Y67608D01*
X152654Y67569D01*
X152275Y67945D01*
X152314Y67946D01*
X152351Y67950D01*
X152387Y67956D01*
X152421Y67964D01*
X152454Y67976D01*
X152485Y67989D01*
X152515Y68006D01*
X152544Y68025D01*
X152572Y68046D01*
X152597Y68070D01*
X152778Y67891D01*
D02*
G37*
G36*
X127508Y67564D02*
X127460Y67561D01*
X127417Y67554D01*
X127378Y67541D01*
X127345Y67523D01*
X127317Y67501D01*
X127295Y67473D01*
X127277Y67440D01*
X127264Y67401D01*
X127257Y67358D01*
X127254Y67310D01*
X127000D01*
X126997Y67358D01*
X126990Y67401D01*
X126977Y67440D01*
X126959Y67473D01*
X126937Y67501D01*
X126909Y67523D01*
X126876Y67541D01*
X126837Y67554D01*
X126794Y67561D01*
X126746Y67564D01*
X127127Y67818D01*
X127508Y67564D01*
D02*
G37*
G36*
X152060Y67248D02*
X152026Y67270D01*
X151959Y67306D01*
X151926Y67320D01*
X151892Y67333D01*
X151858Y67343D01*
X151824Y67351D01*
X151790Y67356D01*
X151756Y67360D01*
X151722Y67361D01*
X151667Y67615D01*
X151703Y67616D01*
X151738Y67621D01*
X151770Y67629D01*
X151802Y67640D01*
X151831Y67654D01*
X151859Y67671D01*
X151885Y67691D01*
X151909Y67715D01*
X151932Y67741D01*
X151953Y67771D01*
X152060Y67248D01*
D02*
G37*
G36*
X148079Y67361D02*
X148030Y67360D01*
X147987Y67356D01*
X147948Y67349D01*
X147915Y67340D01*
X147887Y67329D01*
X147864Y67315D01*
X147845Y67299D01*
X147833Y67280D01*
X147825Y67258D01*
X147822Y67234D01*
X147825Y67612D01*
X147827Y67612D01*
X147835Y67613D01*
X147949Y67615D01*
X148079Y67615D01*
Y67361D01*
D02*
G37*
G36*
X124252Y67677D02*
X124281Y67653D01*
X124310Y67632D01*
X124340Y67614D01*
X124371Y67599D01*
X124403Y67586D01*
X124436Y67577D01*
X124470Y67570D01*
X124504Y67565D01*
X124540Y67564D01*
Y67310D01*
X124504Y67309D01*
X124470Y67304D01*
X124436Y67297D01*
X124403Y67288D01*
X124371Y67275D01*
X124340Y67260D01*
X124310Y67242D01*
X124281Y67221D01*
X124252Y67197D01*
X124224Y67170D01*
Y67704D01*
X124252Y67677D01*
D02*
G37*
G36*
X130811Y66964D02*
X130815Y66920D01*
X130821Y66881D01*
X130830Y66848D01*
X130842Y66820D01*
X130856Y66797D01*
X130872Y66779D01*
X130891Y66766D01*
X130913Y66758D01*
X130937Y66755D01*
X130429D01*
X130453Y66758D01*
X130475Y66766D01*
X130494Y66779D01*
X130510Y66797D01*
X130524Y66820D01*
X130536Y66848D01*
X130545Y66881D01*
X130551Y66920D01*
X130555Y66964D01*
X130556Y67013D01*
X130810D01*
X130811Y66964D01*
D02*
G37*
G36*
X124182Y66207D02*
X124178Y66231D01*
X124167Y66252D01*
X124149Y66271D01*
X124123Y66287D01*
X124090Y66301D01*
X124050Y66312D01*
X124002Y66321D01*
X123947Y66327D01*
X123889Y66330D01*
X123888Y66330D01*
X123853Y66326D01*
X123822Y66318D01*
X123793Y66306D01*
X123767Y66292D01*
X123743Y66274D01*
X123723Y66253D01*
X123705Y66229D01*
X123690Y66202D01*
X123678Y66171D01*
X123453Y66650D01*
X123487Y66638D01*
X123562Y66617D01*
X123603Y66609D01*
X123690Y66596D01*
X123786Y66589D01*
X123858Y66587D01*
X123884Y66587D01*
X124002Y66597D01*
X124050Y66606D01*
X124090Y66617D01*
X124123Y66631D01*
X124149Y66647D01*
X124167Y66666D01*
X124178Y66687D01*
X124182Y66711D01*
Y66207D01*
D02*
G37*
G36*
X166752Y66465D02*
X166757Y66431D01*
X166764Y66397D01*
X166773Y66364D01*
X166786Y66332D01*
X166801Y66301D01*
X166819Y66271D01*
X166840Y66242D01*
X166864Y66213D01*
X166891Y66185D01*
X166357D01*
X166384Y66213D01*
X166408Y66242D01*
X166429Y66271D01*
X166447Y66301D01*
X166462Y66332D01*
X166475Y66364D01*
X166484Y66397D01*
X166491Y66431D01*
X166496Y66465D01*
X166497Y66501D01*
X166751D01*
X166752Y66465D01*
D02*
G37*
G36*
X147038Y66143D02*
X147039Y66139D01*
X147039Y66132D01*
X147041Y66035D01*
X147041Y66009D01*
X146787D01*
X146787Y66035D01*
X146780Y66143D01*
X146778Y66145D01*
X147038D01*
X147038Y66143D01*
D02*
G37*
G36*
X138070Y67153D02*
X138304Y67056D01*
X138556D01*
X138790Y67153D01*
X138813Y67176D01*
X138931Y67128D01*
Y64897D01*
X138960Y64748D01*
X139044Y64622D01*
X148837Y54830D01*
Y52422D01*
X148818Y52417D01*
X148578Y52278D01*
X148382Y52082D01*
X148243Y51842D01*
X148171Y51574D01*
Y51296D01*
X148243Y51028D01*
X148382Y50788D01*
X148578Y50592D01*
X148818Y50453D01*
X149086Y50381D01*
X149091D01*
Y49079D01*
X149088Y49078D01*
X148856Y48944D01*
X148668Y48756D01*
X148534Y48524D01*
X148465Y48266D01*
Y48000D01*
X148534Y47742D01*
X148668Y47510D01*
X148856Y47322D01*
X149088Y47188D01*
X149346Y47119D01*
X149612D01*
X149870Y47188D01*
X150102Y47322D01*
X150290Y47510D01*
X150424Y47742D01*
X150493Y48000D01*
Y48266D01*
X150424Y48524D01*
X150290Y48756D01*
X150102Y48944D01*
X149870Y49078D01*
X149867Y49079D01*
Y50589D01*
X149872Y50592D01*
X150068Y50788D01*
X150207Y51028D01*
X150279Y51296D01*
Y51574D01*
X150207Y51842D01*
X150068Y52082D01*
X149872Y52278D01*
X149632Y52417D01*
X149613Y52422D01*
Y54649D01*
X149731Y54698D01*
X151250Y53179D01*
Y52354D01*
X151118Y52278D01*
X150922Y52082D01*
X150783Y51842D01*
X150711Y51574D01*
Y51296D01*
X150783Y51028D01*
X150922Y50788D01*
X151118Y50592D01*
X151358Y50453D01*
X151626Y50381D01*
X151631D01*
Y49079D01*
X151628Y49078D01*
X151396Y48944D01*
X151208Y48756D01*
X151074Y48524D01*
X151005Y48266D01*
Y48000D01*
X151074Y47742D01*
X151208Y47510D01*
X151396Y47322D01*
X151628Y47188D01*
X151886Y47119D01*
X152152D01*
X152410Y47188D01*
X152642Y47322D01*
X152830Y47510D01*
X152964Y47742D01*
X153033Y48000D01*
Y48266D01*
X152964Y48524D01*
X152830Y48756D01*
X152642Y48944D01*
X152410Y49078D01*
X152407Y49079D01*
Y50589D01*
X152412Y50592D01*
X152608Y50788D01*
X152747Y51028D01*
X152819Y51296D01*
Y51574D01*
X152747Y51842D01*
X152608Y52082D01*
X152412Y52278D01*
X152172Y52417D01*
X152026Y52456D01*
Y52998D01*
X152144Y53047D01*
X153332Y51858D01*
X153323Y51842D01*
X153251Y51574D01*
Y51296D01*
X153323Y51028D01*
X153462Y50788D01*
X153658Y50592D01*
X153898Y50453D01*
X154166Y50381D01*
X154171D01*
Y49079D01*
X154168Y49078D01*
X153936Y48944D01*
X153748Y48756D01*
X153614Y48524D01*
X153545Y48266D01*
Y48000D01*
X153614Y47742D01*
X153748Y47510D01*
X153936Y47322D01*
X154168Y47188D01*
X154426Y47119D01*
X154692D01*
X154950Y47188D01*
X155182Y47322D01*
X155370Y47510D01*
X155504Y47742D01*
X155573Y48000D01*
Y48266D01*
X155504Y48524D01*
X155370Y48756D01*
X155182Y48944D01*
X154950Y49078D01*
X154947Y49079D01*
Y50589D01*
X154952Y50592D01*
X155148Y50788D01*
X155287Y51028D01*
X155359Y51296D01*
Y51574D01*
X155287Y51842D01*
X155148Y52082D01*
X154952Y52278D01*
X154712Y52417D01*
X154444Y52489D01*
X154166D01*
X153898Y52417D01*
X153882Y52408D01*
X153582Y52707D01*
X153631Y52825D01*
X154906D01*
X155872Y51858D01*
X155863Y51842D01*
X155791Y51574D01*
Y51296D01*
X155863Y51028D01*
X156002Y50788D01*
X156198Y50592D01*
X156438Y50453D01*
X156457Y50448D01*
Y48925D01*
X156288Y48756D01*
X156154Y48524D01*
X156085Y48266D01*
Y48000D01*
X156154Y47742D01*
X156288Y47510D01*
X156476Y47322D01*
X156708Y47188D01*
X156966Y47119D01*
X157232D01*
X157490Y47188D01*
X157722Y47322D01*
X157910Y47510D01*
X158044Y47742D01*
X158113Y48000D01*
Y48266D01*
X158044Y48524D01*
X157910Y48756D01*
X157722Y48944D01*
X157490Y49078D01*
X157233Y49147D01*
Y50448D01*
X157252Y50453D01*
X157492Y50592D01*
X157688Y50788D01*
X157827Y51028D01*
X157899Y51296D01*
Y51574D01*
X157827Y51842D01*
X157688Y52082D01*
X157492Y52278D01*
X157252Y52417D01*
X156984Y52489D01*
X156706D01*
X156438Y52417D01*
X156422Y52408D01*
X155487Y53342D01*
X155536Y53460D01*
X156557D01*
X158355Y51662D01*
X158331Y51574D01*
Y51296D01*
X158403Y51028D01*
X158542Y50788D01*
X158738Y50592D01*
X158978Y50453D01*
X158997Y50448D01*
Y48925D01*
X158828Y48756D01*
X158694Y48524D01*
X158625Y48266D01*
Y48000D01*
X158694Y47742D01*
X158828Y47510D01*
X159016Y47322D01*
X159248Y47188D01*
X159506Y47119D01*
X159772D01*
X160030Y47188D01*
X160262Y47322D01*
X160450Y47510D01*
X160584Y47742D01*
X160653Y48000D01*
Y48266D01*
X160584Y48524D01*
X160450Y48756D01*
X160262Y48944D01*
X160030Y49078D01*
X159773Y49147D01*
Y50318D01*
X159900Y50370D01*
X160394Y49877D01*
Y49530D01*
X160423Y49381D01*
X160507Y49255D01*
X160633Y49171D01*
X160782Y49142D01*
X161165D01*
Y47119D01*
X161534D01*
Y45002D01*
X161573Y44803D01*
X161686Y44635D01*
X161746Y44575D01*
X161698Y44457D01*
X144941D01*
X144916Y44482D01*
Y47119D01*
X146683D01*
Y49147D01*
X144916D01*
Y50671D01*
X144887Y50820D01*
X144803Y50946D01*
X144610Y51139D01*
X144619Y51155D01*
X144691Y51423D01*
Y51701D01*
X144619Y51969D01*
X144480Y52209D01*
X144284Y52405D01*
X144044Y52544D01*
X143776Y52616D01*
X143498D01*
X143230Y52544D01*
X142990Y52405D01*
X142794Y52209D01*
X142655Y51969D01*
X142583Y51701D01*
Y51423D01*
X142655Y51155D01*
X142741Y51007D01*
Y49079D01*
X142738Y49078D01*
X142506Y48944D01*
X142318Y48756D01*
X142184Y48524D01*
X142115Y48266D01*
Y48000D01*
X142184Y47742D01*
X142318Y47510D01*
X142506Y47322D01*
X142738Y47188D01*
X142741Y47187D01*
Y45092D01*
X135897D01*
Y47187D01*
X135900Y47188D01*
X136132Y47322D01*
X136320Y47510D01*
X136454Y47742D01*
X136523Y48000D01*
Y48266D01*
X136454Y48524D01*
X136401Y48617D01*
X136405Y48641D01*
Y50575D01*
X136424Y50580D01*
X136664Y50719D01*
X136860Y50915D01*
X136999Y51155D01*
X137071Y51423D01*
Y51701D01*
X136999Y51969D01*
X136860Y52209D01*
X136664Y52405D01*
X136424Y52544D01*
X136156Y52616D01*
X135878D01*
X135610Y52544D01*
X135370Y52405D01*
X135174Y52209D01*
X135035Y51969D01*
X134963Y51701D01*
Y51423D01*
X135035Y51155D01*
X135174Y50915D01*
X135370Y50719D01*
X135610Y50580D01*
X135629Y50575D01*
Y49147D01*
X135376D01*
X135118Y49078D01*
X134886Y48944D01*
X134698Y48756D01*
X134564Y48524D01*
X134495Y48266D01*
Y48000D01*
X134564Y47742D01*
X134698Y47510D01*
X134886Y47322D01*
X135118Y47188D01*
X135121Y47187D01*
Y44853D01*
X135150Y44704D01*
X135234Y44578D01*
X135383Y44429D01*
X135509Y44345D01*
X135658Y44316D01*
X142980D01*
X143129Y44345D01*
X143255Y44429D01*
X143404Y44578D01*
X143488Y44704D01*
X143517Y44853D01*
Y47187D01*
X143520Y47188D01*
X143752Y47322D01*
X143940Y47510D01*
X144013Y47635D01*
X144140Y47601D01*
Y44321D01*
X144169Y44172D01*
X144233Y44076D01*
X144187Y43949D01*
X128209D01*
X128180Y44020D01*
X128168Y44076D01*
X128248Y44196D01*
X128277Y44345D01*
Y47187D01*
X128280Y47188D01*
X128512Y47322D01*
X128700Y47510D01*
X128834Y47742D01*
X128903Y48000D01*
Y48266D01*
X128834Y48524D01*
X128700Y48756D01*
X128512Y48944D01*
X128280Y49078D01*
X128277Y49079D01*
Y50508D01*
X128536D01*
X128804Y50580D01*
X129044Y50719D01*
X129240Y50915D01*
X129379Y51155D01*
X129451Y51423D01*
Y51701D01*
X129379Y51969D01*
X129240Y52209D01*
X129044Y52405D01*
X128804Y52544D01*
X128536Y52616D01*
X128258D01*
X127990Y52544D01*
X127750Y52405D01*
X127554Y52209D01*
X127415Y51969D01*
X127343Y51701D01*
Y51423D01*
X127415Y51155D01*
X127554Y50915D01*
X127570Y50898D01*
X127530Y50838D01*
X127501Y50690D01*
Y49079D01*
X127498Y49078D01*
X127266Y48944D01*
X127078Y48756D01*
X126944Y48524D01*
X126875Y48266D01*
Y48000D01*
X126944Y47742D01*
X127078Y47510D01*
X127266Y47322D01*
X127498Y47188D01*
X127501Y47187D01*
Y44584D01*
X124044D01*
X123936Y44630D01*
Y45078D01*
X124839D01*
X124989Y44928D01*
X125222Y44831D01*
Y45466D01*
Y46101D01*
X124989Y46004D01*
X124839Y45854D01*
X123936D01*
Y46757D01*
X122682D01*
Y46884D01*
X122555D01*
Y49138D01*
X121428D01*
Y47272D01*
X120474D01*
X118707Y49040D01*
X118756Y49170D01*
X118957Y49254D01*
X119135Y49432D01*
X119232Y49666D01*
Y49918D01*
X119135Y50152D01*
X118985Y50302D01*
Y55846D01*
X119103Y55894D01*
X119147Y55850D01*
X119381Y55753D01*
X119633D01*
X119867Y55850D01*
X120045Y56028D01*
X120142Y56262D01*
Y56294D01*
X121234Y57387D01*
X122493D01*
Y59095D01*
X120585D01*
Y57836D01*
X119731Y56982D01*
X119633Y57023D01*
X119381D01*
X119147Y56926D01*
X119103Y56882D01*
X118985Y56930D01*
Y57913D01*
X120051D01*
Y59687D01*
X120178Y59770D01*
X120269Y59752D01*
X120585D01*
Y59287D01*
X122493D01*
Y60995D01*
X120657D01*
Y61446D01*
X121473D01*
Y62300D01*
X121727D01*
Y61446D01*
X122554D01*
Y62077D01*
X124998D01*
X125034Y62084D01*
X125537D01*
X125753Y62127D01*
X125936Y62250D01*
X126059Y62433D01*
X126102Y62649D01*
X126099Y62662D01*
X126493Y63055D01*
X126577Y63181D01*
X126606Y63330D01*
Y66741D01*
X126577Y66890D01*
X126493Y67016D01*
X126323Y67185D01*
X126372Y67303D01*
X126739D01*
Y59692D01*
X126589Y59542D01*
X126574Y59507D01*
X126154D01*
X125983Y59621D01*
X125973Y59690D01*
X125983Y59759D01*
X126168Y59882D01*
X126303Y60085D01*
X126351Y60325D01*
X126303Y60565D01*
X126168Y60768D01*
X125965Y60903D01*
X125725Y60951D01*
X124665D01*
X124425Y60903D01*
X124222Y60768D01*
X124087Y60565D01*
X124039Y60325D01*
X124087Y60085D01*
X124222Y59882D01*
X124407Y59759D01*
X124417Y59690D01*
X124407Y59621D01*
X124222Y59498D01*
X124087Y59295D01*
X124039Y59055D01*
X124087Y58815D01*
X124222Y58612D01*
X124407Y58489D01*
X124417Y58420D01*
X124407Y58351D01*
X124222Y58228D01*
X124087Y58025D01*
X124039Y57785D01*
X124087Y57545D01*
X124222Y57342D01*
X124407Y57219D01*
X124417Y57150D01*
X124407Y57081D01*
X124222Y56958D01*
X124186Y56903D01*
X123827D01*
X123677Y57053D01*
X123443Y57150D01*
X123191D01*
X122957Y57053D01*
X122779Y56875D01*
X122682Y56641D01*
Y56389D01*
X122779Y56155D01*
X122957Y55977D01*
X123191Y55880D01*
X123443D01*
X123677Y55977D01*
X123827Y56127D01*
X124186D01*
X124222Y56072D01*
X124425Y55937D01*
X124665Y55889D01*
X125725D01*
X125965Y55937D01*
X126168Y56072D01*
X126303Y56275D01*
X126351Y56515D01*
X126303Y56755D01*
X126168Y56958D01*
X125983Y57081D01*
X125973Y57150D01*
X125983Y57219D01*
X126168Y57342D01*
X126303Y57545D01*
X126351Y57785D01*
X126303Y58025D01*
X126168Y58228D01*
X125983Y58351D01*
X125973Y58420D01*
X125983Y58489D01*
X126168Y58612D01*
X126246Y58730D01*
X126681D01*
X126767Y58644D01*
X127001Y58547D01*
X127253D01*
X127487Y58644D01*
X127665Y58822D01*
X127762Y59056D01*
Y59308D01*
X127665Y59542D01*
X127515Y59692D01*
Y67303D01*
X130295D01*
Y67024D01*
X129987D01*
X129771Y66981D01*
X129588Y66858D01*
X129465Y66675D01*
X129422Y66459D01*
X129465Y66243D01*
X129588Y66060D01*
X129771Y65937D01*
X129987Y65894D01*
X131187D01*
X131403Y65937D01*
X131586Y66060D01*
X131709Y66243D01*
X131752Y66459D01*
X131709Y66675D01*
X131586Y66858D01*
X131403Y66981D01*
X131187Y67024D01*
X131071D01*
Y67303D01*
X137920D01*
X138070Y67153D01*
D02*
G37*
G36*
X144606Y66142D02*
X144589Y66134D01*
X144574Y66122D01*
X144561Y66104D01*
X144551Y66081D01*
X144542Y66053D01*
X144535Y66020D01*
X144530Y65982D01*
X144527Y65939D01*
X144526Y65891D01*
X144272D01*
X144271Y65939D01*
X144267Y65982D01*
X144261Y66020D01*
X144252Y66053D01*
X144240Y66081D01*
X144226Y66104D01*
X144210Y66122D01*
X144191Y66134D01*
X144169Y66142D01*
X144145Y66145D01*
X144625D01*
X144606Y66142D01*
D02*
G37*
G36*
X143740D02*
X143718Y66134D01*
X143699Y66122D01*
X143683Y66104D01*
X143669Y66081D01*
X143657Y66053D01*
X143648Y66020D01*
X143642Y65982D01*
X143638Y65939D01*
X143637Y65891D01*
X143383D01*
X143383Y65939D01*
X143375Y66053D01*
X143371Y66081D01*
X143366Y66104D01*
X143360Y66122D01*
X143352Y66134D01*
X143344Y66142D01*
X143335Y66145D01*
X143764D01*
X143740Y66142D01*
D02*
G37*
G36*
X143001D02*
X142980Y66134D01*
X142961Y66122D01*
X142945Y66104D01*
X142931Y66081D01*
X142920Y66053D01*
X142912Y66020D01*
X142905Y65982D01*
X142902Y65939D01*
X142900Y65891D01*
X142646D01*
X142645Y65939D01*
X142641Y65982D01*
X142635Y66020D01*
X142627Y66053D01*
X142615Y66081D01*
X142602Y66104D01*
X142586Y66122D01*
X142567Y66134D01*
X142546Y66142D01*
X142522Y66145D01*
X143024D01*
X143001Y66142D01*
D02*
G37*
G36*
X142213D02*
X142192Y66134D01*
X142174Y66122D01*
X142158Y66104D01*
X142144Y66081D01*
X142133Y66053D01*
X142124Y66020D01*
X142118Y65982D01*
X142114Y65939D01*
X142113Y65891D01*
X141859D01*
X141858Y65939D01*
X141854Y65982D01*
X141848Y66020D01*
X141839Y66053D01*
X141828Y66081D01*
X141814Y66104D01*
X141798Y66122D01*
X141780Y66134D01*
X141759Y66142D01*
X141735Y66145D01*
X142237D01*
X142213Y66142D01*
D02*
G37*
G36*
X165763Y66143D02*
X165770Y66121D01*
X165783Y66102D01*
X165801Y66086D01*
X165824Y66072D01*
X165853Y66060D01*
X165886Y66051D01*
X165925Y66045D01*
X165968Y66041D01*
X166017Y66040D01*
Y65786D01*
X165968Y65785D01*
X165925Y65781D01*
X165886Y65775D01*
X165853Y65766D01*
X165824Y65754D01*
X165801Y65740D01*
X165783Y65724D01*
X165770Y65705D01*
X165763Y65683D01*
X165760Y65659D01*
Y66167D01*
X165763Y66143D01*
D02*
G37*
G36*
X166352Y65646D02*
X166324Y65673D01*
X166295Y65697D01*
X166266Y65718D01*
X166236Y65736D01*
X166205Y65751D01*
X166173Y65764D01*
X166140Y65773D01*
X166106Y65780D01*
X166072Y65785D01*
X166036Y65786D01*
Y66040D01*
X166072Y66041D01*
X166106Y66046D01*
X166140Y66053D01*
X166173Y66062D01*
X166205Y66075D01*
X166236Y66090D01*
X166266Y66108D01*
X166295Y66129D01*
X166324Y66153D01*
X166352Y66180D01*
Y65646D01*
D02*
G37*
G36*
X124182Y64937D02*
X124178Y64961D01*
X124167Y64982D01*
X124149Y65001D01*
X124123Y65017D01*
X124090Y65031D01*
X124050Y65042D01*
X124002Y65051D01*
X123947Y65057D01*
X123884Y65061D01*
X123814Y65062D01*
Y65316D01*
X123884Y65317D01*
X124002Y65327D01*
X124050Y65336D01*
X124090Y65347D01*
X124123Y65361D01*
X124149Y65377D01*
X124167Y65396D01*
X124178Y65417D01*
X124182Y65441D01*
Y64937D01*
D02*
G37*
G36*
X117248Y65419D02*
X117256Y65397D01*
X117268Y65378D01*
X117286Y65362D01*
X117310Y65348D01*
X117338Y65336D01*
X117371Y65327D01*
X117410Y65321D01*
X117454Y65317D01*
X117502Y65316D01*
Y65062D01*
X117454Y65061D01*
X117410Y65057D01*
X117371Y65051D01*
X117338Y65042D01*
X117310Y65030D01*
X117286Y65016D01*
X117268Y65000D01*
X117256Y64981D01*
X117248Y64959D01*
X117245Y64935D01*
Y65443D01*
X117248Y65419D01*
D02*
G37*
G36*
X114158Y64201D02*
X114155Y64225D01*
X114147Y64247D01*
X114134Y64266D01*
X114116Y64283D01*
X114093Y64296D01*
X114065Y64308D01*
X114032Y64317D01*
X113993Y64323D01*
X113949Y64327D01*
X113900Y64328D01*
Y64582D01*
X113949Y64584D01*
X113993Y64587D01*
X114032Y64594D01*
X114065Y64603D01*
X114093Y64614D01*
X114116Y64628D01*
X114134Y64644D01*
X114147Y64664D01*
X114155Y64685D01*
X114158Y64709D01*
Y64201D01*
D02*
G37*
G36*
X120906Y64099D02*
X120903Y64123D01*
X120896Y64145D01*
X120883Y64164D01*
X120865Y64180D01*
X120842Y64194D01*
X120813Y64206D01*
X120780Y64214D01*
X120741Y64221D01*
X120698Y64225D01*
X120649Y64226D01*
Y64480D01*
X120698Y64481D01*
X120741Y64485D01*
X120780Y64491D01*
X120813Y64500D01*
X120842Y64512D01*
X120865Y64526D01*
X120883Y64542D01*
X120896Y64561D01*
X120903Y64583D01*
X120906Y64607D01*
Y64099D01*
D02*
G37*
G36*
X112843Y64788D02*
X112851Y64745D01*
X112863Y64707D01*
X112881Y64674D01*
X112904Y64646D01*
X112932Y64623D01*
X112965Y64605D01*
X113003Y64592D01*
X113046Y64585D01*
X113095Y64582D01*
Y64328D01*
X113046Y64326D01*
X113003Y64318D01*
X112965Y64305D01*
X112932Y64288D01*
X112904Y64265D01*
X112881Y64237D01*
X112863Y64204D01*
X112851Y64166D01*
X112843Y64122D01*
X112841Y64074D01*
X112587Y64455D01*
X112841Y64836D01*
X112843Y64788D01*
D02*
G37*
G36*
X116881Y64067D02*
X116860Y64059D01*
X116841Y64047D01*
X116824Y64029D01*
X116810Y64006D01*
X116799Y63978D01*
X116790Y63945D01*
X116783Y63907D01*
X116780Y63864D01*
X116778Y63816D01*
X116524D01*
X116523Y63864D01*
X116519Y63907D01*
X116513Y63945D01*
X116504Y63978D01*
X116493Y64006D01*
X116479Y64029D01*
X116462Y64047D01*
X116443Y64059D01*
X116422Y64067D01*
X116397Y64070D01*
X116905D01*
X116881Y64067D01*
D02*
G37*
G36*
X124182Y63667D02*
X124178Y63691D01*
X124167Y63712D01*
X124149Y63731D01*
X124123Y63747D01*
X124090Y63761D01*
X124050Y63772D01*
X124002Y63781D01*
X123947Y63787D01*
X123884Y63791D01*
X123814Y63792D01*
Y64046D01*
X123884Y64047D01*
X124002Y64057D01*
X124050Y64066D01*
X124090Y64077D01*
X124123Y64091D01*
X124149Y64107D01*
X124167Y64126D01*
X124178Y64147D01*
X124182Y64171D01*
Y63667D01*
D02*
G37*
G36*
X122299Y64149D02*
X122307Y64127D01*
X122320Y64108D01*
X122337Y64092D01*
X122360Y64078D01*
X122388Y64066D01*
X122421Y64057D01*
X122459Y64051D01*
X122502Y64047D01*
X122551Y64046D01*
Y63792D01*
X122502Y63791D01*
X122459Y63787D01*
X122421Y63781D01*
X122388Y63772D01*
X122360Y63760D01*
X122337Y63746D01*
X122320Y63730D01*
X122307Y63711D01*
X122299Y63689D01*
X122297Y63665D01*
Y64173D01*
X122299Y64149D01*
D02*
G37*
G36*
X112842Y63871D02*
X112846Y63836D01*
X112853Y63803D01*
X112863Y63770D01*
X112875Y63738D01*
X112891Y63707D01*
X112909Y63677D01*
X112930Y63647D01*
X112954Y63618D01*
X112980Y63591D01*
X112447D01*
X112473Y63618D01*
X112497Y63647D01*
X112518Y63677D01*
X112536Y63707D01*
X112552Y63738D01*
X112564Y63770D01*
X112574Y63803D01*
X112581Y63836D01*
X112585Y63871D01*
X112587Y63906D01*
X112841D01*
X112842Y63871D01*
D02*
G37*
G36*
X106975Y63813D02*
X106954Y63805D01*
X106935Y63793D01*
X106918Y63775D01*
X106904Y63752D01*
X106893Y63724D01*
X106884Y63691D01*
X106877Y63653D01*
X106874Y63610D01*
X106872Y63562D01*
X106618D01*
X106617Y63610D01*
X106613Y63653D01*
X106607Y63691D01*
X106598Y63724D01*
X106587Y63752D01*
X106573Y63775D01*
X106556Y63793D01*
X106537Y63805D01*
X106516Y63813D01*
X106491Y63816D01*
X106999D01*
X106975Y63813D01*
D02*
G37*
G36*
X105181Y63063D02*
X105154Y63089D01*
X105125Y63113D01*
X105096Y63134D01*
X105065Y63152D01*
X105034Y63168D01*
X105002Y63180D01*
X104969Y63190D01*
X104936Y63197D01*
X104901Y63201D01*
X104866Y63202D01*
Y63456D01*
X104901Y63458D01*
X104936Y63462D01*
X104969Y63469D01*
X105002Y63479D01*
X105034Y63491D01*
X105065Y63507D01*
X105096Y63525D01*
X105125Y63546D01*
X105154Y63570D01*
X105181Y63596D01*
Y63063D01*
D02*
G37*
G36*
X115378Y63374D02*
X115842D01*
X115815Y63347D01*
X115792Y63318D01*
X115771Y63289D01*
X115752Y63258D01*
X115737Y63227D01*
X115725Y63195D01*
X115715Y63162D01*
X115708Y63129D01*
X115704Y63094D01*
X115702Y63059D01*
X115448D01*
X115447Y63094D01*
X115443Y63129D01*
X115436Y63162D01*
X115426Y63195D01*
X115413Y63227D01*
X115398Y63258D01*
X115380Y63289D01*
X115364Y63311D01*
X115357Y63311D01*
X115335Y63309D01*
X115313Y63304D01*
X115291Y63295D01*
X115268Y63283D01*
X115245Y63268D01*
X115223Y63250D01*
X115199Y63229D01*
X115037Y63426D01*
X115065Y63455D01*
X115113Y63511D01*
X115133Y63538D01*
X115151Y63564D01*
X115165Y63590D01*
X115177Y63615D01*
X115186Y63639D01*
X115193Y63663D01*
X115196Y63686D01*
X115378Y63374D01*
D02*
G37*
G36*
X113013Y63559D02*
X113042Y63535D01*
X113072Y63514D01*
X113102Y63496D01*
X113133Y63480D01*
X113165Y63468D01*
X113198Y63458D01*
X113231Y63451D01*
X113266Y63447D01*
X113301Y63446D01*
Y63192D01*
X113266Y63190D01*
X113231Y63186D01*
X113198Y63179D01*
X113165Y63169D01*
X113133Y63157D01*
X113102Y63141D01*
X113072Y63123D01*
X113042Y63102D01*
X113013Y63078D01*
X112986Y63052D01*
Y63585D01*
X113013Y63559D01*
D02*
G37*
G36*
X104575Y63813D02*
X104553Y63805D01*
X104534Y63793D01*
X104518Y63775D01*
X104504Y63752D01*
X104492Y63724D01*
X104483Y63691D01*
X104477Y63653D01*
X104477Y63650D01*
X104482Y63619D01*
X104495Y63581D01*
X104513Y63548D01*
X104535Y63520D01*
X104563Y63497D01*
X104596Y63479D01*
X104635Y63467D01*
X104678Y63459D01*
X104726Y63456D01*
Y63202D01*
X104678Y63200D01*
X104635Y63192D01*
X104596Y63180D01*
X104563Y63162D01*
X104535Y63139D01*
X104513Y63111D01*
X104495Y63078D01*
X104482Y63040D01*
X104475Y62997D01*
X104472Y62948D01*
X104218Y63329D01*
X104373Y63562D01*
X104218D01*
X104218Y63610D01*
X104229Y63775D01*
X104233Y63793D01*
X104237Y63805D01*
X104243Y63813D01*
X104248Y63816D01*
X104599D01*
X104575Y63813D01*
D02*
G37*
G36*
X125996Y62929D02*
X125948Y62879D01*
X125873Y62789D01*
X125845Y62749D01*
X125825Y62713D01*
X125811Y62680D01*
X125804Y62650D01*
X125804Y62623D01*
X125811Y62600D01*
X125824Y62581D01*
X125477Y62945D01*
X125496Y62931D01*
X125518Y62923D01*
X125544Y62922D01*
X125573Y62928D01*
X125605Y62941D01*
X125641Y62961D01*
X125680Y62987D01*
X125722Y63021D01*
X125768Y63061D01*
X125817Y63108D01*
X125996Y62929D01*
D02*
G37*
G36*
X112954Y63019D02*
X112930Y62990D01*
X112909Y62960D01*
X112891Y62930D01*
X112875Y62899D01*
X112863Y62867D01*
X112853Y62834D01*
X112846Y62801D01*
X112845Y62788D01*
X112846Y62775D01*
X112852Y62737D01*
X112861Y62703D01*
X112872Y62675D01*
X112886Y62652D01*
X112903Y62634D01*
X112922Y62621D01*
X112943Y62613D01*
X112968Y62611D01*
X112460D01*
X112484Y62613D01*
X112505Y62621D01*
X112524Y62634D01*
X112541Y62652D01*
X112555Y62675D01*
X112566Y62703D01*
X112575Y62737D01*
X112581Y62775D01*
X112583Y62788D01*
X112581Y62801D01*
X112574Y62834D01*
X112564Y62867D01*
X112552Y62899D01*
X112536Y62930D01*
X112518Y62960D01*
X112497Y62990D01*
X112473Y63019D01*
X112447Y63046D01*
X112980D01*
X112954Y63019D01*
D02*
G37*
G36*
X124259Y62360D02*
X124265Y62356D01*
X124260Y62352D01*
X124244Y62349D01*
X124219Y62346D01*
X124137Y62342D01*
X123850Y62338D01*
X123791Y62592D01*
X123853Y62594D01*
X123954Y62604D01*
X123992Y62613D01*
X124022Y62624D01*
X124044Y62638D01*
X124058Y62654D01*
X124063Y62673D01*
X124060Y62695D01*
X124050Y62719D01*
X124259Y62360D01*
D02*
G37*
G36*
X122299Y62695D02*
X122307Y62674D01*
X122320Y62655D01*
X122337Y62638D01*
X122360Y62624D01*
X122388Y62613D01*
X122421Y62604D01*
X122459Y62597D01*
X122502Y62594D01*
X122551Y62592D01*
Y62338D01*
X122502Y62337D01*
X122459Y62333D01*
X122421Y62327D01*
X122388Y62318D01*
X122360Y62307D01*
X122337Y62293D01*
X122320Y62276D01*
X122307Y62257D01*
X122299Y62236D01*
X122297Y62211D01*
Y62719D01*
X122299Y62695D01*
D02*
G37*
G36*
X104472Y61990D02*
X104218Y61609D01*
X104215Y61657D01*
X104208Y61700D01*
X104195Y61739D01*
X104177Y61772D01*
X104155Y61799D01*
X104127Y61822D01*
X104094Y61840D01*
X104071Y61848D01*
X104052Y61843D01*
X104024Y61831D01*
X104002Y61817D01*
X103984Y61801D01*
X103971Y61782D01*
X103963Y61760D01*
X103961Y61736D01*
Y62244D01*
X103963Y62220D01*
X103971Y62198D01*
X103984Y62179D01*
X104002Y62163D01*
X104024Y62149D01*
X104052Y62137D01*
X104071Y62132D01*
X104094Y62140D01*
X104127Y62158D01*
X104155Y62181D01*
X104177Y62208D01*
X104195Y62241D01*
X104208Y62280D01*
X104215Y62323D01*
X104218Y62371D01*
X104472Y61990D01*
D02*
G37*
G36*
X117331Y61587D02*
X117432Y61500D01*
X117476Y61469D01*
X117514Y61447D01*
X117548Y61433D01*
X117576Y61427D01*
X117600Y61430D01*
X117618Y61441D01*
X117632Y61461D01*
X117403Y60978D01*
X117411Y61003D01*
X117414Y61030D01*
X117411Y61060D01*
X117401Y61093D01*
X117386Y61127D01*
X117365Y61165D01*
X117337Y61204D01*
X117304Y61246D01*
X117265Y61290D01*
X117220Y61337D01*
X117273Y61644D01*
X117331Y61587D01*
D02*
G37*
G36*
X106853Y61200D02*
X106882Y61176D01*
X106911Y61155D01*
X106941Y61137D01*
X106972Y61122D01*
X107004Y61109D01*
X107037Y61100D01*
X107071Y61093D01*
X107105Y61088D01*
X107130Y61087D01*
X107162Y61088D01*
X107206Y61092D01*
X107244Y61098D01*
X107278Y61107D01*
X107306Y61119D01*
X107329Y61133D01*
X107347Y61149D01*
X107360Y61168D01*
X107368Y61190D01*
X107370Y61214D01*
Y60706D01*
X107368Y60730D01*
X107360Y60752D01*
X107347Y60771D01*
X107329Y60787D01*
X107306Y60801D01*
X107278Y60813D01*
X107244Y60822D01*
X107206Y60828D01*
X107162Y60832D01*
X107130Y60833D01*
X107105Y60832D01*
X107071Y60827D01*
X107037Y60820D01*
X107004Y60811D01*
X106972Y60798D01*
X106941Y60783D01*
X106911Y60765D01*
X106882Y60744D01*
X106853Y60720D01*
X106825Y60693D01*
Y61227D01*
X106853Y61200D01*
D02*
G37*
G36*
X96591Y60320D02*
X96589Y60344D01*
X96581Y60366D01*
X96568Y60385D01*
X96550Y60401D01*
X96527Y60415D01*
X96499Y60427D01*
X96466Y60436D01*
X96427Y60442D01*
X96383Y60446D01*
X96334Y60447D01*
Y60701D01*
X96383Y60702D01*
X96427Y60706D01*
X96466Y60712D01*
X96499Y60721D01*
X96527Y60733D01*
X96550Y60747D01*
X96568Y60763D01*
X96581Y60782D01*
X96589Y60804D01*
X96591Y60828D01*
Y60320D01*
D02*
G37*
G36*
X94933Y60804D02*
X94941Y60782D01*
X94954Y60763D01*
X94972Y60747D01*
X94994Y60733D01*
X95022Y60721D01*
X95055Y60712D01*
X95094Y60706D01*
X95137Y60702D01*
X95185Y60701D01*
Y60447D01*
X95137Y60446D01*
X95094Y60442D01*
X95055Y60436D01*
X95022Y60427D01*
X94994Y60415D01*
X94972Y60401D01*
X94954Y60385D01*
X94941Y60366D01*
X94933Y60344D01*
X94931Y60320D01*
Y60828D01*
X94933Y60804D01*
D02*
G37*
G36*
X103050Y60497D02*
X103020Y60479D01*
X102993Y60459D01*
X102969Y60437D01*
X102948Y60413D01*
X102931Y60386D01*
X102917Y60358D01*
X102905Y60327D01*
X102902Y60313D01*
X102902Y60310D01*
X102911Y60276D01*
X102923Y60248D01*
X102937Y60225D01*
X102953Y60207D01*
X102972Y60194D01*
X102994Y60186D01*
X103018Y60184D01*
X102510D01*
X102534Y60186D01*
X102556Y60194D01*
X102575Y60207D01*
X102591Y60225D01*
X102605Y60248D01*
X102617Y60276D01*
X102626Y60310D01*
X102632Y60348D01*
X102633Y60366D01*
X102633Y60370D01*
X102628Y60404D01*
X102621Y60438D01*
X102612Y60472D01*
X102589Y60541D01*
X102574Y60576D01*
X102538Y60646D01*
X103050Y60497D01*
D02*
G37*
G36*
X114155Y59949D02*
X114157Y59949D01*
X114200Y59945D01*
X114248Y59944D01*
Y59690D01*
X114200Y59689D01*
X114157Y59685D01*
X114155Y59685D01*
Y59550D01*
X114127Y59577D01*
X114098Y59601D01*
X114069Y59622D01*
X114039Y59640D01*
X114033Y59643D01*
X114017Y59628D01*
X114004Y59609D01*
X113996Y59587D01*
X113994Y59563D01*
Y59660D01*
X113976Y59668D01*
X113943Y59677D01*
X113909Y59684D01*
X113875Y59689D01*
X113839Y59690D01*
Y59944D01*
X113875Y59945D01*
X113909Y59950D01*
X113943Y59957D01*
X113976Y59966D01*
X113994Y59974D01*
Y60071D01*
X113996Y60047D01*
X114004Y60025D01*
X114017Y60006D01*
X114033Y59991D01*
X114039Y59994D01*
X114069Y60012D01*
X114098Y60033D01*
X114127Y60057D01*
X114155Y60084D01*
Y59949D01*
D02*
G37*
G36*
X97985Y60428D02*
X97993Y60406D01*
X98005Y60387D01*
X98023Y60371D01*
X98046Y60357D01*
X98074Y60345D01*
X98107Y60336D01*
X98145Y60330D01*
X98188Y60326D01*
X98236Y60325D01*
Y60071D01*
X98188Y60070D01*
X98145Y60066D01*
X98107Y60060D01*
X98074Y60051D01*
X98046Y60039D01*
X98023Y60025D01*
X98005Y60009D01*
X97993Y59990D01*
X97985Y59968D01*
X97982Y59944D01*
Y60452D01*
X97985Y60428D01*
D02*
G37*
G36*
X120842Y59887D02*
X120840Y59911D01*
X120832Y59932D01*
X120819Y59951D01*
X120801Y59968D01*
X120779Y59982D01*
X120751Y59993D01*
X120718Y60002D01*
X120679Y60009D01*
X120636Y60012D01*
X120588Y60014D01*
Y60268D01*
X120636Y60269D01*
X120679Y60273D01*
X120718Y60279D01*
X120751Y60288D01*
X120779Y60299D01*
X120801Y60313D01*
X120819Y60330D01*
X120832Y60349D01*
X120840Y60370D01*
X120842Y60395D01*
Y59887D01*
D02*
G37*
G36*
X125425Y59965D02*
X125403Y59958D01*
X125384Y59945D01*
X125368Y59927D01*
X125354Y59904D01*
X125342Y59875D01*
X125333Y59842D01*
X125327Y59804D01*
X125323Y59760D01*
X125322Y59711D01*
X125068D01*
X125067Y59760D01*
X125063Y59804D01*
X125057Y59842D01*
X125048Y59875D01*
X125036Y59904D01*
X125022Y59927D01*
X125006Y59945D01*
X124987Y59958D01*
X124965Y59965D01*
X124941Y59968D01*
X125449D01*
X125425Y59965D01*
D02*
G37*
G36*
X117403Y59563D02*
X117401Y59587D01*
X117393Y59609D01*
X117380Y59628D01*
X117362Y59644D01*
X117339Y59658D01*
X117311Y59670D01*
X117277Y59679D01*
X117239Y59685D01*
X117195Y59689D01*
X117146Y59690D01*
Y59944D01*
X117195Y59945D01*
X117239Y59949D01*
X117277Y59955D01*
X117311Y59964D01*
X117339Y59976D01*
X117362Y59990D01*
X117380Y60006D01*
X117393Y60025D01*
X117401Y60047D01*
X117403Y60071D01*
Y59563D01*
D02*
G37*
G36*
X125323Y59620D02*
X125327Y59576D01*
X125333Y59538D01*
X125342Y59505D01*
X125354Y59476D01*
X125368Y59453D01*
X125384Y59435D01*
X125403Y59422D01*
X125425Y59415D01*
X125449Y59412D01*
X124941D01*
X124965Y59415D01*
X124987Y59422D01*
X125006Y59435D01*
X125022Y59453D01*
X125036Y59476D01*
X125048Y59505D01*
X125057Y59538D01*
X125063Y59576D01*
X125067Y59620D01*
X125068Y59669D01*
X125322D01*
X125323Y59620D01*
D02*
G37*
G36*
X93589Y59400D02*
X93683Y59320D01*
X93725Y59291D01*
X93762Y59269D01*
X93796Y59255D01*
X93827Y59247D01*
X93854Y59247D01*
X93877Y59254D01*
X93896Y59268D01*
X93540Y58912D01*
X93554Y58931D01*
X93561Y58954D01*
X93561Y58981D01*
X93553Y59012D01*
X93539Y59046D01*
X93517Y59083D01*
X93488Y59125D01*
X93451Y59170D01*
X93357Y59271D01*
X93537Y59451D01*
X93589Y59400D01*
D02*
G37*
G36*
X125425Y58695D02*
X125403Y58688D01*
X125384Y58675D01*
X125368Y58657D01*
X125354Y58634D01*
X125342Y58605D01*
X125333Y58572D01*
X125327Y58534D01*
X125323Y58490D01*
X125322Y58441D01*
X125068D01*
X125067Y58490D01*
X125063Y58534D01*
X125057Y58572D01*
X125048Y58605D01*
X125036Y58634D01*
X125022Y58657D01*
X125006Y58675D01*
X124987Y58688D01*
X124965Y58695D01*
X124941Y58698D01*
X125449D01*
X125425Y58695D01*
D02*
G37*
G36*
X97985Y58904D02*
X97993Y58882D01*
X98005Y58863D01*
X98023Y58847D01*
X98046Y58833D01*
X98074Y58821D01*
X98107Y58812D01*
X98145Y58806D01*
X98188Y58802D01*
X98236Y58801D01*
Y58547D01*
X98188Y58546D01*
X98145Y58542D01*
X98107Y58536D01*
X98074Y58527D01*
X98046Y58515D01*
X98023Y58501D01*
X98005Y58485D01*
X97993Y58466D01*
X97985Y58444D01*
X97982Y58420D01*
Y58928D01*
X97985Y58904D01*
D02*
G37*
G36*
X96591Y58363D02*
X96589Y58388D01*
X96581Y58409D01*
X96568Y58428D01*
X96550Y58445D01*
X96527Y58459D01*
X96499Y58470D01*
X96466Y58479D01*
X96427Y58485D01*
X96383Y58489D01*
X96334Y58490D01*
Y58744D01*
X96383Y58746D01*
X96427Y58749D01*
X96466Y58756D01*
X96499Y58765D01*
X96527Y58776D01*
X96550Y58790D01*
X96568Y58807D01*
X96581Y58826D01*
X96589Y58847D01*
X96591Y58871D01*
Y58363D01*
D02*
G37*
G36*
X94933Y58847D02*
X94941Y58826D01*
X94954Y58807D01*
X94972Y58790D01*
X94994Y58776D01*
X95022Y58765D01*
X95055Y58756D01*
X95094Y58749D01*
X95137Y58746D01*
X95185Y58744D01*
Y58490D01*
X95137Y58489D01*
X95094Y58485D01*
X95055Y58479D01*
X95022Y58470D01*
X94994Y58459D01*
X94972Y58445D01*
X94954Y58428D01*
X94941Y58409D01*
X94933Y58388D01*
X94931Y58363D01*
Y58871D01*
X94933Y58847D01*
D02*
G37*
G36*
X125323Y58350D02*
X125327Y58306D01*
X125333Y58268D01*
X125342Y58235D01*
X125354Y58206D01*
X125368Y58183D01*
X125384Y58165D01*
X125403Y58152D01*
X125425Y58145D01*
X125449Y58142D01*
X124941D01*
X124965Y58145D01*
X124987Y58152D01*
X125006Y58165D01*
X125022Y58183D01*
X125036Y58206D01*
X125048Y58235D01*
X125057Y58268D01*
X125063Y58306D01*
X125067Y58350D01*
X125068Y58399D01*
X125322D01*
X125323Y58350D01*
D02*
G37*
G36*
X118827Y58171D02*
X118805Y58163D01*
X118786Y58150D01*
X118770Y58132D01*
X118756Y58109D01*
X118744Y58081D01*
X118735Y58047D01*
X118729Y58009D01*
X118725Y57965D01*
X118724Y57916D01*
X118470D01*
X118469Y57965D01*
X118465Y58009D01*
X118459Y58047D01*
X118450Y58081D01*
X118438Y58109D01*
X118424Y58132D01*
X118408Y58150D01*
X118389Y58163D01*
X118367Y58171D01*
X118343Y58173D01*
X118851D01*
X118827Y58171D01*
D02*
G37*
G36*
X97515Y58021D02*
X97494Y58013D01*
X97475Y58000D01*
X97458Y57982D01*
X97444Y57959D01*
X97433Y57931D01*
X97424Y57898D01*
X97417Y57859D01*
X97414Y57815D01*
X97412Y57766D01*
X97158D01*
X97157Y57815D01*
X97153Y57859D01*
X97147Y57898D01*
X97138Y57931D01*
X97127Y57959D01*
X97113Y57982D01*
X97096Y58000D01*
X97077Y58013D01*
X97056Y58021D01*
X97031Y58023D01*
X97539D01*
X97515Y58021D01*
D02*
G37*
G36*
X111600Y58014D02*
X111603Y57658D01*
X111600Y57682D01*
X111592Y57704D01*
X111580Y57723D01*
X111561Y57739D01*
X111538Y57753D01*
X111510Y57765D01*
X111477Y57774D01*
X111438Y57780D01*
X111395Y57784D01*
X111346Y57785D01*
Y58039D01*
X111600Y58014D01*
D02*
G37*
G36*
X113006Y57021D02*
X112984Y57013D01*
X112965Y57000D01*
X112949Y56982D01*
X112935Y56959D01*
X112923Y56931D01*
X112914Y56897D01*
X112908Y56859D01*
X112904Y56815D01*
X112903Y56766D01*
X112649D01*
X112648Y56815D01*
X112644Y56859D01*
X112638Y56897D01*
X112629Y56931D01*
X112617Y56959D01*
X112603Y56982D01*
X112587Y57000D01*
X112568Y57013D01*
X112546Y57021D01*
X112522Y57023D01*
X113030D01*
X113006Y57021D01*
D02*
G37*
G36*
X124412Y56263D02*
X124409Y56287D01*
X124399Y56308D01*
X124382Y56327D01*
X124359Y56343D01*
X124329Y56357D01*
X124292Y56368D01*
X124248Y56377D01*
X124198Y56383D01*
X124141Y56387D01*
X124077Y56388D01*
Y56642D01*
X124141Y56643D01*
X124248Y56653D01*
X124292Y56662D01*
X124329Y56673D01*
X124359Y56687D01*
X124382Y56703D01*
X124399Y56722D01*
X124409Y56743D01*
X124412Y56767D01*
Y56263D01*
D02*
G37*
G36*
X115703Y54886D02*
X115707Y54842D01*
X115714Y54804D01*
X115723Y54770D01*
X115734Y54742D01*
X115748Y54719D01*
X115764Y54701D01*
X115783Y54688D01*
X115805Y54680D01*
X115829Y54678D01*
X115321D01*
X115345Y54680D01*
X115367Y54688D01*
X115386Y54701D01*
X115402Y54719D01*
X115416Y54742D01*
X115428Y54770D01*
X115437Y54804D01*
X115443Y54842D01*
X115447Y54886D01*
X115448Y54935D01*
X115702D01*
X115703Y54886D01*
D02*
G37*
G36*
X97920Y54099D02*
X97923Y53845D01*
X97922Y53846D01*
X97918Y53846D01*
X97911Y53847D01*
X97815Y53848D01*
X97790Y53848D01*
Y54102D01*
X97920Y54099D01*
D02*
G37*
G36*
X128291Y50769D02*
X128265Y50770D01*
X128238Y50768D01*
X128210Y50761D01*
X128180Y50750D01*
X128150Y50735D01*
X128118Y50716D01*
X128085Y50693D01*
X128051Y50666D01*
X127979Y50600D01*
X127799Y50780D01*
X127822Y50804D01*
X127840Y50828D01*
X127855Y50851D01*
X127865Y50874D01*
X127870Y50896D01*
X127871Y50917D01*
X127868Y50937D01*
X127861Y50957D01*
X127849Y50976D01*
X127833Y50994D01*
X128291Y50769D01*
D02*
G37*
G36*
X116553Y51027D02*
X116545Y51003D01*
Y50976D01*
X116553Y50946D01*
X116567Y50912D01*
X116589Y50874D01*
X116617Y50833D01*
X116653Y50788D01*
X116747Y50687D01*
X116567Y50507D01*
X116515Y50558D01*
X116421Y50637D01*
X116380Y50666D01*
X116342Y50687D01*
X116308Y50701D01*
X116278Y50709D01*
X116251D01*
X116228Y50701D01*
X116208Y50687D01*
X116567Y51046D01*
X116553Y51027D01*
D02*
G37*
G36*
X172900Y51054D02*
X172864Y51013D01*
X172833Y50964D01*
X172805Y50908D01*
X172781Y50844D01*
X172761Y50772D01*
X172744Y50693D01*
X172732Y50606D01*
X172719Y50409D01*
X172718Y50300D01*
X171966Y51052D01*
X172075Y51053D01*
X172272Y51066D01*
X172359Y51078D01*
X172438Y51095D01*
X172510Y51115D01*
X172574Y51139D01*
X172630Y51167D01*
X172679Y51198D01*
X172720Y51234D01*
X172900Y51054D01*
D02*
G37*
G36*
X110702Y48780D02*
X110653Y48779D01*
X110610Y48775D01*
X110571Y48769D01*
X110538Y48760D01*
X110510Y48748D01*
X110487Y48734D01*
X110468Y48718D01*
X110456Y48699D01*
X110448Y48677D01*
X110445Y48653D01*
X110448Y49031D01*
X110450Y49032D01*
X110458Y49032D01*
X110572Y49034D01*
X110702Y49034D01*
Y48780D01*
D02*
G37*
G36*
X162030Y48462D02*
X162047Y48449D01*
X162064Y48437D01*
X162083Y48426D01*
X162102Y48416D01*
X162122Y48407D01*
X162143Y48400D01*
X162166Y48394D01*
X162188Y48389D01*
X162212Y48385D01*
X161927Y48100D01*
X161923Y48124D01*
X161918Y48146D01*
X161912Y48169D01*
X161905Y48190D01*
X161896Y48210D01*
X161886Y48229D01*
X161875Y48248D01*
X161863Y48265D01*
X161850Y48282D01*
X161835Y48297D01*
X162015Y48477D01*
X162030Y48462D01*
D02*
G37*
G36*
X121685Y46630D02*
X121683Y46654D01*
X121675Y46676D01*
X121662Y46695D01*
X121644Y46711D01*
X121622Y46725D01*
X121594Y46737D01*
X121561Y46746D01*
X121522Y46752D01*
X121479Y46756D01*
X121431Y46757D01*
Y47011D01*
X121479Y47012D01*
X121522Y47016D01*
X121561Y47022D01*
X121594Y47031D01*
X121622Y47043D01*
X121644Y47057D01*
X121662Y47073D01*
X121675Y47092D01*
X121683Y47114D01*
X121685Y47138D01*
Y46630D01*
D02*
G37*
G36*
X115921Y46503D02*
X115832Y46361D01*
X115796Y46291D01*
X115766Y46222D01*
X115741Y46153D01*
X115722Y46085D01*
X115708Y46017D01*
X115700Y45950D01*
X115697Y45884D01*
X115443D01*
X115440Y45950D01*
X115432Y46017D01*
X115418Y46085D01*
X115399Y46153D01*
X115374Y46222D01*
X115344Y46291D01*
X115308Y46361D01*
X115266Y46432D01*
X115219Y46503D01*
X115167Y46575D01*
X115973D01*
X115921Y46503D01*
D02*
G37*
G36*
X123678Y45696D02*
X123686Y45674D01*
X123699Y45655D01*
X123717Y45639D01*
X123740Y45625D01*
X123768Y45613D01*
X123802Y45604D01*
X123840Y45598D01*
X123884Y45594D01*
X123933Y45593D01*
Y45339D01*
X123884Y45338D01*
X123840Y45334D01*
X123802Y45328D01*
X123768Y45319D01*
X123740Y45307D01*
X123717Y45293D01*
X123699Y45277D01*
X123686Y45258D01*
X123678Y45236D01*
X123676Y45212D01*
Y45720D01*
X123678Y45696D01*
D02*
G37*
G36*
X125077Y45199D02*
X125049Y45226D01*
X125020Y45250D01*
X124991Y45271D01*
X124961Y45289D01*
X124930Y45304D01*
X124898Y45317D01*
X124865Y45326D01*
X124831Y45333D01*
X124797Y45338D01*
X124761Y45339D01*
Y45593D01*
X124797Y45594D01*
X124831Y45599D01*
X124865Y45606D01*
X124898Y45615D01*
X124930Y45628D01*
X124961Y45643D01*
X124991Y45661D01*
X125020Y45682D01*
X125049Y45706D01*
X125077Y45733D01*
Y45199D01*
D02*
G37*
%LPC*%
G36*
X112587Y93280D02*
X111860D01*
Y92453D01*
X112587D01*
Y93280D01*
D02*
G37*
G36*
X109631D02*
X108904D01*
Y92453D01*
X109631D01*
Y93280D01*
D02*
G37*
G36*
X108650D02*
X107923D01*
Y92453D01*
X108650D01*
Y93280D01*
D02*
G37*
G36*
X131324Y92327D02*
X131318D01*
Y91440D01*
X132205D01*
Y91446D01*
X132136Y91704D01*
X132002Y91936D01*
X131814Y92124D01*
X131582Y92258D01*
X131324Y92327D01*
D02*
G37*
G36*
X131064Y91954D02*
X130550Y91440D01*
X131064D01*
Y91954D01*
D02*
G37*
G36*
X109631Y92199D02*
X107923D01*
Y91372D01*
X108074D01*
X108127Y91245D01*
X108047Y91165D01*
X107950Y90932D01*
X109220D01*
X109123Y91165D01*
X109043Y91245D01*
X109096Y91372D01*
X109631D01*
Y92199D01*
D02*
G37*
G36*
X113284Y90678D02*
X112776D01*
Y90170D01*
X113009Y90267D01*
X113187Y90445D01*
X113284Y90678D01*
D02*
G37*
G36*
X112522D02*
X112014D01*
X112111Y90445D01*
X112289Y90267D01*
X112522Y90170D01*
Y90678D01*
D02*
G37*
G36*
X109220D02*
X108712D01*
Y90170D01*
X108945Y90267D01*
X109123Y90445D01*
X109220Y90678D01*
D02*
G37*
G36*
X108458D02*
X107950D01*
X108047Y90445D01*
X108225Y90267D01*
X108458Y90170D01*
Y90678D01*
D02*
G37*
G36*
X110573Y94498D02*
X102772D01*
X102574Y94459D01*
X102406Y94346D01*
X102406Y94346D01*
X102108Y94049D01*
X101996Y93881D01*
X101956Y93682D01*
Y93298D01*
X101620D01*
Y92974D01*
X100247D01*
X100048Y92935D01*
X99880Y92822D01*
X99880Y92822D01*
X99583Y92525D01*
X99470Y92357D01*
X99431Y92158D01*
Y86650D01*
X99304Y86565D01*
X99186Y86614D01*
X98934D01*
X98753Y86539D01*
X98626Y86609D01*
Y86965D01*
X99191D01*
Y88673D01*
X97846D01*
X97792Y88794D01*
X97849Y88865D01*
X99191D01*
Y90573D01*
X97283D01*
Y90304D01*
X94710D01*
Y91211D01*
X93402D01*
Y89503D01*
X94710D01*
Y89528D01*
X95487D01*
X95505Y89408D01*
X95271Y89311D01*
X95093Y89133D01*
X94996Y88899D01*
Y88647D01*
X95093Y88413D01*
X95271Y88235D01*
X95505Y88138D01*
X95757D01*
X95991Y88235D01*
X96141Y88385D01*
X97192D01*
X97283Y88309D01*
Y86965D01*
X97849D01*
Y85366D01*
X97214D01*
Y83658D01*
X99122D01*
Y84816D01*
X99251Y84946D01*
X99304Y85025D01*
X99431Y84986D01*
Y83356D01*
X99470Y83157D01*
X99583Y82989D01*
X99643Y82929D01*
X99595Y82811D01*
X99122D01*
Y83466D01*
X98295D01*
Y82612D01*
Y81758D01*
X99122D01*
Y82035D01*
X100098D01*
Y80422D01*
X100046Y80370D01*
X99949Y80137D01*
X101219D01*
X101122Y80370D01*
X100944Y80548D01*
X100875Y80577D01*
Y80676D01*
X100902Y80792D01*
X102045D01*
Y83800D01*
X100902D01*
Y83576D01*
X100467D01*
Y87309D01*
X100494Y87330D01*
X100594Y87365D01*
X100711Y87287D01*
X100883Y87252D01*
X102200D01*
Y83800D01*
X102172D01*
Y80792D01*
X103314D01*
Y83800D01*
X103236D01*
Y87252D01*
X106008D01*
X106181Y87287D01*
X106327Y87384D01*
X106424Y87530D01*
X106459Y87702D01*
Y88827D01*
X106424Y89000D01*
X106327Y89146D01*
X106181Y89243D01*
X106008Y89278D01*
X104808D01*
Y91390D01*
X105228D01*
Y91817D01*
X106023D01*
Y91372D01*
X107731D01*
Y93280D01*
X106023D01*
Y92853D01*
X105228D01*
Y93298D01*
X103520D01*
Y91390D01*
X103772D01*
Y89278D01*
X100883D01*
X100711Y89243D01*
X100594Y89165D01*
X100494Y89200D01*
X100467Y89221D01*
Y91938D01*
X101620D01*
Y91390D01*
X103328D01*
Y93298D01*
X102992D01*
Y93462D01*
X110353D01*
Y93280D01*
X109960D01*
Y91372D01*
X110296D01*
Y89278D01*
X109383D01*
X109211Y89243D01*
X109065Y89146D01*
X108968Y89000D01*
X108933Y88827D01*
Y87702D01*
X108968Y87530D01*
X109065Y87384D01*
X109211Y87287D01*
X109383Y87252D01*
X114508D01*
X114681Y87287D01*
X114827Y87384D01*
X114924Y87530D01*
X114959Y87702D01*
Y88827D01*
X114924Y89000D01*
X114827Y89146D01*
X114681Y89243D01*
X114508Y89278D01*
X111332D01*
Y91372D01*
X111668D01*
Y93280D01*
X111389D01*
Y93682D01*
X111350Y93881D01*
X111237Y94049D01*
X111237Y94049D01*
X110940Y94346D01*
X110772Y94459D01*
X110573Y94498D01*
D02*
G37*
G36*
X132205Y91186D02*
X131191D01*
X130177D01*
Y91180D01*
X130246Y90922D01*
X130380Y90690D01*
X130568Y90502D01*
X130671Y90442D01*
Y87025D01*
X130540Y86949D01*
X130343Y86753D01*
X130205Y86513D01*
X130133Y86245D01*
Y86233D01*
X132241D01*
Y86245D01*
X132169Y86513D01*
X132030Y86753D01*
X131834Y86949D01*
X131707Y87023D01*
Y90440D01*
X131814Y90502D01*
X132002Y90690D01*
X132136Y90922D01*
X132205Y91180D01*
Y91186D01*
D02*
G37*
G36*
X132241Y85979D02*
X131314D01*
Y85052D01*
X131326D01*
X131594Y85124D01*
X131834Y85263D01*
X132030Y85459D01*
X132169Y85699D01*
X132241Y85967D01*
Y85979D01*
D02*
G37*
G36*
X131060D02*
X130133D01*
Y85967D01*
X130205Y85699D01*
X130343Y85459D01*
X130540Y85263D01*
X130780Y85124D01*
X131048Y85052D01*
X131060D01*
Y85979D01*
D02*
G37*
G36*
X93929Y84211D02*
X93402D01*
Y83484D01*
X93929D01*
Y84211D01*
D02*
G37*
G36*
X94710D02*
X94183D01*
Y83357D01*
X94056D01*
Y83230D01*
X93402D01*
Y82503D01*
X93775D01*
Y78130D01*
X93575D01*
Y77053D01*
X94652D01*
Y78130D01*
X94552D01*
Y82503D01*
X94710D01*
Y82543D01*
X97214D01*
Y81758D01*
X98041D01*
Y82612D01*
Y83466D01*
X97214D01*
Y83319D01*
X94710D01*
Y84211D01*
D02*
G37*
G36*
X105854Y83800D02*
X104712D01*
Y81634D01*
X104648Y81598D01*
X104585Y81634D01*
Y83800D01*
X103441D01*
Y80792D01*
X103877D01*
Y80334D01*
X102991Y79447D01*
X101099D01*
X101046Y79574D01*
X101122Y79650D01*
X101219Y79883D01*
X99949D01*
X100046Y79650D01*
X100122Y79574D01*
X100069Y79447D01*
X99782D01*
X99609Y79413D01*
X99462Y79314D01*
X99462Y79314D01*
X98867Y78719D01*
X98768Y78572D01*
X98734Y78399D01*
Y74657D01*
X97784D01*
X97747Y74665D01*
X96523D01*
X96375Y74635D01*
X96248Y74551D01*
X96118Y74421D01*
X96034Y74295D01*
X96005Y74146D01*
Y70348D01*
X95983Y70230D01*
X95167D01*
Y75722D01*
X95983D01*
Y76799D01*
X94779D01*
X93575D01*
Y75722D01*
X94390D01*
Y70230D01*
X93575D01*
Y69153D01*
X94779D01*
Y69026D01*
X94906D01*
Y67822D01*
X95983D01*
X96005Y67713D01*
X96034Y67564D01*
X96118Y67438D01*
X96648Y66908D01*
X96774Y66824D01*
X96923Y66795D01*
X102845D01*
Y65786D01*
X104978D01*
Y68580D01*
X102845D01*
Y67571D01*
X97084D01*
X96781Y67874D01*
Y71325D01*
X96947D01*
X96985Y71318D01*
X99900D01*
X100049Y71348D01*
X100175Y71432D01*
X100457Y71714D01*
Y71996D01*
X100435Y71990D01*
X100402Y71979D01*
X100370Y71965D01*
X100340Y71949D01*
X100311Y71930D01*
X100284Y71909D01*
X100258Y71885D01*
X100078Y72064D01*
X100102Y72090D01*
X100124Y72117D01*
X100143Y72146D01*
X100159Y72176D01*
X100173Y72208D01*
X100184Y72241D01*
X100190Y72263D01*
X99908D01*
X99739Y72095D01*
X98890D01*
Y72523D01*
X99392D01*
X99566Y72558D01*
X99713Y72656D01*
X100142Y73086D01*
X100142Y73086D01*
X100241Y73233D01*
X100275Y73406D01*
Y77906D01*
X103441D01*
X103615Y77940D01*
X103762Y78039D01*
X105286Y79563D01*
X105286Y79563D01*
X105384Y79710D01*
X105419Y79883D01*
X105419Y79883D01*
Y80792D01*
X105854D01*
Y83800D01*
D02*
G37*
G36*
X95983Y78130D02*
X94906D01*
Y77053D01*
X95983D01*
Y78130D01*
D02*
G37*
G36*
X110934Y77300D02*
X109791D01*
Y74292D01*
X110934D01*
Y75408D01*
X111527D01*
X111654Y75281D01*
X111888Y75184D01*
X112140D01*
X112374Y75281D01*
X112552Y75459D01*
X112649Y75693D01*
Y75945D01*
X112552Y76179D01*
X112374Y76357D01*
X112140Y76454D01*
X111888D01*
X111654Y76357D01*
X111481Y76184D01*
X110934D01*
Y77300D01*
D02*
G37*
G36*
X105854D02*
X104711D01*
Y74918D01*
X104595Y74867D01*
X104584Y74877D01*
Y77300D01*
X103441D01*
Y74292D01*
X103824D01*
X103875Y72023D01*
X103875Y72023D01*
X103873Y72023D01*
X103919Y71790D01*
X104060Y71580D01*
X104063Y71578D01*
X104040Y71440D01*
X104003Y71430D01*
X103844Y71338D01*
X103131Y71832D01*
Y74292D01*
X103314D01*
Y77300D01*
X102171D01*
Y74292D01*
X102354D01*
Y71761D01*
X102354Y71761D01*
X102349D01*
X102399Y71513D01*
X102426Y71472D01*
X102337Y71377D01*
X102245Y71430D01*
X101987Y71499D01*
X101861D01*
Y74292D01*
X102044D01*
Y77300D01*
X100901D01*
Y74292D01*
X101084D01*
Y72953D01*
X100967Y72905D01*
X100944Y72928D01*
X100711Y73025D01*
Y72390D01*
Y71755D01*
X100944Y71852D01*
X100967Y71875D01*
X101084Y71827D01*
Y71149D01*
X101043Y71108D01*
X100909Y70876D01*
X100840Y70618D01*
Y70352D01*
X100909Y70094D01*
X101043Y69862D01*
X101231Y69674D01*
X101463Y69540D01*
X101721Y69471D01*
X101987D01*
X102245Y69540D01*
X102477Y69674D01*
X102665Y69862D01*
X102799Y70094D01*
X102868Y70352D01*
Y70618D01*
X102799Y70876D01*
X102716Y71020D01*
X102812Y71108D01*
X103402Y70699D01*
X103380Y70618D01*
Y70352D01*
X103449Y70094D01*
X103583Y69862D01*
X103771Y69674D01*
X104003Y69540D01*
X104261Y69471D01*
X104527D01*
X104785Y69540D01*
X105017Y69674D01*
X105205Y69862D01*
X105339Y70094D01*
X105408Y70352D01*
Y70618D01*
X105382Y70716D01*
X105490Y70803D01*
X105920Y70578D01*
Y70352D01*
X105989Y70094D01*
X106123Y69862D01*
X106311Y69674D01*
X106543Y69540D01*
X106801Y69471D01*
X107067D01*
X107325Y69540D01*
X107557Y69674D01*
X107745Y69862D01*
X107879Y70094D01*
X107948Y70352D01*
Y70618D01*
X107879Y70876D01*
X107799Y71014D01*
X107889Y71113D01*
X108460Y70861D01*
Y69471D01*
X110488D01*
Y71499D01*
X108940D01*
X105798Y72884D01*
Y74292D01*
X105854D01*
Y77300D01*
D02*
G37*
G36*
X109664D02*
X108521D01*
Y74292D01*
X109664D01*
Y77300D01*
D02*
G37*
G36*
X108394D02*
X107251D01*
Y74292D01*
X108394D01*
Y77300D01*
D02*
G37*
G36*
X100457Y73025D02*
X100224Y72928D01*
X100046Y72750D01*
X99949Y72517D01*
X100457D01*
Y73025D01*
D02*
G37*
G36*
X135000Y76136D02*
X134748D01*
X134514Y76040D01*
X134336Y75861D01*
X134239Y75628D01*
Y75375D01*
X134336Y75142D01*
X134486Y74992D01*
Y73408D01*
X134336Y73258D01*
X134239Y73024D01*
Y72772D01*
X134336Y72538D01*
X134514Y72360D01*
X134748Y72263D01*
X135000D01*
X135234Y72360D01*
X135412Y72538D01*
X135509Y72772D01*
Y73024D01*
X135412Y73258D01*
X135262Y73408D01*
Y74992D01*
X135412Y75142D01*
X135509Y75375D01*
Y75628D01*
X135412Y75861D01*
X135234Y76040D01*
X135000Y76136D01*
D02*
G37*
G36*
X117998Y73089D02*
X117983D01*
Y72136D01*
X118936D01*
Y72151D01*
X118862Y72426D01*
X118720Y72672D01*
X118519Y72873D01*
X118273Y73015D01*
X117998Y73089D01*
D02*
G37*
G36*
X100457Y72263D02*
X100326D01*
X100457Y72132D01*
Y72263D01*
D02*
G37*
G36*
X118936Y71882D02*
X117983D01*
Y70929D01*
X117998D01*
X118273Y71003D01*
X118519Y71145D01*
X118720Y71346D01*
X118862Y71592D01*
X118936Y71867D01*
Y71882D01*
D02*
G37*
G36*
X123825Y68072D02*
X123592Y67975D01*
X123414Y67797D01*
X123317Y67564D01*
X123825D01*
Y68072D01*
D02*
G37*
G36*
X115605Y65721D02*
X114878D01*
Y64894D01*
X115605D01*
Y65721D01*
D02*
G37*
G36*
X105699Y65467D02*
X104972D01*
Y64640D01*
X105699D01*
Y65467D01*
D02*
G37*
G36*
X106088Y63202D02*
X105581D01*
Y62695D01*
X105813Y62791D01*
X105992Y62970D01*
X106088Y63202D01*
D02*
G37*
G36*
X102637Y62744D02*
X101310D01*
Y62117D01*
X102637D01*
Y62744D01*
D02*
G37*
G36*
X114251Y61990D02*
X112924D01*
Y61363D01*
X114251D01*
Y61990D01*
D02*
G37*
G36*
X112670D02*
X111343D01*
Y61363D01*
X112670D01*
Y61990D01*
D02*
G37*
G36*
X94107Y58547D02*
X93280D01*
Y57820D01*
X94107D01*
Y58547D01*
D02*
G37*
G36*
X100711Y54356D02*
X99314D01*
Y52197D01*
X100711D01*
Y54356D01*
D02*
G37*
G36*
X115443Y52557D02*
X114316D01*
Y50430D01*
X115443D01*
Y52557D01*
D02*
G37*
G36*
X107061Y54356D02*
X104013D01*
Y49784D01*
X107061D01*
Y51015D01*
X108497D01*
Y50280D01*
X110705D01*
Y53288D01*
X108497D01*
Y52553D01*
X107061D01*
Y54356D01*
D02*
G37*
G36*
X99060Y51943D02*
X97663D01*
Y49784D01*
X99060D01*
Y51943D01*
D02*
G37*
G36*
X105283Y48514D02*
X103124D01*
Y47117D01*
X105283D01*
Y48514D01*
D02*
G37*
G36*
X100711Y51943D02*
X99314D01*
Y49784D01*
X99942D01*
Y48895D01*
X99971Y48746D01*
X100055Y48620D01*
X100711Y47965D01*
Y47117D01*
X102870D01*
Y48514D01*
X101260D01*
X100718Y49056D01*
Y50927D01*
X100711Y50965D01*
Y51943D01*
D02*
G37*
G36*
X105283Y46863D02*
X103124D01*
Y45466D01*
X105283D01*
Y46863D01*
D02*
G37*
G36*
X102870D02*
X100711D01*
Y45466D01*
X102870D01*
Y46863D01*
D02*
G37*
%LPD*%
G36*
X108815Y91626D02*
X108793Y91618D01*
X108774Y91606D01*
X108758Y91588D01*
X108744Y91565D01*
X108732Y91537D01*
X108723Y91504D01*
X108717Y91466D01*
X108713Y91423D01*
X108712Y91386D01*
X108713Y91357D01*
X108718Y91323D01*
X108725Y91289D01*
X108734Y91256D01*
X108747Y91224D01*
X108762Y91193D01*
X108780Y91163D01*
X108801Y91134D01*
X108825Y91105D01*
X108852Y91077D01*
X108318D01*
X108345Y91105D01*
X108369Y91134D01*
X108390Y91163D01*
X108408Y91193D01*
X108423Y91224D01*
X108436Y91256D01*
X108445Y91289D01*
X108452Y91323D01*
X108457Y91357D01*
X108458Y91386D01*
X108457Y91423D01*
X108453Y91466D01*
X108447Y91504D01*
X108438Y91537D01*
X108426Y91565D01*
X108412Y91588D01*
X108396Y91606D01*
X108377Y91618D01*
X108355Y91626D01*
X108331Y91629D01*
X108839D01*
X108815Y91626D01*
D02*
G37*
G36*
X94453Y90146D02*
X94461Y90124D01*
X94474Y90105D01*
X94492Y90089D01*
X94515Y90075D01*
X94543Y90063D01*
X94576Y90054D01*
X94615Y90048D01*
X94658Y90044D01*
X94707Y90043D01*
Y89789D01*
X94659Y89789D01*
X94494Y89779D01*
X94476Y89775D01*
X94463Y89771D01*
X94456Y89766D01*
X94453Y89760D01*
X94450Y90170D01*
X94453Y90146D01*
D02*
G37*
G36*
X97540Y89662D02*
X97538Y89686D01*
X97530Y89708D01*
X97517Y89727D01*
X97500Y89743D01*
X97477Y89757D01*
X97449Y89769D01*
X97416Y89778D01*
X97378Y89784D01*
X97335Y89788D01*
X97286Y89789D01*
Y90043D01*
X97335Y90044D01*
X97378Y90048D01*
X97416Y90054D01*
X97449Y90063D01*
X97477Y90075D01*
X97500Y90089D01*
X97517Y90105D01*
X97530Y90124D01*
X97538Y90146D01*
X97540Y90170D01*
Y89662D01*
D02*
G37*
G36*
X97899Y89122D02*
X97880Y89136D01*
X97856Y89143D01*
X97829D01*
X97799Y89136D01*
X97765Y89122D01*
X97727Y89100D01*
X97686Y89071D01*
X97641Y89035D01*
X97540Y88942D01*
X97361Y89122D01*
X97411Y89174D01*
X97490Y89267D01*
X97519Y89308D01*
X97540Y89346D01*
X97555Y89380D01*
X97562Y89411D01*
Y89438D01*
X97555Y89461D01*
X97540Y89481D01*
X97899Y89122D01*
D02*
G37*
G36*
X98467Y87222D02*
X98445Y87214D01*
X98426Y87202D01*
X98410Y87184D01*
X98396Y87160D01*
X98385Y87132D01*
X98376Y87099D01*
X98369Y87060D01*
X98365Y87016D01*
X98364Y86968D01*
X98110D01*
X98109Y87016D01*
X98105Y87060D01*
X98099Y87099D01*
X98090Y87132D01*
X98078Y87160D01*
X98064Y87184D01*
X98048Y87202D01*
X98029Y87214D01*
X98007Y87222D01*
X97983Y87225D01*
X98491D01*
X98467Y87222D01*
D02*
G37*
G36*
X99261Y85655D02*
X99231Y85635D01*
X99204Y85613D01*
X99181Y85589D01*
X99160Y85563D01*
X99143Y85536D01*
X99129Y85506D01*
X99118Y85476D01*
X99110Y85443D01*
X99105Y85408D01*
X99104Y85372D01*
X98850Y85433D01*
X98849Y85467D01*
X98845Y85501D01*
X98840Y85535D01*
X98832Y85569D01*
X98822Y85603D01*
X98810Y85636D01*
X98796Y85670D01*
X98780Y85704D01*
X98740Y85772D01*
X99261Y85655D01*
D02*
G37*
G36*
X98365Y85314D02*
X98369Y85270D01*
X98376Y85231D01*
X98385Y85198D01*
X98396Y85170D01*
X98410Y85147D01*
X98426Y85129D01*
X98445Y85116D01*
X98467Y85108D01*
X98491Y85105D01*
X97983D01*
X98007Y85108D01*
X98029Y85116D01*
X98048Y85129D01*
X98064Y85147D01*
X98078Y85170D01*
X98090Y85198D01*
X98099Y85231D01*
X98105Y85270D01*
X98109Y85314D01*
X98110Y85363D01*
X98364D01*
X98365Y85314D01*
D02*
G37*
G36*
X98864Y82653D02*
X98872Y82631D01*
X98885Y82612D01*
X98903Y82596D01*
X98926Y82582D01*
X98954Y82570D01*
X98987Y82561D01*
X99026Y82555D01*
X99070Y82551D01*
X99119Y82550D01*
Y82296D01*
X99070Y82295D01*
X99026Y82291D01*
X98987Y82285D01*
X98954Y82276D01*
X98926Y82264D01*
X98903Y82250D01*
X98885Y82234D01*
X98872Y82215D01*
X98864Y82193D01*
X98862Y82169D01*
Y82677D01*
X98864Y82653D01*
D02*
G37*
G36*
X100615Y80582D02*
X100620Y80548D01*
X100628Y80515D01*
X100639Y80484D01*
X100653Y80456D01*
X100671Y80429D01*
X100692Y80404D01*
X100715Y80381D01*
X100742Y80360D01*
X100772Y80341D01*
X100257Y80205D01*
X100276Y80240D01*
X100309Y80308D01*
X100323Y80343D01*
X100334Y80377D01*
X100343Y80411D01*
X100351Y80445D01*
X100356Y80479D01*
X100359Y80513D01*
X100360Y80547D01*
X100614Y80618D01*
X100615Y80582D01*
D02*
G37*
G36*
X131722Y90769D02*
X131669Y90714D01*
X131621Y90657D01*
X131579Y90598D01*
X131543Y90538D01*
X131513Y90476D01*
X131488Y90412D01*
X131468Y90347D01*
X131454Y90279D01*
X131446Y90211D01*
X131443Y90140D01*
X130935Y90141D01*
X130932Y90212D01*
X130924Y90281D01*
X130910Y90348D01*
X130891Y90414D01*
X130866Y90477D01*
X130835Y90540D01*
X130799Y90600D01*
X130757Y90659D01*
X130710Y90716D01*
X130658Y90772D01*
X131722Y90769D01*
D02*
G37*
G36*
X131443Y87344D02*
X131446Y87271D01*
X131455Y87200D01*
X131470Y87130D01*
X131492Y87061D01*
X131519Y86993D01*
X131553Y86927D01*
X131593Y86862D01*
X131638Y86799D01*
X131690Y86737D01*
X131748Y86676D01*
X130628Y86679D01*
X130687Y86739D01*
X130739Y86801D01*
X130785Y86864D01*
X130825Y86929D01*
X130858Y86995D01*
X130886Y87062D01*
X130907Y87131D01*
X130923Y87201D01*
X130932Y87272D01*
X130935Y87345D01*
X131443Y87344D01*
D02*
G37*
G36*
X94456Y83161D02*
X94463Y83139D01*
X94476Y83120D01*
X94494Y83104D01*
X94517Y83090D01*
X94545Y83078D01*
X94578Y83069D01*
X94616Y83063D01*
X94659Y83059D01*
X94707Y83058D01*
Y82804D01*
X94659Y82804D01*
X94517Y82793D01*
X94494Y82788D01*
X94476Y82783D01*
X94463Y82776D01*
X94456Y82769D01*
X94453Y82760D01*
Y83185D01*
X94456Y83161D01*
D02*
G37*
G36*
X97471Y82677D02*
X97468Y82701D01*
X97460Y82723D01*
X97448Y82742D01*
X97430Y82758D01*
X97407Y82772D01*
X97379Y82784D01*
X97346Y82793D01*
X97308Y82799D01*
X97265Y82803D01*
X97217Y82804D01*
Y83058D01*
X97265Y83059D01*
X97308Y83063D01*
X97346Y83069D01*
X97379Y83078D01*
X97407Y83090D01*
X97430Y83104D01*
X97448Y83120D01*
X97460Y83139D01*
X97468Y83161D01*
X97471Y83185D01*
Y82677D01*
D02*
G37*
G36*
X94394Y82761D02*
X94372Y82753D01*
X94353Y82740D01*
X94337Y82722D01*
X94323Y82699D01*
X94311Y82671D01*
X94302Y82638D01*
X94296Y82599D01*
X94292Y82555D01*
X94291Y82506D01*
X94037D01*
X94036Y82555D01*
X94032Y82599D01*
X94025Y82638D01*
X94017Y82671D01*
X94005Y82699D01*
X93991Y82722D01*
X93975Y82740D01*
X93956Y82753D01*
X93934Y82761D01*
X93910Y82763D01*
X94418D01*
X94394Y82761D01*
D02*
G37*
G36*
X94292Y78079D02*
X94296Y78035D01*
X94302Y77996D01*
X94311Y77963D01*
X94323Y77935D01*
X94337Y77911D01*
X94353Y77893D01*
X94372Y77881D01*
X94394Y77873D01*
X94418Y77870D01*
X93910D01*
X93934Y77873D01*
X93956Y77881D01*
X93975Y77893D01*
X93991Y77911D01*
X94005Y77935D01*
X94017Y77963D01*
X94025Y77996D01*
X94032Y78035D01*
X94036Y78079D01*
X94037Y78127D01*
X94291D01*
X94292Y78079D01*
D02*
G37*
G36*
X95009Y75980D02*
X94987Y75972D01*
X94968Y75959D01*
X94951Y75941D01*
X94938Y75918D01*
X94926Y75890D01*
X94917Y75857D01*
X94911Y75818D01*
X94907Y75774D01*
X94906Y75725D01*
X94652D01*
X94651Y75774D01*
X94647Y75818D01*
X94640Y75857D01*
X94631Y75890D01*
X94620Y75918D01*
X94606Y75941D01*
X94590Y75959D01*
X94571Y75972D01*
X94549Y75980D01*
X94525Y75982D01*
X95033D01*
X95009Y75980D01*
D02*
G37*
G36*
X94907Y70178D02*
X94911Y70135D01*
X94917Y70096D01*
X94926Y70063D01*
X94938Y70035D01*
X94951Y70011D01*
X94968Y69993D01*
X94987Y69981D01*
X95009Y69973D01*
X95033Y69970D01*
X94525D01*
X94549Y69973D01*
X94571Y69981D01*
X94590Y69993D01*
X94606Y70011D01*
X94620Y70035D01*
X94631Y70063D01*
X94640Y70096D01*
X94647Y70135D01*
X94651Y70178D01*
X94652Y70227D01*
X94906D01*
X94907Y70178D01*
D02*
G37*
G36*
X103105Y66929D02*
X103102Y66953D01*
X103094Y66975D01*
X103082Y66994D01*
X103064Y67010D01*
X103040Y67024D01*
X103012Y67036D01*
X102979Y67045D01*
X102940Y67051D01*
X102896Y67055D01*
X102848Y67056D01*
Y67310D01*
X102896Y67311D01*
X102940Y67315D01*
X102979Y67321D01*
X103012Y67330D01*
X103040Y67342D01*
X103064Y67356D01*
X103082Y67372D01*
X103094Y67391D01*
X103102Y67413D01*
X103105Y67437D01*
Y66929D01*
D02*
G37*
G36*
X110677Y76026D02*
X110685Y76004D01*
X110697Y75985D01*
X110715Y75969D01*
X110739Y75955D01*
X110767Y75943D01*
X110800Y75934D01*
X110839Y75928D01*
X110883Y75924D01*
X110931Y75923D01*
Y75669D01*
X110883Y75668D01*
X110839Y75664D01*
X110800Y75658D01*
X110767Y75649D01*
X110739Y75637D01*
X110715Y75623D01*
X110697Y75607D01*
X110685Y75588D01*
X110677Y75566D01*
X110674Y75542D01*
Y76050D01*
X110677Y76026D01*
D02*
G37*
G36*
X102913Y75602D02*
X102904Y75578D01*
X102896Y75545D01*
X102889Y75503D01*
X102878Y75394D01*
X102870Y75163D01*
X102870Y75068D01*
X102616D01*
X102615Y75163D01*
X102590Y75545D01*
X102582Y75578D01*
X102573Y75602D01*
X102563Y75617D01*
X102923D01*
X102913Y75602D01*
D02*
G37*
G36*
X104327Y74549D02*
X104329Y74547D01*
X104330Y74539D01*
X104331Y74526D01*
X104338Y74346D01*
X104339Y74298D01*
X104085Y74295D01*
X104083Y74344D01*
X104078Y74387D01*
X104071Y74426D01*
X104061Y74459D01*
X104049Y74487D01*
X104034Y74510D01*
X104017Y74529D01*
X103998Y74541D01*
X103976Y74549D01*
X103952Y74552D01*
X104327Y74549D01*
D02*
G37*
G36*
X105597D02*
X105586Y74547D01*
X105576Y74539D01*
X105567Y74526D01*
X105559Y74508D01*
X105552Y74486D01*
X105547Y74458D01*
X105542Y74425D01*
X105538Y74343D01*
X105537Y74295D01*
X105283D01*
X105282Y74344D01*
X105278Y74387D01*
X105272Y74426D01*
X105263Y74459D01*
X105251Y74487D01*
X105237Y74511D01*
X105221Y74529D01*
X105202Y74542D01*
X105180Y74549D01*
X105156Y74552D01*
X105597Y74549D01*
D02*
G37*
G36*
X102973Y74550D02*
X102951Y74542D01*
X102932Y74529D01*
X102916Y74511D01*
X102902Y74488D01*
X102890Y74460D01*
X102881Y74426D01*
X102875Y74388D01*
X102871Y74344D01*
X102870Y74295D01*
X102616D01*
X102615Y74344D01*
X102611Y74388D01*
X102604Y74426D01*
X102596Y74460D01*
X102584Y74488D01*
X102570Y74511D01*
X102554Y74529D01*
X102535Y74542D01*
X102513Y74550D01*
X102489Y74552D01*
X102997D01*
X102973Y74550D01*
D02*
G37*
G36*
X101703D02*
X101681Y74542D01*
X101662Y74529D01*
X101646Y74511D01*
X101632Y74488D01*
X101620Y74460D01*
X101611Y74426D01*
X101605Y74388D01*
X101601Y74344D01*
X101600Y74295D01*
X101346D01*
X101345Y74344D01*
X101341Y74388D01*
X101334Y74426D01*
X101326Y74460D01*
X101314Y74488D01*
X101300Y74511D01*
X101284Y74529D01*
X101265Y74542D01*
X101243Y74550D01*
X101219Y74552D01*
X101727D01*
X101703Y74550D01*
D02*
G37*
G36*
X100455Y50039D02*
X100455Y50031D01*
X100457Y49917D01*
X100457Y49787D01*
X100203D01*
X100202Y49835D01*
X100198Y49878D01*
X100192Y49917D01*
X100183Y49950D01*
X100171Y49978D01*
X100157Y50000D01*
X100141Y50018D01*
X100122Y50031D01*
X100100Y50039D01*
X100076Y50041D01*
X100454D01*
X100455Y50039D01*
D02*
G37*
G36*
X101020Y48386D02*
X101114Y48306D01*
X101156Y48277D01*
X101193Y48255D01*
X101227Y48241D01*
X101258Y48233D01*
X101285Y48233D01*
X101308Y48240D01*
X101327Y48254D01*
X100971Y47898D01*
X100985Y47917D01*
X100992Y47940D01*
X100992Y47967D01*
X100984Y47998D01*
X100970Y48032D01*
X100948Y48069D01*
X100919Y48111D01*
X100882Y48156D01*
X100788Y48257D01*
X100968Y48437D01*
X101020Y48386D01*
D02*
G37*
%LPC*%
G36*
X171488Y63030D02*
X169380D01*
Y60922D01*
X171488D01*
Y63030D01*
D02*
G37*
G36*
X170573Y60490D02*
X170561D01*
Y59563D01*
X171488D01*
Y59575D01*
X171416Y59843D01*
X171277Y60083D01*
X171081Y60279D01*
X170841Y60418D01*
X170573Y60490D01*
D02*
G37*
G36*
X170307D02*
X170295D01*
X170027Y60418D01*
X169787Y60279D01*
X169591Y60083D01*
X169452Y59843D01*
X169380Y59575D01*
Y59563D01*
X170307D01*
Y60490D01*
D02*
G37*
G36*
X171488Y59309D02*
X170561D01*
Y58382D01*
X170573D01*
X170841Y58454D01*
X171081Y58593D01*
X171277Y58789D01*
X171416Y59029D01*
X171488Y59297D01*
Y59309D01*
D02*
G37*
G36*
X170307D02*
X169380D01*
Y59297D01*
X169452Y59029D01*
X169591Y58789D01*
X169787Y58593D01*
X170027Y58454D01*
X170295Y58382D01*
X170307D01*
Y59309D01*
D02*
G37*
G36*
X168033Y60490D02*
X167755D01*
X167487Y60418D01*
X167247Y60279D01*
X167051Y60083D01*
X166912Y59843D01*
X166840Y59575D01*
Y59297D01*
X166912Y59029D01*
X167051Y58789D01*
X167247Y58593D01*
X167487Y58454D01*
X167755Y58382D01*
X168033D01*
X168301Y58454D01*
X168541Y58593D01*
X168737Y58789D01*
X168876Y59029D01*
X168948Y59297D01*
Y59575D01*
X168876Y59843D01*
X168737Y60083D01*
X168541Y60279D01*
X168301Y60418D01*
X168033Y60490D01*
D02*
G37*
G36*
X165493D02*
X165215D01*
X164947Y60418D01*
X164707Y60279D01*
X164511Y60083D01*
X164372Y59843D01*
X164300Y59575D01*
Y59297D01*
X164372Y59029D01*
X164511Y58789D01*
X164707Y58593D01*
X164947Y58454D01*
X165215Y58382D01*
X165493D01*
X165761Y58454D01*
X166001Y58593D01*
X166197Y58789D01*
X166336Y59029D01*
X166408Y59297D01*
Y59575D01*
X166336Y59843D01*
X166197Y60083D01*
X166001Y60279D01*
X165761Y60418D01*
X165493Y60490D01*
D02*
G37*
G36*
X171831Y56386D02*
X171825D01*
X171567Y56317D01*
X171335Y56183D01*
X171147Y55995D01*
X171086Y55890D01*
X169655D01*
X169594Y55995D01*
X169406Y56183D01*
X169174Y56317D01*
X168916Y56386D01*
X168910D01*
Y55372D01*
Y54358D01*
X168916D01*
X169174Y54427D01*
X169406Y54561D01*
X169594Y54749D01*
X169655Y54854D01*
X171086D01*
X171147Y54749D01*
X171335Y54561D01*
X171567Y54427D01*
X171825Y54358D01*
X171831D01*
Y55372D01*
Y56386D01*
D02*
G37*
G36*
X168656D02*
X168650D01*
X168392Y56317D01*
X168160Y56183D01*
X167972Y55995D01*
X167911Y55890D01*
X166353D01*
X166292Y55995D01*
X166104Y56183D01*
X165872Y56317D01*
X165614Y56386D01*
X165608D01*
Y55372D01*
X165481D01*
Y55245D01*
X164467D01*
Y55239D01*
X164536Y54981D01*
X164670Y54749D01*
X164858Y54561D01*
X164963Y54500D01*
Y53704D01*
X164858Y53643D01*
X164670Y53455D01*
X164536Y53223D01*
X164467Y52965D01*
Y52959D01*
X165481D01*
X166495D01*
Y52965D01*
X166426Y53223D01*
X166292Y53455D01*
X166104Y53643D01*
X165999Y53704D01*
Y54500D01*
X166104Y54561D01*
X166292Y54749D01*
X166353Y54854D01*
X167911D01*
X167972Y54749D01*
X168160Y54561D01*
X168392Y54427D01*
X168650Y54358D01*
X168656D01*
Y55372D01*
Y56386D01*
D02*
G37*
G36*
X165354D02*
X165348D01*
X165090Y56317D01*
X164858Y56183D01*
X164670Y55995D01*
X164536Y55763D01*
X164467Y55505D01*
Y55499D01*
X165354D01*
Y56386D01*
D02*
G37*
G36*
X166495Y52705D02*
X165608D01*
Y51818D01*
X165614D01*
X165872Y51887D01*
X166104Y52021D01*
X166292Y52209D01*
X166426Y52441D01*
X166495Y52699D01*
Y52705D01*
D02*
G37*
G36*
X165354D02*
X164467D01*
Y52699D01*
X164536Y52441D01*
X164670Y52209D01*
X164858Y52021D01*
X165090Y51887D01*
X165348Y51818D01*
X165354D01*
Y52705D01*
D02*
G37*
%LPD*%
G36*
X171415Y54840D02*
X171360Y54893D01*
X171303Y54940D01*
X171244Y54982D01*
X171184Y55018D01*
X171122Y55049D01*
X171058Y55074D01*
X170992Y55093D01*
X170925Y55107D01*
X170856Y55115D01*
X170786Y55118D01*
Y55626D01*
X170856Y55629D01*
X170925Y55637D01*
X170992Y55651D01*
X171058Y55670D01*
X171122Y55695D01*
X171184Y55726D01*
X171244Y55762D01*
X171303Y55804D01*
X171360Y55851D01*
X171415Y55904D01*
Y54840D01*
D02*
G37*
G36*
X169381Y55851D02*
X169438Y55804D01*
X169497Y55762D01*
X169557Y55726D01*
X169619Y55695D01*
X169683Y55670D01*
X169749Y55651D01*
X169816Y55637D01*
X169885Y55629D01*
X169955Y55626D01*
Y55118D01*
X169885Y55115D01*
X169816Y55107D01*
X169749Y55093D01*
X169683Y55074D01*
X169619Y55049D01*
X169557Y55018D01*
X169497Y54982D01*
X169438Y54940D01*
X169381Y54893D01*
X169326Y54840D01*
Y55904D01*
X169381Y55851D01*
D02*
G37*
G36*
X168240Y54840D02*
X168185Y54893D01*
X168128Y54940D01*
X168069Y54982D01*
X168009Y55018D01*
X167947Y55049D01*
X167883Y55074D01*
X167817Y55093D01*
X167750Y55107D01*
X167681Y55115D01*
X167611Y55118D01*
Y55626D01*
X167681Y55629D01*
X167750Y55637D01*
X167817Y55651D01*
X167883Y55670D01*
X167947Y55695D01*
X168009Y55726D01*
X168069Y55762D01*
X168128Y55804D01*
X168185Y55851D01*
X168240Y55904D01*
Y54840D01*
D02*
G37*
G36*
X166079Y55851D02*
X166136Y55804D01*
X166195Y55762D01*
X166255Y55726D01*
X166317Y55695D01*
X166381Y55670D01*
X166447Y55651D01*
X166514Y55637D01*
X166583Y55629D01*
X166653Y55626D01*
Y55118D01*
X166583Y55115D01*
X166514Y55107D01*
X166447Y55093D01*
X166381Y55074D01*
X166317Y55049D01*
X166255Y55018D01*
X166195Y54982D01*
X166136Y54940D01*
X166079Y54893D01*
X166024Y54840D01*
Y55904D01*
X166079Y55851D01*
D02*
G37*
G36*
X165960Y54774D02*
X165913Y54717D01*
X165871Y54658D01*
X165835Y54598D01*
X165805Y54536D01*
X165779Y54472D01*
X165760Y54406D01*
X165746Y54339D01*
X165738Y54270D01*
X165735Y54200D01*
X165227D01*
X165224Y54270D01*
X165216Y54339D01*
X165202Y54406D01*
X165183Y54472D01*
X165158Y54536D01*
X165127Y54598D01*
X165091Y54658D01*
X165049Y54717D01*
X165002Y54774D01*
X164949Y54829D01*
X166013D01*
X165960Y54774D01*
D02*
G37*
G36*
X165738Y53934D02*
X165746Y53865D01*
X165760Y53798D01*
X165779Y53732D01*
X165805Y53668D01*
X165835Y53606D01*
X165871Y53546D01*
X165913Y53487D01*
X165960Y53430D01*
X166013Y53375D01*
X164949D01*
X165002Y53430D01*
X165049Y53487D01*
X165091Y53546D01*
X165127Y53606D01*
X165158Y53668D01*
X165183Y53732D01*
X165202Y53798D01*
X165216Y53865D01*
X165224Y53934D01*
X165227Y54004D01*
X165735D01*
X165738Y53934D01*
D02*
G37*
%LPC*%
G36*
X165484Y92327D02*
X165217D01*
X164959Y92258D01*
X164728Y92124D01*
X164539Y91936D01*
X164405Y91704D01*
X164336Y91446D01*
Y91180D01*
X164378Y91023D01*
X164367Y91007D01*
X164328Y90809D01*
Y87024D01*
X164199Y86949D01*
X164003Y86753D01*
X163864Y86513D01*
X163792Y86245D01*
Y85967D01*
X163864Y85699D01*
X163873Y85683D01*
X161269Y83079D01*
X161185Y82953D01*
X161156Y82804D01*
Y77853D01*
X161006Y77703D01*
X160909Y77469D01*
Y77217D01*
X161006Y76983D01*
X161184Y76805D01*
X161418Y76708D01*
X161670D01*
X161904Y76805D01*
X162082Y76983D01*
X162179Y77217D01*
Y77469D01*
X162082Y77703D01*
X161932Y77853D01*
Y82643D01*
X164423Y85133D01*
X164439Y85124D01*
X164707Y85052D01*
X164985D01*
X165253Y85124D01*
X165493Y85263D01*
X165689Y85459D01*
X165828Y85699D01*
X165900Y85967D01*
Y86245D01*
X165828Y86513D01*
X165689Y86753D01*
X165493Y86949D01*
X165364Y87024D01*
Y90299D01*
X165484D01*
X165742Y90368D01*
X165973Y90502D01*
X166162Y90690D01*
X166295Y90922D01*
X166364Y91180D01*
Y91446D01*
X166295Y91704D01*
X166162Y91936D01*
X165973Y92124D01*
X165742Y92258D01*
X165484Y92327D01*
D02*
G37*
G36*
X165039Y75692D02*
X164312D01*
Y74865D01*
X165039D01*
Y75692D01*
D02*
G37*
G36*
Y74611D02*
X164312D01*
Y73784D01*
X165039D01*
Y74611D01*
D02*
G37*
G36*
Y67056D02*
X164312D01*
Y66229D01*
X165039D01*
Y67056D01*
D02*
G37*
G36*
X167259Y65786D02*
X166751D01*
Y65278D01*
X166984Y65375D01*
X167162Y65553D01*
X167259Y65786D01*
D02*
G37*
%LPD*%
G36*
X164846Y85852D02*
X164828Y85848D01*
X164805Y85838D01*
X164777Y85820D01*
X164742Y85796D01*
X164657Y85726D01*
X164488Y85568D01*
X164421Y85501D01*
X164241Y85681D01*
X164308Y85748D01*
X164560Y86037D01*
X164578Y86065D01*
X164588Y86088D01*
X164592Y86106D01*
X164846Y85852D01*
D02*
G37*
%LPC*%
G36*
X160020Y70612D02*
Y70104D01*
X160528D01*
X160431Y70337D01*
X160253Y70515D01*
X160020Y70612D01*
D02*
G37*
G36*
X160528Y69850D02*
X160020D01*
Y69342D01*
X160253Y69439D01*
X160431Y69617D01*
X160528Y69850D01*
D02*
G37*
G36*
X131187Y65754D02*
X129987D01*
X129771Y65711D01*
X129588Y65588D01*
X129465Y65405D01*
X129422Y65189D01*
X129465Y64973D01*
X129588Y64790D01*
X129771Y64667D01*
X129987Y64624D01*
X130069D01*
Y64484D01*
X129987D01*
X129771Y64441D01*
X129588Y64318D01*
X129465Y64135D01*
X129422Y63919D01*
X129465Y63703D01*
X129588Y63520D01*
X129771Y63397D01*
X129987Y63354D01*
X131187D01*
X131403Y63397D01*
X131586Y63520D01*
X131709Y63703D01*
X131752Y63919D01*
X131709Y64135D01*
X131586Y64318D01*
X131403Y64441D01*
X131187Y64484D01*
X131105D01*
Y64624D01*
X131187D01*
X131403Y64667D01*
X131409Y64671D01*
X132588D01*
Y63846D01*
X134496D01*
Y65554D01*
X133320D01*
X133318Y65555D01*
X133150Y65668D01*
X132952Y65707D01*
X131409D01*
X131403Y65711D01*
X131187Y65754D01*
D02*
G37*
G36*
X134496Y63654D02*
X132588D01*
Y63167D01*
X132470Y63119D01*
X132440Y63149D01*
X132206Y63246D01*
X131954D01*
X131720Y63149D01*
X131691Y63120D01*
X131586Y63048D01*
X131403Y63171D01*
X131187Y63214D01*
X129987D01*
X129771Y63171D01*
X129588Y63048D01*
X129465Y62865D01*
X129422Y62649D01*
X129465Y62433D01*
X129588Y62250D01*
X129771Y62127D01*
X129987Y62084D01*
X131187D01*
X131403Y62127D01*
X131561Y62232D01*
X131720Y62073D01*
X131954Y61976D01*
X132206D01*
X132440Y62073D01*
X132470Y62103D01*
X132588Y62055D01*
Y61946D01*
X132991D01*
Y61197D01*
X132525D01*
Y59419D01*
X134430D01*
Y61197D01*
X134027D01*
Y61946D01*
X134496D01*
Y63654D01*
D02*
G37*
G36*
X134430Y58911D02*
X133604D01*
Y58149D01*
X134430D01*
Y58911D01*
D02*
G37*
G36*
X133350D02*
X132525D01*
Y58149D01*
X133350D01*
Y58911D01*
D02*
G37*
G36*
X130075Y61094D02*
X129876Y61067D01*
X129691Y60991D01*
X129639Y60951D01*
X129545D01*
X129305Y60903D01*
X129102Y60768D01*
X128967Y60565D01*
X128919Y60325D01*
X128967Y60085D01*
X129102Y59882D01*
X129291Y59756D01*
X129298Y59696D01*
Y59684D01*
X129291Y59624D01*
X129102Y59498D01*
X128967Y59295D01*
X128919Y59055D01*
X128967Y58815D01*
X129102Y58612D01*
X129291Y58486D01*
X129298Y58426D01*
Y58414D01*
X129291Y58354D01*
X129102Y58228D01*
X128967Y58025D01*
X128919Y57785D01*
X128967Y57545D01*
X129102Y57342D01*
X129291Y57216D01*
X129298Y57156D01*
Y57144D01*
X129291Y57084D01*
X129102Y56958D01*
X128967Y56755D01*
X128919Y56515D01*
X128967Y56275D01*
X129102Y56072D01*
X129152Y56039D01*
Y54363D01*
X126367D01*
X126217Y54513D01*
X125983Y54610D01*
X125731D01*
X125497Y54513D01*
X125319Y54335D01*
X125222Y54101D01*
Y53849D01*
X125319Y53615D01*
X125497Y53437D01*
X125731Y53340D01*
X125983D01*
X126217Y53437D01*
X126367Y53587D01*
X129391D01*
X129540Y53616D01*
X129666Y53700D01*
X129815Y53849D01*
X129899Y53975D01*
X129928Y54124D01*
Y55669D01*
X130024Y55753D01*
X130075Y55746D01*
X130274Y55773D01*
X130459Y55849D01*
X130511Y55889D01*
X130605D01*
X130845Y55937D01*
X131048Y56072D01*
X131183Y56275D01*
X131231Y56515D01*
X131183Y56755D01*
X131048Y56958D01*
X130859Y57084D01*
X130852Y57144D01*
Y57156D01*
X130859Y57216D01*
X131048Y57342D01*
X131183Y57545D01*
X131231Y57785D01*
X131183Y58025D01*
X131048Y58228D01*
X130859Y58354D01*
X130852Y58414D01*
Y58426D01*
X130859Y58486D01*
X131048Y58612D01*
X131183Y58815D01*
X131231Y59055D01*
X131183Y59295D01*
X131048Y59498D01*
X130859Y59624D01*
X130852Y59684D01*
Y59696D01*
X130859Y59756D01*
X131048Y59882D01*
X131183Y60085D01*
X131231Y60325D01*
X131183Y60565D01*
X131048Y60768D01*
X130845Y60903D01*
X130605Y60951D01*
X130511D01*
X130459Y60991D01*
X130274Y61067D01*
X130075Y61094D01*
D02*
G37*
G36*
X134430Y57895D02*
X133477D01*
X132525D01*
Y57133D01*
X133089D01*
Y52549D01*
X133070Y52544D01*
X132830Y52405D01*
X132634Y52209D01*
X132495Y51969D01*
X132490Y51950D01*
X131924D01*
X131919Y51969D01*
X131780Y52209D01*
X131584Y52405D01*
X131344Y52544D01*
X131076Y52616D01*
X131064D01*
Y51562D01*
X130937D01*
Y51435D01*
X129883D01*
Y51423D01*
X129955Y51155D01*
X130094Y50915D01*
X130110Y50898D01*
X130070Y50838D01*
X130041Y50690D01*
Y49079D01*
X130038Y49078D01*
X129806Y48944D01*
X129618Y48756D01*
X129484Y48524D01*
X129415Y48266D01*
Y48260D01*
X130429D01*
X131443D01*
Y48266D01*
X131374Y48524D01*
X131240Y48756D01*
X131052Y48944D01*
X130820Y49078D01*
X130817Y49079D01*
Y50508D01*
X131076D01*
X131344Y50580D01*
X131584Y50719D01*
X131780Y50915D01*
X131919Y51155D01*
X131924Y51174D01*
X132490D01*
X132495Y51155D01*
X132634Y50915D01*
X132830Y50719D01*
X133070Y50580D01*
X133338Y50508D01*
X133350D01*
Y51562D01*
X133477D01*
Y51689D01*
X134531D01*
Y51701D01*
X134459Y51969D01*
X134320Y52209D01*
X134124Y52405D01*
X133884Y52544D01*
X133865Y52549D01*
Y57133D01*
X134430D01*
Y57895D01*
D02*
G37*
G36*
X130810Y52616D02*
X130798D01*
X130530Y52544D01*
X130290Y52405D01*
X130094Y52209D01*
X129955Y51969D01*
X129883Y51701D01*
Y51689D01*
X130810D01*
Y52616D01*
D02*
G37*
G36*
X147231D02*
X145123D01*
Y50508D01*
X147231D01*
Y52616D01*
D02*
G37*
G36*
X141236D02*
X140958D01*
X140690Y52544D01*
X140450Y52405D01*
X140254Y52209D01*
X140115Y51969D01*
X140043Y51701D01*
Y51423D01*
X140115Y51155D01*
X140254Y50915D01*
X140450Y50719D01*
X140690Y50580D01*
X140958Y50508D01*
X141236D01*
X141504Y50580D01*
X141744Y50719D01*
X141940Y50915D01*
X142079Y51155D01*
X142151Y51423D01*
Y51701D01*
X142079Y51969D01*
X141940Y52209D01*
X141744Y52405D01*
X141504Y52544D01*
X141236Y52616D01*
D02*
G37*
G36*
X138696D02*
X138418D01*
X138150Y52544D01*
X137910Y52405D01*
X137714Y52209D01*
X137575Y51969D01*
X137503Y51701D01*
Y51423D01*
X137575Y51155D01*
X137714Y50915D01*
X137910Y50719D01*
X138150Y50580D01*
X138418Y50508D01*
X138696D01*
X138964Y50580D01*
X139204Y50719D01*
X139400Y50915D01*
X139539Y51155D01*
X139611Y51423D01*
Y51701D01*
X139539Y51969D01*
X139400Y52209D01*
X139204Y52405D01*
X138964Y52544D01*
X138696Y52616D01*
D02*
G37*
G36*
X134531Y51435D02*
X133604D01*
Y50508D01*
X133616D01*
X133884Y50580D01*
X134124Y50719D01*
X134320Y50915D01*
X134459Y51155D01*
X134531Y51423D01*
Y51435D01*
D02*
G37*
G36*
X122173Y56007D02*
X121921D01*
X121687Y55910D01*
X121509Y55732D01*
X121412Y55498D01*
Y55246D01*
X121487Y55065D01*
X121428Y54938D01*
X121428D01*
Y50430D01*
X123936D01*
Y54938D01*
X122677D01*
X122607Y55065D01*
X122682Y55246D01*
Y55498D01*
X122585Y55732D01*
X122407Y55910D01*
X122173Y56007D01*
D02*
G37*
G36*
X133102Y49147D02*
X133096D01*
Y48260D01*
X133983D01*
Y48266D01*
X133914Y48524D01*
X133780Y48756D01*
X133592Y48944D01*
X133360Y49078D01*
X133102Y49147D01*
D02*
G37*
G36*
X132842D02*
X132836D01*
X132578Y49078D01*
X132346Y48944D01*
X132158Y48756D01*
X132024Y48524D01*
X131955Y48266D01*
Y48260D01*
X132842D01*
Y49147D01*
D02*
G37*
G36*
X140722D02*
X140456D01*
X140198Y49078D01*
X139966Y48944D01*
X139778Y48756D01*
X139644Y48524D01*
X139575Y48266D01*
Y48000D01*
X139644Y47742D01*
X139778Y47510D01*
X139966Y47322D01*
X140198Y47188D01*
X140456Y47119D01*
X140722D01*
X140980Y47188D01*
X141212Y47322D01*
X141400Y47510D01*
X141534Y47742D01*
X141603Y48000D01*
Y48266D01*
X141534Y48524D01*
X141400Y48756D01*
X141212Y48944D01*
X140980Y49078D01*
X140722Y49147D01*
D02*
G37*
G36*
X138182D02*
X137916D01*
X137658Y49078D01*
X137426Y48944D01*
X137238Y48756D01*
X137104Y48524D01*
X137035Y48266D01*
Y48000D01*
X137104Y47742D01*
X137238Y47510D01*
X137426Y47322D01*
X137658Y47188D01*
X137916Y47119D01*
X138182D01*
X138440Y47188D01*
X138672Y47322D01*
X138860Y47510D01*
X138994Y47742D01*
X139063Y48000D01*
Y48266D01*
X138994Y48524D01*
X138860Y48756D01*
X138672Y48944D01*
X138440Y49078D01*
X138182Y49147D01*
D02*
G37*
G36*
X133983Y48006D02*
X133096D01*
Y47119D01*
X133102D01*
X133360Y47188D01*
X133592Y47322D01*
X133780Y47510D01*
X133914Y47742D01*
X133983Y48000D01*
Y48006D01*
D02*
G37*
G36*
X132842D02*
X131955D01*
Y48000D01*
X132024Y47742D01*
X132158Y47510D01*
X132346Y47322D01*
X132578Y47188D01*
X132836Y47119D01*
X132842D01*
Y48006D01*
D02*
G37*
G36*
X131443D02*
X130556D01*
Y47119D01*
X130562D01*
X130820Y47188D01*
X131052Y47322D01*
X131240Y47510D01*
X131374Y47742D01*
X131443Y48000D01*
Y48006D01*
D02*
G37*
G36*
X130302D02*
X129415D01*
Y48000D01*
X129484Y47742D01*
X129618Y47510D01*
X129806Y47322D01*
X130038Y47188D01*
X130296Y47119D01*
X130302D01*
Y48006D01*
D02*
G37*
G36*
X123936Y49138D02*
X122809D01*
Y47011D01*
X123936D01*
Y49138D01*
D02*
G37*
G36*
X138302Y46990D02*
X138050D01*
X137816Y46893D01*
X137638Y46715D01*
X137541Y46481D01*
Y46229D01*
X137638Y45995D01*
X137816Y45817D01*
X138050Y45720D01*
X138302D01*
X138536Y45817D01*
X138714Y45995D01*
X138811Y46229D01*
Y46481D01*
X138714Y46715D01*
X138536Y46893D01*
X138302Y46990D01*
D02*
G37*
G36*
X125476Y46101D02*
Y45593D01*
X125984D01*
X125887Y45826D01*
X125709Y46004D01*
X125476Y46101D01*
D02*
G37*
G36*
X125984Y45339D02*
X125476D01*
Y44831D01*
X125709Y44928D01*
X125887Y45106D01*
X125984Y45339D01*
D02*
G37*
%LPD*%
G36*
X131783Y62373D02*
X131758Y62401D01*
X131732Y62426D01*
X131705Y62449D01*
X131677Y62468D01*
X131647Y62485D01*
X131617Y62498D01*
X131585Y62509D01*
X131560Y62514D01*
X131522Y62511D01*
X131474Y62502D01*
X131434Y62491D01*
X131401Y62477D01*
X131375Y62461D01*
X131357Y62442D01*
X131346Y62421D01*
X131342Y62397D01*
Y62901D01*
X131346Y62877D01*
X131357Y62856D01*
X131375Y62837D01*
X131401Y62821D01*
X131434Y62807D01*
X131474Y62796D01*
X131522Y62787D01*
X131577Y62781D01*
X131577Y62781D01*
X131611Y62787D01*
X131645Y62796D01*
X131678Y62808D01*
X131710Y62822D01*
X131742Y62838D01*
X131774Y62858D01*
X131805Y62879D01*
X131836Y62904D01*
X131783Y62373D01*
D02*
G37*
G36*
X129794Y56158D02*
X129770Y56160D01*
X129748Y56157D01*
X129729Y56146D01*
X129713Y56130D01*
X129699Y56108D01*
X129687Y56079D01*
X129678Y56044D01*
X129672Y56002D01*
X129668Y55955D01*
X129667Y55901D01*
X129413Y55929D01*
X129412Y55989D01*
X129402Y56091D01*
X129393Y56133D01*
X129382Y56170D01*
X129368Y56201D01*
X129352Y56226D01*
X129333Y56246D01*
X129312Y56260D01*
X129288Y56268D01*
X129794Y56158D01*
D02*
G37*
G36*
X133707Y57391D02*
X133685Y57383D01*
X133666Y57370D01*
X133650Y57352D01*
X133636Y57329D01*
X133624Y57301D01*
X133615Y57268D01*
X133609Y57229D01*
X133605Y57185D01*
X133604Y57136D01*
X133350D01*
X133349Y57185D01*
X133345Y57229D01*
X133339Y57268D01*
X133330Y57301D01*
X133318Y57329D01*
X133304Y57352D01*
X133288Y57370D01*
X133269Y57383D01*
X133247Y57391D01*
X133223Y57394D01*
X133731D01*
X133707Y57391D01*
D02*
G37*
G36*
X133608Y52776D02*
X133621Y52716D01*
X133643Y52654D01*
X133673Y52589D01*
X133712Y52520D01*
X133760Y52449D01*
X133816Y52374D01*
X133955Y52217D01*
X134037Y52133D01*
X132917D01*
X132999Y52217D01*
X133138Y52374D01*
X133194Y52449D01*
X133242Y52520D01*
X133281Y52589D01*
X133311Y52654D01*
X133333Y52716D01*
X133346Y52776D01*
X133350Y52832D01*
X133604D01*
X133608Y52776D01*
D02*
G37*
G36*
X132906Y51002D02*
X132822Y51084D01*
X132665Y51223D01*
X132590Y51279D01*
X132519Y51327D01*
X132450Y51366D01*
X132385Y51396D01*
X132323Y51418D01*
X132263Y51431D01*
X132207Y51435D01*
Y51689D01*
X132263Y51693D01*
X132323Y51706D01*
X132385Y51728D01*
X132450Y51758D01*
X132519Y51797D01*
X132590Y51845D01*
X132665Y51901D01*
X132822Y52040D01*
X132906Y52122D01*
Y51002D01*
D02*
G37*
G36*
X131592Y52040D02*
X131749Y51901D01*
X131824Y51845D01*
X131895Y51797D01*
X131964Y51758D01*
X132029Y51728D01*
X132091Y51706D01*
X132151Y51693D01*
X132207Y51689D01*
Y51435D01*
X132151Y51431D01*
X132091Y51418D01*
X132029Y51396D01*
X131964Y51366D01*
X131895Y51327D01*
X131824Y51279D01*
X131749Y51223D01*
X131592Y51084D01*
X131508Y51002D01*
Y52122D01*
X131592Y52040D01*
D02*
G37*
G36*
X130831Y50769D02*
X130805Y50770D01*
X130778Y50768D01*
X130750Y50761D01*
X130720Y50750D01*
X130690Y50735D01*
X130658Y50716D01*
X130625Y50693D01*
X130591Y50666D01*
X130519Y50600D01*
X130339Y50780D01*
X130362Y50804D01*
X130380Y50828D01*
X130395Y50851D01*
X130405Y50874D01*
X130410Y50896D01*
X130411Y50917D01*
X130408Y50937D01*
X130401Y50957D01*
X130389Y50976D01*
X130373Y50994D01*
X130831Y50769D01*
D02*
G37*
G36*
X130560Y49284D02*
X130572Y49227D01*
X130592Y49167D01*
X130621Y49105D01*
X130657Y49040D01*
X130702Y48972D01*
X130754Y48902D01*
X130884Y48754D01*
X130961Y48676D01*
X129897D01*
X129974Y48754D01*
X130104Y48902D01*
X130156Y48972D01*
X130201Y49040D01*
X130237Y49105D01*
X130266Y49167D01*
X130286Y49227D01*
X130298Y49284D01*
X130302Y49338D01*
X130556D01*
X130560Y49284D01*
D02*
G37*
G36*
X122287Y55072D02*
X122263Y55043D01*
X122242Y55014D01*
X122224Y54984D01*
X122209Y54953D01*
X122196Y54921D01*
X122187Y54888D01*
X122180Y54854D01*
X122179Y54847D01*
X122179Y54842D01*
X122185Y54804D01*
X122194Y54770D01*
X122206Y54742D01*
X122220Y54719D01*
X122236Y54701D01*
X122255Y54688D01*
X122277Y54680D01*
X122301Y54678D01*
X121793D01*
X121817Y54680D01*
X121839Y54688D01*
X121858Y54701D01*
X121874Y54719D01*
X121888Y54742D01*
X121900Y54770D01*
X121909Y54804D01*
X121915Y54842D01*
X121915Y54847D01*
X121914Y54854D01*
X121907Y54888D01*
X121898Y54921D01*
X121885Y54953D01*
X121870Y54984D01*
X121852Y55014D01*
X121831Y55043D01*
X121807Y55072D01*
X121780Y55100D01*
X122314D01*
X122287Y55072D01*
D02*
G37*
D12*
X123571Y86110D02*
Y91313D01*
X123567Y86106D02*
X123571Y86110D01*
X111989Y84562D02*
X112497Y84054D01*
X107803Y84562D02*
X111989D01*
X106998Y83756D02*
X107803Y84562D01*
X106998Y83673D02*
Y83756D01*
X106617Y82359D02*
Y83292D01*
X106553Y82296D02*
X106617Y82359D01*
X112497Y84054D02*
X117005D01*
X106617Y83292D02*
X106998Y83673D01*
X166055Y71309D02*
Y73472D01*
X150975Y77696D02*
X151483D01*
X150114Y76835D02*
X150975Y77696D01*
X151483D02*
X155829Y82042D01*
X148895Y68986D02*
X150216D01*
X150241Y68961D01*
X117005Y84054D02*
X117029Y84077D01*
X104290Y88761D02*
Y92260D01*
X103214Y88265D02*
X103794D01*
X104290Y88761D01*
X100247Y83058D02*
X101410D01*
X101448Y83019D01*
Y82879D02*
Y83019D01*
X99949Y83356D02*
X100247Y83058D01*
X99949Y83356D02*
Y92158D01*
X157929Y66675D02*
X158115Y66489D01*
X154124Y66675D02*
X157929D01*
X158115Y66489D02*
X163195D01*
X153826Y66973D02*
X154124Y66675D01*
X153826Y66973D02*
Y73000D01*
X112970Y92581D02*
X129923D01*
X112714Y92326D02*
X112970Y92581D01*
X157730Y86610D02*
Y91313D01*
X157226Y86106D02*
X157730Y86610D01*
X164846Y86106D02*
Y90809D01*
X165350Y91313D01*
X148895Y73000D02*
X153826D01*
X137414Y71697D02*
Y77470D01*
Y71697D02*
X137712Y71399D01*
X113985Y80961D02*
X117100D01*
X117547Y81407D02*
X117856D01*
X117100Y80961D02*
X117547Y81407D01*
X168783Y55372D02*
X171958D01*
X165481D02*
X168783D01*
X102718Y82879D02*
Y87769D01*
X99949Y92158D02*
X100247Y92456D01*
X102718Y87769D02*
X103214Y88265D01*
X110573Y93980D02*
X110871Y93682D01*
Y92382D02*
Y93682D01*
X102772Y93980D02*
X110573D01*
X110814Y92326D02*
X110871Y92382D01*
X110814Y88761D02*
Y92326D01*
X136267Y81310D02*
X141986Y75590D01*
X136267Y81310D02*
Y86106D01*
X100247Y92456D02*
X102363D01*
X102474Y92344D02*
Y93682D01*
X102363Y92456D02*
X102474Y92344D01*
X162052Y45002D02*
Y48006D01*
X167257Y44704D02*
X168783Y46230D01*
X162350Y44704D02*
X167257D01*
X162052Y45002D02*
X162350Y44704D01*
X162052Y48006D02*
X162179Y48133D01*
X168783Y46230D02*
Y47752D01*
X163266Y74738D02*
Y74989D01*
X148895Y73787D02*
X158115D01*
Y74989D02*
X163266D01*
X158115Y73787D02*
Y74989D01*
X155829Y84709D02*
X157226Y86106D01*
X155829Y82042D02*
Y84709D01*
X154686Y82702D02*
Y86106D01*
X147574Y75590D02*
X147574D01*
X154686Y82702D01*
X147574Y75108D02*
Y75590D01*
X146787Y75108D02*
Y76683D01*
X152146Y82042D01*
X145974Y78410D02*
X149606Y82042D01*
X145974Y75108D02*
Y78410D01*
X145186Y80802D02*
X146427Y82042D01*
X145186Y75108D02*
Y80802D01*
X143887Y82042D02*
X144374Y81555D01*
Y75108D02*
Y81555D01*
X141347Y82042D02*
X143586Y79803D01*
Y75108D02*
Y79803D01*
X138807Y82042D02*
X142773Y78075D01*
Y75108D02*
Y78075D01*
X137712Y71399D02*
X140665D01*
X155190Y86610D02*
Y91313D01*
X154686Y86106D02*
X155190Y86610D01*
X152650D02*
Y91313D01*
X152146Y86106D02*
X152650Y86610D01*
X150110D02*
Y91313D01*
X149606Y86106D02*
X150110Y86610D01*
X146427Y91309D02*
X146431Y91313D01*
X146427Y86106D02*
Y91309D01*
X136267D02*
X136271Y91313D01*
X136267Y86106D02*
Y91309D01*
X138807D02*
X138811Y91313D01*
X138807Y86106D02*
Y91309D01*
X141347D02*
X141351Y91313D01*
X141347Y86106D02*
Y91309D01*
X143887D02*
X143891Y91313D01*
X143887Y86106D02*
Y91309D01*
X152146Y82042D02*
Y86106D01*
X149606Y82042D02*
Y86106D01*
X146427Y82042D02*
Y86106D01*
X138807Y82042D02*
Y86106D01*
X141347Y82042D02*
Y86106D01*
X143887Y82042D02*
Y86106D01*
X167386D02*
Y90809D01*
X167890Y91313D01*
X162306Y86106D02*
Y90809D01*
X162810Y91313D01*
X159766Y86106D02*
Y90809D01*
X160270Y91313D01*
X131187Y86106D02*
X131189Y86108D01*
Y91311D01*
X129923Y92581D02*
X131191Y91313D01*
X131189Y91311D02*
X131191Y91313D01*
X126107Y86106D02*
X126111Y86110D01*
Y91313D01*
X128647Y86106D02*
X128651Y86110D01*
Y91313D01*
X133727Y86106D02*
X133731Y86110D01*
Y91313D01*
X165481Y52832D02*
Y55372D01*
X118120Y69469D02*
X118628Y69977D01*
X121661D01*
X117856Y69469D02*
X118120D01*
Y74295D02*
X118628Y74803D01*
X117856Y74295D02*
X118120D01*
X118628Y74803D02*
X121661D01*
X117856Y78867D02*
X118120D01*
X118698Y79445D02*
X121661D01*
X118120Y78867D02*
X118698Y79445D01*
X117100Y76389D02*
X117547Y76835D01*
X113985Y76389D02*
X117100D01*
X117547Y76835D02*
X117856D01*
X112268Y72136D02*
X113723D01*
X114043Y71817D01*
X106553Y73577D02*
X106851Y73279D01*
X111125D01*
X112268Y72136D01*
X106553Y73577D02*
Y75796D01*
X102743D02*
X102743Y75796D01*
X104290Y92260D02*
X104374Y92344D01*
X104384Y92335D02*
X106868D01*
X104374Y92344D02*
X104384Y92335D01*
X106868D02*
X106877Y92326D01*
X110814Y88761D02*
X111310Y88265D01*
X111946D01*
X102474Y93682D02*
X102772Y93980D01*
X133509Y60341D02*
Y62767D01*
X133477Y60308D02*
X133509Y60341D01*
Y62767D02*
X133542Y62800D01*
X132952Y65189D02*
X133442Y64700D01*
X130587Y65189D02*
X132952D01*
X133442Y64700D02*
X133542D01*
X130587Y63919D02*
Y65189D01*
X163195Y71247D02*
Y74738D01*
X163266D01*
X163195Y66489D02*
Y69347D01*
Y66102D02*
Y66489D01*
Y66102D02*
X163266D01*
D13*
X104013Y81364D02*
X104330Y81046D01*
X104013Y81364D02*
Y82296D01*
X104330Y80146D02*
Y81046D01*
X103178Y78994D02*
X104330Y80146D01*
X99782Y78994D02*
X103178D01*
X99187Y78399D02*
X99782Y78994D01*
X99187Y73835D02*
Y78399D01*
X97747Y73626D02*
X97762Y73611D01*
X98964D02*
X99187Y73835D01*
X97762Y73611D02*
X98964D01*
X104965Y81046D02*
X105283Y81364D01*
Y82296D01*
X104965Y79883D02*
Y81046D01*
X103441Y78359D02*
X104965Y79883D01*
X100045Y78359D02*
X103441D01*
X99822Y78136D02*
X100045Y78359D01*
X99822Y73406D02*
Y78136D01*
X99392Y72976D02*
X99822Y73406D01*
X97747Y72976D02*
X99392D01*
D20*
X104264Y72032D02*
X104400Y71812D01*
X105410Y72797D02*
X105562Y72564D01*
X102743Y71761D02*
X102853Y71552D01*
X160337Y52134D02*
X160084Y52387D01*
X112649Y90805D02*
X112714Y90870D01*
Y92326D01*
X104797Y85979D02*
X114046D01*
Y84943D02*
Y85979D01*
X94164Y77541D02*
Y83250D01*
X100330Y48895D02*
X102235Y46990D01*
X99187Y52070D02*
X100330Y50927D01*
Y48895D02*
Y50927D01*
X102235Y46990D02*
X102997D01*
X122047Y53319D02*
Y55372D01*
X122682Y46339D02*
Y46884D01*
X123555Y45466D02*
X125349D01*
X122047Y53319D02*
X122682Y52684D01*
Y46339D02*
X123555Y45466D01*
X127889Y44345D02*
Y50690D01*
X96923Y67183D02*
X103911D01*
X107823Y66853D02*
Y67183D01*
Y66853D02*
X110490Y64186D01*
X104345Y63329D02*
X105454D01*
X104345Y64513D02*
X104845D01*
X104345Y63329D02*
Y64513D01*
X108841Y71118D02*
X109474Y70485D01*
X104264Y72032D02*
X104264Y72032D01*
X104400Y71812D02*
X106934Y70485D01*
X109013Y70946D02*
X109059Y70900D01*
X104264Y72032D02*
Y72032D01*
X109059Y70900D02*
X109474Y70485D01*
X94056Y83357D02*
X94164Y83250D01*
Y83096D02*
Y83250D01*
X118653Y85979D02*
X118802Y85830D01*
Y84077D02*
Y85830D01*
X114046Y85979D02*
X118653D01*
X118802Y84077D02*
X118829D01*
X104767Y86009D02*
X104797Y85979D01*
X104394Y86106D02*
X104491Y86009D01*
X104767D01*
X113985Y78289D02*
X115627D01*
X115697Y78359D01*
X110363Y75796D02*
X112014D01*
Y75819D01*
X168783Y52832D02*
X171958D01*
X110490Y58674D02*
Y64186D01*
X112714Y63417D02*
Y64455D01*
X114440D01*
X112714D02*
Y66867D01*
X170561Y44577D02*
Y52794D01*
X104345Y61990D02*
Y63329D01*
Y59006D02*
Y61990D01*
X123317Y56515D02*
X125195D01*
X123317Y66294D02*
X123454D01*
X123619Y66459D02*
X124937D01*
X123454Y66294D02*
X123619Y66459D01*
X123952Y67437D02*
X125482D01*
X125779Y67140D01*
X109317Y80318D02*
X110363Y81364D01*
X108914Y80318D02*
X109317D01*
X108817Y80221D02*
X108914Y80318D01*
X107696Y78564D02*
Y80453D01*
X107823Y80580D02*
Y82296D01*
X107696Y80453D02*
X107823Y80580D01*
X107696Y78564D02*
X107972Y78289D01*
X110363Y81364D02*
Y82296D01*
X111061Y79270D02*
X111210Y79121D01*
X110652Y83927D02*
X111061Y83518D01*
X111210Y79121D02*
X112754D01*
X111061Y79270D02*
Y83518D01*
X109791Y83927D02*
X110652D01*
X109093Y82296D02*
Y83229D01*
X109791Y83927D01*
X166243Y74738D02*
X166435Y74930D01*
X165166Y74738D02*
X166243D01*
X166435Y74930D02*
X167132D01*
X130534Y67691D02*
X138430D01*
X139319Y64897D02*
Y68812D01*
Y64897D02*
X149225Y54991D01*
X139468Y68961D02*
X140640D01*
X139319Y68812D02*
X139468Y68961D01*
X115575Y51679D02*
Y63647D01*
X115110Y63319D02*
X115438Y63647D01*
X112871Y63319D02*
X115110D01*
X116901Y50296D02*
Y50353D01*
Y50296D02*
X120313Y46884D01*
X115575Y51679D02*
X116901Y50353D01*
X112807Y63255D02*
X112871Y63319D01*
X115438Y63647D02*
X115575D01*
X116337Y59817D02*
X118597D01*
X116651Y62086D02*
Y64867D01*
Y62086D02*
X118597Y60140D01*
Y59915D02*
Y60140D01*
X121508Y64353D02*
X121539Y64384D01*
X120269Y60141D02*
Y64204D01*
X120418Y64353D01*
X121508D01*
X120269Y60141D02*
X121539D01*
X102764Y61990D02*
X103464D01*
X102764Y60727D02*
X102870Y60833D01*
X102764Y59690D02*
Y60727D01*
X103837Y61617D02*
Y61617D01*
X103464Y61990D02*
X103837Y61617D01*
X103464Y61990D02*
X104345D01*
X116974Y65189D02*
X124937D01*
X116651Y64867D02*
X116974Y65189D01*
X114043Y73717D02*
X114393Y73366D01*
X116332Y72009D02*
X116396D01*
X114393Y73366D02*
X114975D01*
X116332Y72009D01*
X103892Y57017D02*
X104648Y56261D01*
X111506D01*
X102764Y57390D02*
X103137Y57017D01*
X103892D01*
X97229Y60574D02*
X97605Y60198D01*
X101556D02*
X102064Y59690D01*
X97605Y60198D02*
X101556D01*
X102064Y59690D02*
X102764D01*
X113052Y82550D02*
X113675D01*
X112903Y79270D02*
Y82401D01*
X112754Y79121D02*
X112903Y79270D01*
Y82401D02*
X113052Y82550D01*
X113989Y82857D02*
X116064D01*
X113985Y82861D02*
X113989Y82857D01*
X113675Y82550D02*
X113985Y82861D01*
X121088Y81818D02*
X121561Y81345D01*
X118929Y83977D02*
Y84077D01*
Y83977D02*
X119402Y83504D01*
X119502D02*
X121088Y81918D01*
X121561Y81345D02*
X121761D01*
X119402Y83504D02*
X119502D01*
X121088Y81818D02*
Y81918D01*
X105562Y72564D02*
X108841Y71118D01*
X105410Y72797D02*
Y74673D01*
X105283Y75796D02*
X105410Y74673D01*
X104203D02*
X104264Y72032D01*
X104013Y75796D02*
X104203Y74673D01*
X102853Y71552D02*
X104394Y70485D01*
X102743Y71761D02*
Y75796D01*
X101473Y70485D02*
Y75796D01*
Y70485D02*
X101854D01*
X95631Y88773D02*
X97192D01*
X97664Y89246D01*
Y89246D01*
X98137Y89719D01*
X98040Y89916D02*
X98237Y89719D01*
X94056Y90189D02*
Y90357D01*
Y90189D02*
X94329Y89916D01*
X98040D01*
X94329Y82931D02*
X97948D01*
X94164Y83096D02*
X94329Y82931D01*
X97948D02*
X98456Y82423D01*
X94164Y77541D02*
X94779Y76926D01*
Y69026D02*
Y76926D01*
X118597Y49792D02*
Y59817D01*
X120966Y57768D02*
X121439Y58241D01*
X119604Y56485D02*
X119784D01*
X120966Y57668D02*
Y57768D01*
X119784Y56485D02*
X120966Y57668D01*
X119507Y56388D02*
X119604Y56485D01*
X121439Y58241D02*
X121539D01*
X121600Y62465D02*
X124998D01*
X121788Y62681D02*
X121985Y62484D01*
X124937Y62649D02*
X125537D01*
X121539Y63919D02*
Y64151D01*
Y63919D02*
X124937D01*
X112776Y55274D02*
Y57271D01*
X112797Y57292D01*
Y57517D01*
Y59817D02*
X114427D01*
X112714Y62200D02*
Y63255D01*
Y62200D02*
X112797Y62117D01*
X121661Y77607D02*
X122742Y78688D01*
X121661Y76703D02*
Y77607D01*
X96985Y71706D02*
X99900D01*
X100584Y72390D01*
X98741Y84985D02*
X98977Y85221D01*
X98741Y84985D02*
Y84985D01*
X98977Y85221D02*
Y85896D01*
X99060Y85979D01*
X98268Y84512D02*
X98741Y84985D01*
X98456Y82423D02*
X100338D01*
X100487Y82274D01*
Y80107D02*
Y82274D01*
X162560Y62865D02*
X164338Y64643D01*
X167872D01*
X165612Y62234D02*
X166181D01*
X170180Y66232D01*
X165354Y61976D02*
X165612Y62234D01*
X170180Y66232D02*
Y91082D01*
X167917Y93345D02*
X170180Y91082D01*
X116078Y93980D02*
X173079D01*
X173228Y93831D01*
Y51562D02*
Y93831D01*
X171958Y50292D02*
X173228Y51562D01*
X159639Y52832D02*
X160084Y52387D01*
X160337Y52134D02*
X161036Y51435D01*
X161925D01*
X158623Y52832D02*
X159639D01*
X100487Y80107D02*
X100584Y80010D01*
X98168Y84512D02*
X98268D01*
X108585Y90805D02*
Y92133D01*
X108777Y92326D01*
X97285Y54480D02*
X97790Y53975D01*
X99187Y52070D02*
Y52832D01*
X97790Y53975D02*
X98044D01*
X99187Y52832D01*
X97285Y54480D02*
Y58617D01*
X94291D02*
X97285D01*
X129540Y54124D02*
Y56300D01*
X129391Y53975D02*
X129540Y54124D01*
X125857Y53975D02*
X129391D01*
X129755Y56515D02*
X130075D01*
X129540Y56300D02*
X129755Y56515D01*
X125195Y59055D02*
Y60325D01*
Y59055D02*
X125258Y59118D01*
X127063D01*
X127127Y59182D01*
X130075Y60325D02*
X130164Y60414D01*
X125195Y57785D02*
Y59055D01*
X108564Y59240D02*
Y59887D01*
X112275Y57912D02*
X112797Y57390D01*
X127127Y59182D02*
Y67691D01*
X130534D01*
X125947D02*
X127127D01*
X94234Y60574D02*
X97229D01*
X106553Y60960D02*
X107491D01*
X106553D02*
Y61097D01*
X106745Y61290D01*
Y64513D01*
X108564Y59240D02*
X109892Y57912D01*
X112275D01*
X107491Y60960D02*
X108564Y59887D01*
X121761Y71877D02*
X122998Y70639D01*
Y70615D02*
X124460Y69153D01*
X122998Y70615D02*
Y70639D01*
X98168Y84512D02*
X98237Y84581D01*
Y87819D01*
X121661Y72964D02*
X122742Y74045D01*
X121661Y76703D02*
X121761D01*
X121661Y71877D02*
Y72964D01*
Y71877D02*
X121761D01*
X122742Y74045D02*
Y75722D01*
X121761Y76703D02*
X122742Y75722D01*
Y78688D02*
Y80364D01*
X121761Y81345D02*
X122742Y80364D01*
X135509Y44853D02*
Y48133D01*
Y44853D02*
X135658Y44704D01*
X136017Y48641D02*
Y51562D01*
X135509Y48133D02*
X136017Y48641D01*
X142980Y44704D02*
X143129Y44853D01*
X144528Y44321D02*
Y50671D01*
X135658Y44704D02*
X142980D01*
X143129Y44853D02*
Y48133D01*
X144780Y44069D02*
X170307D01*
X170583Y44345D01*
X144528Y44321D02*
X144780Y44069D01*
X170583Y44345D02*
Y44555D01*
X170561Y44577D02*
X170583Y44555D01*
X143129Y48133D02*
Y51054D01*
X143637Y51562D02*
X144528Y50671D01*
X143129Y51054D02*
X143637Y51562D01*
X130587Y66459D02*
X130683Y66555D01*
Y67542D01*
X130534Y67691D02*
X130683Y67542D01*
X124460Y69153D02*
X124485D01*
X125947Y67691D01*
X148895Y70587D02*
X149022Y70714D01*
X149738D01*
X150012Y70988D01*
X149022Y72060D02*
X149813D01*
X150012Y70988D02*
Y71860D01*
X149813Y72060D02*
X150012Y71860D01*
X140741Y73076D02*
X141910D01*
X141986Y73152D01*
X148895Y72187D02*
X149022Y72060D01*
X144018Y73025D02*
X144653D01*
X145491Y72187D01*
X148895D01*
X140564Y72898D02*
X140665Y73000D01*
X138430Y72898D02*
X140564D01*
X140665Y73000D02*
X140741Y73076D01*
X135763Y93345D02*
X167917D01*
X133731Y91313D02*
X135763Y93345D01*
X167386Y85919D02*
X168021Y85284D01*
Y64792D02*
Y85284D01*
X167386Y85919D02*
Y86106D01*
X167872Y64643D02*
X168021Y64792D01*
X134874Y72898D02*
Y75502D01*
X161544Y82804D02*
X164846Y86106D01*
X161544Y77343D02*
Y82804D01*
X155804Y65761D02*
X155829Y65786D01*
X146914Y66009D02*
X147162Y65761D01*
X155804D01*
X146787Y66878D02*
X146914Y66751D01*
Y66009D02*
Y66751D01*
X140665Y70587D02*
X147365D01*
X147777Y70998D01*
X124104Y70587D02*
X140665D01*
X147777Y70175D02*
X148026Y69926D01*
X148768D01*
X147777Y70175D02*
Y70998D01*
X149270Y62865D02*
X162560D01*
X146101Y66035D02*
X149270Y62865D01*
X147701Y67488D02*
X152197D01*
X152273Y67564D01*
X151638Y68453D02*
Y69251D01*
X151079Y69799D02*
X151130Y69850D01*
X148895Y69799D02*
X151079D01*
X152908Y68201D02*
Y72009D01*
X152273Y67564D02*
Y67566D01*
X147574Y66878D02*
Y67361D01*
X152273Y67566D02*
X152908Y68201D01*
X147574Y67361D02*
X147701Y67488D01*
X151638Y69251D02*
X151892Y69505D01*
Y71618D01*
X151638Y71872D02*
X151892Y71618D01*
X145186Y66878D02*
Y68301D01*
X145161Y68326D02*
X145186Y68301D01*
X128647Y86106D02*
X128712D01*
X137348Y77470D02*
X137414D01*
X128712Y86106D02*
X137348Y77470D01*
X154410Y54461D02*
X154432Y54483D01*
X156972D01*
X144399Y64472D02*
Y66853D01*
Y64472D02*
X154410Y54461D01*
X117258Y44196D02*
X127740D01*
X127889Y44345D01*
X164230Y49151D02*
X167642D01*
X163851Y49530D02*
X164230Y49151D01*
X167642D02*
X168783Y50292D01*
X160782Y49530D02*
X163851D01*
X130937Y51562D02*
X133477D01*
X138049Y48133D02*
X138113Y48069D01*
Y46418D02*
X138176Y46355D01*
X142761Y72149D02*
Y75095D01*
X142748Y72136D02*
X142761Y72149D01*
Y75095D02*
X142773Y75108D01*
X107972Y78289D02*
X113985D01*
X97442Y58674D02*
X104013D01*
X97385Y58617D02*
X97442Y58674D01*
X104013D02*
X104345Y59006D01*
X139319Y73660D02*
Y76974D01*
X133727Y82566D02*
Y86106D01*
Y82566D02*
X139319Y76974D01*
X165290Y59500D02*
X165354Y59436D01*
X167894Y61849D02*
Y61976D01*
X151638Y71872D02*
Y72009D01*
X124079Y70612D02*
X124104Y70587D01*
X140640Y68961D02*
X140665Y68986D01*
X151765Y51435D02*
X152019Y51181D01*
X143510Y64135D02*
Y66802D01*
X140665Y64313D02*
Y68199D01*
X143510Y64135D02*
X153797Y53848D01*
X153289Y53213D02*
X155067D01*
X140665Y64313D02*
X151638Y53340D01*
X141986Y63754D02*
X154305Y51435D01*
X142773Y63729D02*
X153289Y53213D01*
X141986Y63754D02*
Y66878D01*
X142773Y63729D02*
Y66878D01*
X153797Y53848D02*
X156718D01*
X151638Y51562D02*
X151765Y51435D01*
X151638Y51562D02*
Y53340D01*
X154305Y51435D02*
X154559Y51181D01*
X147777Y70998D02*
X148051Y71272D01*
X110324Y48907D02*
X111230D01*
X111506Y49183D02*
Y56261D01*
X111230Y48907D02*
X111506Y49183D01*
X109601Y47784D02*
Y48184D01*
X110324Y48907D01*
X114440Y64455D02*
X114751Y64767D01*
X112714Y66867D02*
X117856Y72009D01*
X125537Y62649D02*
X126218Y63330D01*
Y66741D01*
X125779Y67140D02*
X125819D01*
X126218Y66741D01*
X120313Y46884D02*
X122682D01*
X133477Y51562D02*
Y58022D01*
X141986Y75590D02*
Y77597D01*
Y75108D02*
Y75590D01*
X170180Y62230D02*
X170434Y61976D01*
X139319Y80264D02*
X141986Y77597D01*
X166055Y69409D02*
X166151D01*
X165955D02*
X166055D01*
X164592Y69977D02*
X165387D01*
X165955Y69409D01*
X155067Y69977D02*
X159893D01*
X151257Y68199D02*
X151511Y68453D01*
X151638D01*
X166151Y69409D02*
X166155D01*
X167513Y70766D01*
Y74549D01*
X167132Y74930D02*
X167513Y74549D01*
X166624Y65913D02*
Y68936D01*
X166151Y69409D02*
X166624Y68936D01*
X165166Y66102D02*
X165355Y65913D01*
X166624D01*
X148768Y71272D02*
X148895Y71399D01*
X148768Y69926D02*
X148895Y69799D01*
X148051Y71272D02*
X148768D01*
X158877Y51689D02*
X159512D01*
X160782Y49530D02*
Y50038D01*
X159385Y51435D02*
X160782Y50038D01*
X161925Y48387D02*
X162179Y48133D01*
X145974Y66878D02*
X146101Y66751D01*
Y66035D02*
Y66751D01*
X154305Y77851D02*
X154432D01*
X161915Y85334D01*
X162306Y85742D02*
Y86106D01*
X161915Y85334D02*
Y85351D01*
X162306Y85742D01*
X144374Y66878D02*
X144399Y66853D01*
X149225Y51435D02*
Y54991D01*
X143510Y66802D02*
X143586Y66878D01*
X156972Y54483D02*
X158623Y52832D01*
X156718Y53848D02*
X158877Y51689D01*
X159385Y51435D02*
X159512Y51562D01*
Y51689D01*
X155067Y53213D02*
X156845Y51435D01*
Y48387D02*
Y51435D01*
X159385Y48387D02*
Y51435D01*
Y48387D02*
X159639Y48133D01*
X154559D02*
Y51181D01*
X156845Y48387D02*
X157099Y48133D01*
X149225Y51435D02*
X149479Y51181D01*
Y48133D02*
Y51181D01*
X152019Y48133D02*
Y51181D01*
X148895Y68199D02*
X151257D01*
X156845Y83312D02*
X159639Y86106D01*
X159766D01*
X152908Y77724D02*
X156845Y81661D01*
Y83312D01*
X139319Y73660D02*
X139383Y73724D01*
X96393Y67713D02*
Y74146D01*
X96523Y74276D02*
X97747D01*
X96393Y74146D02*
X96523Y74276D01*
X96393Y67713D02*
X96923Y67183D01*
X94234Y58674D02*
X94291Y58617D01*
X93153Y59655D02*
Y67401D01*
X94779Y69026D01*
X94134Y58674D02*
X94234D01*
X93153Y59655D02*
X94134Y58674D01*
X130429Y50690D02*
X130937Y51198D01*
X130429Y48133D02*
Y50690D01*
X130937Y51198D02*
Y51562D01*
X128397Y51198D02*
Y51562D01*
X127889Y50690D02*
X128397Y51198D01*
X115570Y45884D02*
Y46884D01*
Y45884D02*
X117258Y44196D01*
X140602Y73724D02*
X140665Y73787D01*
X139383Y73724D02*
X140602D01*
X131953Y62611D02*
X132080D01*
X130587Y62649D02*
X131915D01*
X131953Y62611D01*
D23*
X113985Y78289D02*
D03*
Y76389D02*
D03*
X114043Y71817D02*
D03*
Y73717D02*
D03*
X121661Y81345D02*
D03*
Y79445D02*
D03*
Y71877D02*
D03*
Y69977D02*
D03*
Y76703D02*
D03*
Y74803D02*
D03*
X166055Y71309D02*
D03*
Y69409D02*
D03*
X121600Y62300D02*
D03*
Y64200D02*
D03*
X98168Y82612D02*
D03*
Y84512D02*
D03*
X121539Y58241D02*
D03*
Y60141D02*
D03*
X133542Y62800D02*
D03*
Y64700D02*
D03*
X98237Y89719D02*
D03*
Y87819D02*
D03*
X113985Y82861D02*
D03*
Y80961D02*
D03*
X163195Y69347D02*
D03*
Y71247D02*
D03*
X94234Y60574D02*
D03*
Y58674D02*
D03*
X97285Y60517D02*
D03*
Y58617D02*
D03*
D24*
X148895Y68199D02*
D03*
Y68986D02*
D03*
Y69799D02*
D03*
Y70587D02*
D03*
Y71399D02*
D03*
Y72187D02*
D03*
Y73000D02*
D03*
Y73787D02*
D03*
X140665D02*
D03*
Y73000D02*
D03*
Y72187D02*
D03*
Y71399D02*
D03*
Y70587D02*
D03*
Y69799D02*
D03*
Y68986D02*
D03*
Y68199D02*
D03*
D25*
X147574Y75108D02*
D03*
X146787D02*
D03*
X145974D02*
D03*
X145186D02*
D03*
X144374D02*
D03*
X143586D02*
D03*
X142773D02*
D03*
X141986D02*
D03*
Y66878D02*
D03*
X142773D02*
D03*
X143586D02*
D03*
X144374D02*
D03*
X145186D02*
D03*
X145974D02*
D03*
X146787D02*
D03*
X147574D02*
D03*
D26*
X158115Y66489D02*
D03*
Y74989D02*
D03*
D27*
X163266Y66102D02*
D03*
X165166D02*
D03*
X116651Y64767D02*
D03*
X114751D02*
D03*
X104845Y64513D02*
D03*
X106745D02*
D03*
X110814Y92326D02*
D03*
X112714D02*
D03*
X106877D02*
D03*
X108777D02*
D03*
X102474Y92344D02*
D03*
X104374D02*
D03*
X118929Y84077D02*
D03*
X117029D02*
D03*
X165166Y74738D02*
D03*
X163266D02*
D03*
D28*
X122682Y52684D02*
D03*
Y46884D02*
D03*
X115570D02*
D03*
Y52684D02*
D03*
D29*
X103911Y67183D02*
D03*
X107823D02*
D03*
D30*
X97747Y74276D02*
D03*
Y73626D02*
D03*
Y72976D02*
D03*
Y72326D02*
D03*
Y71706D02*
D03*
D31*
X94779Y76926D02*
D03*
Y69026D02*
D03*
D32*
X110363Y75796D02*
D03*
X109093D02*
D03*
X107823D02*
D03*
X106553D02*
D03*
X105283D02*
D03*
X104013D02*
D03*
X102743D02*
D03*
X101473D02*
D03*
X101473Y82296D02*
D03*
X102743D02*
D03*
X104013D02*
D03*
X105283D02*
D03*
X106553D02*
D03*
X107823D02*
D03*
X109093D02*
D03*
D33*
X110363D02*
D03*
D34*
X103446Y88265D02*
D03*
X111946D02*
D03*
D35*
X94056Y90357D02*
D03*
Y83357D02*
D03*
D36*
X102764Y61990D02*
D03*
Y59690D02*
D03*
Y57390D02*
D03*
X112797Y62117D02*
D03*
Y59817D02*
D03*
Y57517D02*
D03*
D37*
X108564Y59690D02*
D03*
X118597Y59817D02*
D03*
D38*
X125195Y60325D02*
D03*
Y59055D02*
D03*
Y57785D02*
D03*
Y56515D02*
D03*
X130075Y60325D02*
D03*
Y59055D02*
D03*
Y57785D02*
D03*
Y56515D02*
D03*
D39*
X109601Y47784D02*
D03*
Y51784D02*
D03*
D40*
X130587Y62649D02*
D03*
Y63919D02*
D03*
Y65189D02*
D03*
Y66459D02*
D03*
X124937Y62649D02*
D03*
Y63919D02*
D03*
Y65189D02*
D03*
Y66459D02*
D03*
D41*
X133477Y60308D02*
D03*
Y58022D02*
D03*
D71*
X130075Y57785D02*
Y59055D01*
Y60325D01*
Y56515D02*
Y57785D01*
X115570Y46884D02*
Y47292D01*
X109601Y47784D02*
X115078D01*
X115570Y47292D01*
X105537Y52070D02*
X105823Y51784D01*
X109601D01*
D72*
X102997Y46990D02*
D03*
D73*
X99187Y52070D02*
D03*
X105537D02*
D03*
D74*
X161925Y51435D02*
D03*
X123567Y86106D02*
D03*
X149606D02*
D03*
X170434Y61976D02*
D03*
X146177Y51562D02*
D03*
D75*
X159385Y51435D02*
D03*
X156845D02*
D03*
X154305D02*
D03*
X151765D02*
D03*
X149225D02*
D03*
X128647Y86106D02*
D03*
X146427D02*
D03*
X143887D02*
D03*
X141347D02*
D03*
X138807D02*
D03*
X136267D02*
D03*
X133727D02*
D03*
X131187D02*
D03*
X126107D02*
D03*
X152146D02*
D03*
X154686D02*
D03*
X157226D02*
D03*
X159766D02*
D03*
X162306D02*
D03*
X164846D02*
D03*
X167386D02*
D03*
X165354Y61976D02*
D03*
X167894D02*
D03*
X165354Y59436D02*
D03*
X167894D02*
D03*
X170434D02*
D03*
X128397Y51562D02*
D03*
X130937D02*
D03*
X133477D02*
D03*
X136017D02*
D03*
X138557D02*
D03*
X141097D02*
D03*
X143637D02*
D03*
D76*
X162179Y48133D02*
D03*
X167890Y91313D02*
D03*
X146431D02*
D03*
X145669Y48133D02*
D03*
X109474Y70485D02*
D03*
D77*
X159639Y48133D02*
D03*
X157099D02*
D03*
X154559D02*
D03*
X152019D02*
D03*
X149479D02*
D03*
X165350Y91313D02*
D03*
X162810D02*
D03*
X160270D02*
D03*
X157730D02*
D03*
X155190D02*
D03*
X152650D02*
D03*
X150110D02*
D03*
X143891D02*
D03*
X138811D02*
D03*
X136271D02*
D03*
X133731D02*
D03*
X131191D02*
D03*
X128651D02*
D03*
X126111D02*
D03*
X123571D02*
D03*
X141351D02*
D03*
X171958Y50292D02*
D03*
Y52832D02*
D03*
Y55372D02*
D03*
X168783D02*
D03*
Y52832D02*
D03*
Y50292D02*
D03*
X165481Y55372D02*
D03*
Y52832D02*
D03*
Y50292D02*
D03*
X143129Y48133D02*
D03*
X140589D02*
D03*
X138049D02*
D03*
X135509D02*
D03*
X132969D02*
D03*
X130429D02*
D03*
X127889D02*
D03*
X101854Y70485D02*
D03*
X104394D02*
D03*
X106934D02*
D03*
D78*
X117856Y78867D02*
D03*
Y74295D02*
D03*
Y69469D02*
D03*
D79*
Y81407D02*
D03*
Y76835D02*
D03*
Y72009D02*
D03*
D80*
X171958Y47752D02*
D03*
X168783D02*
D03*
X165481D02*
D03*
D81*
X171958Y84201D02*
D03*
X111887Y44831D02*
D03*
X120650Y91059D02*
D03*
D82*
X112649Y90805D02*
D03*
X114046Y84943D02*
D03*
X125349Y45466D02*
D03*
X122047Y55372D02*
D03*
X105454Y63329D02*
D03*
X115697Y78359D02*
D03*
X112014Y75819D02*
D03*
X123317Y56515D02*
D03*
Y66294D02*
D03*
X123952Y67437D02*
D03*
X108817Y80221D02*
D03*
X166055Y73472D02*
D03*
X150114Y76835D02*
D03*
X150241Y68961D02*
D03*
X138430Y67691D02*
D03*
X115575Y63647D02*
D03*
X116337Y59817D02*
D03*
X102870Y60833D02*
D03*
X116064Y82857D02*
D03*
X118597Y49792D02*
D03*
X114427Y59817D02*
D03*
X112776Y55274D02*
D03*
X112714Y63319D02*
D03*
X100584Y72390D02*
D03*
X104394Y86106D02*
D03*
X116396Y72009D02*
D03*
X100584Y80010D02*
D03*
X99060Y85979D02*
D03*
X108585Y90805D02*
D03*
X125857Y53975D02*
D03*
X127127Y59182D02*
D03*
X106553Y60960D02*
D03*
X141986Y73152D02*
D03*
X144018Y73025D02*
D03*
X138430Y72898D02*
D03*
X116078Y93980D02*
D03*
X134874Y72898D02*
D03*
Y75502D02*
D03*
X161544Y77343D02*
D03*
X155829Y65786D02*
D03*
X152273Y67564D02*
D03*
X151638Y68453D02*
D03*
X151130Y69850D02*
D03*
X145161Y68326D02*
D03*
X137414Y77470D02*
D03*
X138176Y46355D02*
D03*
X142748Y72136D02*
D03*
X95631Y88773D02*
D03*
X124079Y70612D02*
D03*
X110490Y58674D02*
D03*
X111506Y56261D02*
D03*
X119507Y56388D02*
D03*
X139319Y80264D02*
D03*
X164592Y69977D02*
D03*
X159893D02*
D03*
X155067D02*
D03*
X166624Y65913D02*
D03*
X154305Y77851D02*
D03*
X152908Y72009D02*
D03*
X151638D02*
D03*
X152908Y77724D02*
D03*
X139319Y73660D02*
D03*
X132080Y62611D02*
D03*
M02*
