G04*
G04 #@! TF.GenerationSoftware,Altium Limited,Altium Designer,21.2.1 (34)*
G04*
G04 Layer_Color=16711935*
%FSLAX43Y43*%
%MOMM*%
G71*
G04*
G04 #@! TF.SameCoordinates,427E456E-B420-4228-82AE-AA47295AEFF1*
G04*
G04*
G04 #@! TF.FilePolarity,Negative*
G04*
G01*
G75*
%ADD61R,4.267X2.743*%
%ADD62R,2.743X4.267*%
%ADD63R,1.803X1.803*%
%ADD64C,1.803*%
%ADD65R,1.723X1.723*%
%ADD66C,1.723*%
%ADD67P,2.007X8X112.5*%
%ADD68C,1.854*%
%ADD69R,1.723X1.723*%
%ADD70C,1.727*%
D61*
X102997Y46990D02*
D03*
D62*
X99187Y52070D02*
D03*
X105537D02*
D03*
D63*
X161925Y51435D02*
D03*
X123567Y86106D02*
D03*
X149606D02*
D03*
X170434Y61976D02*
D03*
X146177Y51562D02*
D03*
D64*
X159385Y51435D02*
D03*
X156845D02*
D03*
X154305D02*
D03*
X151765D02*
D03*
X149225D02*
D03*
X128647Y86106D02*
D03*
X146427D02*
D03*
X143887D02*
D03*
X141347D02*
D03*
X138807D02*
D03*
X136267D02*
D03*
X133727D02*
D03*
X131187D02*
D03*
X126107D02*
D03*
X152146D02*
D03*
X154686D02*
D03*
X157226D02*
D03*
X159766D02*
D03*
X162306D02*
D03*
X164846D02*
D03*
X167386D02*
D03*
X165354Y61976D02*
D03*
X167894D02*
D03*
X165354Y59436D02*
D03*
X167894D02*
D03*
X170434D02*
D03*
X128397Y51562D02*
D03*
X130937D02*
D03*
X133477D02*
D03*
X136017D02*
D03*
X138557D02*
D03*
X141097D02*
D03*
X143637D02*
D03*
D65*
X162179Y48133D02*
D03*
X167890Y91313D02*
D03*
X146431D02*
D03*
X145669Y48133D02*
D03*
X109474Y70485D02*
D03*
D66*
X159639Y48133D02*
D03*
X157099D02*
D03*
X154559D02*
D03*
X152019D02*
D03*
X149479D02*
D03*
X165350Y91313D02*
D03*
X162810D02*
D03*
X160270D02*
D03*
X157730D02*
D03*
X155190D02*
D03*
X152650D02*
D03*
X150110D02*
D03*
X143891D02*
D03*
X138811D02*
D03*
X136271D02*
D03*
X133731D02*
D03*
X131191D02*
D03*
X128651D02*
D03*
X126111D02*
D03*
X123571D02*
D03*
X141351D02*
D03*
X171958Y50292D02*
D03*
Y52832D02*
D03*
Y55372D02*
D03*
X168783D02*
D03*
Y52832D02*
D03*
Y50292D02*
D03*
X165481Y55372D02*
D03*
Y52832D02*
D03*
Y50292D02*
D03*
X143129Y48133D02*
D03*
X140589D02*
D03*
X138049D02*
D03*
X135509D02*
D03*
X132969D02*
D03*
X130429D02*
D03*
X127889D02*
D03*
X101854Y70485D02*
D03*
X104394D02*
D03*
X106934D02*
D03*
D67*
X117856Y78867D02*
D03*
Y74295D02*
D03*
Y69469D02*
D03*
D68*
Y81407D02*
D03*
Y76835D02*
D03*
Y72009D02*
D03*
D69*
X171958Y47752D02*
D03*
X168783D02*
D03*
X165481D02*
D03*
D70*
X171958Y84201D02*
D03*
X111887Y44831D02*
D03*
X120650Y91059D02*
D03*
M02*
