M48
;Layer_Color=9474304
;FILE_FORMAT=4:3
METRIC,LZ
;TYPE=PLATED
T1F00S00C0.381
T2F00S00C0.762
T3F00S00C1.016
T4F00S00C1.020
T5F00S00C1.100
%
T01
X0159893Y0069977
X0164592
X0166055Y0073472
X0166624Y0065913
X0161544Y0077343
X0154305Y0077851
X0152908Y0077724
X0150114Y0076835
X0151638Y0072009
X0152908
X015113Y006985
X0150241Y0068961
X0151638Y0068453
X0152273Y0067564
X0155067Y0069977
X0155829Y0065786
X0145161Y0068326
X0144018Y0073025
X0141986Y0073152
X0142748Y0072136
X0139319Y007366
X013843Y0072898
X0134874
Y0075502
X0137414Y007747
X013843Y0067691
X013208Y0062611
X0127127Y0059182
X0123317Y0056515
X0122047Y0055372
X0119507Y0056388
X0125857Y0053975
X0125349Y0045466
X0138176Y0046355
X0123317Y0066294
X0123952Y0067437
X0124079Y0070612
X0116396Y0072009
X0115697Y0078359
X0112014Y0075819
X0112714Y0063319
X0115575Y0063647
X0116337Y0059817
X0114427
X011049Y0058674
X0111506Y0056261
X0112776Y0055274
X0118597Y0049792
X0106553Y006096
X0105454Y0063329
X010287Y0060833
X0100584Y007239
X0100584Y008001
X009906Y0085979
X0104394Y0086106
X0108585Y0090805
X0112649
X0116078Y009398
X0114046Y0084943
X0116064Y0082857
X0108817Y0080221
X0095631Y0088773
X0139319Y0080264
T02
X0111887Y0044831
X012065Y0091059
X0171958Y0084201
T03
X0117856Y0069469
Y0072009
Y0074295
Y0076835
Y0078867
Y0081407
T04
X0159639Y0048133
X0162179
X0165481Y0047752
Y0050292
Y0052832
Y0055372
X0168783
Y0052832
Y0050292
Y0047752
X0171958
Y0050292
Y0052832
Y0055372
X0157099Y0048133
X0154559
X0152019
X0149479
X0145669
X0143129
X0140589
X0138049
X0135509
X0132969
X0130429
X0127889
X0109474Y0070485
X0106934
X0104394
X0101854
X0123571Y0091313
X0126111
X0128651
X0131191
X0133731
X0136271
X0138811
X0141351
X0143891
X0146431
X015011
X015265
X015519
X015773
X016027
X016281
X016535
X016789
T05
X0159385Y0051435
X0161925
X0165354Y0059436
Y0061976
X0167894
X0170434
Y0059436
X0167894
X0156845Y0051435
X0154305
X0151765
X0149225
X0146177Y0051562
X0143637
X0141097
X0138557
X0136017
X0133477
X0130937
X0128397
X0128647Y0086106
X0131187
X0133727
X0136267
X0138807
X0141347
X0143887
X0146427
X0149606
X0152146
X0154686
X0157226
X0126107
X0123567
X0159766
X0162306
X0164846
X0167386
M30
