G04*
G04 #@! TF.GenerationSoftware,Altium Limited,Altium Designer,21.2.1 (34)*
G04*
G04 Layer_Color=32768*
%FSLAX43Y43*%
%MOMM*%
G71*
G04*
G04 #@! TF.SameCoordinates,427E456E-B420-4228-82AE-AA47295AEFF1*
G04*
G04*
G04 #@! TF.FilePolarity,Positive*
G04*
G01*
G75*
%ADD14C,0.127*%
%ADD83C,0.050*%
%ADD84C,0.100*%
%ADD87C,0.508*%
G36*
X125203Y59891D02*
X125103D01*
Y60528D01*
X125102Y60527D01*
X125097Y60522D01*
X125088Y60516D01*
X125077Y60507D01*
X125063Y60496D01*
X125047Y60485D01*
X125028Y60471D01*
X125007Y60459D01*
X125006D01*
X125005Y60457D01*
X124997Y60452D01*
X124986Y60446D01*
X124973Y60439D01*
X124957Y60430D01*
X124939Y60423D01*
X124921Y60414D01*
X124903Y60407D01*
Y60504D01*
X124905D01*
X124907Y60506D01*
X124912Y60508D01*
X124917Y60512D01*
X124924Y60516D01*
X124933Y60519D01*
X124953Y60530D01*
X124975Y60544D01*
X125000Y60560D01*
X125025Y60579D01*
X125048Y60599D01*
X125050Y60600D01*
X125051Y60601D01*
X125058Y60609D01*
X125069Y60620D01*
X125083Y60633D01*
X125098Y60651D01*
X125113Y60669D01*
X125126Y60689D01*
X125138Y60709D01*
X125203D01*
Y59891D01*
D02*
G37*
G36*
X124350Y60718D02*
X124360D01*
X124373Y60716D01*
X124385Y60714D01*
X124400Y60713D01*
X124431Y60705D01*
X124466Y60695D01*
X124500Y60683D01*
X124518Y60674D01*
X124535Y60664D01*
X124536D01*
X124539Y60662D01*
X124544Y60659D01*
X124550Y60654D01*
X124557Y60649D01*
X124566Y60642D01*
X124586Y60626D01*
X124608Y60605D01*
X124632Y60579D01*
X124653Y60549D01*
X124673Y60514D01*
Y60513D01*
X124675Y60511D01*
X124678Y60504D01*
X124680Y60497D01*
X124684Y60488D01*
X124688Y60478D01*
X124693Y60466D01*
X124698Y60451D01*
X124701Y60436D01*
X124706Y60419D01*
X124714Y60383D01*
X124719Y60342D01*
X124721Y60297D01*
Y60296D01*
Y60293D01*
Y60288D01*
Y60280D01*
X124720Y60271D01*
Y60262D01*
X124719Y60250D01*
X124717Y60237D01*
X124714Y60209D01*
X124707Y60178D01*
X124700Y60147D01*
X124690Y60117D01*
Y60115D01*
X124689Y60113D01*
X124686Y60109D01*
X124684Y60103D01*
X124681Y60097D01*
X124676Y60088D01*
X124667Y60069D01*
X124654Y60048D01*
X124638Y60025D01*
X124619Y60001D01*
X124597Y59978D01*
X124598D01*
X124601Y59975D01*
X124605Y59973D01*
X124609Y59969D01*
X124617Y59965D01*
X124624Y59960D01*
X124643Y59949D01*
X124664Y59937D01*
X124688Y59924D01*
X124712Y59912D01*
X124737Y59902D01*
X124704Y59829D01*
X124702D01*
X124700Y59830D01*
X124695Y59833D01*
X124689Y59835D01*
X124681Y59838D01*
X124671Y59843D01*
X124662Y59848D01*
X124649Y59852D01*
X124623Y59866D01*
X124593Y59883D01*
X124561Y59903D01*
X124529Y59927D01*
X124528D01*
X124525Y59924D01*
X124520Y59922D01*
X124513Y59919D01*
X124504Y59916D01*
X124494Y59911D01*
X124483Y59907D01*
X124471Y59902D01*
X124456Y59897D01*
X124441Y59893D01*
X124406Y59885D01*
X124369Y59880D01*
X124329Y59877D01*
X124318D01*
X124311Y59879D01*
X124301D01*
X124290Y59880D01*
X124277Y59882D01*
X124264Y59883D01*
X124233Y59890D01*
X124199Y59900D01*
X124165Y59912D01*
X124130Y59929D01*
X124129Y59931D01*
X124126Y59932D01*
X124121Y59936D01*
X124115Y59939D01*
X124107Y59944D01*
X124099Y59952D01*
X124079Y59968D01*
X124057Y59989D01*
X124034Y60015D01*
X124012Y60045D01*
X123992Y60079D01*
Y60081D01*
X123990Y60084D01*
X123987Y60089D01*
X123985Y60097D01*
X123981Y60105D01*
X123977Y60117D01*
X123972Y60129D01*
X123969Y60143D01*
X123964Y60159D01*
X123959Y60175D01*
X123951Y60212D01*
X123946Y60253D01*
X123944Y60297D01*
Y60299D01*
Y60302D01*
Y60310D01*
X123945Y60317D01*
Y60328D01*
X123946Y60341D01*
X123948Y60354D01*
X123950Y60369D01*
X123956Y60404D01*
X123964Y60440D01*
X123976Y60478D01*
X123992Y60516D01*
Y60517D01*
X123995Y60521D01*
X123997Y60526D01*
X124001Y60532D01*
X124006Y60540D01*
X124012Y60550D01*
X124028Y60571D01*
X124048Y60596D01*
X124072Y60621D01*
X124099Y60646D01*
X124131Y60667D01*
X124132Y60668D01*
X124135Y60669D01*
X124140Y60672D01*
X124147Y60676D01*
X124156Y60679D01*
X124166Y60683D01*
X124177Y60688D01*
X124191Y60693D01*
X124204Y60698D01*
X124220Y60703D01*
X124254Y60710D01*
X124292Y60716D01*
X124332Y60719D01*
X124343D01*
X124350Y60718D01*
D02*
G37*
%LPC*%
G36*
X124333Y60626D02*
X124322D01*
X124313Y60625D01*
X124303Y60623D01*
X124291Y60621D01*
X124277Y60618D01*
X124264Y60616D01*
X124231Y60606D01*
X124215Y60599D01*
X124198Y60591D01*
X124182Y60581D01*
X124165Y60570D01*
X124148Y60558D01*
X124134Y60543D01*
X124132Y60542D01*
X124130Y60539D01*
X124126Y60534D01*
X124121Y60528D01*
X124115Y60519D01*
X124109Y60508D01*
X124101Y60496D01*
X124095Y60482D01*
X124088Y60465D01*
X124080Y60447D01*
X124074Y60426D01*
X124068Y60405D01*
X124063Y60381D01*
X124059Y60354D01*
X124057Y60327D01*
X124055Y60297D01*
Y60296D01*
Y60290D01*
Y60283D01*
X124057Y60271D01*
X124058Y60258D01*
X124059Y60243D01*
X124062Y60226D01*
X124065Y60207D01*
X124074Y60167D01*
X124081Y60147D01*
X124089Y60128D01*
X124098Y60107D01*
X124107Y60088D01*
X124120Y60069D01*
X124134Y60053D01*
X124135Y60052D01*
X124137Y60050D01*
X124141Y60046D01*
X124147Y60040D01*
X124156Y60033D01*
X124165Y60027D01*
X124176Y60019D01*
X124188Y60011D01*
X124202Y60004D01*
X124217Y59996D01*
X124233Y59989D01*
X124251Y59983D01*
X124270Y59976D01*
X124290Y59973D01*
X124311Y59970D01*
X124333Y59969D01*
X124343D01*
X124354Y59970D01*
X124368Y59971D01*
X124384Y59974D01*
X124402Y59978D01*
X124422Y59983D01*
X124441Y59990D01*
X124438Y59991D01*
X124432Y59995D01*
X124422Y60001D01*
X124409Y60009D01*
X124394Y60016D01*
X124375Y60024D01*
X124357Y60031D01*
X124336Y60037D01*
X124362Y60115D01*
X124363D01*
X124365Y60114D01*
X124370Y60113D01*
X124378Y60110D01*
X124385Y60108D01*
X124394Y60104D01*
X124416Y60095D01*
X124440Y60084D01*
X124466Y60072D01*
X124491Y60056D01*
X124514Y60037D01*
X124515Y60038D01*
X124518Y60041D01*
X124523Y60046D01*
X124529Y60053D01*
X124536Y60063D01*
X124544Y60074D01*
X124552Y60087D01*
X124562Y60103D01*
X124571Y60119D01*
X124580Y60139D01*
X124587Y60160D01*
X124595Y60183D01*
X124601Y60209D01*
X124606Y60237D01*
X124608Y60266D01*
X124609Y60297D01*
Y60299D01*
Y60302D01*
Y60307D01*
Y60314D01*
X124608Y60322D01*
Y60332D01*
X124606Y60356D01*
X124601Y60383D01*
X124596Y60411D01*
X124587Y60441D01*
X124576Y60470D01*
Y60471D01*
X124575Y60473D01*
X124572Y60477D01*
X124570Y60482D01*
X124562Y60496D01*
X124551Y60512D01*
X124538Y60530D01*
X124520Y60550D01*
X124500Y60569D01*
X124478Y60585D01*
X124477D01*
X124476Y60586D01*
X124472Y60589D01*
X124467Y60591D01*
X124453Y60597D01*
X124436Y60606D01*
X124415Y60614D01*
X124390Y60620D01*
X124363Y60625D01*
X124333Y60626D01*
D02*
G37*
%LPD*%
D14*
X155575Y63500D02*
Y77978D01*
X160655D01*
Y63500D02*
Y77978D01*
X155575Y63500D02*
X160655D01*
X114935Y85725D02*
Y90805D01*
X100457D02*
X114935D01*
X100457Y85725D02*
Y90805D01*
Y85725D02*
X114935D01*
D83*
X124135Y55720D02*
Y61120D01*
X131135Y55720D02*
Y61120D01*
X124135D02*
X131135D01*
X124135Y55720D02*
X131135D01*
X107851Y46228D02*
Y53340D01*
X111351Y46228D02*
Y53340D01*
X107851Y46228D02*
X111351D01*
X107851Y53340D02*
X111351D01*
X123825Y61704D02*
X131699D01*
X123825Y67404D02*
X131699D01*
Y61704D02*
Y67404D01*
X123825Y61704D02*
Y67404D01*
D84*
X101314Y56090D02*
Y63290D01*
X110014Y56090D02*
Y63290D01*
X101314D02*
X110014D01*
X101314Y56090D02*
X110014D01*
X105164Y59690D02*
X106164D01*
X105664Y59190D02*
Y60190D01*
X111347Y56217D02*
Y63417D01*
X120047Y56217D02*
Y63417D01*
X111347D02*
X120047D01*
X111347Y56217D02*
X120047D01*
X115197Y59817D02*
X116197D01*
X115697Y59317D02*
Y60317D01*
X109101Y49784D02*
X110101D01*
X109601Y49284D02*
Y50284D01*
X127762Y64054D02*
Y65054D01*
X127262Y64554D02*
X128262D01*
D87*
X158115Y70739D02*
D03*
X107696Y88265D02*
D03*
M02*
